<svg id="Armfotinger" xmlns="http://www.w3.org/2000/svg" xmlns:xlink="http://www.w3.org/1999/xlink" viewBox="0 0 580.12 561.56"><defs><style>.cls-1{fill:#fff;}.cls-2{fill:#4c4a48;}.cls-3{mask:url(#mask);}</style><mask id="mask" x="-447.99" y="-261.11" width="1097.34" height="808.04" maskUnits="userSpaceOnUse"><path class="cls-1" d="M547.49,372.2a202.52,202.52,0,0,0-5-40.43c-6.44-27.94-9.81-56.44-14.46-84.69-3-18.4-6.2-37.19-15.15-53.54-9.68-17.66-25.42-31.18-41.85-42.82a451.68,451.68,0,0,0-51.63-31.1c-10.81-5.66-19-13.07-30.87-16.81a129.85,129.85,0,0,0-38.23-5.5c-19.38-.09-38.61,3.08-57.73,6.25-18.87,3.12-37.85,6.27-55.9,12.6a177.55,177.55,0,0,0-45.33,24c-12,8.68-25.05,16.27-35.45,26.83-12.82,13-22.07,23.28-27.7,41.15a138.67,138.67,0,0,0-5.44,53.23c3,35.14,17.41,69.35,36.33,98.23,21.53,32.86,52.75,59.12,87.56,77,62.84,32.24,137.13,47.58,206.15,60,13.43,2.41,27.39,4.57,40.59,1.11,17.74-4.66,31.69-19.16,39.5-35.76C545.1,435.92,548.2,400.56,547.49,372.2Z"/><path class="cls-2" d="M551.38,371.83a211.26,211.26,0,0,0-3.83-35.56c-2.36-11.85-5.07-23.61-7.1-35.53-3.94-23.18-6.74-46.55-11.16-69.64-2.07-10.86-4.74-21.7-9.22-31.84a96.2,96.2,0,0,0-17.15-26c-14.39-15.75-32.65-28-50.77-39-9.93-6.05-20.13-11.58-30.37-17.08-9.1-4.88-17.23-11.36-26.84-15.28-10.74-4.39-22.85-6.16-34.36-6.87a206.82,206.82,0,0,0-35.53,1.24C313,97.64,301,99.69,289,101.68c-11.78,2-23.57,4-35.16,6.88A186.92,186.92,0,0,0,192.55,136c-9,6.18-18.12,12.27-26.82,18.83a156.07,156.07,0,0,0-22.6,21.31,90.19,90.19,0,0,0-15.21,22.72,113.28,113.28,0,0,0-8.43,31.57c-5.81,44.53,10,89.44,33.44,126.73,21.69,34.42,53.2,61.9,89.16,80.67,39,20.35,81.42,33.62,124,43.89,21.43,5.15,43,9.54,64.68,13.59,11.06,2.07,22.15,4.37,33.32,5.78s23,1.46,33.82-2.34c39.66-13.89,50.06-61.07,52.76-98.12.7-9.58.89-19.19.66-28.79-.09-3.72-7.86-2.3-7.78.75.47,19.73-.73,39.66-4.77,59-3.82,18.3-10.26,36.91-23.77,50.38a50.32,50.32,0,0,1-21.69,13.15c-11,3-22.58,1.64-33.62-.19-21-3.47-41.92-7.59-62.72-12-41.91-8.94-83.69-20-123.13-37-18.71-8.06-36.88-17.38-53.59-29.1a225.71,225.71,0,0,1-43.64-39.92,230.55,230.55,0,0,1-32.48-52.23c-8.83-19.4-15.11-40.09-17.29-61.33a144.38,144.38,0,0,1,.43-34c1.41-10.58,3.89-21.31,8.44-31a87.66,87.66,0,0,1,15-21.68A147.08,147.08,0,0,1,172.5,156.5c8.59-6.32,17.46-12.38,26.28-18.36a173.18,173.18,0,0,1,27.9-15.42c20.8-9.09,43.21-12.94,65.46-16.62,23-3.81,46.31-7.74,69.65-5.65,10.71,1,22,2.88,31.71,7.69a141.35,141.35,0,0,1,13.1,7.76c4.33,2.76,8.76,5.24,13.29,7.65,19.45,10.35,38.56,21.68,56.06,35.09,16,12.29,30.28,27.12,37.84,46.15,4,10.08,6.39,20.72,8.33,31.36,2,11.16,3.73,22.38,5.42,33.59,1.75,11.58,3.47,23.16,5.46,34.7s4.72,23.11,7,34.7a203,203,0,0,1,3.63,33.44C543.7,376.29,551.46,374.87,551.38,371.83Z"/></mask></defs><path class="cls-2" d="M190.1,166.68a28.83,28.83,0,0,0-8.51-2.93,130.62,130.62,0,0,0-25.84-1.37c-17.3.54-29.51-.8-46.84-1.95C99.42,159.8,87.4,159,78,160.32c-20,2.91-37.08,22.47-44.09,40.48-7.16,18.4-5.88,39.68-1.19,58.52,2.28,9.16,6.4,17.25,9,26.28a174.32,174.32,0,0,0,11.57,29.76,387,387,0,0,0,44.53,69.51c35,43.35,80.46,78.68,132.23,99.31,53.7,21.4,112.39,26.59,170.17,28.33,30.75.92,62.74.67,90.5-12.58C512,489.79,530.51,469.88,535,446.27c5-26.42,9.7-50.47-.35-76.8-11.78-30.87-35.94-55.48-62.35-75.34-27.86-21-58.72-37.56-90.6-51.52-34.09-14.93-69.36-26.94-104.6-38.82-17.7-6-35.4-11.89-53-18.12-4.05-1.44-8.29-2.57-11.84-4.93-4-2.66-7.94-5.4-12-7.91C196.65,170.66,193.5,168.43,190.1,166.68Z"/><path class="cls-1" d="M547.49,372.2a202.52,202.52,0,0,0-5-40.43c-6.44-27.94-9.81-56.44-14.46-84.69-3-18.4-6.2-37.19-15.15-53.54-9.68-17.66-25.42-31.18-41.85-42.82a451.68,451.68,0,0,0-51.63-31.1c-10.81-5.66-19-13.07-30.87-16.81a129.85,129.85,0,0,0-38.23-5.5c-19.38-.09-38.61,3.08-57.73,6.25-18.87,3.12-37.85,6.27-55.9,12.6a177.55,177.55,0,0,0-45.33,24c-12,8.68-25.05,16.27-35.45,26.83-12.82,13-22.07,23.28-27.7,41.15a138.67,138.67,0,0,0-5.44,53.23c3,35.14,17.41,69.35,36.33,98.23,21.53,32.86,52.75,59.12,87.56,77,62.84,32.24,137.13,47.58,206.15,60,13.43,2.41,27.39,4.57,40.59,1.11,17.74-4.66,31.69-19.16,39.5-35.76C545.1,435.92,548.2,400.56,547.49,372.2Z"/><path class="cls-2" d="M551.35,371.17a206.65,206.65,0,0,0-4-35.69c-2.42-11.86-5.06-23.62-7.08-35.56-3.92-23.15-6.69-46.51-11.16-69.57-2.1-10.85-4.83-21.67-9.39-31.78a95.35,95.35,0,0,0-17.22-25.45c-14.53-15.71-32.91-27.85-51.11-38.86-9.92-6-20.17-11.32-30.29-16.95-9-5-17.12-11.53-26.86-15.06-22-8-46.68-7.34-69.59-4.66-12.11,1.42-24.13,3.48-36.15,5.48-11.78,2-23.55,4.07-35.14,7a189.89,189.89,0,0,0-61.21,27.37c-9,6.16-18.12,12.29-26.85,18.81a154.09,154.09,0,0,0-22.41,21.07,88.21,88.21,0,0,0-15.16,22.55c-4.39,9.82-6.87,20.59-8.25,31.22-5.81,44.54,10.21,89.57,33.9,126.73,21.79,34.17,53.35,61.35,89.26,79.85,39.06,20.11,81.42,33.25,124,43.43,21.42,5.12,43,9.48,64.66,13.51,21.95,4.09,45.41,10.29,67.25,2.53C538,483.14,548,436.85,550.69,400c.7-9.58.89-19.19.66-28.79,0-1.05-7.77.06-7.72,2.07.47,19.84-.72,39.93-4.85,59.38-3.9,18.33-10.48,37.13-24,50.63-6,6-13.36,11.15-21.66,13.33-11,2.88-22.94,1-34-.93q-31.45-5.44-62.7-12.11c-42-9-83.81-20.29-123.29-37.47-18.66-8.12-36.74-17.51-53.35-29.31a226.56,226.56,0,0,1-43.72-40.4,233.59,233.59,0,0,1-32.21-52.44c-8.77-19.42-15-40.14-17.06-61.39-2.13-21.7-.25-45.31,9.09-65.29A89.55,89.55,0,0,1,151,175.39a149.66,149.66,0,0,1,21.93-20.32c8.59-6.36,17.49-12.42,26.33-18.43a173.28,173.28,0,0,1,28-15.53c20.76-9.07,43.18-12.73,65.39-16.4,23-3.81,46.43-7.65,69.79-5.15,10.83,1.16,22,3.34,31.7,8.41,4.5,2.35,8.74,5.17,13,7.88s8.93,5.2,13.51,7.65c19.37,10.36,38.41,21.72,55.78,35.2,16.13,12.53,30.13,27.51,37.63,46.79,3.93,10.11,6.27,20.76,8.19,31.41,2,11.18,3.71,22.43,5.41,33.66,1.74,11.58,3.47,23.16,5.47,34.69s4.78,23.1,7,34.69a208,208,0,0,1,3.5,33.3C543.65,374.29,551.41,373.17,551.35,371.17Z"/><path class="cls-2" d="M547.49,372.2a202.52,202.52,0,0,0-5-40.43c-6.44-27.94-9.81-56.44-14.46-84.69-3-18.4-6.2-37.19-15.15-53.54-9.68-17.66-25.42-31.18-41.85-42.82a451.68,451.68,0,0,0-51.63-31.1c-10.81-5.66-19-13.07-30.87-16.81a129.85,129.85,0,0,0-38.23-5.5c-19.38-.09-38.61,3.08-57.73,6.25-18.87,3.12-37.85,6.27-55.9,12.6a177.55,177.55,0,0,0-45.33,24c-12,8.68-25.05,16.27-35.45,26.83-12.82,13-22.07,23.28-27.7,41.15a138.67,138.67,0,0,0-5.44,53.23c3,35.14,17.41,69.35,36.33,98.23,21.53,32.86,52.75,59.12,87.56,77,62.84,32.24,137.13,47.58,206.15,60,13.43,2.41,27.39,4.57,40.59,1.11,17.74-4.66,31.69-19.16,39.5-35.76C545.1,435.92,548.2,400.56,547.49,372.2Z"/><path class="cls-1" d="M551.35,371.17a206.65,206.65,0,0,0-4-35.69c-2.42-11.86-5.06-23.62-7.08-35.56-3.92-23.15-6.69-46.51-11.16-69.57-2.1-10.85-4.83-21.67-9.39-31.78a96.48,96.48,0,0,0-17.3-25.74C488,157.16,469.64,145,451.5,134c-9.92-6-20.15-11.45-30.33-17-9-4.93-17.14-11.45-26.81-15.16-10.92-4.19-22.91-6-34.54-6.61a209.89,209.89,0,0,0-35.53,1.4c-12.07,1.38-24.06,3.43-36,5.43-11.78,2-23.56,4-35.15,6.94A186.91,186.91,0,0,0,192,136.6c-8.95,6.23-18.12,12.26-26.79,18.86a154.26,154.26,0,0,0-22.43,21.3,88.92,88.92,0,0,0-15.08,22.8,114.81,114.81,0,0,0-8.28,31.72c-5.54,44.51,10.35,89.25,33.91,126.43,21.76,34.34,53.39,61.67,89.36,80.32,39.06,20.25,81.51,33.47,124.17,43.7,21.42,5.14,43,9.51,64.68,13.55,11.07,2.07,22.18,4.37,33.37,5.71,11.44,1.38,23.08,1.11,34-2.82,39.22-14.09,49.27-61.65,51.85-98.31.67-9.55.82-19.12.59-28.69-.06-2.71-7.8-1.13-7.72,2.07.47,19.75-.81,39.74-4.93,59.09-3.88,18.28-10.41,36.89-24.06,50.23a49.73,49.73,0,0,1-21.83,12.93c-11,2.9-22.7,1.36-33.73-.52q-31.49-5.39-62.75-12.09c-41.92-9-83.67-20.14-123.09-37.21-18.68-8.09-36.81-17.43-53.46-29.2a225.2,225.2,0,0,1-43.54-40.1,231,231,0,0,1-32.36-52.45c-8.77-19.42-15-40.14-17.06-61.39a144.7,144.7,0,0,1,.6-34.11c1.47-10.52,4-21.23,8.59-30.86a89.46,89.46,0,0,1,15.14-21.62,147.7,147.7,0,0,1,21.9-20.07c8.62-6.28,17.46-12.4,26.31-18.35a174.78,174.78,0,0,1,28-15.32c20.86-9,43.31-12.77,65.59-16.45,23-3.8,46.29-7.64,69.64-5.41,10.71,1,21.89,3.09,31.55,8,4.53,2.3,8.77,5.11,13.06,7.83s8.85,5.22,13.4,7.65c19.41,10.35,38.55,21.67,56,35.17,16,12.43,30.1,27.35,37.55,46.5,3.93,10.11,6.27,20.76,8.19,31.41,2,11.18,3.71,22.43,5.41,33.66,1.74,11.58,3.47,23.16,5.47,34.69s4.78,23.1,7,34.69a208,208,0,0,1,3.5,33.3C543.7,376,551.44,374.36,551.35,371.17Z"/><g class="cls-3"><path class="cls-1" d="M73,129.85a13.55,13.55,0,0,0-.37,9.47,25.72,25.72,0,0,0,4.73,8.39,46.44,46.44,0,0,0,34,15.67,25.2,25.2,0,0,0,9.32-1.74,11.88,11.88,0,0,0,7.19-15.27,25.14,25.14,0,0,0-4.6-8.29,46.46,46.46,0,0,0-33.77-16.25,25.73,25.73,0,0,0-9.47,1.7A13.58,13.58,0,0,0,73,129.85Zm0,0a13.57,13.57,0,0,1,7-6.39,25.71,25.71,0,0,1,9.5-1.77A44.81,44.81,0,0,1,108.38,126,44.61,44.61,0,0,1,124,137.54a26.25,26.25,0,0,1,4.83,8.56,12.65,12.65,0,0,1-7.72,16.4,26.33,26.33,0,0,1-9.67,1.73A46.92,46.92,0,0,1,77.24,147.8a25.75,25.75,0,0,1-4.69-8.46A13.6,13.6,0,0,1,73,129.85Z"/><path class="cls-1" d="M73,129.85a13.55,13.55,0,0,0-.37,9.47,25.72,25.72,0,0,0,4.73,8.39,46.44,46.44,0,0,0,34,15.67,25.2,25.2,0,0,0,9.32-1.74,11.88,11.88,0,0,0,7.19-15.27,25.14,25.14,0,0,0-4.6-8.29,46.46,46.46,0,0,0-33.77-16.25,25.73,25.73,0,0,0-9.47,1.7A13.58,13.58,0,0,0,73,129.85Zm0,0a13.57,13.57,0,0,1,7-6.39,25.71,25.71,0,0,1,9.5-1.77A44.81,44.81,0,0,1,108.38,126,44.61,44.61,0,0,1,124,137.54a26.25,26.25,0,0,1,4.83,8.56,12.65,12.65,0,0,1-7.72,16.4,26.33,26.33,0,0,1-9.67,1.73A46.92,46.92,0,0,1,77.24,147.8a25.75,25.75,0,0,1-4.69-8.46A13.6,13.6,0,0,1,73,129.85Z"/><path class="cls-1" d="M73,129.85a13.55,13.55,0,0,0-.37,9.47,25.72,25.72,0,0,0,4.73,8.39,46.44,46.44,0,0,0,34,15.67,25.2,25.2,0,0,0,9.32-1.74,11.88,11.88,0,0,0,7.19-15.27,25.14,25.14,0,0,0-4.6-8.29,46.46,46.46,0,0,0-33.77-16.25,25.73,25.73,0,0,0-9.47,1.7A13.58,13.58,0,0,0,73,129.85Zm0,0a13.57,13.57,0,0,1,7-6.39,25.71,25.71,0,0,1,9.5-1.77A44.81,44.81,0,0,1,108.38,126,44.61,44.61,0,0,1,124,137.54a26.25,26.25,0,0,1,4.83,8.56,12.65,12.65,0,0,1-7.72,16.4,26.33,26.33,0,0,1-9.67,1.73A46.92,46.92,0,0,1,77.24,147.8a25.75,25.75,0,0,1-4.69-8.46A13.6,13.6,0,0,1,73,129.85Z"/><path class="cls-1" d="M73,129.85a13.55,13.55,0,0,0-.37,9.47,25.72,25.72,0,0,0,4.73,8.39,46.44,46.44,0,0,0,34,15.67,25.2,25.2,0,0,0,9.32-1.74,11.88,11.88,0,0,0,7.19-15.27,25.14,25.14,0,0,0-4.6-8.29,46.46,46.46,0,0,0-33.77-16.25,25.73,25.73,0,0,0-9.47,1.7A13.58,13.58,0,0,0,73,129.85Zm0,0a13.57,13.57,0,0,1,7-6.39,25.71,25.71,0,0,1,9.5-1.77A44.81,44.81,0,0,1,108.38,126,44.61,44.61,0,0,1,124,137.54a26.25,26.25,0,0,1,4.83,8.56,12.65,12.65,0,0,1-7.72,16.4,26.33,26.33,0,0,1-9.67,1.73A46.92,46.92,0,0,1,77.24,147.8a25.75,25.75,0,0,1-4.69-8.46A13.6,13.6,0,0,1,73,129.85Z"/><path class="cls-1" d="M70.24,128.55A15,15,0,0,0,69.83,139,28.18,28.18,0,0,0,75,148.2a51,51,0,0,0,37.45,17.28,27.72,27.72,0,0,0,10.26-1.91,13.1,13.1,0,0,0,7.94-16.86,27.86,27.86,0,0,0-5.07-9.12,51.1,51.1,0,0,0-37.18-17.86A28.18,28.18,0,0,0,78,121.6,15,15,0,0,0,70.24,128.55Zm0,0a15,15,0,0,1,7.75-7,28.24,28.24,0,0,1,10.45-1.94,49.35,49.35,0,0,1,20.72,4.72,48.9,48.9,0,0,1,17.12,12.74,28.66,28.66,0,0,1,5.29,9.39,13.85,13.85,0,0,1-8.46,18,28.63,28.63,0,0,1-10.62,1.91,51.52,51.52,0,0,1-37.56-18A28.22,28.22,0,0,1,69.76,139,15,15,0,0,1,70.24,128.55Z"/><path class="cls-1" d="M70.24,128.55A15,15,0,0,0,69.83,139,28.18,28.18,0,0,0,75,148.2a51,51,0,0,0,37.45,17.28,27.72,27.72,0,0,0,10.26-1.91,13.1,13.1,0,0,0,7.94-16.86,27.86,27.86,0,0,0-5.07-9.12,51.1,51.1,0,0,0-37.18-17.86A28.18,28.18,0,0,0,78,121.6,15,15,0,0,0,70.24,128.55Zm0,0a15,15,0,0,1,7.75-7,28.24,28.24,0,0,1,10.45-1.94,49.35,49.35,0,0,1,20.72,4.72,48.9,48.9,0,0,1,17.12,12.74,28.66,28.66,0,0,1,5.29,9.39,13.85,13.85,0,0,1-8.46,18,28.63,28.63,0,0,1-10.62,1.91,51.52,51.52,0,0,1-37.56-18A28.22,28.22,0,0,1,69.76,139,15,15,0,0,1,70.24,128.55Z"/><path class="cls-1" d="M67.22,127.13a14.5,14.5,0,0,0-1.3,5.68,18.87,18.87,0,0,0,.85,5.78,30.38,30.38,0,0,0,5.71,10.16,45.89,45.89,0,0,0,8.56,8,59.51,59.51,0,0,0,10.08,5.91,53.38,53.38,0,0,0,22.57,5.17A30.2,30.2,0,0,0,125,165.69a18.4,18.4,0,0,0,4.86-3,13.56,13.56,0,0,0,4.69-10,18.43,18.43,0,0,0-.8-5.65A30.35,30.35,0,0,0,128.18,137a53.6,53.6,0,0,0-18.37-14.09,58.76,58.76,0,0,0-11-4,46.72,46.72,0,0,0-11.59-1.52,30.58,30.58,0,0,0-11.47,2.07,19.15,19.15,0,0,0-5,3A14.44,14.44,0,0,0,67.22,127.13Zm0,0a14.46,14.46,0,0,1,3.53-4.65,19.06,19.06,0,0,1,5-3.07,30.77,30.77,0,0,1,11.5-2.15A54.12,54.12,0,0,1,110,122.48a60.28,60.28,0,0,1,10.17,6,47.48,47.48,0,0,1,8.65,8.05,31.18,31.18,0,0,1,5.8,10.33,19.25,19.25,0,0,1,.87,5.94,14.16,14.16,0,0,1-5,10.67,19.86,19.86,0,0,1-5.13,3.12,31.3,31.3,0,0,1-11.66,2.11A47.57,47.57,0,0,1,102,167.12a59.45,59.45,0,0,1-11.08-4,54,54,0,0,1-18.54-14.23,30.53,30.53,0,0,1-5.67-10.23,19.07,19.07,0,0,1-.82-5.81A14.5,14.5,0,0,1,67.22,127.13Z"/><path class="cls-1" d="M67.22,127.13a14.5,14.5,0,0,0-1.3,5.68,18.87,18.87,0,0,0,.85,5.78,30.38,30.38,0,0,0,5.71,10.16,45.89,45.89,0,0,0,8.56,8,59.51,59.51,0,0,0,10.08,5.91,53.38,53.38,0,0,0,22.57,5.17A30.2,30.2,0,0,0,125,165.69a18.4,18.4,0,0,0,4.86-3,13.56,13.56,0,0,0,4.69-10,18.43,18.43,0,0,0-.8-5.65A30.35,30.35,0,0,0,128.18,137a53.6,53.6,0,0,0-18.37-14.09,58.76,58.76,0,0,0-11-4,46.72,46.72,0,0,0-11.59-1.52,30.58,30.58,0,0,0-11.47,2.07,19.15,19.15,0,0,0-5,3A14.44,14.44,0,0,0,67.22,127.13Zm0,0a14.46,14.46,0,0,1,3.53-4.65,19.06,19.06,0,0,1,5-3.07,30.77,30.77,0,0,1,11.5-2.15A54.12,54.12,0,0,1,110,122.48a60.28,60.28,0,0,1,10.17,6,47.48,47.48,0,0,1,8.65,8.05,31.18,31.18,0,0,1,5.8,10.33,19.25,19.25,0,0,1,.87,5.94,14.16,14.16,0,0,1-5,10.67,19.86,19.86,0,0,1-5.13,3.12,31.3,31.3,0,0,1-11.66,2.11A47.57,47.57,0,0,1,102,167.12a59.45,59.45,0,0,1-11.08-4,54,54,0,0,1-18.54-14.23,30.53,30.53,0,0,1-5.67-10.23,19.07,19.07,0,0,1-.82-5.81A14.5,14.5,0,0,1,67.22,127.13Z"/><path class="cls-1" d="M63.89,125.57a15.9,15.9,0,0,0-1.43,6.25,20.8,20.8,0,0,0,.93,6.36,33.68,33.68,0,0,0,6.28,11.18,51.75,51.75,0,0,0,9.41,8.76,65.75,65.75,0,0,0,11.1,6.52A58.76,58.76,0,0,0,115,170.35,33.6,33.6,0,0,0,127.47,168a20.22,20.22,0,0,0,5.36-3.3,14.84,14.84,0,0,0,5.17-11,20.29,20.29,0,0,0-.87-6.22A33.38,33.38,0,0,0,131,136.43a59,59,0,0,0-20.23-15.5,64.74,64.74,0,0,0-12.09-4.4,51.28,51.28,0,0,0-12.75-1.67,33.59,33.59,0,0,0-12.62,2.29,20.67,20.67,0,0,0-5.49,3.33A15.84,15.84,0,0,0,63.89,125.57Zm0,0a16,16,0,0,1,3.89-5.12,20.75,20.75,0,0,1,5.48-3.37,33.77,33.77,0,0,1,12.65-2.36A59.37,59.37,0,0,1,111,120.47,66,66,0,0,1,122.14,127a51.42,51.42,0,0,1,9.5,8.85A34.21,34.21,0,0,1,138,147.24a21.4,21.4,0,0,1,.95,6.52,16.56,16.56,0,0,1-1.48,6.45,16.32,16.32,0,0,1-4,5.25,21.37,21.37,0,0,1-5.63,3.42A34.11,34.11,0,0,1,115,171.2a52.11,52.11,0,0,1-12.87-1.68A65.79,65.79,0,0,1,90,165.09a59.49,59.49,0,0,1-20.4-15.64,33.82,33.82,0,0,1-6.24-11.25,20.93,20.93,0,0,1-.89-6.38A15.85,15.85,0,0,1,63.89,125.57Z"/><path class="cls-1" d="M60.23,123.84a17.59,17.59,0,0,0-1.57,6.88,23.08,23.08,0,0,0,1,7A37.12,37.12,0,0,0,66.59,150a56.06,56.06,0,0,0,10.35,9.65,71.12,71.12,0,0,0,12.2,7.18,72.46,72.46,0,0,0,13.34,4.65,58,58,0,0,0,14,1.65,36.61,36.61,0,0,0,13.72-2.56,22.07,22.07,0,0,0,5.9-3.63,16.75,16.75,0,0,0,4.15-5.45,16.93,16.93,0,0,0,1.56-6.68,22.22,22.22,0,0,0-1-6.86,36.8,36.8,0,0,0-6.77-12.2,64.9,64.9,0,0,0-22.28-17.05,72.17,72.17,0,0,0-13.3-4.83,56.81,56.81,0,0,0-14-1.83,37.18,37.18,0,0,0-13.88,2.52,22.77,22.77,0,0,0-6,3.67A17.66,17.66,0,0,0,60.23,123.84Zm0,0a17.69,17.69,0,0,1,4.28-5.62,23,23,0,0,1,6-3.71,37.2,37.2,0,0,1,13.91-2.59,58.3,58.3,0,0,1,14.11,1.66,73,73,0,0,1,25.73,11.91,57,57,0,0,1,10.44,9.74,37.63,37.63,0,0,1,7,12.47,23.73,23.73,0,0,1,1,7.16,17,17,0,0,1-6,12.83,23.74,23.74,0,0,1-6.18,3.76A37.69,37.69,0,0,1,116.48,174a57.3,57.3,0,0,1-14.16-1.84,72.15,72.15,0,0,1-13.39-4.86,65.29,65.29,0,0,1-22.45-17.19,37.16,37.16,0,0,1-6.87-12.37,23.23,23.23,0,0,1-1-7A17.63,17.63,0,0,1,60.23,123.84Z"/><path class="cls-1" d="M56.21,122a19.2,19.2,0,0,0-1.73,7.57,25.08,25.08,0,0,0,1.12,7.69,40.71,40.71,0,0,0,7.6,13.54,62,62,0,0,0,11.38,10.62,79.36,79.36,0,0,0,28.1,13,63.45,63.45,0,0,0,15.39,1.83,40.69,40.69,0,0,0,15.11-2.81,24.86,24.86,0,0,0,6.51-4A18.1,18.1,0,0,0,146,156a24.86,24.86,0,0,0-1.07-7.56A40.31,40.31,0,0,0,137.46,135a63.55,63.55,0,0,0-11.22-10.7A79.28,79.28,0,0,0,98.29,111a61.87,61.87,0,0,0-15.44-2,40.46,40.46,0,0,0-15.27,2.77,24.67,24.67,0,0,0-6.64,4A19.09,19.09,0,0,0,56.21,122Zm0,0a19.23,19.23,0,0,1,4.7-6.18,25.21,25.21,0,0,1,6.64-4.08,40.81,40.81,0,0,1,15.3-2.85,63.48,63.48,0,0,1,15.52,1.84,79.9,79.9,0,0,1,28.28,13.11,62.61,62.61,0,0,1,11.47,10.71,41.32,41.32,0,0,1,7.69,13.71,25.68,25.68,0,0,1,1.14,7.85,18.66,18.66,0,0,1-6.63,14.08,25.62,25.62,0,0,1-6.78,4.13,41.38,41.38,0,0,1-15.46,2.81,62.72,62.72,0,0,1-15.56-2,79.4,79.4,0,0,1-28.13-13.44,64.16,64.16,0,0,1-11.31-10.78,40.83,40.83,0,0,1-7.55-13.61,25.24,25.24,0,0,1-1.09-7.72A19.42,19.42,0,0,1,56.21,122Z"/><path class="cls-1" d="M51.79,119.87a21,21,0,0,0-1.91,8.32,27.66,27.66,0,0,0,1.23,8.47,45,45,0,0,0,8.35,14.89A68.69,68.69,0,0,0,72,163.24,86.19,86.19,0,0,0,86.74,172a87.13,87.13,0,0,0,16.15,5.65,69.71,69.71,0,0,0,16.94,2,44.28,44.28,0,0,0,16.64-3.09,26.92,26.92,0,0,0,7.17-4.4,20,20,0,0,0,7-14.76,27.47,27.47,0,0,0-1.18-8.33,44.41,44.41,0,0,0-8.22-14.79,69.56,69.56,0,0,0-12.35-11.77,87.42,87.42,0,0,0-30.76-14.68,68.55,68.55,0,0,0-17-2.19,44.85,44.85,0,0,0-16.8,3.05A27.65,27.65,0,0,0,57,113.1,21.09,21.09,0,0,0,51.79,119.87Zm0,0a21.11,21.11,0,0,1,5.17-6.8,27.83,27.83,0,0,1,7.3-4.49,45,45,0,0,1,16.83-3.13,70.23,70.23,0,0,1,17.07,2,88,88,0,0,1,31.09,14.44,68.63,68.63,0,0,1,12.6,11.78,45.34,45.34,0,0,1,8.45,15.06,28,28,0,0,1,1.25,8.63,20.46,20.46,0,0,1-7.28,15.45,28.14,28.14,0,0,1-7.44,4.54,45.57,45.57,0,0,1-17,3.09,69.46,69.46,0,0,1-17.11-2.21A87.74,87.74,0,0,1,71.79,163.5a70.6,70.6,0,0,1-12.44-11.86,44.84,44.84,0,0,1-8.31-15,27.76,27.76,0,0,1-1.2-8.49A21.17,21.17,0,0,1,51.79,119.87Z"/><path class="cls-1" d="M46.92,117.58a23.17,23.17,0,0,0-2.1,9.15A30.28,30.28,0,0,0,46.17,136a49.24,49.24,0,0,0,9.19,16.39A75.3,75.3,0,0,0,69.12,165.3a95.73,95.73,0,0,0,34,15.81,76.66,76.66,0,0,0,18.64,2.23,49.07,49.07,0,0,0,18.32-3.4,30.21,30.21,0,0,0,7.9-4.85,22,22,0,0,0,7.66-16.27,30.19,30.19,0,0,0-1.3-9.18,49.24,49.24,0,0,0-9-16.28,76.9,76.9,0,0,0-13.6-13,96,96,0,0,0-33.85-16.13,75.64,75.64,0,0,0-18.7-2.41,49.47,49.47,0,0,0-18.48,3.36,30.41,30.41,0,0,0-8,4.9A23.15,23.15,0,0,0,46.92,117.58Zm0,0a23.28,23.28,0,0,1,5.69-7.48,30.2,30.2,0,0,1,8-4.93,49.34,49.34,0,0,1,18.5-3.44A76.63,76.63,0,0,1,97.92,104a96.73,96.73,0,0,1,34.19,15.89,75.94,75.94,0,0,1,13.85,13,49.9,49.9,0,0,1,9.28,16.55,31,31,0,0,1,1.37,9.48,22.56,22.56,0,0,1-8,17,30.87,30.87,0,0,1-8.17,5,49.76,49.76,0,0,1-18.67,3.4A76.07,76.07,0,0,1,103,181.77a96.29,96.29,0,0,1-34-16.22,77.16,77.16,0,0,1-13.69-13,49.48,49.48,0,0,1-9.14-16.45,30.49,30.49,0,0,1-1.32-9.34A23.31,23.31,0,0,1,46.92,117.58Z"/><path class="cls-1" d="M41.56,115.06a25.55,25.55,0,0,0-2.31,10.06,33.56,33.56,0,0,0,1.49,10.25,54.4,54.4,0,0,0,10.1,18A83.36,83.36,0,0,0,66,167.57,105.74,105.74,0,0,0,103.38,185a84.65,84.65,0,0,0,20.52,2.46,54.16,54.16,0,0,0,20.17-3.74,33.13,33.13,0,0,0,8.71-5.34,24.23,24.23,0,0,0,8.43-17.93,32.75,32.75,0,0,0-1.43-10.11,53.75,53.75,0,0,0-10-17.93,83.82,83.82,0,0,0-15-14.24,105.7,105.7,0,0,0-37.25-17.74A83.48,83.48,0,0,0,77,97.77a54.53,54.53,0,0,0-20.33,3.7,33.64,33.64,0,0,0-8.84,5.39A25.62,25.62,0,0,0,41.56,115.06Zm0,0a25.64,25.64,0,0,1,6.27-8.23,33.16,33.16,0,0,1,8.84-5.42A54.2,54.2,0,0,1,77,97.63a84.47,84.47,0,0,1,20.64,2.47A105.07,105.07,0,0,1,117.31,107a106.14,106.14,0,0,1,17.94,10.6,84,84,0,0,1,15.23,14.26,54.74,54.74,0,0,1,10.19,18.2,34.18,34.18,0,0,1,1.51,10.4,24.79,24.79,0,0,1-8.77,18.63,34,34,0,0,1-9,5.47,54.66,54.66,0,0,1-20.52,3.74,83.43,83.43,0,0,1-20.69-2.65,106.23,106.23,0,0,1-37.43-17.82,84.49,84.49,0,0,1-15.06-14.33,54.27,54.27,0,0,1-10.06-18.1,33.35,33.35,0,0,1-1.45-10.27A25.54,25.54,0,0,1,41.56,115.06Z"/><path class="cls-1" d="M35.67,112.28a28.15,28.15,0,0,0-2.53,11.08,36.43,36.43,0,0,0,1.65,11.26,59.66,59.66,0,0,0,11.12,19.81A91.77,91.77,0,0,0,62.54,170a116.49,116.49,0,0,0,41.12,19.23A92.57,92.57,0,0,0,126.25,192a59.41,59.41,0,0,0,22.21-4.14,36.5,36.5,0,0,0,9.59-5.9,26.74,26.74,0,0,0,9.3-19.77,36.38,36.38,0,0,0-1.57-11.14,59.36,59.36,0,0,0-11-19.76,92.41,92.41,0,0,0-16.5-15.66,116.28,116.28,0,0,0-41-19.44,91.85,91.85,0,0,0-22.62-2.87,59.82,59.82,0,0,0-22.35,4,36.55,36.55,0,0,0-9.73,5.92A28,28,0,0,0,35.67,112.28Zm0,0a28.23,28.23,0,0,1,6.88-9,37,37,0,0,1,9.73-6,59.74,59.74,0,0,1,22.4-4.18,92.57,92.57,0,0,1,22.71,2.75A116.35,116.35,0,0,1,119,103.44a115.1,115.1,0,0,1,19.71,11.69,92.38,92.38,0,0,1,16.71,15.69,59.94,59.94,0,0,1,11.22,20,37,37,0,0,1,1.67,11.42,27.08,27.08,0,0,1-9.63,20.44,37.06,37.06,0,0,1-9.86,6,60,60,0,0,1-22.55,4.08,92.28,92.28,0,0,1-22.74-2.88,116.61,116.61,0,0,1-41.2-19.53,92.32,92.32,0,0,1-16.59-15.74,59.7,59.7,0,0,1-11-19.93,36.67,36.67,0,0,1-1.59-11.3A28.31,28.31,0,0,1,35.67,112.28Z"/><path class="cls-1" d="M29.19,109.23a31.09,31.09,0,0,0-2.78,12.19,40.36,40.36,0,0,0,1.8,12.39A65.56,65.56,0,0,0,40.45,155.6a101.53,101.53,0,0,0,18.28,17.17A128,128,0,0,0,104,193.94a101.73,101.73,0,0,0,24.86,3,65.35,65.35,0,0,0,24.45-4.56,40.21,40.21,0,0,0,10.56-6.49,29.48,29.48,0,0,0,10.24-21.77,40,40,0,0,0-1.72-12.28,65.59,65.59,0,0,0-12.07-21.74,101.59,101.59,0,0,0-18.17-17.23A128,128,0,0,0,97,91.51,101.3,101.3,0,0,0,72.1,88.36a65.56,65.56,0,0,0-24.59,4.46,40.38,40.38,0,0,0-10.7,6.5A31.14,31.14,0,0,0,29.19,109.23Zm0,0a30.89,30.89,0,0,1,7.58-10A40.43,40.43,0,0,1,47.46,92.7,65.67,65.67,0,0,1,72.1,88.11a102,102,0,0,1,25,3,128.68,128.68,0,0,1,45.43,21.25,102.15,102.15,0,0,1,18.37,17.25,66.31,66.31,0,0,1,12.33,22A41,41,0,0,1,175,164.16a29.77,29.77,0,0,1-10.57,22.46,40.92,40.92,0,0,1-10.84,6.59,66.08,66.08,0,0,1-24.78,4.49,101.79,101.79,0,0,1-25-3.16A128.09,128.09,0,0,1,80.1,186a127,127,0,0,1-21.59-13,101.86,101.86,0,0,1-18.26-17.31,66,66,0,0,1-12.16-21.91,40.94,40.94,0,0,1-1.75-12.44A31.26,31.26,0,0,1,29.19,109.23Z"/><path class="cls-1" d="M22.07,105.88A33.94,33.94,0,0,0,19,119.28a44.36,44.36,0,0,0,2,13.63,72,72,0,0,0,13.46,24,111.54,111.54,0,0,0,20.11,18.9,140.69,140.69,0,0,0,49.77,23.29,111.1,111.1,0,0,0,27.34,3.33,72,72,0,0,0,26.91-5,44.11,44.11,0,0,0,11.63-7.15,32.42,32.42,0,0,0,11.29-24,44,44,0,0,0-1.9-13.51,72.14,72.14,0,0,0-13.29-23.93,111.47,111.47,0,0,0-20-19A141,141,0,0,0,96.64,86.36a111.36,111.36,0,0,0-27.38-3.45c-9.2,0-18.5,1.39-27.05,4.9A44.71,44.71,0,0,0,30.44,95,34.09,34.09,0,0,0,22.07,105.88Zm0,0A34.09,34.09,0,0,1,30.4,94.93,44.46,44.46,0,0,1,42.16,87.7c8.56-3.56,17.88-5,27.1-5A112.1,112.1,0,0,1,96.73,86a141.22,141.22,0,0,1,50,23.37,112.51,112.51,0,0,1,20.2,19,72.74,72.74,0,0,1,13.55,24.15,45.07,45.07,0,0,1,2,13.8A32.79,32.79,0,0,1,170.82,191a45.12,45.12,0,0,1-11.91,7.24,72.75,72.75,0,0,1-27.24,4.95,112.28,112.28,0,0,1-27.5-3.47,141.52,141.52,0,0,1-49.85-23.6,112.14,112.14,0,0,1-20.08-19c-5.8-7.17-10.67-15.24-13.38-24.1a44.61,44.61,0,0,1-1.92-13.67A34.1,34.1,0,0,1,22.07,105.88Z"/><path class="cls-1" d="M14.23,102.19a37.36,37.36,0,0,0-3.38,14.74,48.56,48.56,0,0,0,2.18,15c3,9.71,8.39,18.54,14.79,26.38A122.43,122.43,0,0,0,49.94,179.1a154,154,0,0,0,26.12,15.52,153.29,153.29,0,0,0,28.64,10.12,122.63,122.63,0,0,0,30.08,3.67c10.1-.1,20.29-1.62,29.62-5.5A48.45,48.45,0,0,0,177.21,195a35.69,35.69,0,0,0,12.43-26.42,48.2,48.2,0,0,0-2.1-14.88c-2.95-9.66-8.27-18.48-14.63-26.33a122.8,122.8,0,0,0-22-20.85A154.76,154.76,0,0,0,96.26,80.7a122.42,122.42,0,0,0-30.12-3.79C56,77,45.79,78.45,36.38,82.31a49.21,49.21,0,0,0-13,7.88A37.52,37.52,0,0,0,14.23,102.19Zm0,0a37.53,37.53,0,0,1,9.16-12A49.46,49.46,0,0,1,36.33,82.2c9.42-3.92,19.67-5.45,29.81-5.55a123,123,0,0,1,30.21,3.69,155.26,155.26,0,0,1,54.93,25.72,122.77,122.77,0,0,1,22.21,20.88c6.44,7.87,11.85,16.75,14.89,26.55a49.25,49.25,0,0,1,2.2,15.16,36,36,0,0,1-12.76,27.1,49.41,49.41,0,0,1-13.08,8c-9.49,3.9-19.78,5.39-30,5.45a123.27,123.27,0,0,1-30.24-3.81,154.61,154.61,0,0,1-28.7-10.28A153.68,153.68,0,0,1,49.72,179.4a122.71,122.71,0,0,1-22.09-20.93c-6.39-7.88-11.74-16.76-14.72-26.5a48.89,48.89,0,0,1-2.12-15A37.34,37.34,0,0,1,14.23,102.19Z"/><path class="cls-1" d="M5.6,98.13a41.29,41.29,0,0,0-3.72,16.21,54,54,0,0,0,2.4,16.51c3.31,10.68,9.22,20.4,16.27,29a134.6,134.6,0,0,0,24.33,22.88A170.39,170.39,0,0,0,105.11,211a135,135,0,0,0,33.11,4c11.11-.1,22.32-1.78,32.59-6a53.28,53.28,0,0,0,14.1-8.65,39.26,39.26,0,0,0,13.7-29.1,53.55,53.55,0,0,0-2.32-16.38c-3.25-10.64-9.11-20.35-16.11-29A135,135,0,0,0,156,102.91,170.49,170.49,0,0,0,95.85,74.48,135.22,135.22,0,0,0,62.71,70.3c-11.13.07-22.39,1.7-32.74,6a53.81,53.81,0,0,0-14.24,8.67A41.25,41.25,0,0,0,5.6,98.13Zm0,0A41.41,41.41,0,0,1,15.69,84.88a54.09,54.09,0,0,1,14.23-8.74c10.36-4.3,21.63-6,32.79-6.09a135.88,135.88,0,0,1,33.23,4.06,170.93,170.93,0,0,1,60.41,28.3,135.9,135.9,0,0,1,24.42,23c7.07,8.67,13,18.43,16.36,29.2a54.68,54.68,0,0,1,2.42,16.66,39.59,39.59,0,0,1-14,29.78,54.48,54.48,0,0,1-14.38,8.75c-10.43,4.29-21.74,5.93-32.93,6A135.17,135.17,0,0,1,105,211.57a170.82,170.82,0,0,1-60.3-28.52,134.88,134.88,0,0,1-24.3-23c-7-8.67-12.92-18.43-16.2-29.15a53.93,53.93,0,0,1-2.34-16.54A41.28,41.28,0,0,1,5.6,98.13Z"/><path class="cls-1" d="M-3.88,93.66A45.3,45.3,0,0,0-8,111.5a59.39,59.39,0,0,0,2.63,18.15c3.65,11.76,10.15,22.45,17.9,31.94a148.45,148.45,0,0,0,26.76,25.17,186.26,186.26,0,0,0,31.61,18.8,186.82,186.82,0,0,0,34.65,12.26A148.17,148.17,0,0,0,142,222.27c12.23-.11,24.57-2,35.87-6.65a58.85,58.85,0,0,0,15.53-9.53,43.22,43.22,0,0,0,15.08-32,59,59,0,0,0-2.55-18c-3.59-11.71-10-22.39-17.74-31.89A148.49,148.49,0,0,0,161.54,98.9,187.53,187.53,0,0,0,95.39,67.63,148.44,148.44,0,0,0,58.94,63c-12.25.08-24.64,1.88-36,6.56A59.45,59.45,0,0,0,7.25,79.14,45.41,45.41,0,0,0-3.88,93.66Zm0,0A45.17,45.17,0,0,1,7.21,79.1a59,59,0,0,1,15.66-9.61c11.39-4.73,23.79-6.58,36.07-6.7a149.09,149.09,0,0,1,36.54,4.47,187.19,187.19,0,0,1,34.75,12.3A186.24,186.24,0,0,1,161.92,98.4a149.12,149.12,0,0,1,26.85,25.26c7.78,9.52,14.31,20.26,18,32.1a59.79,59.79,0,0,1,2.65,18.32A43.59,43.59,0,0,1,194,206.8a59.74,59.74,0,0,1-15.8,9.62c-11.46,4.72-23.9,6.52-36.2,6.6a148.82,148.82,0,0,1-36.58-4.6A187.48,187.48,0,0,1,70.7,206a187,187,0,0,1-31.61-18.95,148.74,148.74,0,0,1-26.73-25.31c-7.74-9.54-14.21-20.27-17.83-32.06A59.32,59.32,0,0,1-8,111.5,45.28,45.28,0,0,1-3.88,93.66Z"/><path class="cls-1" d="M-14.32,88.75a50,50,0,0,0-4.51,19.62,65.29,65.29,0,0,0,2.9,20c4,12.94,11.15,24.7,19.68,35.14a163.36,163.36,0,0,0,29.43,27.7,197.25,197.25,0,0,0,16.87,11.2q8.73,5.15,17.9,9.48c6.13,2.83,12.37,5.41,18.73,7.69a192.77,192.77,0,0,0,19.39,5.8,163.2,163.2,0,0,0,40.07,4.91c13.46-.13,27-2.15,39.48-7.32a64.52,64.52,0,0,0,17.09-10.48,47.53,47.53,0,0,0,16.61-35.28,64.93,64.93,0,0,0-2.82-19.85c-3.94-12.88-11-24.64-19.51-35.09a163.36,163.36,0,0,0-29.32-27.75,195.58,195.58,0,0,0-16.83-11.25c-5.8-3.45-11.77-6.62-17.86-9.53S120.62,68.26,114.27,66a198.26,198.26,0,0,0-19.38-5.86,163.4,163.4,0,0,0-40.11-5c-13.47.08-27.09,2.06-39.62,7.22A65.15,65.15,0,0,0-2.07,72.78,49.83,49.83,0,0,0-14.32,88.75Zm0,0a49.87,49.87,0,0,1,12.21-16A65.32,65.32,0,0,1,15.12,62.16c12.52-5.2,26.16-7.23,39.66-7.35A163.17,163.17,0,0,1,95,59.73a193.73,193.73,0,0,1,19.44,5.81Q124,69,133.19,73.26t17.94,9.49A192.94,192.94,0,0,1,168,94a164,164,0,0,1,29.53,27.78c8.55,10.48,15.74,22.29,19.77,35.31a65.58,65.58,0,0,1,2.92,20.13,47.9,47.9,0,0,1-16.93,35.95A65.85,65.85,0,0,1,186,223.75c-12.61,5.18-26.29,7.17-39.81,7.26a164.38,164.38,0,0,1-40.23-5,195.78,195.78,0,0,1-19.43-5.88q-9.55-3.47-18.75-7.77t-17.91-9.55A196.54,196.54,0,0,1,33,191.48a163.64,163.64,0,0,1-29.4-27.84C-4.95,153.15-12.08,141.35-16,128.38a65.23,65.23,0,0,1-2.84-20A50,50,0,0,1-14.32,88.75Z"/><path class="cls-1" d="M-25.8,83.35a54.94,54.94,0,0,0-5,21.58,71.73,71.73,0,0,0,3.18,22c4.41,14.23,12.27,27.17,21.65,38.66A179.49,179.49,0,0,0,26.45,196,214.63,214.63,0,0,0,45,208.36q9.6,5.65,19.69,10.43c6.74,3.12,13.61,6,20.6,8.47a217.67,217.67,0,0,0,21.33,6.38,179.7,179.7,0,0,0,44.09,5.4c14.8-.13,29.74-2.36,43.44-8A71.32,71.32,0,0,0,213,219.46a52.39,52.39,0,0,0,18.28-38.84,71.38,71.38,0,0,0-3.1-21.85c-4.35-14.18-12.15-27.11-21.48-38.6a179.89,179.89,0,0,0-32.26-30.54A214.42,214.42,0,0,0,155.9,77.26q-9.59-5.69-19.66-10.48c-6.73-3.14-13.6-6-20.58-8.53a211.09,211.09,0,0,0-21.33-6.44,179.35,179.35,0,0,0-44.11-5.54c-14.83.1-29.81,2.28-43.59,7.95a71.92,71.92,0,0,0-19,11.55A55,55,0,0,0-25.8,83.35Zm0,0A54.92,54.92,0,0,1-12.37,65.73a71.68,71.68,0,0,1,19-11.62c13.78-5.72,28.78-8,43.63-8.09a180.08,180.08,0,0,1,44.21,5.42,215.38,215.38,0,0,1,21.39,6.4c7,2.51,13.89,5.36,20.64,8.49S149.77,73,156.18,76.78a213.35,213.35,0,0,1,18.6,12.35,180.16,180.16,0,0,1,32.47,30.56c9.41,11.53,17.31,24.51,21.74,38.83a72.38,72.38,0,0,1,3.2,22.13,52.63,52.63,0,0,1-18.61,39.52,72.11,72.11,0,0,1-19.09,11.63c-13.86,5.71-28.9,7.9-43.77,8a179.73,179.73,0,0,1-44.24-5.55,212.11,212.11,0,0,1-21.38-6.46Q74.6,224,64.48,219.24t-19.7-10.51a213.24,213.24,0,0,1-18.56-12.4A180.14,180.14,0,0,1-6.13,165.71c-9.35-11.53-17.2-24.51-21.57-38.77a72,72,0,0,1-3.12-22A54.92,54.92,0,0,1-25.8,83.35Z"/><path class="cls-1" d="M-38.42,77.41a60.09,60.09,0,0,0-5.46,23.73,79,79,0,0,0,3.49,24.18c4.85,15.65,13.5,29.88,23.81,42.52A197.84,197.84,0,0,0,19,201.37a239.22,239.22,0,0,0,20.41,13.57c7,4.15,14.28,8,21.66,11.47s15,6.56,22.66,9.32a234.29,234.29,0,0,0,23.47,7,197.49,197.49,0,0,0,48.51,6c16.28-.15,32.72-2.6,47.8-8.85a78.62,78.62,0,0,0,20.71-12.69,57.57,57.57,0,0,0,20.12-42.76,78.47,78.47,0,0,0-3.41-24c-4.79-15.61-13.38-29.83-23.64-42.48a197.9,197.9,0,0,0-35.5-33.59,235.88,235.88,0,0,0-20.37-13.61q-10.55-6.24-21.62-11.52t-22.64-9.38a238,238,0,0,0-23.46-7.09,197.74,197.74,0,0,0-48.54-6.08c-16.31.1-32.79,2.51-47.94,8.75A79,79,0,0,0-23.61,58.07,60.41,60.41,0,0,0-38.42,77.41Zm0,0A60.31,60.31,0,0,1-23.65,58,79.33,79.33,0,0,1-2.8,45.24c15.15-6.28,31.66-8.73,48-8.88a197.92,197.92,0,0,1,48.63,6,235.08,235.08,0,0,1,23.51,7Q128.9,53.52,140,58.7t21.7,11.5A236.34,236.34,0,0,1,182.2,83.79a198.16,198.16,0,0,1,35.7,33.62c10.34,12.67,19,27,23.9,42.69a79.56,79.56,0,0,1,3.51,24.33,57.9,57.9,0,0,1-20.45,43.44,79.45,79.45,0,0,1-21,12.79c-15.24,6.28-31.78,8.69-48.14,8.79a198.16,198.16,0,0,1-48.66-6.09,238.14,238.14,0,0,1-23.51-7.1q-11.55-4.19-22.68-9.4T39.22,215.31a234.55,234.55,0,0,1-20.41-13.64A198.17,198.17,0,0,1-16.78,168c-10.29-12.68-18.92-27-23.73-42.65a79.12,79.12,0,0,1-3.44-24.21A60.3,60.3,0,0,1-38.42,77.41Z"/><path class="cls-1" d="M-52.31,70.87a66.22,66.22,0,0,0-6,26.11,86.53,86.53,0,0,0,3.84,26.59c5.33,17.22,14.84,32.88,26.18,46.79a217.74,217.74,0,0,0,39.18,36.88,258.65,258.65,0,0,0,22.45,14.93Q45,229,57.15,234.79t24.93,10.26a258.66,258.66,0,0,0,25.82,7.73,217.86,217.86,0,0,0,53.36,6.56c17.92-.16,36-2.85,52.6-9.73a86.34,86.34,0,0,0,22.8-14,63.36,63.36,0,0,0,22.15-47.07,86.13,86.13,0,0,0-3.76-26.47c-5.27-17.17-14.72-32.82-26-46.73A217.38,217.38,0,0,0,190,78.42a262.31,262.31,0,0,0-22.41-15Q156,56.58,143.78,50.77T118.87,40.46a258.87,258.87,0,0,0-25.81-7.8A217.64,217.64,0,0,0,39.66,26c-17.94.12-36.07,2.76-52.74,9.63A86.87,86.87,0,0,0-36,49.6,66.34,66.34,0,0,0-52.31,70.87Zm0,0A66.52,66.52,0,0,1-36.06,49.55a86.86,86.86,0,0,1,22.93-14c16.68-6.92,34.83-9.61,52.79-9.77A217.77,217.77,0,0,1,93.15,32.3,258.66,258.66,0,0,1,119,40q12.72,4.58,25,10.28c8.13,3.86,16.11,8.07,23.86,12.64a259.77,259.77,0,0,1,22.5,15,218,218,0,0,1,39.26,37c11.38,13.94,20.93,29.65,26.28,47a87.18,87.18,0,0,1,3.86,26.75,63.65,63.65,0,0,1-22.48,47.74,87.33,87.33,0,0,1-23.07,14.07c-16.75,6.9-34.94,9.55-52.93,9.67a218,218,0,0,1-53.52-6.69,260.72,260.72,0,0,1-25.85-7.81q-12.7-4.61-25-10.34t-23.83-12.7a255.77,255.77,0,0,1-22.46-15,217.65,217.65,0,0,1-39.14-37c-11.33-13.94-20.82-29.65-26.11-46.9A86.82,86.82,0,0,1-58.38,97,66.21,66.21,0,0,1-52.31,70.87Z"/><path class="cls-1" d="M-67.59,63.68A73,73,0,0,0-74.2,92.4,95.09,95.09,0,0,0-70,121.65a135,135,0,0,0,11.92,27.11,178.91,178.91,0,0,0,16.88,24.36A239.56,239.56,0,0,0,1.91,213.71a285.18,285.18,0,0,0,24.7,16.42q12.78,7.53,26.2,13.89T80.24,255.3a283.43,283.43,0,0,0,28.4,8.51,239.19,239.19,0,0,0,58.7,7.22,178.55,178.55,0,0,0,29.48-2.58,134,134,0,0,0,28.4-8.12A95,95,0,0,0,250.31,245a69.64,69.64,0,0,0,24.38-51.81A94.69,94.69,0,0,0,270.55,164,134.76,134.76,0,0,0,258.72,137a179.88,179.88,0,0,0-16.8-24.36A239.48,239.48,0,0,0,199,72a286.61,286.61,0,0,0-24.66-16.47q-12.76-7.56-26.17-13.94T120.71,30.2a286.22,286.22,0,0,0-28.39-8.57,239.45,239.45,0,0,0-58.74-7.34A178.28,178.28,0,0,0,4.05,16.81a134.17,134.17,0,0,0-28.48,8.08A95.47,95.47,0,0,0-49.67,40.28,73,73,0,0,0-67.59,63.68Zm0,0A73.18,73.18,0,0,1-49.71,40.23,95.75,95.75,0,0,1-24.48,24.77,134.35,134.35,0,0,1,4,16.62,179.7,179.7,0,0,1,33.58,14a239.64,239.64,0,0,1,58.83,7.23,285.19,285.19,0,0,1,28.45,8.52c9.32,3.35,18.48,7.14,27.47,11.3S166.05,50,174.58,55a283.08,283.08,0,0,1,24.74,16.45,239.8,239.8,0,0,1,43.18,40.67,178.64,178.64,0,0,1,16.92,24.43,135,135,0,0,1,12,27.21,95.74,95.74,0,0,1,4.24,29.41,70,70,0,0,1-24.71,52.48,95.9,95.9,0,0,1-25.36,15.48,135.62,135.62,0,0,1-28.6,8.11,180.34,180.34,0,0,1-29.61,2.53,240.37,240.37,0,0,1-58.86-7.36,287.26,287.26,0,0,1-28.44-8.59q-14-5.06-27.45-11.36t-26.22-14A289,289,0,0,1,1.68,214a240.16,240.16,0,0,1-43.06-40.73,180.23,180.23,0,0,1-16.84-24.43A134.72,134.72,0,0,1-70.1,121.69,95.69,95.69,0,0,1-74.27,92.4,73.12,73.12,0,0,1-67.59,63.68Z"/><path class="cls-1" d="M-84.39,55.77a80.08,80.08,0,0,0-7.28,31.59A104.8,104.8,0,0,0-87,119.54a148.12,148.12,0,0,0,13.11,29.82,196.8,196.8,0,0,0,18.56,26.8A263.23,263.23,0,0,0-8,220.81a311.56,311.56,0,0,0,27.17,18.07q14.06,8.3,28.83,15.28T78.2,266.58a312.47,312.47,0,0,0,31.25,9.36A263,263,0,0,0,174,283.89a196.7,196.7,0,0,0,32.43-2.83,147.85,147.85,0,0,0,31.25-8.93,104.66,104.66,0,0,0,27.61-16.92,76.64,76.64,0,0,0,26.84-57,104.4,104.4,0,0,0-4.56-32.06,148.12,148.12,0,0,0-13-29.77,197.56,197.56,0,0,0-18.49-26.8,263.25,263.25,0,0,0-47.28-44.71,315.8,315.8,0,0,0-27.12-18.11q-14-8.33-28.8-15.34T122.75,18.92A314.47,314.47,0,0,0,91.51,9.5,263.23,263.23,0,0,0,26.9,1.43,196.47,196.47,0,0,0-5.59,4.2a148.45,148.45,0,0,0-31.34,8.89A105.09,105.09,0,0,0-64.68,30,80.09,80.09,0,0,0-84.39,55.77Zm0,0A80.24,80.24,0,0,1-64.72,30,104.85,104.85,0,0,1-37,13,148.66,148.66,0,0,1-5.62,4,197.87,197.87,0,0,1,26.89,1.17a263.92,263.92,0,0,1,64.71,8,316,316,0,0,1,31.29,9.38Q138.28,24,153.11,31T182,46.25a316.36,316.36,0,0,1,27.21,18.1,263.16,263.16,0,0,1,47.48,44.74A196.32,196.32,0,0,1,275.28,136a148.32,148.32,0,0,1,13.16,29.92,105.4,105.4,0,0,1,4.66,32.34,77.06,77.06,0,0,1-27.16,57.7,105.5,105.5,0,0,1-27.89,17,148.92,148.92,0,0,1-31.45,8.93A198.5,198.5,0,0,1,174,284.64a263.69,263.69,0,0,1-64.74-8.09A312.68,312.68,0,0,1,78,267.11q-15.37-5.57-30.2-12.5T19,239.26A314.71,314.71,0,0,1-8.18,221.11a263.51,263.51,0,0,1-47.37-44.79,197.91,197.91,0,0,1-18.53-26.87,148.07,148.07,0,0,1-13.07-29.87,105,105,0,0,1-4.58-32.22A80.24,80.24,0,0,1-84.39,55.77Z"/><path class="cls-1" d="M-102.88,47.06a88.5,88.5,0,0,0-8,34.76,115.42,115.42,0,0,0,5.1,35.4A163,163,0,0,0-91.37,150a216.61,216.61,0,0,0,20.42,29.49,289.65,289.65,0,0,0,52.14,49.12,344.24,344.24,0,0,0,29.88,19.88q15.46,9.12,31.71,16.81T76,279a346.2,346.2,0,0,0,34.37,10.3,289.59,289.59,0,0,0,71,8.75,216.52,216.52,0,0,0,35.68-3.11,162.6,162.6,0,0,0,34.38-9.83,114.9,114.9,0,0,0,30.39-18.61,84.33,84.33,0,0,0,29.54-62.76,115,115,0,0,0-5-35.27A162.09,162.09,0,0,0,292,135.7a215.68,215.68,0,0,0-20.34-29.48,289.31,289.31,0,0,0-52-49.19,345,345,0,0,0-29.85-19.92Q174.39,28,158.15,20.24T125,6.52A345.6,345.6,0,0,0,90.62-3.85a289.29,289.29,0,0,0-71.08-8.87A217.27,217.27,0,0,0-16.2-9.67,163.37,163.37,0,0,0-50.67.12,115.65,115.65,0,0,0-81.2,18.74,88.44,88.44,0,0,0-102.88,47.06Zm0,0A88.33,88.33,0,0,1-81.24,18.7,115.71,115.71,0,0,1-50.72,0,163.53,163.53,0,0,1-16.23-9.85,216.52,216.52,0,0,1,19.54-13,289.54,289.54,0,0,1,90.71-4.21,347.18,347.18,0,0,1,125.13,6.1q16.92,6.09,33.23,13.69t31.75,16.84A345.25,345.25,0,0,1,220,56.53a290.32,290.32,0,0,1,52.23,49.21,218.38,218.38,0,0,1,20.46,29.55A163.31,163.31,0,0,1,307.2,168.2a116.07,116.07,0,0,1,5.12,35.56,84.75,84.75,0,0,1-29.86,63.44,116.36,116.36,0,0,1-30.67,18.71,163.62,163.62,0,0,1-34.58,9.81,217.17,217.17,0,0,1-35.82,3.07,290.27,290.27,0,0,1-71.2-8.89,349.26,349.26,0,0,1-34.41-10.38q-16.9-6.12-33.21-13.74t-31.72-16.9A342.86,342.86,0,0,1-19,228.93a290.21,290.21,0,0,1-52.1-49.26,217.1,217.1,0,0,1-20.39-29.56,162.57,162.57,0,0,1-14.38-32.86,115.6,115.6,0,0,1-5-35.43A88.49,88.49,0,0,1-102.88,47.06Z"/><path class="cls-1" d="M-123.21,37.49l-1.92,4.56-1,2.28c-.3.76-.52,1.56-.79,2.34l-1.52,4.7c-.46,1.58-.78,3.19-1.18,4.79a93.73,93.73,0,0,0-1.74,9.72,22.36,22.36,0,0,0-.26,2.45l-.18,2.47-.18,2.46-.09,1.23v1.23a127.18,127.18,0,0,0,5.61,38.94,179.37,179.37,0,0,0,15.86,36.09A239.34,239.34,0,0,0-88.1,183.19a318.57,318.57,0,0,0,57.35,54A379.48,379.48,0,0,0,2.12,259.1q17,10,34.88,18.5t36.51,15A380.21,380.21,0,0,0,111.32,304a318,318,0,0,0,78.16,9.63,238,238,0,0,0,39.26-3.42,178.74,178.74,0,0,0,37.83-10.81A126.66,126.66,0,0,0,300,278.9l.94-.79.89-.85,1.77-1.71,1.77-1.7a23.81,23.81,0,0,0,1.72-1.76,94.15,94.15,0,0,0,6.33-7.51c1-1.32,2-2.59,2.93-3.95l2.63-4.15c.43-.7.89-1.37,1.29-2.09l1.14-2.18,2.27-4.35a96.9,96.9,0,0,0,8.83-38A126.82,126.82,0,0,0,327,171a178.59,178.59,0,0,0-15.78-36,237,237,0,0,0-22.38-32.44,318.26,318.26,0,0,0-57.23-54.1,381.42,381.42,0,0,0-32.82-21.91Q181.78,16.45,163.93,8,146-.38,127.44-7.13a380.41,380.41,0,0,0-37.8-11.4,319.23,319.23,0,0,0-78.19-9.76,238.52,238.52,0,0,0-39.31,3.37A179,179,0,0,0-65.78-14.15,126.82,126.82,0,0,0-99.37,6.34l-.95.79-.89.85L-103,9.69l-1.78,1.71a20.65,20.65,0,0,0-1.73,1.77,93.18,93.18,0,0,0-6.37,7.53c-1,1.33-2,2.6-2.95,4l-2.65,4.17c-.43.7-.9,1.38-1.31,2.1l-1.14,2.19Zm0,0,2.28-4.38,1.14-2.19c.41-.72.87-1.39,1.31-2.1l2.64-4.17c.92-1.36,2-2.64,2.94-4a95.23,95.23,0,0,1,6.37-7.55,23.81,23.81,0,0,1,1.72-1.76L-103,9.65l1.78-1.71.89-.86,1-.79A127.1,127.1,0,0,1-65.83-14.27,179.86,179.86,0,0,1-27.9-25.11a239.13,239.13,0,0,1,39.34-3.43,319,319,0,0,1,78.29,9.65A378.59,378.59,0,0,1,127.59-7.54q18.6,6.69,36.55,15.05T199.06,26A379.07,379.07,0,0,1,232,47.93a319.22,319.22,0,0,1,57.44,54.13,238.45,238.45,0,0,1,22.5,32.51,179.32,179.32,0,0,1,15.91,36.19,127.49,127.49,0,0,1,5.63,39.09v1.24l-.09,1.24-.18,2.48-.19,2.47a20.46,20.46,0,0,1-.25,2.47,94.54,94.54,0,0,1-1.76,9.76c-.39,1.61-.72,3.24-1.18,4.83l-1.53,4.72c-.27.78-.49,1.58-.79,2.35l-1,2.29-1.93,4.58-2.3,4.4-1.15,2.2c-.41.73-.88,1.41-1.31,2.11l-2.67,4.19c-.93,1.37-2,2.66-3,4a96.36,96.36,0,0,1-6.41,7.57,22.34,22.34,0,0,1-1.74,1.77l-1.79,1.72L302.47,278l-.89.86-1,.79a127.68,127.68,0,0,1-33.71,20.58,179.78,179.78,0,0,1-38,10.8,238.67,238.67,0,0,1-39.39,3.37,319.14,319.14,0,0,1-78.32-9.77,378.8,378.8,0,0,1-37.85-11.42q-18.6-6.72-36.53-15.11T1.9,259.48a378.8,378.8,0,0,1-32.87-22,318.86,318.86,0,0,1-57.32-54.18,238.31,238.31,0,0,1-22.43-32.51,179.32,179.32,0,0,1-15.82-36.14,127.16,127.16,0,0,1-5.55-39V74.49l.09-1.23.19-2.47.18-2.46a20.33,20.33,0,0,1,.27-2.46,93.57,93.57,0,0,1,1.75-9.71c.4-1.6.73-3.22,1.19-4.8l1.53-4.7c.26-.78.49-1.57.79-2.34l1-2.27Z"/><path class="cls-1" d="M-145.58,27l-2.11,5-1.05,2.51c-.32.84-.57,1.72-.86,2.58l-1.68,5.16c-.5,1.74-.85,3.52-1.29,5.28a104,104,0,0,0-1.92,10.69,24.21,24.21,0,0,0-.28,2.7l-.2,2.71-.2,2.71-.11,1.35V69a139.71,139.71,0,0,0,6.16,42.83,197,197,0,0,0,17.45,39.7A263.67,263.67,0,0,0-107,187.24a350.57,350.57,0,0,0,63.09,59.45l4.35,3.25,4.45,3.11c3,2,5.9,4.21,9,6.14L-17,265.1l9.28,5.65q18.7,11,38.37,20.36,19.7,9.15,40.15,16.54l10.27,3.54,10.37,3.23c3.44,1.13,7,2,10.44,3l5.24,1.44,5.28,1.28a349.74,349.74,0,0,0,86,10.6A262.57,262.57,0,0,0,241.57,327a196.66,196.66,0,0,0,41.63-11.89A139.1,139.1,0,0,0,320,292.54l1-.86,1-.94,1.95-1.88,2-1.88a22.82,22.82,0,0,0,1.88-1.93,101.58,101.58,0,0,0,7-8.26c1.07-1.45,2.21-2.85,3.22-4.35l2.89-4.56c.47-.77,1-1.51,1.43-2.3l1.25-2.4,2.5-4.79,2.1-5,1-2.49c.32-.84.57-1.71.86-2.56l1.68-5.14c.5-1.73.85-3.5,1.29-5.25A103.1,103.1,0,0,0,355,227.32a24.28,24.28,0,0,0,.28-2.69l.21-2.7.2-2.69.1-1.35v-1.36a139.36,139.36,0,0,0-6.09-42.71,196.16,196.16,0,0,0-17.36-39.65A261.84,261.84,0,0,0,307.7,98.49a350.56,350.56,0,0,0-63-59.52l-4.35-3.25-4.45-3.12c-3-2.05-5.89-4.21-8.95-6.14l-9.1-5.93-9.27-5.66Q189.93,3.8,170.28-5.54q-19.69-9.18-40.14-16.6l-10.26-3.55-10.37-3.26c-3.44-1.13-7-2-10.44-3l-5.23-1.45-5.28-1.29a351,351,0,0,0-86-10.73A262.13,262.13,0,0,0-40.7-41.7,197,197,0,0,0-82.41-29.85,139.6,139.6,0,0,0-119.35-7.31l-1.05.87-1,.94-2,1.88-2,1.88A24.81,24.81,0,0,0-127.19.2a104.57,104.57,0,0,0-7,8.29c-1.08,1.46-2.22,2.86-3.24,4.36l-2.91,4.59c-.48.77-1,1.51-1.44,2.3l-1.26,2.41Zm0,0,2.51-4.81,1.26-2.41c.44-.79,1-1.54,1.43-2.31l2.91-4.59c1-1.5,2.16-2.91,3.24-4.37a102.39,102.39,0,0,1,7-8.3,21.75,21.75,0,0,1,1.9-1.94l2-1.89,2-1.88,1-.94,1-.88A140.14,140.14,0,0,1-82.46-30,197.19,197.19,0,0,1-40.73-41.89,262.55,262.55,0,0,1,2.54-45.66,350.68,350.68,0,0,1,88.65-35l5.28,1.28,5.25,1.44c3.48,1,7,1.86,10.45,3L120-26.1l10.28,3.55Q150.76-15.2,170.5-6t38.41,20.37L218.2,20,227.32,26c3.07,1.93,6,4.09,9,6.14l4.45,3.12,4.36,3.25A350.83,350.83,0,0,1,308.28,98,262.81,262.81,0,0,1,333,133.76a197.22,197.22,0,0,1,17.49,39.81,140.06,140.06,0,0,1,6.19,43v1.36l-.11,1.36-.2,2.72-.2,2.73a22.66,22.66,0,0,1-.29,2.71A102.76,102.76,0,0,1,354,238.18c-.44,1.76-.79,3.55-1.3,5.3L351,248.67c-.29.86-.54,1.74-.86,2.59l-1.06,2.52-2.12,5-2.53,4.84-1.27,2.42c-.44.79-1,1.54-1.44,2.32L338.79,273c-1,1.5-2.17,2.91-3.26,4.37a101.61,101.61,0,0,1-7,8.33,25.11,25.11,0,0,1-1.91,1.95l-2,1.89-2,1.89-1,.95-1.05.87a140.3,140.3,0,0,1-37.08,22.63,198,198,0,0,1-41.82,11.88,263.18,263.18,0,0,1-43.32,3.71,351.4,351.4,0,0,1-86.14-10.74L107,319.44,101.72,318c-3.48-1-7-1.87-10.45-3l-10.38-3.26-10.27-3.55q-20.46-7.4-40.19-16.62-19.62-9.37-38.38-20.43l-9.28-5.67-9.11-5.94c-3.06-1.93-6-4.1-9-6.15l-4.45-3.12L-44.11,247a350.83,350.83,0,0,1-63-59.6,261.65,261.65,0,0,1-24.67-35.75,197.49,197.49,0,0,1-17.41-39.75A140,140,0,0,1-155.34,69V67.66l.11-1.36.2-2.71.21-2.71a22.28,22.28,0,0,1,.29-2.7,101.87,101.87,0,0,1,1.93-10.69c.44-1.75.79-3.54,1.3-5.27l1.69-5.17c.29-.86.53-1.73.86-2.57l1.06-2.51Z"/><path class="cls-1" d="M-170.19,15.38A114.67,114.67,0,0,0-177.95,38a118.82,118.82,0,0,0-2.93,23.69,149.91,149.91,0,0,0,6.8,47.11,215.13,215.13,0,0,0,19.14,43.7,286.49,286.49,0,0,0,27.18,39.26c20.2,24.68,43.83,46.42,69.4,65.42a481.82,481.82,0,0,0,82,48.83,482.43,482.43,0,0,0,89.93,32c30.93,7.55,62.74,11.87,94.6,11.67a286.71,286.71,0,0,0,47.53-4.13,214.84,214.84,0,0,0,45.79-13.13A150,150,0,0,0,342,307.57a118.68,118.68,0,0,0,16.3-17.31,111,111,0,0,0,20.12-42.75,118.59,118.59,0,0,0,2.95-23.59,149.57,149.57,0,0,0-6.72-47,215.12,215.12,0,0,0-19-43.65A287.23,287.23,0,0,0,328.49,94c-20.15-24.68-43.74-46.44-69.27-65.48a482,482,0,0,0-82-48.92,482.44,482.44,0,0,0-89.89-32.1C56.44-60.08,24.63-64.44-7.26-64.29a288.31,288.31,0,0,0-47.57,4.08,215.1,215.1,0,0,0-45.88,13.09,150.42,150.42,0,0,0-40.65,24.78A119.08,119.08,0,0,0-157.74-5,114.31,114.31,0,0,0-170.19,15.38Zm0,0A114.91,114.91,0,0,1-157.77-5,119.67,119.67,0,0,1-141.4-22.38c12-10.52,26-18.65,40.64-24.86A216,216,0,0,1-54.87-60.4,288.86,288.86,0,0,1-7.26-64.54c31.91-.19,63.76,4.13,94.73,11.68a483.88,483.88,0,0,1,90,32A482.86,482.86,0,0,1,259.59,28c25.59,19,49.26,40.79,69.49,65.5a287.18,287.18,0,0,1,27.22,39.33,215.42,215.42,0,0,1,19.19,43.81,150.54,150.54,0,0,1,6.82,47.27,119.18,119.18,0,0,1-2.94,23.79,110.72,110.72,0,0,1-20.3,43.12,120.14,120.14,0,0,1-16.46,17.43,150.63,150.63,0,0,1-40.78,24.86,215.65,215.65,0,0,1-46,13.13,287.24,287.24,0,0,1-47.66,4.08c-31.94.16-63.79-4.22-94.76-11.81a483.75,483.75,0,0,1-90-32.13,482.77,482.77,0,0,1-82-49c-25.55-19.05-49.18-40.84-69.36-65.56a286.7,286.7,0,0,1-27.15-39.33,214.84,214.84,0,0,1-19.1-43.75,150.5,150.5,0,0,1-6.75-47.16,119.7,119.7,0,0,1,3-23.69A114.68,114.68,0,0,1-170.19,15.38Z"/><path class="cls-1" d="M-197.25,2.64a125.43,125.43,0,0,0-8.54,24.83A130.55,130.55,0,0,0-209,53.52c-.47,17.55,2.43,35.06,7.47,51.83a236.93,236.93,0,0,0,21.06,48.07,316.46,316.46,0,0,0,29.9,43.2c22.21,27.14,48.21,51,76.33,72A530.43,530.43,0,0,0,16,322.3a531,531,0,0,0,98.92,35.18c34,8.3,69,13.06,104.08,12.84a315.81,315.81,0,0,0,52.28-4.54,236.92,236.92,0,0,0,50.38-14.44c16.09-6.81,31.4-15.73,44.56-27.25a130.93,130.93,0,0,0,17.94-19A121.81,121.81,0,0,0,406.26,258a130.33,130.33,0,0,0,3.25-26c.49-17.49-2.38-35-7.4-51.71a235.58,235.58,0,0,0-21-48,315.13,315.13,0,0,0-29.81-43.19C329.16,62,303.2,38,275.11,17.08A530.78,530.78,0,0,0,185-36.74,531.37,531.37,0,0,0,86.08-72c-34-8.34-69-13.14-104.11-13a315.58,315.58,0,0,0-52.34,4.48,237.26,237.26,0,0,0-50.46,14.4c-16.14,6.8-31.49,15.73-44.71,27.27a131.26,131.26,0,0,0-18,19.09A125.53,125.53,0,0,0-197.25,2.64Zm0,0a125.55,125.55,0,0,1,13.66-22.42,132,132,0,0,1,18-19.12c13.21-11.56,28.56-20.51,44.7-27.33A237.47,237.47,0,0,1-70.4-80.71,316.9,316.9,0,0,1-18-85.26c35.1-.21,70.13,4.55,104.2,12.86a531,531,0,0,1,99,35.21,530.34,530.34,0,0,1,90.3,53.77c28.15,20.93,54.18,44.87,76.43,72.05a315.82,315.82,0,0,1,29.94,43.26A237.19,237.19,0,0,1,403,180.07c5.06,16.81,8,34.38,7.5,52a131.73,131.73,0,0,1-3.24,26.15,121.92,121.92,0,0,1-22.32,47.42,131.73,131.73,0,0,1-18.09,19.16c-13.27,11.58-28.67,20.53-44.85,27.35a237.9,237.9,0,0,1-50.57,14.44A316.45,316.45,0,0,1,219,371.07c-35.12.17-70.16-4.63-104.23-13a530.89,530.89,0,0,1-99-35.33,530.51,530.51,0,0,1-90.23-53.87c-28.11-21-54.1-44.92-76.31-72.11a316.06,316.06,0,0,1-29.86-43.25,237.18,237.18,0,0,1-21-48.13c-5-16.79-7.91-34.32-7.42-51.87a130.69,130.69,0,0,1,3.26-26.06A125.21,125.21,0,0,1-197.25,2.64Z"/><path class="cls-1" d="M-227-11.37a138.11,138.11,0,0,0-9.4,27.3A144.13,144.13,0,0,0-240,44.59c-.52,19.31,2.67,38.57,8.22,57a260.55,260.55,0,0,0,23.16,52.88A347.73,347.73,0,0,0-175.71,202c24.44,29.86,53,56.17,84,79.17A584.41,584.41,0,0,0,7.5,340.28,583.47,583.47,0,0,0,116.31,379c37.44,9.13,75.93,14.37,114.5,14.13a347.59,347.59,0,0,0,57.52-5,260.32,260.32,0,0,0,55.42-15.89c17.71-7.49,34.55-17.3,49-30a144,144,0,0,0,19.74-21,134.21,134.21,0,0,0,24.36-51.77A143.81,143.81,0,0,0,440.46,241c.54-19.25-2.62-38.48-8.14-56.9a260.3,260.3,0,0,0-23.07-52.83,346.27,346.27,0,0,0-32.81-47.51c-24.39-29.87-52.95-56.2-83.85-79.23a583.19,583.19,0,0,0-99.16-59.2A584.19,584.19,0,0,0,84.64-93.54C47.21-102.71,8.71-108-29.88-107.8a348.14,348.14,0,0,0-57.57,4.94A260.42,260.42,0,0,0-143-87c-17.75,7.48-34.64,17.3-49.18,30A145,145,0,0,0-212-36,137.92,137.92,0,0,0-227-11.37Zm0,0A137.75,137.75,0,0,1-212-36a143.91,143.91,0,0,1,19.81-21c14.53-12.72,31.41-22.56,49.17-30.07A261.35,261.35,0,0,1-87.48-103a348.56,348.56,0,0,1,57.6-5c38.61-.23,77.14,5,114.61,14.15A583.59,583.59,0,0,1,193.64-55.16,584.09,584.09,0,0,1,293,4c31,23,59.59,49.36,84.06,79.26A348.94,348.94,0,0,1,410,130.82a261.36,261.36,0,0,1,23.2,53c5.56,18.49,8.76,37.81,8.24,57.17a145,145,0,0,1-3.56,28.76,134,134,0,0,1-24.55,52.14A145.36,145.36,0,0,1,393.4,343c-14.59,12.73-31.52,22.58-49.31,30.08a261.78,261.78,0,0,1-55.62,15.88,348.32,348.32,0,0,1-57.66,4.94c-38.63.19-77.17-5.09-114.64-14.28A583.88,583.88,0,0,1,7.29,340.73,584.49,584.49,0,0,1-92,281.48c-30.93-23.05-59.52-49.41-83.94-79.32a347.13,347.13,0,0,1-32.85-47.57,260.59,260.59,0,0,1-23.12-52.94c-5.53-18.47-8.7-37.75-8.17-57.06a144.09,144.09,0,0,1,3.59-28.66A137.76,137.76,0,0,1-227-11.37Z"/><path class="cls-1" d="M-259.77-26.79a151.32,151.32,0,0,0-10.34,30A158.67,158.67,0,0,0-274,34.78c-.57,21.23,2.94,42.42,9,62.72a286.74,286.74,0,0,0,25.47,58.17,383,383,0,0,0,36.18,52.27C-176.45,240.79-145,269.73-111,295a641.93,641.93,0,0,0,109.16,65,643,643,0,0,0,119.7,42.58c41.19,10.05,83.53,15.81,126,15.55a381.15,381.15,0,0,0,63.28-5.49,286.39,286.39,0,0,0,61-17.47c19.49-8.24,38-19,54-33a158,158,0,0,0,21.72-23.06,147.42,147.42,0,0,0,26.81-57,158.35,158.35,0,0,0,3.93-31.43c.59-21.18-2.89-42.34-9-62.6a285.81,285.81,0,0,0-25.39-58.13,381.44,381.44,0,0,0-36.09-52.26C377.24,44.93,345.82,16,311.83-9.37a642.4,642.4,0,0,0-109.1-65.11A642.34,642.34,0,0,0,83.07-117.19c-41.19-10.09-83.54-15.89-126-15.68a382.87,382.87,0,0,0-63.33,5.44A286.74,286.74,0,0,0-167.31-110c-19.52,8.23-38.1,19-54.1,33a158.94,158.94,0,0,0-21.8,23.11A151.45,151.45,0,0,0-259.77-26.79Zm0,0a152,152,0,0,1,16.53-27.12A158.48,158.48,0,0,1-221.45-77c16-14,34.56-24.82,54.09-33.07a287,287,0,0,1,61.08-17.51,383.41,383.41,0,0,1,63.37-5.5c42.47-.25,84.85,5.51,126.07,15.57A642.77,642.77,0,0,1,203-74.94,643,643,0,0,1,312.2-9.87c34.05,25.33,65.54,54.29,92.45,87.18a381.89,381.89,0,0,1,36.22,52.34,287,287,0,0,1,25.52,58.27c6.11,20.34,9.63,41.59,9.06,62.88a159.67,159.67,0,0,1-3.92,31.63,147.52,147.52,0,0,1-27,57.33,158.94,158.94,0,0,1-21.88,23.18c-16,14-34.66,24.83-54.23,33.08a287.29,287.29,0,0,1-61.17,17.47,382.87,382.87,0,0,1-63.42,5.44c-42.49.21-84.88-5.59-126.1-15.7A642.64,642.64,0,0,1-2,360.5,642.48,642.48,0,0,1-111.2,295.33c-34-25.35-65.46-54.34-92.33-87.23a382.57,382.57,0,0,1-36.14-52.34A286.54,286.54,0,0,1-265.1,97.53c-6.08-20.31-9.57-41.52-9-62.76a158.71,158.71,0,0,1,3.94-31.53A151.33,151.33,0,0,1-259.77-26.79Z"/><path class="cls-1" d="M-295.8-43.74a166.94,166.94,0,0,0-11.37,33A174.53,174.53,0,0,0-311.47,24c-.63,23.36,3.23,46.68,9.94,69a315.46,315.46,0,0,0,28,64,420.43,420.43,0,0,0,39.79,57.5c29.56,36.14,64.17,68,101.59,95.82A707,707,0,0,0-12,381.8a706.17,706.17,0,0,0,131.67,46.84c45.3,11.06,91.88,17.4,138.55,17.12a419.62,419.62,0,0,0,69.61-6,314.47,314.47,0,0,0,67.08-19.22c21.44-9.06,41.82-20.94,59.37-36.29a173.9,173.9,0,0,0,23.9-25.37,162.28,162.28,0,0,0,29.5-62.68A174.22,174.22,0,0,0,512,261.58c.65-23.3-3.18-46.58-9.86-68.88a315.2,315.2,0,0,0-27.93-63.94,420.77,420.77,0,0,0-39.71-57.5C404.94,35.12,370.37,3.26,333-24.61A706.06,706.06,0,0,0,213-96.23a705.82,705.82,0,0,0-131.64-47C36-154.3-10.56-160.68-57.25-160.44a420.37,420.37,0,0,0-69.67,6,315.65,315.65,0,0,0-67.17,19.18C-215.57-126.22-236-114.34-253.6-99a175.35,175.35,0,0,0-24,25.42A166.78,166.78,0,0,0-295.8-43.74Zm0,0a167.15,167.15,0,0,1,18.19-29.84,174.38,174.38,0,0,1,24-25.44c17.59-15.39,38-27.3,59.5-36.38a315.83,315.83,0,0,1,67.19-19.25,420.69,420.69,0,0,1,69.7-6c46.71-.28,93.33,6.06,138.67,17.12A706.83,706.83,0,0,1,213.19-96.68,706.57,706.57,0,0,1,333.35-25.11C370.81,2.75,405.44,34.61,435,70.79a420.07,420.07,0,0,1,39.83,57.56,316,316,0,0,1,28.07,64.1c6.72,22.37,10.59,45.73,10,69.15a174.9,174.9,0,0,1-4.31,34.78,162,162,0,0,1-29.68,63.05,175.35,175.35,0,0,1-24.06,25.49c-17.64,15.4-38.12,27.31-59.64,36.39a316.68,316.68,0,0,1-67.28,19.21,421.24,421.24,0,0,1-69.75,6c-46.74.24-93.36-6.15-138.7-17.26a707.12,707.12,0,0,1-131.74-47,707,707,0,0,1-120.09-71.67c-37.42-27.9-72-59.78-101.57-96a420.24,420.24,0,0,1-39.75-57.57,315.41,315.41,0,0,1-28-64c-6.69-22.35-10.53-45.67-9.88-69a174.58,174.58,0,0,1,4.33-34.68A166.94,166.94,0,0,1-295.8-43.74Z"/><path class="cls-1" d="M-335.42-62.4A183.34,183.34,0,0,0-347.93-26a192.16,192.16,0,0,0-4.74,38.14c-.69,25.7,3.56,51.34,10.93,75.9a347.4,347.4,0,0,0,30.82,70.39,462.58,462.58,0,0,0,43.77,63.26c32.52,39.75,70.59,74.77,111.75,105.4A777,777,0,0,0-23.3,405.72a776.2,776.2,0,0,0,144.84,51.54C171.37,469.43,222.61,476.4,274,476.09a462.37,462.37,0,0,0,76.58-6.63,346.53,346.53,0,0,0,73.8-21.15c23.59-10,46-23,65.32-39.92A191.92,191.92,0,0,0,516,380.48a178.64,178.64,0,0,0,32.46-69,192.58,192.58,0,0,0,4.75-38.05c.71-25.64-3.51-51.25-10.86-75.78a345.79,345.79,0,0,0-30.73-70.34,461.87,461.87,0,0,0-43.68-63.25c-32.48-39.76-70.5-74.81-111.64-105.46a776.08,776.08,0,0,0-132-78.78A776.82,776.82,0,0,0,79.42-171.82C29.59-184-21.66-191-73-190.78a463.22,463.22,0,0,0-76.64,6.58,346.55,346.55,0,0,0-73.89,21.11c-23.62,10-46.09,23-65.45,39.93a192.9,192.9,0,0,0-26.39,28A183.94,183.94,0,0,0-335.42-62.4Zm0,0a183.42,183.42,0,0,1,20-32.82,191.79,191.79,0,0,1,26.36-28c19.36-16.93,41.83-30,65.46-40a347,347,0,0,1,73.9-21.17A463.47,463.47,0,0,1-73-191c51.38-.31,102.66,6.67,152.53,18.85a777.25,777.25,0,0,1,144.94,51.57A777.9,777.9,0,0,1,356.62-41.88c41.2,30.65,79.29,65.7,111.85,105.49a463.72,463.72,0,0,1,43.81,63.32,347.41,347.41,0,0,1,30.86,70.5c7.39,24.6,11.65,50.3,11,76.05a192.43,192.43,0,0,1-4.75,38.25,178.36,178.36,0,0,1-32.64,69.34,193.28,193.28,0,0,1-26.45,28c-19.41,16.94-41.92,30-65.59,40a346.8,346.8,0,0,1-74,21.13A462,462,0,0,1,274,476.84c-51.41.27-102.69-6.76-152.56-19a777.61,777.61,0,0,1-144.91-51.7,777.42,777.42,0,0,1-132.1-78.83c-41.16-30.68-79.22-65.75-111.73-105.55a463.08,463.08,0,0,1-43.73-63.31A347.15,347.15,0,0,1-341.85,88c-7.37-24.58-11.59-50.24-10.88-75.94A192.19,192.19,0,0,1-348-26.06,184,184,0,0,1-335.42-62.4Z"/><path class="cls-1" d="M-379-82.91a202.46,202.46,0,0,0-13.77,40A211.9,211.9,0,0,0-398-1c-.77,28.26,3.9,56.47,12,83.48A381.09,381.09,0,0,0-352.06,160a508.42,508.42,0,0,0,48.14,69.58c35.77,43.73,77.64,82.26,122.93,116A854.56,854.56,0,0,0-35.69,432a854.54,854.54,0,0,0,159.33,56.7c54.82,13.39,111.18,21.06,167.66,20.72a508.2,508.2,0,0,0,84.25-7.3,381.48,381.48,0,0,0,81.18-23.25c26-11,50.63-25.35,71.87-43.92a211.78,211.78,0,0,0,28.93-30.71,196.29,196.29,0,0,0,35.72-75.88,211.59,211.59,0,0,0,5.23-41.87c.78-28.21-3.86-56.38-12-83.37a381.39,381.39,0,0,0-33.81-77.39,510,510,0,0,0-48.06-69.58c-35.73-43.73-77.56-82.28-122.81-116a854.47,854.47,0,0,0-145.23-86.66,854.15,854.15,0,0,0-159.3-56.82C22.5-216.72-33.87-224.44-90.37-224.15a508.83,508.83,0,0,0-84.3,7.24,382,382,0,0,0-81.28,23.22c-26,11-50.71,25.34-72,43.94A210.58,210.58,0,0,0-357-119,201.46,201.46,0,0,0-379-82.91Zm0,0A201.82,201.82,0,0,1-357-119a211.27,211.27,0,0,1,29-30.78c21.28-18.61,46-33,72-44a381.79,381.79,0,0,1,81.3-23.29,509.26,509.26,0,0,1,84.33-7.31c56.52-.33,112.93,7.35,167.78,20.74a854.82,854.82,0,0,1,159.42,56.74,854.63,854.63,0,0,1,145.39,86.6c45.31,33.72,87.21,72.27,123,116a509.73,509.73,0,0,1,48.19,69.65,382.13,382.13,0,0,1,33.94,77.54c8.13,27.05,12.81,55.32,12,83.64a212,212,0,0,1-5.23,42.06,196.14,196.14,0,0,1-35.89,76.26,211.6,211.6,0,0,1-29.09,30.82c-21.34,18.64-46.11,33-72.14,44A381.89,381.89,0,0,1,375.68,503a508.72,508.72,0,0,1-84.38,7.25c-56.54.29-113-7.43-167.81-20.87A855.11,855.11,0,0,1-35.9,432.49a855.51,855.51,0,0,1-145.32-86.71c-45.28-33.74-87.14-72.32-122.9-116.09A509.45,509.45,0,0,1-352.22,160a381.36,381.36,0,0,1-33.86-77.49c-8.1-27-12.75-55.26-12-83.53a211.75,211.75,0,0,1,5.24-42A202.33,202.33,0,0,1-379-82.91Z"/><path class="cls-1" d="M-427-105.48a222.56,222.56,0,0,0-15.14,44c-.81,3.8-1.69,7.58-2.29,11.42-.32,1.91-.7,3.82-1,5.74l-.77,5.78c-.29,1.92-.46,3.85-.63,5.79l-.54,5.8-.32,5.81-.16,2.91-.06,2.91c-.84,31.09,4.29,62.12,13.22,91.84s21.91,58.21,37.29,85.18a558.8,558.8,0,0,0,52.95,76.54C-305,286.32-259,328.7-209.15,365.76A939.93,939.93,0,0,0-49.32,461a940.42,940.42,0,0,0,175.26,62.39c60.31,14.72,122.32,23.16,184.44,22.8a560,560,0,0,0,92.68-8c30.56-5.36,60.68-13.61,89.32-25.58s55.69-27.88,79.06-48.32l2.2-1.9,2.13-2,4.27-3.95,4.12-4.1c1.37-1.37,2.75-2.73,4-4.18l3.95-4.26c1.31-1.43,2.53-2.93,3.81-4.4,2.57-2.9,4.91-6,7.32-9A215.78,215.78,0,0,0,642.57,347c.81-3.79,1.7-7.56,2.29-11.4.32-1.91.7-3.81,1-5.73l.77-5.76c.28-1.92.46-3.85.63-5.78l.54-5.78.33-5.81.16-2.9.06-2.91c.86-31-4.25-62-13.14-91.71S613.32,151,598,124.05a559.48,559.48,0,0,0-52.87-76.54C505.8-.6,459.78-43,410-80.1a941.15,941.15,0,0,0-159.76-95.32A940.35,940.35,0,0,0,75-237.92c-60.3-14.77-122.31-23.26-184.46-22.93a559.42,559.42,0,0,0-92.73,8c-30.59,5.34-60.73,13.58-89.41,25.54S-347.37-199.46-370.8-179l-2.2,1.9-2.14,2-4.28,4-4.12,4.1c-1.38,1.37-2.76,2.74-4.06,4.18l-4,4.27c-1.32,1.43-2.54,2.94-3.82,4.4-2.57,2.91-4.93,6-7.34,9A222.52,222.52,0,0,0-427-105.48Zm0,0a222.58,222.58,0,0,1,24.22-39.72c2.41-3,4.76-6.13,7.33-9,1.28-1.47,2.5-3,3.82-4.41l3.95-4.27c1.3-1.45,2.68-2.81,4.06-4.18l4.13-4.11,4.27-4,2.14-2,2.2-1.9c23.42-20.48,50.61-36.32,79.2-48.41s58.83-20.25,89.42-25.61a560,560,0,0,1,92.76-8c62.18-.37,124.22,8.08,184.56,22.81a941.22,941.22,0,0,1,175.36,62.42A940.31,940.31,0,0,1,410.38-80.6C460.22-43.52,506.31-1.11,545.69,47a560.82,560.82,0,0,1,53,76.62c15.39,27,28.26,55.52,37.33,85.28s14.08,60.85,13.24,92l-.06,2.92-.16,2.91-.32,5.83-.54,5.81c-.18,1.94-.35,3.87-.63,5.8l-.77,5.78c-.27,1.93-.65,3.84-1,5.76-.6,3.85-1.48,7.64-2.29,11.45A215.58,215.58,0,0,1,604,431c-2.41,3-4.77,6.15-7.36,9.07-1.27,1.46-2.5,3-3.82,4.41l-4,4.28c-1.3,1.44-2.68,2.81-4.06,4.18l-4.14,4.12-4.28,4-2.15,2L572.05,465c-23.47,20.49-50.71,36.34-79.33,48.41s-58.9,20.23-89.52,25.58a560.67,560.67,0,0,1-92.81,8c-62.2.32-124.25-8.17-184.59-22.95A940.8,940.8,0,0,1-49.53,461.44a940.71,940.71,0,0,1-159.84-95.38c-49.81-37.11-95.86-79.54-135.2-127.69a560.18,560.18,0,0,1-52.92-76.61c-15.36-27-28.2-55.5-37.24-85.24s-14-60.78-13.17-91.87l.07-2.91.16-2.91.33-5.82.54-5.8c.17-1.93.35-3.87.63-5.79l.78-5.77c.26-1.93.64-3.83,1-5.75.6-3.84,1.49-7.62,2.3-11.42A222.56,222.56,0,0,1-427-105.48Z"/></g><path class="cls-2" d="M380.64,95.12l-.69-.69a.58.58,0,0,0-.23-.18.71.71,0,0,0-.32-.1,1,1,0,0,0-.38,0,1.05,1.05,0,0,0-.38.12l-.21.13a.91.91,0,0,0-.29.33l-.05.19a.5.5,0,0,0,.1.36l.69.69a.48.48,0,0,0,.23.19.71.71,0,0,0,.32.1,1,1,0,0,0,.38,0,1,1,0,0,0,.38-.11l.21-.13a.84.84,0,0,0,.28-.34l.06-.19a.52.52,0,0,0-.1-.36Z"/><path class="cls-1" d="M47.08,200.14A53,53,0,0,1,53,190.43a42.33,42.33,0,0,1,8-8.07,28.68,28.68,0,0,1,10.27-5.09,18.29,18.29,0,0,1,11.58.78,18.6,18.6,0,0,1,8.52,8.16,28.55,28.55,0,0,1,3.24,11.35,41.93,41.93,0,0,1-.8,11.73,53.78,53.78,0,0,1-3.7,11.12,46.6,46.6,0,0,1-14.73,18,28.31,28.31,0,0,1-10.83,4.74,18.59,18.59,0,0,1-11.71-1.36,18.33,18.33,0,0,1-8-8.44,28.53,28.53,0,0,1-2.61-11.16,42.37,42.37,0,0,1,1.1-11.34A52.06,52.06,0,0,1,47.08,200.14Zm0,0a52.38,52.38,0,0,0-3.58,10.77,40.36,40.36,0,0,0-.77,11.28,26.9,26.9,0,0,0,3.07,10.73,17,17,0,0,0,7.77,7.43,16.66,16.66,0,0,0,10.55.66,27,27,0,0,0,9.66-4.82,40.58,40.58,0,0,0,7.72-7.77,50.64,50.64,0,0,0,9.32-19.78,40.9,40.9,0,0,0,1.07-10.9,27.14,27.14,0,0,0-2.44-10.53,16.7,16.7,0,0,0-7.24-7.71,17,17,0,0,0-10.68-1.24,26.63,26.63,0,0,0-10.22,4.47,39.85,39.85,0,0,0-8.21,7.78A52.35,52.35,0,0,0,47.08,200.14Z"/></svg>