<?xml version="1.0" encoding="UTF-8" standalone="no"?>
<!-- Created with Inkscape (http://www.inkscape.org/) -->

<svg
   version="1.1"
   id="svg824"
   width="8.5in"
   height="8in"
   viewBox="0 0 816 768"
   sodipodi:docname="Eggsporesopp.svg"
   inkscape:version="1.1 (c68e22c387, 2021-05-23)"
   xmlns:inkscape="http://www.inkscape.org/namespaces/inkscape"
   xmlns:sodipodi="http://sodipodi.sourceforge.net/DTD/sodipodi-0.dtd"
   xmlns="http://www.w3.org/2000/svg"
   xmlns:svg="http://www.w3.org/2000/svg">
  <sodipodi:namedview
     id="namedview6"
     pagecolor="#ffffff"
     bordercolor="#666666"
     borderopacity="1.0"
     inkscape:pageshadow="2"
     inkscape:pageopacity="0.0"
     inkscape:pagecheckerboard="0"
     showgrid="false"
     inkscape:zoom="0.56406085"
     inkscape:cx="435.23673"
     inkscape:cy="569.97397"
     inkscape:window-width="2560"
     inkscape:window-height="1377"
     inkscape:window-x="-8"
     inkscape:window-y="-8"
     inkscape:window-maximized="1"
     inkscape:current-layer="svg824"
     inkscape:snap-others="false"
     inkscape:snap-nodes="false"
     units="in"
     inkscape:document-units="in" />
  <defs
     id="defs828">
    <inkscape:path-effect
       effect="simplify"
       id="path-effect4357"
       is_visible="true"
       lpeversion="1"
       steps="1"
       threshold="0.000625"
       smooth_angles="360"
       helper_size="0"
       simplify_individual_paths="false"
       simplify_just_coalesce="false" />
    <inkscape:path-effect
       effect="simplify"
       id="path-effect4353"
       is_visible="true"
       lpeversion="1"
       steps="1"
       threshold="0.000625"
       smooth_angles="360"
       helper_size="0"
       simplify_individual_paths="false"
       simplify_just_coalesce="false" />
    <inkscape:path-effect
       effect="simplify"
       id="path-effect4349"
       is_visible="true"
       lpeversion="1"
       steps="1"
       threshold="0.000625"
       smooth_angles="360"
       helper_size="0"
       simplify_individual_paths="false"
       simplify_just_coalesce="false" />
    <inkscape:path-effect
       effect="simplify"
       id="path-effect3881"
       is_visible="true"
       lpeversion="1"
       steps="1"
       threshold="0.000625"
       smooth_angles="360"
       helper_size="0"
       simplify_individual_paths="false"
       simplify_just_coalesce="false" />
    <inkscape:path-effect
       effect="simplify"
       id="path-effect3228"
       is_visible="true"
       lpeversion="1"
       steps="1"
       threshold="0.000625"
       smooth_angles="360"
       helper_size="0"
       simplify_individual_paths="false"
       simplify_just_coalesce="false" />
    <inkscape:path-effect
       effect="simplify"
       id="path-effect2163"
       is_visible="true"
       lpeversion="1"
       steps="1"
       threshold="0.000625"
       smooth_angles="360"
       helper_size="0"
       simplify_individual_paths="false"
       simplify_just_coalesce="false" />
    <inkscape:path-effect
       effect="simplify"
       id="path-effect2144"
       is_visible="true"
       lpeversion="1"
       steps="1"
       threshold="0.000625"
       smooth_angles="360"
       helper_size="0"
       simplify_individual_paths="false"
       simplify_just_coalesce="false" />
    <inkscape:path-effect
       effect="simplify"
       id="path-effect1997"
       is_visible="true"
       lpeversion="1"
       steps="1"
       threshold="0.000625"
       smooth_angles="360"
       helper_size="0"
       simplify_individual_paths="false"
       simplify_just_coalesce="false" />
    <inkscape:path-effect
       effect="simplify"
       id="path-effect1624"
       is_visible="true"
       lpeversion="1"
       steps="1"
       threshold="0.000625"
       smooth_angles="360"
       helper_size="0"
       simplify_individual_paths="false"
       simplify_just_coalesce="false" />
    <inkscape:path-effect
       effect="simplify"
       id="path-effect1618"
       is_visible="true"
       lpeversion="1"
       steps="1"
       threshold="0.000625"
       smooth_angles="360"
       helper_size="0"
       simplify_individual_paths="false"
       simplify_just_coalesce="false" />
    <inkscape:path-effect
       effect="simplify"
       id="path-effect1612"
       is_visible="true"
       lpeversion="1"
       steps="1"
       threshold="0.000625"
       smooth_angles="360"
       helper_size="0"
       simplify_individual_paths="false"
       simplify_just_coalesce="false" />
    <inkscape:path-effect
       effect="simplify"
       id="path-effect1606"
       is_visible="true"
       lpeversion="1"
       steps="1"
       threshold="0.000625"
       smooth_angles="360"
       helper_size="0"
       simplify_individual_paths="false"
       simplify_just_coalesce="false" />
    <inkscape:path-effect
       effect="simplify"
       id="path-effect1600"
       is_visible="true"
       lpeversion="1"
       steps="1"
       threshold="0.000625"
       smooth_angles="360"
       helper_size="0"
       simplify_individual_paths="false"
       simplify_just_coalesce="false" />
    <inkscape:path-effect
       effect="simplify"
       id="path-effect1586"
       is_visible="true"
       lpeversion="1"
       steps="1"
       threshold="0.000625"
       smooth_angles="360"
       helper_size="0"
       simplify_individual_paths="false"
       simplify_just_coalesce="false" />
    <inkscape:path-effect
       effect="simplify"
       id="path-effect1582"
       is_visible="true"
       lpeversion="1"
       steps="1"
       threshold="0.000625"
       smooth_angles="360"
       helper_size="0"
       simplify_individual_paths="false"
       simplify_just_coalesce="false" />
    <inkscape:path-effect
       effect="powerstroke"
       id="path-effect1576"
       is_visible="true"
       lpeversion="1"
       offset_points="0.41369876,6.6482188"
       not_jump="true"
       sort_points="true"
       interpolator_type="CentripetalCatmullRom"
       interpolator_beta="0.75"
       start_linecap_type="round"
       linejoin_type="spiro"
       miter_limit="4"
       scale_width="1"
       end_linecap_type="round" />
    <inkscape:path-effect
       effect="simplify"
       id="path-effect1574"
       is_visible="true"
       lpeversion="1"
       steps="1"
       threshold="0.0034615385"
       smooth_angles="0"
       helper_size="0"
       simplify_individual_paths="false"
       simplify_just_coalesce="false"
       step="1" />
    <inkscape:path-effect
       effect="powerstroke"
       id="path-effect1569"
       is_visible="true"
       lpeversion="1"
       offset_points="0.55022554,6.6482188"
       not_jump="true"
       sort_points="true"
       interpolator_type="CentripetalCatmullRom"
       interpolator_beta="0.75"
       start_linecap_type="round"
       linejoin_type="spiro"
       miter_limit="4"
       scale_width="1"
       end_linecap_type="round" />
    <inkscape:path-effect
       effect="simplify"
       id="path-effect1567"
       is_visible="true"
       lpeversion="1"
       steps="1"
       threshold="0.0034615385"
       smooth_angles="0"
       helper_size="0"
       simplify_individual_paths="false"
       simplify_just_coalesce="false"
       step="1" />
    <inkscape:path-effect
       effect="powerstroke"
       id="path-effect1562"
       is_visible="true"
       lpeversion="1"
       offset_points="0.44092004,12.46541"
       not_jump="true"
       sort_points="true"
       interpolator_type="CentripetalCatmullRom"
       interpolator_beta="0.75"
       start_linecap_type="round"
       linejoin_type="spiro"
       miter_limit="4"
       scale_width="1"
       end_linecap_type="round" />
    <inkscape:path-effect
       effect="simplify"
       id="path-effect1560"
       is_visible="true"
       lpeversion="1"
       steps="1"
       threshold="0.0034615385"
       smooth_angles="0"
       helper_size="0"
       simplify_individual_paths="false"
       simplify_just_coalesce="false"
       step="1" />
    <inkscape:path-effect
       effect="powerstroke"
       id="path-effect1555"
       is_visible="true"
       lpeversion="1"
       offset_points="1.2909431,12.46541"
       not_jump="true"
       sort_points="true"
       interpolator_type="CentripetalCatmullRom"
       interpolator_beta="0.75"
       start_linecap_type="round"
       linejoin_type="spiro"
       miter_limit="4"
       scale_width="1"
       end_linecap_type="round" />
    <inkscape:path-effect
       effect="simplify"
       id="path-effect1553"
       is_visible="true"
       lpeversion="1"
       steps="1"
       threshold="0.0034615385"
       smooth_angles="0"
       helper_size="0"
       simplify_individual_paths="false"
       simplify_just_coalesce="false"
       step="1" />
    <inkscape:path-effect
       effect="simplify"
       id="path-effect1550"
       is_visible="true"
       lpeversion="1"
       steps="1"
       threshold="0.000625"
       smooth_angles="360"
       helper_size="0"
       simplify_individual_paths="false"
       simplify_just_coalesce="false" />
    <inkscape:path-effect
       effect="simplify"
       id="path-effect1546"
       is_visible="true"
       lpeversion="1"
       steps="1"
       threshold="0.000625"
       smooth_angles="360"
       helper_size="0"
       simplify_individual_paths="false"
       simplify_just_coalesce="false" />
    <inkscape:path-effect
       effect="fill_between_many"
       method="originald"
       linkedpaths="#path1121,0,1"
       id="path-effect1156" />
  </defs>
  <path
     id="path1158"
     style="stroke-width:1.59879"
     d="m 19.40824,654.58995 c 0.549424,0.14438 1.056836,-0.0415 1.373636,-0.65416 78.609571,-10.56678 161.118014,-42.68362 219.444574,28.82129 46.96951,47.48715 114.84067,43.49018 172.02238,-55.98472 3.21404,-5.77635 6.40642,-11.82615 9.60322,-17.82191 42.01719,-19.30359 84.9067,-47.63706 128.78019,-38.31856 39.22944,3.69155 75.43413,19.97468 115.45635,-2.42145 17.69366,-12.05008 48.19935,-44.01335 54.81763,-70.88969 1.74949,-1.99366 3.46169,-4.03959 5.12688,-6.15412 6.69636,-8.00827 13.56498,-15.84408 19.71251,-24.50679 1.55242,-2.40066 3.10312,-4.80635 4.63325,-7.23097 a 21.344007,26.629083 2.0012957 0 0 25.28734,-14.59862 21.344007,26.629083 2.0012957 0 0 -10.34683,-35.16664 21.344007,26.629083 2.0012957 0 0 -28.36671,13.45034 21.344007,26.629083 2.0012957 0 0 4.74758,30.52404 c -3.28476,5.69592 -6.85192,11.15338 -10.42823,16.57835 -3.09394,4.15394 -6.30702,8.16852 -9.56577,12.12832 -0.0935,-0.53825 -0.092,-1.10625 -0.21742,-1.63409 -0.45119,0.10622 -0.87535,0.31948 -1.32181,0.44452 2.40011,-6.59085 4.26792,-13.43926 5.81443,-20.40015 0.72195,-4.2696 -0.51798,-7.97095 -2.33816,-11.36458 a 27.229579,23.047609 79.632764 0 0 2.24751,-4.31878 27.229579,23.047609 79.632764 0 0 -9.17186,-33.89662 c 1.36025,-4.34441 2.80737,-8.66109 4.46135,-12.84652 a 21.344007,26.629083 2.0012957 0 0 2.81031,1.93209 21.344007,26.629083 2.0012957 0 0 28.36671,-13.45036 21.344007,26.629083 2.0012957 0 0 -10.34683,-35.16664 21.344007,26.629083 2.0012957 0 0 -28.36671,13.45033 21.344007,26.629083 2.0012957 0 0 -0.007,22.44289 c -3.30934,5.81212 -5.96174,12.09585 -8.26512,18.5812 a 27.229579,23.047609 79.632764 0 0 -22.22821,14.97619 27.229579,23.047609 79.632764 0 0 12.36284,36.29579 27.229579,23.047609 79.632764 0 0 15.69501,1.84474 c 0.50537,1.80996 0.66667,3.7435 0.25647,5.85696 -1.61049,7.26028 -3.55308,14.41108 -6.15914,21.23376 -0.49777,1.24678 -1.00732,2.4866 -1.52793,3.7186 -4.43982,3.57313 -8.66509,7.99632 -12.84231,12.61105 2.47701,-7.13631 4.05554,-14.10117 4.39647,-22.33453 -0.0299,-9.29647 -3.54417,-15.28996 -9.05121,-20.62258 a 21.344007,26.629083 2.0012957 0 0 -11.66091,-18.22127 21.344007,26.629083 2.0012957 0 0 -9.57518,-2.27094 c 0.1821,-3.84294 0.69676,-7.66818 1.70164,-11.47271 0.46684,-2.03923 0.95837,-4.07252 1.48067,-6.0909 a 28.568847,23.751949 85.585844 0 0 0.435,-0.88666 28.568847,23.751949 85.585844 0 0 1.59347,-6.19913 c 0.97634,-3.08104 2.07084,-6.10367 3.35394,-9.02938 1.77593,-3.94992 3.61014,-7.87354 5.57712,-11.68722 a 21.491863,17.979155 83.922915 0 0 21.09487,-11.07521 21.491863,17.979155 83.922915 0 0 -9.36243,-28.62203 21.491863,17.979155 83.922915 0 0 -23.70623,10.07119 21.491863,17.979155 83.922915 0 0 3.31723,23.00016 c -1.3409,2.12527 -2.6121,4.31111 -3.82756,6.54696 a 28.568847,23.751949 85.585844 0 0 -10.25406,-11.01746 28.568847,23.751949 85.585844 0 0 -31.3398,13.58105 28.568847,23.751949 85.585844 0 0 12.21556,38.01265 28.568847,23.751949 85.585844 0 0 14.02885,2.22244 c -0.56404,3.50506 -0.76646,7.02939 -0.72449,10.56163 a 21.344007,26.629083 2.0012957 0 0 -4.37531,7.8059 21.344007,26.629083 2.0012957 0 0 10.34681,35.16666 21.344007,26.629083 2.0012957 0 0 24.37218,-6.36164 c 0.0152,0.41588 0.0319,0.83008 0.0312,1.26235 -0.48683,9.82111 -3.17509,18.93604 -6.79629,27.6779 -2.7149,6.44022 -5.58242,12.77231 -8.70953,18.91495 -9.73676,10.0138 -20.05555,17.68972 -32.15103,18.25797 -48.32166,5.90275 -94.09727,-27.1867 -142.95308,-9.09147 -15.61379,5.87933 -30.64709,15.77779 -45.80906,24.73552 13.39765,-25.95896 26.93292,-51.88007 41.04929,-74.93959 l 8.72333,-2.08663 c 2.17927,-2.92919 1.04058,-1.47095 3.42417,-4.36825 1.70062,-1.922 2.19477,-2.59871 4.10864,-4.26545 0.0448,-0.039 0.13672,-0.0957 0.19294,-0.13952 7.02844,-0.85024 14.06503,-0.9502 21.03851,0.98594 a 21.701308,26.190649 1.1110784 0 0 25.1466,20.68496 21.701308,26.190649 1.1110784 0 0 17.51148,-30.56929 21.701308,26.190649 1.1110784 0 0 -25.2044,-20.90882 21.701308,26.190649 1.1110784 0 0 -17.4437,21.862 c -3.78979,-0.0261 -7.58676,0.27587 -11.37961,0.79094 -6.54446,1.21933 -12.84286,3.87002 -19.03503,6.75188 6.61672,-10.17848 13.38999,-19.53888 20.32503,-28.0096 a 28.843476,21.758012 87.193719 0 0 6.56468,0.0198 28.843476,21.758012 87.193719 0 0 17.24968,-24.2641 c 3.65435,-0.12614 7.32485,0.13657 10.9215,0.58749 l 1.43476,-0.76489 a 21.701308,26.190649 1.1110784 0 0 24.37667,17.77703 21.701308,26.190649 1.1110784 0 0 17.51193,-30.57165 21.701308,26.190649 1.1110784 0 0 -18.65208,-21.15158 c 22.68376,-21.34245 44.76974,-45.1608 65.6705,-87.94073 6.02628,-13.65532 13.54239,-33.87092 20.3595,-55.30258 2.12045,-4.09523 4.3764,-8.08166 6.83856,-11.88755 5.55655,-8.67079 11.33989,-17.11998 16.5543,-26.11687 7.85208,-12.50327 16.30452,-24.39434 24.8453,-36.18838 3.86252,-5.35462 7.7502,-10.70131 11.75625,-15.9034 a 21.348633,26.623313 2.0556403 0 0 24.92904,-14.34866 21.348633,26.623313 2.0556403 0 0 -9.92703,-35.34958 21.348633,26.623313 2.0556403 0 0 -28.52391,12.93641 21.348633,26.623313 2.0556403 0 0 5.55489,31.90315 c -6.25674,7.81869 -12.22579,15.97919 -18.13595,24.19957 -8.02053,11.22046 -16.07324,22.41937 -23.56275,34.18563 5.26926,-21.35793 8.59659,-41.1243 7.50267,-54.10438 a 27.259297,23.022483 79.505746 0 0 17.31851,-14.42705 27.259297,23.022483 79.505746 0 0 -3.70459,-28.56899 c 1.60851,-4.03428 3.41658,-7.94598 5.48062,-11.67546 0.51953,-0.92153 1.0497,-1.83391 1.58491,-2.74002 a 21.348633,26.623313 2.0556403 0 0 23.79775,-14.791961 21.348633,26.623313 2.0556403 0 0 -9.92469,-35.351391 21.348633,26.623313 2.0556403 0 0 -28.52625,12.938226 21.348633,26.623313 2.0556403 0 0 5.62063,31.968902 c -2.40396,3.717614 -4.75553,7.482074 -6.91493,11.433854 a 27.259297,23.022483 79.505746 0 0 -29.86991,12.03917 27.259297,23.022483 79.505746 0 0 11.92789,36.51629 27.259297,23.022483 79.505746 0 0 5.63346,2.30608 c -7.9408,14.75631 -14.29789,32.87868 -20.24746,51.85835 -1.35709,-6.82812 -2.95277,-13.58214 -4.86418,-20.21716 -0.26553,-0.9469 -0.55096,-1.88379 -0.82997,-2.82405 a 21.348633,26.623313 2.0556403 0 0 9.53344,-12.06358 21.348633,26.623313 2.0556403 0 0 -9.92512,-35.34904 21.348633,26.623313 2.0556403 0 0 -8.3693,-2.44272 c -0.29659,-3.85119 -0.73746,-7.67757 -1.32677,-11.48375 a 28.582412,23.740675 85.497901 0 0 3.98463,-6.89909 28.582412,23.740675 85.497901 0 0 -5.3938,-32.64643 c 0.21693,-0.178756 0.43293,-0.359248 0.65124,-0.5359 l -0.93601,0.197528 a 28.582412,23.740675 85.497901 0 0 -0.62343,-0.741549 c 1.12969,-3.646594 2.48585,-6.755516 4.34863,-9.641825 a 21.505849,17.967462 83.814492 0 0 10.20003,15.593545 21.505849,17.967462 83.814492 0 0 23.82349,-9.64276 21.505849,17.967462 83.814492 0 0 -9.01968,-28.790083 21.505849,17.967462 83.814492 0 0 -23.82393,9.64511 21.505849,17.967462 83.814492 0 0 -0.86278,2.824001 c -3.53103,1.714789 -6.73321,4.063648 -9.5985,7.1745 -1.94677,2.113084 -3.53699,4.214615 -4.88161,6.404683 a 28.582412,23.740675 85.497901 0 0 -27.13962,14.942574 28.582412,23.740675 85.497901 0 0 11.75924,38.229516 28.582412,23.740675 85.497901 0 0 13.79932,2.50196 c 0.39619,2.93103 0.68897,5.87904 0.87911,8.8435 a 21.348633,26.623313 2.0556403 0 0 -5.99419,9.40367 21.348633,26.623313 2.0556403 0 0 9.92513,35.34903 21.348633,26.623313 2.0556403 0 0 4.08957,1.60613 c 0.58486,1.87315 1.15197,3.75578 1.68086,5.65409 2.89742,10.10984 4.9872,20.51634 6.64571,31.02716 1.00998,6.08116 1.0495,12.22229 0.38369,18.34582 -0.41763,4.97457 -2.19665,9.4749 -3.63355,14.08594 -0.6834,2.19684 -1.24583,4.44322 -1.80323,6.69157 l 0.0236,-0.009 c -7.17617,21.11233 -15.21611,40.37198 -26.04443,53.67998 -14.60179,19.55487 -29.6868,33.75226 -44.85454,46.91164 a 22.325012,17.30819 88.017164 0 0 -0.11021,-2.36816 22.325012,17.30819 88.017164 0 0 -20.28423,-18.14142 22.325012,17.30819 88.017164 0 0 -13.71589,25.82906 22.325012,17.30819 88.017164 0 0 1.70163,6.09429 l -9.00662,2.23721 c -1.80565,2.49521 -3.60395,5.00077 -5.38324,7.52633 0.0235,-4.56871 -0.10869,-9.14424 -0.38396,-13.71482 a 29.411727,23.071266 88.430644 0 0 8.27319,-28.22098 29.411727,23.071266 88.430644 0 0 -26.99451,-23.83094 29.411727,23.071266 88.430644 0 0 -18.33893,34.08443 29.411727,23.071266 88.430644 0 0 22.91722,24.15774 c 0.58479,7.73554 0.62622,15.49673 0.0963,23.20031 a 28.843476,21.758012 87.193719 0 0 -4.21596,9.34436 c -2.4474,3.81847 -4.85485,7.67695 -7.13235,11.66009 -1.49588,2.75805 -2.93011,5.5603 -4.33668,8.38446 -0.60633,-2.4516 -1.25918,-4.88244 -1.97073,-7.28677 a 21.701308,26.190649 1.1110784 0 0 11.23963,-27.7565 21.701308,26.190649 1.1110784 0 0 -25.2063,-20.90938 21.701308,26.190649 1.1110784 0 0 -17.51383,30.5711 21.701308,26.190649 1.1110784 0 0 16.54574,20.5196 c 1.7157,5.40815 3.15138,10.94947 4.25465,16.62249 0.74274,4.45828 0.91033,8.9398 0.73592,13.41373 -5.4951,11.61738 -11.12964,23.13417 -16.55367,34.80185 -2.78614,5.81398 -5.90883,11.36779 -8.94157,16.98799 l 2.65434,-0.68114 c -11.7356,24.71388 -23.31175,49.92894 -35.84145,72.05812 -4.8974,1.6552 -9.83602,3.02957 -14.87658,3.68258 -29.16449,8.81704 -56.33813,3.24776 -82.34025,-17.99459 C 291.05476,552.6339 272.71639,527.69188 261.62965,492.74987 244.75632,437.5377 212.7441,400.89035 184.14877,361.78747 145.61618,320.71378 80.393357,261.35233 39.929091,276.48327 c -2.832106,1.87939 0.603304,9.12342 2.126168,8.37013 74.739671,62.15102 156.118741,111.1998 200.508281,218.38468 32.96414,69.68715 86.92512,122.75223 145.58428,116.1003 -22.8031,33.44598 -46.13713,52.35466 -70.71127,56.04455 -24.70593,10.55985 -45.59713,2.42119 -61.51814,-24.48251 -24.56749,-43.19559 -59.90019,-49.76859 -92.51412,-62.68709 -42.02354,-4.54842 -111.469792,-0.9958 -145.950209,58.71711 -1.708065,3.81551 0.305916,7.22626 1.954159,7.65951 z M 492.25906,482.06443 c -0.0825,-0.0149 2.03399,-0.86194 2.81901,-1.1051 0.40172,-0.12443 0.80812,-0.22382 1.21543,-0.31715 -1.27997,0.48113 -2.56166,0.95699 -3.85457,1.37274 -0.11188,0.0359 -0.16809,0.0516 -0.17988,0.0496 z m 50.81742,-61.75231 c 0.0991,-0.0953 0.19901,-0.19675 0.29807,-0.29189 1.58547,-0.7835 3.17459,-1.55434 4.76446,-2.32043 a 21.701308,26.190649 1.1110784 0 0 0.0787,2.01616 c -1.72251,0.10141 -3.43706,0.29412 -5.14125,0.59616 z m -18.33397,-23.07107 a 28.843476,21.758012 87.193719 0 0 -4.31676,-2.18457 c 2.99967,-4.63774 6.14461,-9.13304 9.34227,-13.5717 a 22.325012,17.30819 88.017164 0 0 5.88464,6.0347 c -3.64574,3.15244 -7.28253,6.38985 -10.91015,9.72157 z" />
</svg>
