<?xml version="1.0" encoding="UTF-8" standalone="no"?>
<!-- Created with Inkscape (http://www.inkscape.org/) -->

<svg
   version="1.1"
   id="svg824"
   width="951.87128"
   height="1016.7053"
   viewBox="0 0 951.87128 1016.7053"
   sodipodi:docname="Havedderkopp.svg"
   inkscape:version="1.1 (c68e22c387, 2021-05-23)"
   xmlns:inkscape="http://www.inkscape.org/namespaces/inkscape"
   xmlns:sodipodi="http://sodipodi.sourceforge.net/DTD/sodipodi-0.dtd"
   xmlns="http://www.w3.org/2000/svg"
   xmlns:svg="http://www.w3.org/2000/svg">
  <sodipodi:namedview
     id="namedview6"
     pagecolor="#ffffff"
     bordercolor="#666666"
     borderopacity="1.0"
     inkscape:pageshadow="2"
     inkscape:pageopacity="0.0"
     inkscape:pagecheckerboard="0"
     showgrid="false"
     inkscape:zoom="0.56406086"
     inkscape:cx="476.01246"
     inkscape:cy="773.85267"
     inkscape:window-width="2560"
     inkscape:window-height="1377"
     inkscape:window-x="-8"
     inkscape:window-y="-8"
     inkscape:window-maximized="1"
     inkscape:current-layer="g1333" />
  <defs
     id="defs828" />
  <g
     id="g1333"
     transform="translate(15.955724,12.410008)">
    <path
       style="fill:#2b2b2b;stroke-width:0.476421"
       d="m 684.48278,991.59097 c -3.92246,-2.9233 -7.3135,-6.36852 -10.95286,-11.12771 -3.71697,-4.86078 -7.60795,-11.4182 -7.60795,-12.82164 0,-0.51634 -0.54092,-1.71935 -1.20208,-2.67339 -0.66115,-0.95407 -6.47347,-15.32846 -12.9162,-31.94313 -7.77257,-20.0439 -12.13728,-30.69181 -12.97152,-31.64484 -0.6915,-0.78997 -1.63111,-2.29188 -2.08802,-3.33762 -0.45701,-1.04574 -11.67841,-29.4504 -24.93665,-63.12148 -22.37335,-56.82008 -24.10468,-61.42284 -24.08806,-64.04029 0.0165,-2.63366 -0.0981,-2.93409 -1.74289,-4.54163 -1.62297,-1.58662 -4.72368,-9.4016 -39.61597,-99.84854 -20.82037,-53.96994 -39.15865,-101.55742 -40.75179,-105.74992 -2.1291,-5.60319 -3.29557,-8.01679 -4.40279,-9.11008 -0.82846,-0.81802 -1.65238,-2.06929 -1.83083,-2.78059 -0.51006,-2.03212 1.66094,-28.3291 2.46752,-29.8888 0.62122,-1.20131 0.59717,-1.40621 -0.26586,-2.26929 -1.68592,-1.68591 -2.99234,-1.65876 -6.76309,0.1405 -1.92515,0.91854 -5.26892,2.04503 -7.43064,2.5033 -3.52448,0.74712 -3.93051,0.94498 -3.93051,1.91502 0,0.595 0.21437,1.2143 0.47642,1.37624 0.26205,0.16194 0.47641,0.88395 0.47641,1.60444 0,2.07106 -5.22362,26.7571 -5.96548,28.19155 -0.36743,0.71064 -1.55051,1.72861 -2.62894,2.2622 -1.88718,0.93369 -4.09916,4.59165 -58.88047,97.36782 -31.30581,53.01867 -57.23572,96.88073 -57.62203,97.4712 -0.3863,0.59047 -1.52574,1.59334 -2.53209,2.22865 -1.64933,1.04117 -1.85249,1.3921 -2.06077,3.55981 -0.14525,1.51155 -0.68989,3.07273 -1.46632,4.20304 -0.6794,0.98905 -21.13199,24.18867 -45.4502,51.55463 -32.45198,36.51917 -44.78528,50.08778 -46.35882,51.00208 -1.35897,0.78962 -7.87223,7.34151 -17.79003,17.89548 -8.60539,9.15734 -17.23456,18.31891 -19.17596,20.35905 -2.31698,2.43475 -3.52982,4.0906 -3.52982,4.81905 0,1.99815 -1.82982,3.50717 -8.37305,6.90491 -6.85363,3.55897 -13.71323,7.89206 -18.77448,11.85965 -1.69855,1.3315 -3.16457,2.34461 -3.25784,2.25137 -0.22538,-0.22539 1.92642,-3.9338 4.84132,-8.34357 3.07499,-4.65191 10.37918,-13.76375 13.93959,-17.38936 1.54391,-1.57219 3.1295,-3.6493 3.52352,-4.61577 0.45122,-1.10677 7.55917,-9.05385 19.20187,-21.46882 12.95735,-13.81673 18.82746,-20.41498 19.62908,-22.06377 1.39388,-2.86706 89.07729,-101.7002 91.96215,-103.65602 1.7181,-1.16475 1.91823,-1.51949 2.17747,-3.85929 0.26175,-2.36257 4.96662,-10.5047 56.61813,-97.98192 l 56.33264,-95.40529 -1.03344,-2.40232 c -0.67282,-1.56404 -0.92547,-2.83979 -0.72401,-3.65604 0.17019,-0.68963 2.45411,-7.00112 5.07541,-14.02566 3.82307,-10.24539 4.65308,-12.90773 4.19576,-13.45889 -0.31365,-0.37785 -0.78491,-0.68706 -1.04737,-0.68706 -0.26246,0 -1.76136,-0.85755 -3.33097,-1.90568 -3.2195,-2.14995 -3.32054,-2.17501 -4.81707,-1.19444 -2.2126,1.44976 -25.75169,10.72225 -27.17804,10.706 -0.8136,-0.009 -2.01516,-0.3233 -2.67023,-0.69776 -0.65517,-0.37448 -1.63194,-0.68848 -2.17069,-0.69777 -0.53876,-0.009 -45.66777,21.99684 -100.28666,48.90248 -88.06739,43.38264 -99.60365,48.94304 -101.9274,49.12818 -2.36258,0.18828 -2.80776,0.41138 -4.526,2.26844 -1.79441,1.93931 -5.53902,3.66076 -64.13078,29.48131 -36.90987,16.26564 -62.804898,27.42171 -63.650253,27.42171 -0.783831,0 -2.11045,-0.23888 -2.948032,-0.53088 -2.345358,-0.81758 -56.966758,3.67369 -58.648384,4.82243 -1.890357,1.29129 -3.756603,1.39664 -7.360767,0.41549 -10.114157,-2.75338 -21.07442104,-4.70704 -26.4071816,-4.70704 -1.604075,0 -2.916491,-0.18662 -2.916491,-0.41468 0,-0.63454 9.7600154,-3.34557 16.5599126,-4.59984 3.338555,-0.61583 8.857163,-1.36852 12.263578,-1.67272 3.662404,-0.32702 6.757324,-0.85369 7.573202,-1.28872 1.022389,-0.54517 8.501309,-1.32378 28.876551,-3.0064 23.587057,-1.94781 27.760243,-2.40493 29.349435,-3.21471 1.018946,-0.5192 29.1873,-13.01044 62.59634,-27.75829 50.19373,-22.15716 61.19881,-26.85324 63.36403,-27.03867 2.34674,-0.20096 2.8008,-0.42863 4.34908,-2.18053 1.54531,-1.74846 12.4092,-7.21421 102.36322,-51.50009 l 100.63443,-49.54393 0.96945,-2.06243 c 0.5332,-1.13436 1.42108,-2.35701 1.97305,-2.71699 0.55197,-0.36002 6.57769,-1.96204 13.39052,-3.56001 6.81283,-1.59801 12.96409,-3.13141 13.66952,-3.4076 1.0065,-0.39404 1.51635,-0.3383 2.36896,0.25889 0.59758,0.41853 1.56723,0.76099 2.1548,0.76099 1.1387,0 2.41942,-1.75104 1.74144,-2.38106 -0.22076,-0.20519 -5.97559,-0.48676 -12.78842,-0.62578 -12.83477,-0.26184 -19.75818,-0.98238 -18.77889,-1.95442 0.70358,-0.69838 9.49895,-1.37267 19.42838,-1.48948 6.74461,-0.0793 11.80268,-0.33197 12.07381,-0.6031 0.66879,-0.66881 -0.40458,-2.47459 -1.47094,-2.47459 -0.47455,0 -1.5472,0.34136 -2.38351,0.75861 -0.8588,0.4284 -1.87572,0.61001 -2.33624,0.41725 -0.44854,-0.18776 -6.4454,-1.68506 -13.32635,-3.32728 -6.88105,-1.64227 -13.05979,-3.34557 -13.73066,-3.78516 -0.67089,-0.43955 -1.5861,-1.66172 -2.03381,-2.71589 l -0.81402,-1.91669 -65.73232,-32.36907 C 209.73165,373.82603 218.09009,378.01905 216.76827,376.02166 c -1.11735,-1.68844 -1.34031,-1.79978 -3.60414,-1.79978 -2.15268,0 -9.23504,-3.01054 -65.62302,-27.89481 l -63.209903,-27.8948 -26.382082,-2.13095 c -20.869469,-1.68567 -26.879828,-2.31863 -28.764188,-3.02918 -1.31061,-0.4942 -4.351531,-1.03163 -6.760451,-1.1948 -8.305036,-0.56253 -24.0016775,-3.68846 -28.9329446,-5.7619 -1.422437,-0.5981 -1.409123,-0.60653 1.406781,-0.89105 7.9501935,-0.80328 14.9950781,-1.99533 21.6614536,-3.66527 8.368438,-2.09631 10.103681,-2.23087 12.209445,-0.94684 1.281939,0.7817 5.300972,1.22233 28.785821,3.15601 24.435889,2.01199 27.62541,2.18529 30.441091,1.65401 3.120062,-0.58872 3.177518,-0.57997 7.18397,1.09333 2.221329,0.92774 30.515867,13.37957 62.876787,27.67074 58.87728,26.0013 60.71216,26.8775 61.5502,29.39159 0.13746,0.41242 1.19119,0.66857 3.03696,0.73826 2.7026,0.10208 6.56332,1.94815 88.10585,42.13016 46.90368,23.11289 91.77675,45.19499 99.71796,49.07134 l 14.43857,7.04791 1.99792,-0.90709 c 1.09897,-0.49889 2.49364,-0.91179 3.09937,-0.91755 1.12839,-0.0107 21.64624,8.09852 26.20788,10.3581 2.06428,1.02258 2.68385,1.14935 3.33489,0.68241 0.43987,-0.31538 1.83856,-1.16213 3.10824,-1.88171 4.84505,-2.74581 4.90408,-1.066 -0.5501,-15.63424 -2.64184,-7.05654 -4.94072,-13.40059 -5.10854,-14.09789 -0.19703,-0.81866 0.0444,-2.05676 0.67994,-3.49473 0.92909,-2.10027 0.94096,-2.31263 0.21013,-3.7346 -0.42625,-0.82923 -25.58119,-43.52804 -55.89998,-94.88625 -30.31875,-51.3582 -55.37123,-93.84683 -55.67216,-94.41917 -0.30094,-0.57235 -0.54715,-1.99771 -0.54715,-3.16747 0,-1.96142 -0.14408,-2.21398 -1.85243,-3.24716 -2.55059,-1.54258 -90.88714,-101.10248 -92.47899,-104.22864 -0.78819,-1.5479 -7.39512,-8.95743 -19.53326,-21.90611 -13.57648,-14.48307 -18.54245,-20.089282 -19.11283,-21.576979 -0.42384,-1.105459 -1.01854,-2.09256 -1.32158,-2.193571 -0.90025,-0.300091 -7.97489,-8.517534 -12.18308,-14.151076 -3.74519,-5.013731 -8.83116,-12.887787 -8.83116,-13.67232 0,-0.204808 2.19749,1.292301 4.88331,3.326892 5.31334,4.025019 11.26789,7.697507 18.69954,11.533013 5.13203,2.648665 6.33565,3.692005 6.77116,5.869489 0.39881,1.99404 38.11441,42.216512 40.48002,43.170652 1.29084,0.52064 12.14155,12.46307 46.31697,50.97707 24.54718,27.66342 45.14064,50.98726 45.76326,51.83076 0.76281,1.03342 1.20386,2.39998 1.35231,4.19 0.2072,2.49865 0.32473,2.70968 1.9793,3.55376 0.96746,0.49357 2.29237,1.71672 2.94426,2.71812 0.65189,1.00139 26.62555,44.91301 57.71924,97.58137 51.13892,86.62216 56.7021,95.85159 58.29565,96.7135 0.96882,0.52407 2.1422,1.48882 2.60747,2.1439 0.7655,1.07797 6.13939,25.45385 6.13939,27.84845 0,0.49905 -0.25544,1.61398 -0.56775,2.4776 -0.31231,0.86361 -0.43286,1.70516 -0.26793,1.87009 0.16492,0.16493 1.85993,0.59712 3.76671,0.96044 1.90679,0.36332 5.05106,1.41292 6.98726,2.33241 4.17986,1.98506 5.2456,2.06004 6.94132,0.48852 1.20528,-1.11697 1.23789,-1.2586 0.58272,-2.5256 -0.46908,-0.90715 -1.03921,-5.83818 -1.75878,-15.21141 -1.1738,-15.29097 -1.11962,-15.92178 1.53059,-17.80888 0.75146,-0.53511 1.36628,-1.19437 1.36628,-1.46504 0,-0.27066 18.24684,-47.79694 40.54856,-105.61395 37.26559,-96.61083 40.69626,-105.27613 42.3731,-107.02753 1.68995,-1.76502 1.81989,-2.09911 1.76023,-4.52601 -0.0588,-2.40367 1.95767,-7.76041 24.39367,-64.79327 13.45185,-34.19513 24.77358,-62.816133 25.15927,-63.602225 0.38569,-0.786102 1.19898,-1.965245 1.80719,-2.620323 0.67746,-0.729471 5.64719,-12.915333 12.82362,-31.443804 6.44458,-16.639009 12.15472,-30.853929 12.68914,-31.588711 0.53442,-0.734781 1.27216,-2.342702 1.63948,-3.573158 0.85323,-2.858327 5.56668,-10.153635 9.85904,-15.2596873 3.02062,-3.593254 9.81147,-9.607513 10.848,-9.607513 0.22912,0 -0.53587,1.79044 -1.70006,3.978755 -3.34078,6.280209 -5.37007,13.0385565 -6.38039,21.2503193 -0.40871,3.322248 -0.74197,4.334878 -1.90111,5.777254 -0.77293,0.961909 -1.81875,2.900977 -2.32375,4.309041 -0.50521,1.408063 -5.80221,15.101903 -11.77141,30.430759 -8.14814,20.924851 -10.94759,28.642401 -11.23317,30.967378 -0.29868,2.431595 -5.69734,16.590815 -25.13491,65.921885 -22.32164,56.6506 -24.93056,63.0054 -26.54547,64.65926 -1.66301,1.70307 -1.78356,2.01686 -1.68747,4.39139 0.095,2.35954 -2.95591,10.48411 -39.46085,105.06842 -21.76039,56.38113 -39.56436,102.90551 -39.56436,103.38751 0,0.48201 0.40922,1.24668 0.90927,1.69929 1.97284,1.78533 2.01196,2.62972 0.81742,17.64214 -1.1286,14.18317 -1.14273,14.27417 -2.38382,15.34173 -1.39714,1.20172 -1.57931,2.15776 -0.57065,2.99483 0.82702,0.68634 8.47471,0.18142 9.54839,-0.6304 0.38559,-0.29162 3.09049,-5.99709 6.01089,-12.67891 2.92041,-6.6818 5.85908,-12.73563 6.53035,-13.45296 0.67127,-0.71732 1.97666,-1.44609 2.9009,-1.61948 1.00783,-0.18906 2.54771,-1.11262 3.84701,-2.30724 1.19165,-1.09558 39.36321,-34.11252 84.82567,-73.37096 45.46255,-39.25845 83.1353,-71.8064 83.7173,-72.32879 0.5821,-0.52238 2.07285,-1.20739 3.3128,-1.52223 1.23996,-0.31484 2.40849,-0.87282 2.59695,-1.23998 0.18825,-0.36716 0.73423,-1.4595 1.21322,-2.42743 0.5983,-1.20909 16.65175,-16.15657 51.295,-47.76121 27.73331,-25.30075 50.70641,-46.00136 51.05143,-46.00136 0.82826,0 4.11423,-3.69389 26.91228,-30.25274 11.85841,-13.81453 22.15919,-25.31173 26.89112,-30.01454 8.60289,-8.54983 12.4819,-13.64011 16.93248,-22.22032 3.22631,-6.21964 4.75339,-9.99527 6.71715,-16.60801 l 1.3442,-4.525995 0.0258,3.667853 c 0.0588,8.243112 -2.46969,21.028502 -5.93277,29.995642 -2.13942,5.53962 -6.40753,13.78148 -8.72416,16.84656 -0.97821,1.29428 -2.63327,2.92726 -3.67795,3.62885 -2.67714,1.79801 -49.35148,56.15544 -50.11708,58.36698 -0.33048,0.95429 -0.86913,2.06501 -1.19723,2.46829 -0.66962,0.82291 -97.37382,89.14599 -99.85465,91.20043 -0.87243,0.72244 -2.54989,1.55618 -3.72781,1.85278 -1.92743,0.48534 -2.245,0.77216 -3.17533,2.86755 -0.9424,2.12285 -8.38997,8.6861 -84.40736,74.38467 l -83.37372,72.05638 v 3.3249 3.3249 l -6.78899,10.53381 c -3.73389,5.79361 -6.78898,10.78494 -6.78898,11.09175 0,1.14113 1.52274,1.0719 4.52922,-0.20587 1.70151,-0.7231 3.09349,-1.51692 3.09349,-1.76399 0,-0.24712 1.1256,-2.45909 2.50127,-4.91557 1.78995,-3.19621 2.85538,-4.5927 3.7469,-4.91085 0.6851,-0.24452 19.44417,-13.26674 41.68686,-28.93828 22.24258,-15.67154 41.17112,-28.87157 42.06326,-29.3334 0.89214,-0.46183 2.0713,-1.25356 2.62027,-1.75937 0.76551,-0.70529 61.36563,-24.79617 73.86951,-29.36595 1.29847,-0.47457 8.69887,-4.01385 16.44533,-7.86509 l 14.08442,-7.00224 7.55057,-11.14407 c 4.15272,-6.12924 7.81489,-11.42592 8.13814,-11.77038 0.90112,-0.96051 28.83455,-2.62453 29.72018,-1.77047 0.53875,0.51945 0.3312,2.9186 -1.28041,14.80165 -1.2735,9.39026 -2.13457,14.3157 -2.54864,14.57824 -2.35544,1.4937 -13.93467,-1.25084 -17.30001,-4.10046 l -0.95282,-0.80686 0.95282,0.34409 c 3.17863,1.14782 6.21267,1.63938 10.11893,1.63938 4.14838,0 4.46059,-0.0686 4.87291,-1.07194 0.44844,-1.0911 2.87396,-18.78646 2.87396,-20.96639 0,-0.74398 -0.31469,-1.27114 -0.83372,-1.3964 -0.90618,-0.21873 -21.19285,0.91061 -22.74914,1.26644 -0.60129,0.13748 -3.76465,4.37282 -8.57553,11.48152 l -7.62272,11.26368 -15.72193,7.86068 c -8.64707,4.32336 -16.05397,8.15403 -16.45999,8.51259 -0.71823,0.63456 -71.96416,28.78625 -72.85156,28.78625 -0.24501,0 -1.04592,0.61455 -1.77973,1.36565 -0.73392,0.75112 -18.80707,13.63523 -40.16267,28.63136 -21.35561,14.99612 -39.09714,27.60861 -39.42565,28.02776 -1.00505,1.28229 0.0774,1.71388 2.34625,0.93535 1.13437,-0.38928 22.01408,-8.34874 46.39938,-17.68768 l 44.33696,-16.97989 33.3197,-0.7753 33.3197,-0.77531 13.84725,-4.18008 13.84736,-4.18007 22.99239,-0.56429 c 12.64579,-0.31036 23.11904,-0.43762 23.27385,-0.28279 0.15481,0.15483 0.16875,0.39425 0.031,0.53204 -0.13778,0.13778 -10.30346,0.69404 -22.59039,1.2361 l -22.33971,0.98558 -14.05449,4.55782 -14.05439,4.5578 -33.34953,1.56222 -33.34942,1.56221 -46.6893,19.12139 c -25.67914,10.51678 -47.0109,19.43963 -47.40392,19.82857 -0.63402,0.6274 -0.47291,0.91726 1.42924,2.56996 l 2.14386,1.86276 12.92456,0.0142 12.92456,0.0143 8.75264,-5.00743 8.75264,-5.00737 54.31201,0.12406 54.31201,0.12411 3.5732,1.36537 c 14.07885,5.37989 19.97271,17.61339 14.31273,29.70833 -2.75042,5.87771 -8.97754,10.606 -16.50241,12.53055 -3.557,0.90968 -5.46017,0.94112 -56.98512,0.94112 h -53.30542 l -8.66543,-5.00241 -8.66553,-5.00243 h -12.68264 -12.68254 l -2.23912,1.70974 c -1.26049,0.96241 -2.17544,2.02522 -2.09339,2.43136 0.095,0.46766 16.74464,7.51997 47.31165,20.03932 l 47.16572,19.31773 33.18005,1.54481 33.18006,1.54475 13.98566,4.52885 13.98565,4.52891 22.39172,1.03516 c 12.31552,0.56934 22.59545,1.23408 22.84439,1.47715 0.58014,0.56661 -5.1845,0.55689 -28.09598,-0.0477 l -18.11504,-0.47776 -13.32883,-4.09989 -13.32873,-4.09989 -33.82594,-0.84446 -33.82584,-0.8444 -46.18533,-17.69434 c -25.40192,-9.7319 -46.46214,-17.58818 -46.80035,-17.45835 -0.33832,0.12982 -0.4889,0.56489 -0.33471,0.9668 0.1543,0.40195 17.99863,13.18567 39.65416,28.40833 21.65543,15.22261 39.80236,28.16897 40.32636,28.76965 0.52409,0.60071 1.48889,1.25098 2.14396,1.44512 3.24468,0.96152 71.80749,28.07393 72.47742,28.66045 0.42677,0.37366 7.86071,4.18927 16.51974,8.47915 11.26641,5.58166 15.9232,8.1239 16.37505,8.93938 1.90988,3.44681 14.45639,21.34539 15.10743,21.55196 1.27092,0.40324 22.44859,1.65433 23.18963,1.36995 0.93301,-0.35798 0.86469,-1.66337 -0.67736,-12.94388 -0.90999,-6.65742 -1.53689,-9.83167 -2.00494,-10.15249 -1.17318,-0.8041 -10.36879,-0.16256 -13.18702,0.92007 -1.37567,0.52844 -2.50117,0.87689 -2.50117,0.77436 0,-0.55373 4.27358,-2.74489 7.49484,-3.84271 2.71295,-0.92464 4.68455,-1.2659 7.38491,-1.27843 2.0262,-0.009 3.81079,0.10986 3.96592,0.26498 0.5822,0.58219 4.15148,29.01681 3.69911,29.46918 -0.28589,0.2859 -5.85298,0.12864 -15.11331,-0.42697 -11.42721,-0.68561 -14.75281,-1.02864 -15.07833,-1.55527 -0.22964,-0.37157 -3.69478,-5.56408 -7.70032,-11.53888 l -7.28285,-10.86326 -15.60005,-7.83627 c -8.57987,-4.30984 -15.8237,-7.83618 -16.0972,-7.83618 -0.53401,0 -70.57188,-27.40698 -72.16254,-28.23843 -0.52409,-0.27395 -1.22271,-0.87814 -1.55257,-1.3427 -0.32985,-0.46456 -1.00237,-0.91292 -1.49457,-0.99634 -0.4922,-0.0834 -19.46203,-13.22946 -42.15522,-29.21338 -22.6932,-15.98394 -41.69171,-29.1303 -42.2189,-29.21415 -0.65951,-0.10495 -1.86623,-1.77338 -3.86869,-5.34936 -2.79274,-4.98703 -3.01618,-5.2453 -5.53469,-6.39829 -5.85371,-2.67991 -5.64471,-1.54379 1.90421,10.3536 8.06011,12.70286 7.66926,11.91153 7.32877,14.84199 -0.15512,1.33455 -0.12705,2.65333 0.0619,2.93071 0.18939,0.27736 37.64809,32.71913 83.24162,72.09276 75.24414,64.97937 83.02126,71.82717 84.23974,74.17378 0.99679,1.91941 1.67168,2.65452 2.62038,2.85414 0.70285,0.14788 1.86395,0.5235 2.58043,0.83469 0.71648,0.3112 23.85171,21.14724 51.41173,46.30228 44.59281,40.70147 50.22524,45.99871 51.16424,48.11863 0.73578,1.66134 7.93739,10.3837 23.79805,28.82348 26.43173,30.72969 24.95925,29.07733 26.80339,30.07882 4.39557,2.38715 12.10477,17.54716 15.37732,30.23949 1.70543,6.61449 2.86467,15.06559 2.79005,20.34028 -0.0299,2.14833 -0.14955,3.4773 -0.26473,2.95323 -0.87459,-3.9783 -4.02433,-12.84149 -6.17634,-17.37974 -4.76898,-10.05701 -9.73024,-16.97155 -17.72739,-24.70644 -2.52986,-2.44694 -4.9336,-4.69804 -5.34169,-5.00242 -0.40809,-0.30444 -11.3114,-12.83403 -24.22967,-27.84353 -14.33894,-16.66027 -24.09539,-27.60894 -25.04822,-28.10885 -1.38764,-0.72807 -95.74559,-86.43524 -100.55338,-91.33471 -1.0615,-1.08161 -2.14066,-2.70159 -2.39837,-3.59988 -0.34926,-1.21797 -0.82774,-1.73623 -1.8815,-2.03795 -0.77717,-0.22253 -2.16347,-0.76889 -3.08059,-1.21415 -1.40921,-0.68424 -162.6971,-139.62781 -169.93474,-146.39256 -1.47619,-1.37972 -2.91617,-2.31183 -3.57309,-2.31288 -0.60532,0 -1.75641,-0.40176 -2.55804,-0.89062 -1.24129,-0.75694 -2.28907,-2.78921 -7.06125,-13.69535 -3.08203,-7.04355 -5.74916,-12.95642 -5.92699,-13.1397 -0.17783,-0.18328 -2.31735,-0.57566 -4.75453,-0.8719 -3.41519,-0.41515 -4.5895,-0.40728 -5.12154,0.0343 -0.97905,0.81249 -0.85499,2.24022 0.24574,2.82932 0.5148,0.27557 1.15202,1.30144 1.41603,2.27977 0.64423,2.38749 2.4895,27.44548 2.10205,28.54382 -0.16833,0.47709 -0.83971,1.44551 -1.49188,2.15204 -0.89276,0.96709 -1.11858,1.61474 -0.91371,2.62032 0.14975,0.73465 17.97313,47.19552 39.60771,103.24638 35.97166,93.19585 39.33534,102.14813 39.33534,104.68717 0,2.56372 0.1285,2.89554 1.67653,4.33119 1.51181,1.40216 4.10906,7.72903 26.45424,64.4424 19.46357,49.39973 24.85934,63.55177 25.15762,65.98433 0.28578,2.32913 3.23478,10.44825 11.89773,32.75558 6.33477,16.31238 11.51772,29.84302 11.51772,30.06813 0,0.22511 0.63143,1.20377 1.40313,2.17481 1.66259,2.09211 2.22105,3.74925 2.63461,7.81717 0.69656,6.8527 3.93258,16.8602 6.995,21.63258 0.81225,1.26576 1.38682,2.39146 1.2768,2.50148 -0.11003,0.11002 -1.37031,-0.6723 -2.80069,-1.73824 z m 219.81898,-98.78463 c 0,-2.35829 0.0795,-3.38312 0.17896,-2.27739 0.10011,1.10573 0.10114,3.03523 0,4.28779 -0.098,1.25255 -0.1802,0.34788 -0.18165,-2.0104 z m 0,-799.911166 c 0,-2.358285 0.0795,-3.38311 0.17896,-2.27738 0.10011,1.105731 0.10114,3.035234 0,4.2878 -0.098,1.252545 -0.1802,0.347866 -0.18165,-2.01042 z"
       id="path1335" />
  </g>
</svg>
