<?xml version="1.0" encoding="UTF-8" standalone="no"?>
<!-- Created with Inkscape (http://www.inkscape.org/) -->

<svg
   version="1.1"
   id="svg824"
   width="8.5in"
   height="8in"
   viewBox="0 0 816 768"
   sodipodi:docname="Hjuldyr.svg"
   inkscape:version="1.1 (c68e22c387, 2021-05-23)"
   xmlns:inkscape="http://www.inkscape.org/namespaces/inkscape"
   xmlns:sodipodi="http://sodipodi.sourceforge.net/DTD/sodipodi-0.dtd"
   xmlns="http://www.w3.org/2000/svg"
   xmlns:svg="http://www.w3.org/2000/svg">
  <sodipodi:namedview
     id="namedview6"
     pagecolor="#ffffff"
     bordercolor="#666666"
     borderopacity="1.0"
     inkscape:pageshadow="2"
     inkscape:pageopacity="0.0"
     inkscape:pagecheckerboard="0"
     showgrid="false"
     inkscape:zoom="0.28203043"
     inkscape:cx="-547.81323"
     inkscape:cy="1324.3252"
     inkscape:window-width="2560"
     inkscape:window-height="1377"
     inkscape:window-x="-8"
     inkscape:window-y="-8"
     inkscape:window-maximized="1"
     inkscape:current-layer="svg824"
     inkscape:snap-others="false"
     inkscape:snap-nodes="false"
     units="in"
     inkscape:document-units="in" />
  <defs
     id="defs828">
    <inkscape:path-effect
       effect="simplify"
       id="path-effect4357"
       is_visible="true"
       lpeversion="1"
       steps="1"
       threshold="0.000625"
       smooth_angles="360"
       helper_size="0"
       simplify_individual_paths="false"
       simplify_just_coalesce="false" />
    <inkscape:path-effect
       effect="simplify"
       id="path-effect4353"
       is_visible="true"
       lpeversion="1"
       steps="1"
       threshold="0.000625"
       smooth_angles="360"
       helper_size="0"
       simplify_individual_paths="false"
       simplify_just_coalesce="false" />
    <inkscape:path-effect
       effect="simplify"
       id="path-effect4349"
       is_visible="true"
       lpeversion="1"
       steps="1"
       threshold="0.000625"
       smooth_angles="360"
       helper_size="0"
       simplify_individual_paths="false"
       simplify_just_coalesce="false" />
    <inkscape:path-effect
       effect="simplify"
       id="path-effect3881"
       is_visible="true"
       lpeversion="1"
       steps="1"
       threshold="0.000625"
       smooth_angles="360"
       helper_size="0"
       simplify_individual_paths="false"
       simplify_just_coalesce="false" />
    <inkscape:path-effect
       effect="simplify"
       id="path-effect3228"
       is_visible="true"
       lpeversion="1"
       steps="1"
       threshold="0.000625"
       smooth_angles="360"
       helper_size="0"
       simplify_individual_paths="false"
       simplify_just_coalesce="false" />
    <inkscape:path-effect
       effect="simplify"
       id="path-effect2163"
       is_visible="true"
       lpeversion="1"
       steps="1"
       threshold="0.000625"
       smooth_angles="360"
       helper_size="0"
       simplify_individual_paths="false"
       simplify_just_coalesce="false" />
    <inkscape:path-effect
       effect="simplify"
       id="path-effect2144"
       is_visible="true"
       lpeversion="1"
       steps="1"
       threshold="0.000625"
       smooth_angles="360"
       helper_size="0"
       simplify_individual_paths="false"
       simplify_just_coalesce="false" />
    <inkscape:path-effect
       effect="simplify"
       id="path-effect1997"
       is_visible="true"
       lpeversion="1"
       steps="1"
       threshold="0.000625"
       smooth_angles="360"
       helper_size="0"
       simplify_individual_paths="false"
       simplify_just_coalesce="false" />
    <inkscape:path-effect
       effect="simplify"
       id="path-effect1624"
       is_visible="true"
       lpeversion="1"
       steps="1"
       threshold="0.000625"
       smooth_angles="360"
       helper_size="0"
       simplify_individual_paths="false"
       simplify_just_coalesce="false" />
    <inkscape:path-effect
       effect="simplify"
       id="path-effect1618"
       is_visible="true"
       lpeversion="1"
       steps="1"
       threshold="0.000625"
       smooth_angles="360"
       helper_size="0"
       simplify_individual_paths="false"
       simplify_just_coalesce="false" />
    <inkscape:path-effect
       effect="simplify"
       id="path-effect1612"
       is_visible="true"
       lpeversion="1"
       steps="1"
       threshold="0.000625"
       smooth_angles="360"
       helper_size="0"
       simplify_individual_paths="false"
       simplify_just_coalesce="false" />
    <inkscape:path-effect
       effect="simplify"
       id="path-effect1606"
       is_visible="true"
       lpeversion="1"
       steps="1"
       threshold="0.000625"
       smooth_angles="360"
       helper_size="0"
       simplify_individual_paths="false"
       simplify_just_coalesce="false" />
    <inkscape:path-effect
       effect="simplify"
       id="path-effect1600"
       is_visible="true"
       lpeversion="1"
       steps="1"
       threshold="0.000625"
       smooth_angles="360"
       helper_size="0"
       simplify_individual_paths="false"
       simplify_just_coalesce="false" />
    <inkscape:path-effect
       effect="simplify"
       id="path-effect1586"
       is_visible="true"
       lpeversion="1"
       steps="1"
       threshold="0.000625"
       smooth_angles="360"
       helper_size="0"
       simplify_individual_paths="false"
       simplify_just_coalesce="false" />
    <inkscape:path-effect
       effect="simplify"
       id="path-effect1582"
       is_visible="true"
       lpeversion="1"
       steps="1"
       threshold="0.000625"
       smooth_angles="360"
       helper_size="0"
       simplify_individual_paths="false"
       simplify_just_coalesce="false" />
    <inkscape:path-effect
       effect="powerstroke"
       id="path-effect1576"
       is_visible="true"
       lpeversion="1"
       offset_points="0.41369876,6.6482188"
       not_jump="true"
       sort_points="true"
       interpolator_type="CentripetalCatmullRom"
       interpolator_beta="0.75"
       start_linecap_type="round"
       linejoin_type="spiro"
       miter_limit="4"
       scale_width="1"
       end_linecap_type="round" />
    <inkscape:path-effect
       effect="simplify"
       id="path-effect1574"
       is_visible="true"
       lpeversion="1"
       steps="1"
       threshold="0.0034615385"
       smooth_angles="0"
       helper_size="0"
       simplify_individual_paths="false"
       simplify_just_coalesce="false"
       step="1" />
    <inkscape:path-effect
       effect="powerstroke"
       id="path-effect1569"
       is_visible="true"
       lpeversion="1"
       offset_points="0.55022554,6.6482188"
       not_jump="true"
       sort_points="true"
       interpolator_type="CentripetalCatmullRom"
       interpolator_beta="0.75"
       start_linecap_type="round"
       linejoin_type="spiro"
       miter_limit="4"
       scale_width="1"
       end_linecap_type="round" />
    <inkscape:path-effect
       effect="simplify"
       id="path-effect1567"
       is_visible="true"
       lpeversion="1"
       steps="1"
       threshold="0.0034615385"
       smooth_angles="0"
       helper_size="0"
       simplify_individual_paths="false"
       simplify_just_coalesce="false"
       step="1" />
    <inkscape:path-effect
       effect="powerstroke"
       id="path-effect1562"
       is_visible="true"
       lpeversion="1"
       offset_points="0.44092004,12.46541"
       not_jump="true"
       sort_points="true"
       interpolator_type="CentripetalCatmullRom"
       interpolator_beta="0.75"
       start_linecap_type="round"
       linejoin_type="spiro"
       miter_limit="4"
       scale_width="1"
       end_linecap_type="round" />
    <inkscape:path-effect
       effect="simplify"
       id="path-effect1560"
       is_visible="true"
       lpeversion="1"
       steps="1"
       threshold="0.0034615385"
       smooth_angles="0"
       helper_size="0"
       simplify_individual_paths="false"
       simplify_just_coalesce="false"
       step="1" />
    <inkscape:path-effect
       effect="powerstroke"
       id="path-effect1555"
       is_visible="true"
       lpeversion="1"
       offset_points="1.2909431,12.46541"
       not_jump="true"
       sort_points="true"
       interpolator_type="CentripetalCatmullRom"
       interpolator_beta="0.75"
       start_linecap_type="round"
       linejoin_type="spiro"
       miter_limit="4"
       scale_width="1"
       end_linecap_type="round" />
    <inkscape:path-effect
       effect="simplify"
       id="path-effect1553"
       is_visible="true"
       lpeversion="1"
       steps="1"
       threshold="0.0034615385"
       smooth_angles="0"
       helper_size="0"
       simplify_individual_paths="false"
       simplify_just_coalesce="false"
       step="1" />
    <inkscape:path-effect
       effect="simplify"
       id="path-effect1550"
       is_visible="true"
       lpeversion="1"
       steps="1"
       threshold="0.000625"
       smooth_angles="360"
       helper_size="0"
       simplify_individual_paths="false"
       simplify_just_coalesce="false" />
    <inkscape:path-effect
       effect="simplify"
       id="path-effect1546"
       is_visible="true"
       lpeversion="1"
       steps="1"
       threshold="0.000625"
       smooth_angles="360"
       helper_size="0"
       simplify_individual_paths="false"
       simplify_just_coalesce="false" />
  </defs>
  <path
     id="path4422"
     style="fill:#000000"
     d="m 629.33362,196.9191 c 1.03375,3.10538 2.02986,6.21459 2.67056,9.42738 0.3366,2.08033 0.88649,4.10938 1.14404,6.20433 0.36552,2.81411 -0.87256,5.40099 -2.24165,7.77333 -1.26704,2.44221 -2.93772,4.61201 -4.61918,6.76977 -1.54071,2.12727 -3.48354,3.87904 -5.2998,5.74761 -1.82558,1.88612 -3.5736,3.85172 -5.55417,5.57739 -1.88588,1.77922 -3.91092,3.36974 -5.96592,4.95274 -1.80864,1.02594 -3.06655,2.69179 -4.88826,3.69187 2.81345,-1.47366 -5.17804,3.09547 -2.48755,1.52899 11.98303,-6.97685 16.17484,-8.89683 11.15159,-6.56007 0,0 -11.78951,9.23625 -11.78951,9.23625 v 0 c 6.28033,-1.89375 11.54737,-6.18899 17.07438,-9.65277 1.61221,-1.24943 3.08826,-2.67018 4.80556,-3.78651 2.0361,-1.59756 3.99465,-3.2832 5.88452,-5.05172 1.90471,-1.8414 3.71847,-3.77191 5.57701,-5.65949 1.87429,-1.83872 3.59661,-3.81928 5.19678,-5.90157 1.69969,-2.18902 3.20808,-4.5211 4.47877,-6.98667 1.33302,-2.70492 2.38012,-5.59237 1.92874,-8.65955 -0.31674,-2.11264 -0.87409,-4.17072 -1.25933,-6.27056 -0.7439,-3.24608 -1.8381,-6.38574 -2.6982,-9.60011 0,0 -13.10838,7.21936 -13.10838,7.21936 z m -41.74255,-35.84818 c -3.36323,-1.89604 -6.91266,-3.59123 -10.77422,-4.0644 -10.3411,1.24506 -15.75473,6.5352 -19.54286,14.43569 -0.2278,0.46253 -0.36919,0.97881 -0.6834,1.38759 -0.14764,0.19207 -0.85645,0.45334 -0.64324,0.33831 4.46737,-2.41033 9.05607,-4.60747 13.40575,-7.2242 0.26168,-0.15743 0.0515,-0.6101 0.11384,-0.90906 0.19938,-0.95637 0.37195,-1.23356 0.75816,-2.14303 1.13409,-1.96966 1.86208,-4.24672 3.63211,-5.75434 4.8969,-2.4864 1.80789,-0.936 -11.52448,6.79321 -0.0908,0.0527 0.15883,-0.26344 0.24292,-0.20056 0.23585,0.17637 0.36251,0.4716 0.48041,0.74147 0.58335,1.33525 0.73201,2.4407 1.04492,3.88627 1.25962,6.03177 1.59851,12.1961 1.85571,18.3362 0.0844,2.86585 0.075,5.72878 0.23684,8.59189 0.0472,0.83507 0.0284,1.67833 0.16221,2.50396 0.53378,3.29378 1.32878,4.84197 2.55036,8.14883 3.53928,8.38235 7.35873,16.68372 11.78298,24.64165 1.47697,2.49375 3.34625,4.69241 6.14457,5.6314 4.65365,-2.55398 9.43034,-4.89554 13.96094,-7.66194 0.40369,-0.24649 0.46209,-0.82715 0.65162,-1.26052 1.12726,-2.57748 1.55336,-5.30503 1.98501,-8.06171 0.0844,-0.67203 0.34212,-3.05146 0.57954,-3.80208 0.0962,-0.30422 0.76491,-0.98019 0.48645,-0.82441 -19.23826,10.76215 -13.87273,2.95147 -12.09929,8.414 -0.12547,0.0203 -0.25095,0.0405 -0.37643,0.0608 0,0 13.58935,-6.45381 13.58935,-6.45381 v 0 c -0.0364,-0.29135 -0.0727,-0.5827 -0.10905,-0.87404 -0.0877,-0.22193 -0.85201,-2.32804 -1.14725,-2.2007 -13.0656,5.63513 -13.18247,3.62249 -14.20024,12.17064 -0.36703,2.06338 -0.70951,4.13713 -1.59276,6.05993 -2.2751,4.95275 -12.37996,7.77086 10.55418,-4.14756 -2.59507,0.004 -4.32393,-2.52725 -5.70394,-4.40468 -4.7175,-7.67493 -8.66943,-15.8271 -11.93361,-24.21996 -0.48585,-1.57123 -1.05172,-3.1199 -1.45754,-4.71367 -1.18487,-4.65335 -0.73356,-9.55163 -1.0585,-14.29224 -0.25274,-6.23268 -0.71243,-12.47041 -1.85759,-18.61128 -0.40272,-1.963 -0.68218,-4.22854 -1.96634,-5.87435 -3.94831,-5.06023 -11.18994,3.4315 -15.09505,7.41652 -1.39566,1.92346 -2.39618,4.10415 -3.34375,6.27494 -0.0417,0.13737 -1.14538,3.94739 -0.58697,3.76917 12.67169,-4.0442 11.82466,-1.59462 14.67953,-7.64154 0.8534,-1.60092 1.69577,-3.24316 3.01618,-4.52587 0.36993,-0.35938 1.67409,-1.19528 1.21841,-0.9537 -15.82507,8.38979 -15.18661,8.05881 -10.26918,5.86003 0.50345,-0.0374 1.00833,-0.16559 1.51033,-0.1122 0.60405,0.0642 1.1803,0.28959 1.76326,0.46032 2.47587,0.72512 4.84883,1.72268 7.02526,3.11931 0,0 12.53485,-8.11028 12.53485,-8.11028 z m -35.78109,40.9093 c -0.16243,-4.58921 -0.14221,-9.17316 0.20039,-13.75202 0.1914,-3.04285 0.66693,-6.08991 1.83526,-8.91433 1.08184,-2.94174 2.57578,-5.65786 4.05682,-8.40805 1.21325,-2.12389 2.15684,-4.38373 3.75368,-6.26509 1.54237,-2.05792 3.10605,-4.1081 4.43666,-6.31531 1.36004,-1.78624 2.67062,-3.63826 4.28484,-5.20488 2.19042,-1.45286 -0.64996,0.48267 1.34298,-1.03681 0.19938,-0.15202 0.85339,-0.5266 0.63679,-0.40032 -24.78086,14.4482 -15.29392,8.21287 -10.86354,6.51382 1.70546,-0.53852 2.66946,-0.99449 4.49845,-0.67314 1.96601,0.44929 3.37839,1.83068 4.77516,3.18889 1.58777,1.68668 2.76828,3.7091 3.82744,5.75652 0.88068,2.03261 1.88125,3.99598 2.66092,6.07324 0.47007,1.63256 0.21571,0.82357 0.76274,2.42709 0,0 13.07179,-7.21332 13.07179,-7.21332 v 0 c -0.54155,-1.57401 -0.27585,-0.75296 -0.79012,-2.46543 -0.81019,-2.12921 -1.77432,-4.17729 -2.72749,-6.24411 -1.15341,-2.17254 -2.42915,-4.30416 -4.06642,-6.15116 -1.54987,-1.5542 -3.11117,-3.1241 -5.21402,-3.9066 -1.84197,-0.48387 -3.12413,-0.92578 -4.88902,0.0841 -6.47767,0.98852 -12.14748,5.35275 -16.83403,9.82654 -1.46183,1.74178 -2.91611,3.50074 -4.12226,5.43399 -1.42615,2.13982 -2.97826,4.19198 -4.53321,6.23929 -1.34055,2.07348 -2.41875,4.2815 -3.61391,6.43903 -1.49179,2.78448 -2.80782,5.63971 -3.96579,8.58073 -1.03508,2.97504 -1.3742,6.12002 -1.53179,9.25736 -0.2571,4.63624 -0.20692,9.27197 -0.3044,13.91282 0,0 13.31208,-6.78284 13.31208,-6.78284 z m 42.53501,-69.12959 c 2.62412,-2.21924 5.26781,-4.47042 8.24602,-6.20328 -21.80018,11.21009 -12.65358,6.94619 -7.20093,5.16546 1.53939,-0.4896 3.15534,-0.573 4.75711,-0.63196 2.03796,-0.18049 3.86371,0.67883 5.58538,1.66861 1.61662,1.09399 2.99667,2.36215 4.10033,3.96463 1.24619,1.81094 1.68785,3.83349 1.98078,5.97304 0.10536,2.11977 0.51873,4.32716 0.112,6.43168 -0.005,0.0218 -0.22595,1.15548 -0.36496,1.26481 -0.0842,0.0662 -0.3892,-0.0739 -0.29556,-0.12585 4.42416,-2.45397 9.04865,-4.54756 13.39356,-7.13926 0.23155,-0.13811 -0.0552,-0.53647 -0.0746,-0.80538 -0.0241,-0.3343 -0.0372,-0.6693 -0.0558,-1.00395 -0.0759,-2.25152 -0.0579,-4.50486 -0.0432,-6.75721 0.16797,-2.167 -0.72259,-4.13201 -1.54837,-6.07438 -0.77618,-1.97525 -2.28668,-3.14022 -4.09163,-4.10617 -1.62994,-0.94073 -3.41521,-1.56656 -5.19608,-2.15432 -1.78909,-0.5662 -3.65815,-0.72479 -5.52109,-0.81489 -1.84369,-0.0375 -3.69315,-0.20476 -5.48943,0.27221 -6.39436,2.36973 -12.84898,5.54908 -17.93045,10.07164 -0.89061,0.96425 -1.54114,2.03481 -2.05625,3.23289 0,0 13.65676,-6.15503 13.65676,-6.15503 v 0 c 0.62633,-0.99942 1.33552,-1.94057 2.3033,-2.63983 4.54856,-3.09744 1.56786,-1.0389 -11.2666,6.37671 -0.28901,0.16699 0.59917,-0.29519 0.88956,-0.45978 0.92184,-0.52248 0.72504,-0.53522 1.69341,-0.93572 0.28782,-0.11904 0.58915,-0.20234 0.88372,-0.30351 0.54646,-0.22228 1.04908,-0.57529 1.62588,-0.69908 1.12822,-0.24213 2.39907,0.17066 3.53986,0.005 1.77684,0.033 3.56753,0.0781 5.30519,0.49114 1.73494,0.47328 3.49318,1.06781 5.05336,1.96039 1.58304,0.69001 2.91476,1.48046 3.54816,3.18492 0.75974,1.7817 1.46185,3.54684 1.27783,5.53093 5.5e-4,2.28256 -0.024,4.56679 0.0798,6.84762 0.0756,1.11589 0.13146,2.10909 0.20504,2.08302 14.85329,-5.26187 12.9924,-1.29434 13.90617,-7.79842 0.10706,-2.25154 -0.082,-4.51042 -0.34896,-6.74566 -0.36796,-2.3469 -0.90119,-4.59805 -2.25873,-6.59355 -1.2165,-1.79438 -2.70193,-3.21771 -4.46729,-4.48428 -1.78998,-1.14725 -3.86375,-2.35221 -6.02613,-2.40079 -1.66168,0.0165 -3.3361,0.0203 -4.97557,0.32528 -0.84794,0.20273 -1.61125,0.5359 -2.43956,0.78501 -6.39449,1.92313 -7.46148,1.54349 -16.1284,8.58347 -2.89783,1.96668 -5.67995,4.16323 -8.14902,6.64838 0,0 13.78537,-5.83448 13.78537,-5.83448 z m 107.25793,65.59576 c 2.31107,-2.88599 4.42671,-5.95673 6.43295,-9.06666 1.69148,-2.47867 2.18316,-5.23142 2.39029,-8.15422 0.15157,-3.34262 -0.22583,-6.68296 -1.46051,-9.79935 -1.20205,-2.4894 -3.12261,-4.42323 -5.42128,-5.90713 -1.51998,-0.8976 -3.2164,-1.23652 -4.94404,-1.43528 0,0 -12.18753,8.7058 -12.18753,8.7058 v 0 c 1.56759,0.0698 3.14273,0.18776 4.59175,0.85205 2.15311,1.15403 3.84616,2.84942 4.94659,5.04983 1.16762,2.91225 1.39125,6.06974 1.12995,9.18224 -0.30386,2.71508 -1.02716,5.20269 -2.63349,7.4651 -2.05182,3.08904 -4.15014,6.17706 -6.63005,8.94209 0,0 13.78537,-5.83447 13.78537,-5.83447 z m -24.67001,7.30363 c 2.51392,-1.63025 4.87817,-3.45857 7.07898,-5.49141 1.90451,-1.80624 3.48653,-3.91908 5.02172,-6.03881 1.11713,-1.80654 1.99176,-3.73979 2.48244,-5.8073 0.31557,-2.04322 0.49142,-4.15078 0.23851,-6.20769 -0.13205,-1.8213 -0.67453,-3.48654 -1.38717,-5.14994 0,0 -13.05228,7.33194 -13.05228,7.33194 v 0 c 0.65709,1.52561 1.07001,3.06545 1.16821,4.73594 0.11097,1.91468 -0.0155,3.8629 -0.49032,5.72563 -0.60859,1.88902 -1.49985,3.68438 -2.66564,5.2944 -1.53525,2.06176 -3.1868,4.05409 -5.12953,5.74833 -2.2724,1.96874 -4.74529,3.66509 -7.13825,5.48105 0,0 13.87333,-5.62214 13.87333,-5.62214 z m -6.23186,-5.47567 c 2.38778,-2.52583 4.7149,-5.15798 6.70552,-8.01302 1.67607,-2.04453 2.43957,-4.47041 3.0645,-6.98592 0.0841,-0.41406 0.16817,-0.82812 0.25225,-1.24218 0,0 -13.44593,6.48849 -13.44593,6.48849 v 0 c -0.0931,0.39189 -0.18618,0.78378 -0.27926,1.17566 -0.69589,2.36458 -1.67184,4.54721 -3.24891,6.47429 -2.09577,2.767 -4.35619,5.4274 -6.86779,7.82695 0,0 13.81962,-5.72427 13.81962,-5.72427 z M 564.133,86.710352 c 3.5668,-1.141583 7.29261,-1.624279 10.94912,-2.38461 2.63922,-0.583927 5.33142,-0.834177 8.02518,-0.979812 2.30721,-0.144128 3.90117,-0.30245 5.72905,1.258832 1.0122,0.8762 1.72043,1.936398 2.26312,3.143275 0,0 13.03107,-7.372987 13.03107,-7.372987 v 0 c -0.65241,-1.357449 -1.43983,-2.603457 -2.57815,-3.617061 -2.1042,-2.124141 -3.45237,-2.45522 -6.39802,-2.240164 -2.75619,0.07683 -5.50673,0.313579 -8.22224,0.807263 -3.64578,0.815991 -7.32803,1.419751 -10.9815,2.204192 0,0 -11.81763,9.181072 -11.81763,9.181072 z m -1.45683,12.559349 c 3.0608,-2.322413 5.92404,-4.890042 9.22711,-6.865133 6.70917,-3.920058 -6.33098,3.612724 -9.45241,5.493526 -0.49166,0.296249 1.03386,-0.501259 1.56659,-0.715035 1.37483,-0.551696 2.79264,-0.86689 4.23969,-1.149663 2.24001,-0.356238 4.51649,-0.433582 6.77935,-0.334372 1.7152,0.137448 2.92321,1.004737 3.9813,2.271261 0.47032,0.678128 0.26505,0.326799 0.61939,1.05189 0,0 13.04421,-7.428933 13.04421,-7.428933 v 0 c -0.48266,-0.945001 -0.21478,-0.493952 -0.80043,-1.355035 -1.33457,-1.57222 -2.57462,-2.743412 -4.6858,-3.207583 -2.32689,-0.309344 -4.68966,-0.190004 -7.02202,0.03779 -8.30091,1.185277 -15.0966,6.046438 -22.06645,10.701658 -3.22875,2.188507 -6.23014,4.695378 -9.27703,7.127348 0,0 13.8465,-5.627719 13.8465,-5.627719 z m -0.91041,11.373629 c 1.81842,-1.75996 3.76812,-3.33811 5.93915,-4.64502 0.53299,-0.32085 2.16629,-1.22411 1.63172,-0.90591 -3.62536,2.15802 -7.2698,4.28381 -10.9047,6.42571 2.98845,-1.30497 6.15616,-2.17829 9.42533,-2.20983 2.20434,0.12403 3.70899,1.44247 5.03604,3.06941 0.76709,1.43126 0.98861,2.648 1.8735,4.07839 0,0 12.98024,-7.55249 12.98024,-7.55249 v 0 c -0.84498,-1.34576 -1.12158,-2.88462 -2.00002,-4.21669 -1.5384,-1.91979 -3.32465,-3.53723 -5.7883,-4.12607 -3.42708,-0.19085 -6.72659,0.52042 -9.93614,1.73293 -7.76903,4.34554 -15.74343,7.79424 -22.05536,14.06512 0,0 13.79854,-5.71555 13.79854,-5.71555 z m 4.64527,15.40349 c 1.20701,-3.91415 3.29311,-7.55321 5.62735,-10.90175 1.0058,-1.30573 2.07188,-2.66184 3.38224,-3.68753 0.36465,-0.28543 1.57194,-0.97928 1.17158,-0.74657 -12.75296,7.4126 -15.53988,8.77364 -10.55917,6.28869 1.7867,-0.75309 3.71637,-0.94368 5.63626,-0.91799 0,0 12.20769,-8.6783 12.20769,-8.6783 v 0 c -2.02084,-0.36875 -4.12111,-0.10702 -6.11143,0.35238 -7.61089,2.53037 -14.79106,6.73898 -19.29135,13.32914 -2.24876,3.57518 -4.31408,7.30723 -5.57542,11.35782 0,0 13.51225,-6.39589 13.51225,-6.39589 z m 35.59732,5.19051 c 3.01647,0.59652 5.66467,2.27161 7.84126,4.39498 1.96327,2.37009 2.06042,5.58066 2.23326,8.52138 0.28691,2.38877 -0.14684,4.61592 -0.86578,6.86949 -0.52789,1.67881 -1.61017,2.98728 -2.58405,4.39779 -0.16722,0.14587 -0.33444,0.29175 -0.50166,0.43763 0,0 13.83823,-5.81982 13.83823,-5.81982 v 0 c 0.14222,-0.19897 0.28444,-0.39794 0.42666,-0.59691 1.05365,-1.46296 1.80648,-3.10603 2.34285,-4.8259 0.65593,-2.40012 0.82469,-4.82896 0.54969,-7.30959 -0.27396,-3.29589 -0.53765,-6.8087 -2.74276,-9.45242 -2.27307,-2.33259 -5.10379,-4.20197 -8.23786,-5.14842 0,0 -12.29984,8.53179 -12.29984,8.53179 z m -22.50455,32.53273 c 5.54583,-1.59469 10.9659,-3.57451 16.29016,-5.79172 6.79971,-2.887 12.94109,-6.9201 19.3568,-10.61453 0.65222,-0.37558 2.5976,-1.52172 1.94621,-1.14471 -11.90975,6.89313 -14.49624,8.26401 -9.19756,5.40873 2.60431,-1.30943 5.21324,-2.60367 7.91531,-3.69947 1.96619,-0.84426 4.05009,-1.36509 6.18188,-1.52566 1.49954,0.0149 2.27213,1.09938 2.79587,2.37547 0.55057,2.12725 0.66766,4.3972 0.46087,6.57992 -0.29878,2.34655 -0.77195,4.68314 -1.37171,6.97241 -0.44413,2.59557 -1.34153,5.05455 -2.09335,7.56759 -0.33035,0.8737 -0.75931,1.66326 -1.61146,2.11901 -0.22462,0.12014 -0.93439,0.39879 -0.71545,0.26858 9.7958,-5.82595 16.36129,-9.30444 11.43394,-6.68562 0,0 -11.87417,9.15808 -11.87417,9.15808 v 0 c 6.02574,-0.68296 1.13288,-0.0102 14.41062,-7.93378 1.08955,-0.65019 1.42996,-2.24224 1.8511,-3.30869 0.77687,-2.52475 1.52695,-5.04887 2.05258,-7.64114 0.53544,-2.38084 1.12439,-4.76198 1.25769,-7.20821 0.0825,-2.41307 0.009,-4.908 -0.73059,-7.22384 -0.74762,-1.71188 -1.84485,-3.25707 -3.71969,-3.8152 -2.23969,-0.25172 -4.48554,0.37486 -6.60687,1.05203 -2.71481,1.17765 -5.45271,2.28507 -8.08151,3.65967 -6.58847,3.44225 -1.51365,0.7619 -16.14783,9.18468 -0.64853,0.37327 -2.58794,1.50371 -1.9376,1.1336 3.54559,-2.01776 7.10687,-4.00873 10.62345,-6.07663 1.49281,-0.87784 -6.12454,3.29701 -4.66605,2.2847 -5.19832,2.28287 -10.51261,4.27479 -15.97182,5.84291 0,0 -11.85082,9.06182 -11.85082,9.06182 z m 18.23475,108.04154 c 1.86308,-3.05706 3.89389,-6.00957 5.73639,-9.07873 1.67885,-2.75514 3.30979,-5.5374 5.02464,-8.27054 1.23408,-1.94659 3.15248,-3.30361 4.49639,-5.1321 1.85682,-2.00253 3.453,-4.20101 5.27853,-6.23797 1.47841,-2.27169 3.71893,-3.79504 5.76954,-5.50763 2.45732,-1.84855 4.95372,-3.58694 7.18978,-5.70337 2.43071,-2.15225 4.51649,-4.64282 6.48575,-7.22058 1.79086,-2.29341 3.39104,-4.76552 4.52719,-7.44939 0.72458,-1.89691 0.85129,-3.91757 0.90867,-5.92464 0.13272,-2.53585 -0.19556,-5.03806 -0.48049,-7.55003 -0.4453,-2.98134 -1.16921,-5.89279 -2.04646,-8.77208 -0.74345,-1.95775 -1.01971,-4.15924 -2.06662,-5.98634 -4.51688,2.57805 -9.29476,4.74484 -13.55066,7.73413 -0.50275,0.35313 -0.0547,1.22754 -0.082,1.8413 -0.15593,3.50261 -0.23634,7.00714 -0.30991,10.51237 0.15203,4.42806 -0.28435,8.73818 -1.46132,13.00321 -1.35556,4.02208 -2.4698,8.12364 -3.94443,12.10531 -1.18107,3.80184 -2.64205,7.5209 -4.2761,11.14993 -0.96149,2.30925 -1.98839,4.57738 -3.45942,6.60773 -1.11268,1.93326 -2.7153,3.43513 -4.40743,4.85772 -3.40598,2.42105 -7.0649,4.44792 -10.59033,6.68039 1.31225,-0.65632 -4.00221,2.54059 -2.97434,1.94991 3.82576,-2.19855 15.24272,-8.89818 11.44436,-6.65262 -4.58365,2.70981 -9.22933,5.31423 -13.80028,8.04541 -0.87197,0.52101 -0.70404,0.49485 -0.73234,1.31189 0.39453,0.43559 0.64876,1.06317 1.18359,1.30679 0.34252,0.15601 0.76884,-0.0835 1.09685,-0.26806 10.36679,-5.83396 12.8681,-6.66411 19.56466,-13.04331 3.40861,-3.33978 6.61113,-6.90693 9.52298,-10.68847 2.08105,-2.81146 4.12965,-5.64538 6.32817,-8.36835 1.43395,-2.01981 2.9354,-3.98741 4.43044,-5.9606 1.53613,-1.84034 2.78962,-3.92644 3.65099,-6.16308 1.03753,-2.51689 2.03834,-5.01064 2.68727,-7.65881 0.51626,-2.23362 0.65503,-4.52171 0.71187,-6.8054 0.0163,-7.08708 1.50497,-5.42353 -13.32509,5.40029 -0.47352,0.3456 0.0481,1.17213 0.0377,1.75825 -0.0122,0.68136 -0.0703,1.36112 -0.10553,2.04167 -0.4367,4.49568 -1.52757,8.92619 -3.0426,13.17573 -1.00439,3.51345 -2.82603,6.54817 -4.88365,9.52243 -1.0042,1.54964 -2.05771,3.0979 -3.30411,4.46807 -3.51326,3.86214 -15.69889,8.83085 11.37581,-5.33274 1.54119,-3.01372 3.20466,-5.94965 4.98949,-8.83028 2.12294,-3.56558 3.66983,-7.37166 4.8777,-11.32663 1.09705,-5.63533 1.28104,-11.39098 1.42877,-17.11388 0.10522,-3.92073 0.13568,-7.84279 0.1585,-11.76468 0.007,-1.57842 0.004,-0.80899 0.008,-2.30829 0,0 -13.31941,6.79377 -13.31941,6.79377 v 0 c 0.0173,1.48737 0.008,0.72451 0.0282,2.28857 0.0516,3.87299 0.0919,7.74674 0.027,11.61986 -0.15612,5.62327 -0.2972,11.32027 -1.71687,16.79514 -1.26258,3.83981 -2.91045,7.53135 -5.01358,10.99107 -1.33805,2.19107 -4.06137,6.33645 -4.5777,8.79378 -0.0922,0.43878 -0.0272,0.8963 -0.0408,1.34446 4.56621,-1.96877 9.18387,-3.82226 13.69863,-5.9063 0.33638,-0.15528 0.53913,-0.50921 0.79007,-0.78178 1.58724,-1.72405 2.84958,-3.71194 4.15234,-5.64948 2.05762,-3.07811 3.7265,-6.31158 4.72965,-9.89755 1.38425,-4.40173 2.46203,-8.92422 2.85633,-13.53091 0.0381,-0.70968 0.085,-1.41895 0.11419,-2.12905 0.0246,-0.59905 0.62326,-1.96427 0.0472,-1.79804 -14.27159,4.11844 -13.24118,1.37559 -13.35081,8.13367 -0.0762,2.1767 -0.24534,4.35614 -0.80085,6.47141 -0.72455,2.57701 -1.79462,5.01862 -2.83361,7.48182 -1.00491,2.09552 -2.28315,4.03135 -3.76324,5.82392 -1.46709,1.97509 -2.96971,3.92314 -4.41596,5.9137 -2.11812,2.74003 -4.12605,5.56067 -6.2129,8.32381 -2.95511,3.68912 -6.1398,7.20799 -9.57219,10.45971 -1.49779,1.36004 -2.17435,2.03206 -3.76272,3.25395 -0.56644,0.43575 -2.37406,1.58459 -1.74462,1.24615 3.8014,-2.04394 7.51547,-4.24633 11.27321,-6.36949 -0.24051,0.19971 -0.67575,0.28989 -0.72153,0.59914 -0.0713,0.48139 0.28408,0.93091 0.42612,1.39636 0.34331,0.0679 1.26568,-0.5947 0.96156,-0.42153 -3.90823,2.22538 -15.54678,9.04963 -11.69653,6.72537 5.62897,-3.39801 11.48913,-6.33884 16.92395,-10.02255 3.59012,-2.19681 7.26312,-4.30732 10.55998,-6.93656 1.67674,-1.55899 3.16404,-3.24348 4.31619,-5.23638 1.32561,-2.15446 2.30729,-4.48378 3.27171,-6.8182 1.5272,-3.68357 2.96458,-7.40377 4.17415,-11.2054 1.40994,-4.03867 2.6233,-8.14373 3.8888,-12.22954 1.05837,-4.36997 1.41906,-8.78101 1.23856,-13.27841 0.0599,-3.46041 0.003,-7.0011 0.50182,-10.43469 0.079,-0.54376 0.86565,-1.79833 0.3491,-1.61101 -4.51546,1.63746 -8.67131,4.13413 -13.00697,6.20119 0.90294,1.09026 1.29922,4.17054 1.95859,5.5677 0.87945,2.78648 1.56285,5.61737 1.92027,8.52293 0.28092,2.45387 0.50137,4.90511 0.31166,7.37748 -0.0994,1.84807 -0.31447,3.6885 -1.12105,5.38256 -1.25416,2.53379 -2.81728,4.89763 -4.59879,7.09304 -2.03013,2.49871 -4.16537,4.89756 -6.609,7.00454 -2.30869,2.01293 -4.87378,3.69136 -7.22717,5.6518 -2.07769,1.73763 -4.10371,3.49685 -5.68393,5.72217 -1.78407,2.081 -3.44302,4.26453 -5.3,6.28334 -1.59676,1.66295 -3.1889,3.33797 -4.38871,5.32513 -1.64195,2.74084 -3.25887,5.49635 -4.92554,8.22194 -1.93961,3.05695 -3.89926,6.10192 -5.87931,9.13269 0,0 13.69313,-6.03923 13.69313,-6.03923 z M 496.2197,426.51845 c 4.62466,-3.69497 8.97815,-7.76436 12.97252,-12.13537 0.21517,-0.32441 3.26407,-3.50191 3.11566,-4.10026 -0.12905,-0.52027 -0.39595,-1.55679 -0.88683,-1.34147 -11.76008,5.15853 -10.60525,4.13143 -14.95166,9.09346 -4.02163,4.22581 -8.20135,8.29877 -12.24173,12.5055 -1.85671,1.88079 -1.30675,4.20044 1.64191,3.94495 1.14652,-0.0993 2.21364,-0.71566 3.2212,-1.18786 4.71766,-2.84136 9.50959,-5.56291 14.15298,-8.52408 0.29678,-0.18927 3.17815,-3.14041 3.29303,-3.25304 1.564,-1.53331 3.11955,-3.07799 4.71116,-4.58265 1.24396,-0.97598 2.18041,-2.14004 3.04571,-3.44195 0,0 -13.68061,5.89821 -13.68061,5.89821 v 0 c -0.95706,1.13477 -1.96561,2.20695 -3.07535,3.19758 -2.12419,2.11141 -4.21222,4.27585 -6.43798,6.28167 -4.10792,3.70199 -7.03173,4.41628 9.55041,-4.89936 -0.48354,0.31184 -0.94676,0.65768 -1.4506,0.93551 -0.21271,0.11729 -2.03307,0.86811 -2.35602,1.15284 -0.14195,0.12514 -0.40766,0.51901 -0.21849,0.52397 0.70798,0.0186 -0.4672,-3.05994 1.23846,-1.72639 4.05478,-4.22407 8.15682,-8.40483 12.31957,-12.52227 5.16276,-4.73438 -1.30725,1.4009 -11.04053,5.37896 -0.43904,0.17944 -0.20717,-0.98104 -0.54432,-1.31463 -0.13378,-0.13237 -0.19091,0.32519 -0.30246,0.47678 -1.09545,1.48873 -1.29401,1.63615 -2.64743,3.17585 -4.08976,4.35921 -8.50122,8.45341 -13.32654,11.99106 0,0 13.89794,-5.52701 13.89794,-5.52701 z m -12.32716,-8.23482 c -0.79091,2.17115 -1.78068,4.2468 -2.82297,6.3048 -0.77947,1.53907 -1.38673,3.06206 -2.63898,4.26222 20.6385,-11.70931 10.60764,-2.34795 12.83296,-9.38116 0.29746,-0.94013 0.70079,-1.84349 1.03847,-2.76994 1.62168,-3.60242 4.06107,-6.77322 6.24759,-10.04667 1.43171,-1.78033 2.80535,-3.60636 4.25217,-5.37506 0,0 -13.74033,5.87192 -13.74033,5.87192 v 0 c -1.39449,1.78922 -2.80542,3.57046 -4.08845,5.44192 -2.23308,3.3432 -4.6964,6.62904 -6.15115,10.40408 -0.64213,1.83713 -1.57488,4.03178 -0.85576,6.00124 2.34631,6.42591 9.57196,-3.44511 14.21747,-6.02934 2.07901,-3.48751 3.61373,-7.28365 5.23917,-10.99372 0,0 -13.53019,6.30971 -13.53019,6.30971 z M 424.3561,336.54994 c -1.26537,3.08117 -3.35211,6.35437 -3.84782,9.67091 2.69391,5.93461 11.26464,-3.05339 15.09308,-7.01332 0.78302,-0.8099 1.49045,-1.45696 2.11289,-2.41071 -17.54844,7.24904 -11.52331,2.29547 -14.62422,9.40494 -0.15603,0.35773 -0.36083,0.69215 -0.54124,1.03823 -0.16458,0.39268 -0.32916,0.78536 -0.49373,1.17805 -0.96775,2.51763 -1.3691,3.79131 -0.64639,6.40576 0,0 13.183,-7.13638 13.183,-7.13638 v 0 c -0.44165,-1.93531 0.25648,-3.71424 1.02795,-5.49506 3.91552,-8.71195 2.54371,-6.48885 -11.66191,0.52749 -0.68684,0.77686 -1.41618,1.52147 -2.17974,2.2241 -0.24323,0.22382 -1.05304,0.78418 -0.75329,0.64488 13.05233,-6.06579 12.12245,-11.01321 12.95461,-5.91204 0.82042,-3.2717 2.48479,-6.29049 3.9863,-9.28421 0,0 -13.60949,6.15736 -13.60949,6.15736 z m 7.10457,-0.7536 c 3.22843,-3.45969 6.29568,-7.03508 9.21744,-10.75557 1.3814,-1.92897 2.86228,-3.78258 4.29521,-5.67316 0,0 -13.53579,5.81946 -13.53579,5.81946 v 0 c -1.45037,1.8866 -2.92005,3.75856 -4.33998,5.66833 -2.94307,3.72839 -6.07041,7.30007 -9.43542,10.65648 0,0 13.79854,-5.71554 13.79854,-5.71554 z m -45.75019,37.80457 c -11.91215,6.30821 -23.59374,13.11114 -34.82537,20.56851 -7.56996,4.80063 -14.17903,10.8978 -20.51556,17.19102 -4.59879,4.6369 -8.74911,9.67135 -12.13247,15.25484 -1.62427,2.85866 -2.87436,6.069 -5.10752,8.53966 -0.54791,0.60617 -1.17214,1.13872 -1.75821,1.70808 -4.03821,3.52392 -8.59621,6.37536 -12.70456,9.80674 -1.8709,1.81913 -4.05581,3.32018 -5.89902,5.16668 -0.38339,0.38407 -1.27281,1.57334 -1.61654,2.02236 -0.65046,0.93353 -1.46852,1.71017 -2.19455,2.58253 0,0 13.76254,-5.82615 13.76254,-5.82615 v 0 c 0.74815,-0.85028 1.4807,-1.71232 2.16941,-2.61219 2.20925,-2.55012 4.9267,-4.5959 7.44159,-6.82841 4.21171,-3.3267 8.74444,-6.26543 12.64313,-9.9744 0.58264,-0.64218 1.20433,-1.25099 1.74791,-1.92655 2.09824,-2.60768 3.32198,-5.81054 5.05249,-8.64705 3.32009,-5.41933 7.4266,-10.28616 11.92209,-14.77328 6.37473,-6.21134 13.0399,-12.17322 20.60403,-16.92146 5.878,-3.81215 1.9943,-1.34059 7.83337,-4.94392 1.29961,-0.802 5.24493,-3.12548 3.8923,-2.41654 -17.53563,9.19079 -5.8184,3.60488 -1.95171,1.33775 0,0 11.63665,-9.30822 11.63665,-9.30822 z M 227.48647,489.25025 c 1.38447,-1.27157 2.84841,-2.44396 4.43093,-3.46188 0.68598,-0.44125 2.80337,-1.66886 2.09928,-1.25713 -11.3497,6.63708 -13.16365,7.41194 -6.2803,4.04379 8.54351,-3.59607 16.99354,-7.40054 25.35785,-11.39448 6.89964,-4.36949 14.6673,-7.74247 21.21866,-12.76921 2.98239,-2.28833 5.73835,-4.82217 8.42788,-7.44 5.52205,-5.77542 8.75713,-13.14962 13.00834,-19.79745 3.87431,-5.87126 9.30931,-10.08992 15.27554,-13.64998 6.31108,-3.63933 12.09015,-8.2023 17.38038,-13.19737 3.51827,-3.25843 7.14806,-6.38923 10.94607,-9.31992 6.06957,-4.61786 11.74664,-9.72463 17.51434,-14.70811 3.71537,-3.65433 7.63112,-7.03977 12.11679,-9.70195 -3.6595,2.13777 -7.33895,4.24173 -10.97849,6.4133 -0.60722,0.36231 1.25365,-0.65445 1.8792,-0.98412 0.69057,-0.36393 1.3935,-0.70573 2.06916,-1.09667 7.14868,-4.13628 13.22993,-7.11532 19.27295,-12.01097 1.96592,-1.48067 3.53165,-3.43059 5.39845,-5.01598 1.86088,-1.58038 3.9519,-2.98715 5.95887,-4.37478 5.40578,-3.2488 2.25606,-1.34607 -9.54674,5.54344 0,0 11.58201,-9.31863 11.58201,-9.31863 v 0 c -14.72187,8.44845 -9.62808,5.11499 -15.77634,9.19975 -3.97282,2.90779 -7.61345,6.15145 -11.27633,9.43228 -0.70138,0.53139 -1.38707,1.08414 -2.10412,1.59417 -0.7491,0.53283 -3.10197,1.96859 -2.29244,1.53303 19.74602,-10.62415 10.69761,-6.22473 6.38697,-3.7903 -4.81477,2.71914 -9.60014,5.49002 -14.40021,8.23503 -4.30562,2.80184 -8.02978,6.30415 -11.7666,9.81271 -5.78874,5.03586 -11.54244,10.1283 -17.70695,14.70685 -3.74939,2.97746 -7.3692,6.10241 -10.83646,9.40565 -5.36746,4.85926 -11.08808,9.34414 -17.41125,12.90649 -5.92011,3.78777 -11.26594,8.20404 -15.00518,14.26185 -4.07045,6.68077 -7.45773,13.89496 -13.12525,19.44882 -3.59514,3.34616 -7.29054,6.50186 -11.4068,9.1983 -0.91488,0.59932 -3.74139,2.26454 -2.78126,1.74077 3.14277,-1.71444 6.22184,-3.54315 9.33276,-5.31473 -8.32319,4.07739 -16.74548,7.96533 -25.35379,11.40677 -9.0066,4.1194 -18.06607,8.74458 -25.42754,15.44494 0,0 13.81962,-5.72428 13.81962,-5.72428 z m 30.41528,98.0852 c 6.29705,-2.4391 12.56851,-4.95027 18.9998,-7.01777 4.72869,-1.49431 9.6127,-2.14938 14.54538,-2.39636 10.32166,-0.4837 12.45944,-3.86397 23.10616,-10.1803 4.02402,-3.62237 7.67735,-7.61054 11.65249,-11.28605 4.01542,-3.17458 13.48819,-8.79042 -6.5547,3.36004 -0.61687,0.37396 1.28831,-0.64973 1.9395,-0.96013 1.29882,-0.61909 2.61328,-1.20488 3.91639,-1.8149 2.79393,-1.50683 5.78413,-2.571 8.71826,-3.75763 0.66874,-0.27045 1.36853,-0.48004 1.9964,-0.83518 4.85711,-2.74738 9.62907,-5.64264 14.44361,-8.46395 3.84109,-3.97443 7.01171,-8.54535 10.46421,-12.8564 1.15047,-1.28967 1.64758,-2.00249 3.02682,-2.99469 0.47411,-0.34107 2.01556,-1.18125 1.51176,-0.88578 -19.8335,11.6321 -12.87699,7.10487 -7.72767,5.07756 8.31584,-3.04343 15.9077,-7.9242 22.56652,-13.71778 3.6588,-3.43325 7.1764,-7.02993 10.46454,-10.82081 0.59627,-0.64681 1.19255,-1.29362 1.78883,-1.94043 0,0 -13.5698,5.69263 -13.5698,5.69263 v 0 c -0.59301,0.65491 -1.18602,1.30982 -1.77904,1.96473 -3.35406,3.7434 -6.87149,7.35755 -10.65257,10.67275 -1.1721,0.98317 -1.74351,1.48766 -2.97968,2.41874 -0.54787,0.41266 -2.27351,1.52739 -1.66859,1.2041 20.87872,-11.15843 12.23972,-6.51061 7.49921,-4.60291 -8.18518,2.85519 -16.53085,6.87099 -22.00441,13.71794 -3.369,4.30446 -6.48329,8.95966 -10.71717,12.46638 3.64391,-2.03506 7.32642,-4.0025 10.93172,-6.1052 0.62804,-0.36628 -1.32115,0.608 -1.99096,0.89075 -2.22059,0.93738 -4.52942,1.65687 -6.72738,2.64808 -0.68616,0.30943 -1.34807,0.67006 -2.0221,1.0051 -2.35491,1.14509 -1.47423,0.74057 -3.91972,1.83126 -0.67455,0.30086 -1.38202,0.53552 -2.02613,0.897 -6.46699,3.62932 -13.01749,6.63101 -18.52151,11.48778 -3.93894,3.74136 -7.57507,7.8285 -11.88513,11.15616 3.77655,-2.1397 7.53962,-4.30339 11.32966,-6.41911 0.45163,-0.25211 -0.85429,0.58786 -1.31274,0.82735 -2.27623,1.18909 -4.88654,1.41735 -7.39997,1.60031 -5.04084,0.18531 -10.02452,0.65392 -14.8751,2.1621 -6.38633,1.97976 -12.56524,4.50606 -18.84748,6.78419 0,0 -11.71941,9.19043 -11.71941,9.19043 z M 446.85026,462.68403 c -4.38641,3.85406 -9.15882,7.22571 -14.04162,10.41317 -1.12556,0.68114 -2.25556,1.35499 -3.37668,2.04343 -1.23517,0.75847 -2.45553,1.54092 -3.69205,2.29721 -1.18255,0.72327 -4.76862,2.82882 -3.56492,2.14133 18.40535,-10.51208 6.50656,-3.84087 2.48398,-1.63204 -9.16374,5.21559 -18.39492,10.32378 -27.23594,16.0711 -4.7363,2.81597 -8.92603,6.35604 -12.94346,10.09717 -5.02523,5.24505 -9.97659,10.55945 -15.01949,15.78815 -3.27812,3.13489 -6.29344,6.57373 -10.14241,9.02322 18.59134,-10.92657 13.48386,-7.43302 8.92924,-5.49758 -2.64517,1.12404 -5.37258,2.0979 -8.09601,3.01084 -4.78485,1.17539 -9.55987,2.31651 -14.29004,3.70701 -6.98616,1.78481 -13.64199,4.53836 -20.24302,7.39312 -9.91214,4.48928 -19.58542,9.70395 -28.52544,15.91433 -3.65572,2.66198 -7.27072,5.36209 -11.00247,7.91234 -2.10173,1.27005 -3.86457,2.86809 -5.58855,4.5967 0,0 13.72647,-5.65309 13.72647,-5.65309 v 0 c 1.76489,-1.62132 3.652,-3.0593 5.66503,-4.36401 3.68492,-2.52782 7.1807,-5.31587 10.86203,-7.85076 5.67008,-3.75927 3.33503,-2.13135 -7.78564,4.19555 -0.84228,0.4792 1.6759,-0.97411 2.52934,-1.43313 1.84181,-0.99059 3.70159,-1.94924 5.58504,-2.85819 1.02375,-0.49406 2.06916,-0.94193 3.10374,-1.41289 6.52215,-2.87941 13.06898,-5.7604 20.02198,-7.45514 4.71739,-1.38461 9.42181,-2.72039 14.25759,-3.63669 2.08391,-0.63691 4.08335,-1.38219 6.11854,-2.15504 0.3151,-0.11966 3.75445,-1.34964 4.06409,-1.52035 4.87699,-2.6889 9.6575,-5.54921 14.48626,-8.32381 3.60275,-2.67437 6.59243,-6.03554 9.7626,-9.1914 5.0273,-5.26753 9.98196,-10.60923 15.14743,-15.74163 4.0685,-3.68966 8.39796,-7.04686 13.10466,-9.89528 2.20679,-1.42535 4.423,-2.81417 6.68877,-4.14436 0.803,-0.47143 3.22032,-1.87141 2.41231,-1.40863 -7.06259,4.04501 -14.24422,8.21983 -6.94003,3.97885 11.20427,-6.11651 22.26595,-12.49959 33.07001,-19.30003 4.95817,-3.30997 9.74178,-6.85038 14.33589,-10.65246 0,0 -13.86723,5.54299 -13.86723,5.54299 z m -190.9304,110.67588 c 8.53898,-2.07274 16.91077,-4.78814 25.34525,-7.24741 8.75371,-2.52736 17.59013,-4.85089 25.88931,-8.66293 9.70474,-4.80532 18.74544,-10.70551 27.56555,-16.92987 4.57571,-3.57181 9.43824,-6.74144 14.31235,-9.88483 5.21245,-3.1808 10.53658,-6.16585 15.68163,-9.4587 3.94768,-2.46384 7.7216,-5.19942 11.34329,-8.11891 1.63112,-1.67896 3.71563,-2.73459 5.59777,-4.07242 0.98972,-0.70349 1.91348,-1.49544 2.86993,-2.24351 3.32203,-3.03786 6.4245,-6.28635 9.80541,-9.26175 3.9848,-3.20552 8.15406,-6.18013 12.30513,-9.16838 3.49842,-2.43262 6.67328,-5.27153 9.7806,-8.1748 2.86247,-2.89146 5.96549,-5.50581 9.33495,-7.78348 4.41285,-2.72149 8.53775,-5.30035 12.44925,-8.73773 5.42411,-4.74901 10.42102,-9.95562 15.67315,-14.8865 4.6081,-4.14916 9.18044,-8.51068 14.57411,-11.6301 -11.14131,6.6486 -14.30149,7.85573 -8.5546,5.46019 0,0 11.62454,-9.14252 11.62454,-9.14252 v 0 c -7.29979,2.81358 -1.40192,0.43164 -16.82149,9.00915 -5.16468,3.4119 -9.74899,7.62229 -14.27003,11.83046 -5.22763,4.99184 -10.3028,10.15621 -15.80629,14.8502 -3.99011,3.22967 -8.34728,5.86532 -12.63689,8.67149 -3.30459,2.40264 -6.35997,5.10658 -9.27021,7.97317 -3.11069,2.85246 -6.33574,5.57626 -9.8023,7.99221 -4.12702,3.00651 -8.30834,5.95951 -12.19003,9.28119 -3.367,3.02618 -6.46974,6.33473 -9.96702,9.21355 -2.81063,2.127 -5.82009,3.98075 -8.45485,6.33702 -3.616,2.8399 -7.37305,5.49659 -11.27911,7.92471 -5.15877,3.2497 -10.49157,6.20453 -15.64561,9.46021 -4.87006,3.17987 -9.69858,6.41752 -14.32435,9.94813 -2.30733,1.61612 -4.6221,3.21634 -6.96891,4.77487 -0.82836,0.55012 -3.36617,2.1134 -2.4906,1.64204 0.0866,-0.0466 16.21656,-9.22877 6.96614,-3.96301 -8.25825,4.11223 -17.16724,6.50507 -26.00507,9.05046 -8.21164,2.40594 -16.40625,4.89772 -24.70559,6.9789 0,0 -11.92541,8.9689 -11.92541,8.9689 z m -43.75222,-45.22455 c -5.18357,8.51513 -11.94268,15.89484 -18.77091,23.09932 -3.13796,3.28232 -3.6424,3.874 -6.72992,6.88091 -0.70809,0.6896 -1.50801,1.28937 -2.156,2.03573 -0.25868,0.29795 -0.7721,0.74654 -0.53026,1.05832 0.48593,0.62648 1.42905,1.36301 2.14629,1.02511 5.40127,-2.54462 10.2219,-6.17319 15.33285,-9.25979 1.27307,-1.01315 2.56076,-2.0082 3.81921,-3.03946 4.7078,-3.85792 9.09634,-8.07185 13.77597,-11.95776 1.01796,-0.8453 4.31627,-3.03991 3.14912,-2.4166 -3.71936,1.9863 -7.22537,4.34855 -10.83806,6.52282 -0.0548,-0.0881 -0.0641,-0.29038 -0.16446,-0.26424 -1.51316,0.39399 -1.81705,1.54429 -2.75274,2.77632 -0.63381,0.83454 -1.28747,1.65386 -1.93846,2.47508 -0.56443,0.71203 -1.34643,1.29088 -1.70774,2.12456 -0.19479,0.44946 0.10239,0.97434 0.15359,1.46152 0.99292,0.14667 1.99519,0.64004 2.97876,0.44002 1.44766,-0.29439 2.69663,-1.20907 4.02106,-1.8635 1.46618,-0.72448 2.90065,-1.51145 4.34842,-2.27205 1.8621,-0.97829 4.67785,-2.83967 6.92784,-3.23474 -0.48869,-2e-5 -1.03073,-0.22209 -1.46607,-6e-5 -0.8747,0.44609 -1.50268,1.26425 -2.25347,1.89703 -1.01042,0.85159 -2.01421,1.71108 -3.03014,2.55607 -0.25479,0.21192 -5.50087,4.4117 -5.82655,5.03742 -0.34643,0.6656 0.1318,1.49493 0.19771,2.24239 0.91595,0.46251 1.74908,1.1523 2.74786,1.38755 3.36888,0.79349 9.99288,-0.96102 13.56276,-1.74649 0.11692,-0.0275 0.23383,-0.055 0.35075,-0.0825 0,0 12.03776,-9.03175 12.03776,-9.03175 v 0 c -0.18065,0.0186 -0.3613,0.0371 -0.54194,0.0557 -4.93307,1.3688 -9.78077,2.48515 -14.92963,2.61497 0.16627,-2.06273 -0.15065,-0.87 2.624,-3.25525 1.78997,-1.53876 4.61428,-3.72659 6.35489,-5.3334 0.81153,-0.74914 1.83428,-1.37295 2.32137,-2.36418 0.37989,-0.77306 0.0727,-1.72118 0.10908,-2.58176 -0.42732,-0.13272 -0.84167,-0.47794 -1.28194,-0.39814 -1.45344,0.26344 -5.89628,2.80868 -6.69416,3.23261 -1.41538,0.75204 -2.82987,1.50582 -4.25019,2.24851 -1.20622,0.63074 -2.52299,1.07873 -3.62932,1.87172 -0.59368,0.42554 -0.9127,1.14067 -1.36905,1.711 0.19269,-1.25992 -0.0224,-0.26553 1.69256,-2.48625 1.33754,-1.73204 4.47058,-4.91651 4.03966,-7.36006 -0.0868,-0.49195 -0.68434,-0.72792 -1.02651,-1.09188 -4.75187,2.70712 -9.59371,5.26207 -14.25561,8.12135 -0.91198,0.55934 -7.04333,6.09284 -7.05671,6.10461 -4.45657,3.92043 -8.95145,7.80916 -13.79679,11.25024 16.932,-9.36667 8.72784,-8.51638 9.7994,-3.20343 0.0469,0.23245 0.25771,-0.40106 0.41889,-0.57499 0.6284,-0.67811 1.3005,-1.31441 1.94565,-1.97661 3.43309,-3.52374 2.8473,-2.93893 6.48079,-6.81526 6.92881,-7.44215 13.71586,-15.05576 19.29746,-23.58737 0,0 -13.63707,5.96667 -13.63707,5.96667 z m 22.13345,17.27938 c -12.35915,5.41098 -24.81204,10.60699 -37.15251,16.06562 -7.5766,3.42537 -4.10119,1.8211 -10.43732,4.78869 0,0 -11.23843,8.96 -11.23843,8.96 v 0 c 6.60484,-3.24356 2.99898,-1.51224 10.83512,-5.15726 11.99196,-5.36155 24.13855,-10.33686 36.22856,-15.46611 0,0 11.76458,-9.19094 11.76458,-9.19094 z m -17.75971,0.93018 c -6.66995,6.8033 -14.41731,12.37098 -22.14295,17.89123 -1.21023,0.83124 -2.42046,1.66249 -3.63069,2.49374 0,0 13.45448,-5.29637 13.45448,-5.29637 v 0 c 1.15666,-0.81813 2.31331,-1.63627 3.46997,-2.4544 7.86683,-5.71216 15.76363,-11.47627 22.60308,-18.42616 0,0 -13.75389,5.79196 -13.75389,5.79196 z m -7.88006,-0.98266 c -0.6295,0.60282 -1.21609,1.25392 -1.88851,1.80845 -1.20251,0.99168 -2.47841,1.89095 -3.72765,2.82307 -5.54165,4.13491 -11.1765,8.1197 -16.86623,12.04717 0,0 13.07895,-5.14538 13.07895,-5.14538 v 0 c 5.42846,-3.78521 6.2906,-4.35465 11.75673,-8.29947 2.27851,-1.64437 6.99681,-5.03459 9.34787,-7.02756 0.73489,-0.62296 1.37946,-1.34523 2.06919,-2.01784 0,0 -13.77035,5.81156 -13.77035,5.81156 z m -5.46268,-1.97081 c -9.12421,6.91077 -18.32153,13.72689 -27.29029,20.84157 0,0 13.10094,-5.25122 13.10094,-5.25122 v 0 c 9.18553,-7.28588 18.66637,-14.17526 28.03584,-21.21807 0,0 -13.84649,5.62772 -13.84649,5.62772 z m 6.22898,9.01423 c -5.28341,4.12929 -11.06361,7.58565 -16.72394,11.1675 -3.03982,1.9552 -5.89104,4.17688 -8.83255,6.27199 -0.65286,0.465 -2.66788,1.77324 -1.9704,1.37829 11.81514,-6.69034 8.38483,-9.95944 11.98263,-6.11255 0.35472,-0.0231 0.70945,-0.0461 1.06417,-0.0692 0,0 -13.75649,5.83934 -13.75649,5.83934 v 0 c -0.13371,0.55907 -0.26743,1.11814 -0.40114,1.67721 0.29688,0.41878 0.42343,1.46902 0.89063,1.25633 9.01064,-4.10204 16.46995,-9.97689 24.50835,-15.48138 5.80017,-3.67647 11.81128,-7.16432 17.03728,-11.64307 0,0 -13.79854,5.71554 -13.79854,5.71554 z m -9.00467,-1.07874 c -6.10045,4.5485 -12.43656,8.76359 -18.79232,12.94411 2.9361,-1.53355 -7.56,4.73716 -5.6352,3.60966 3.58115,-2.09774 7.17423,-4.17639 10.71367,-6.34374 0.2803,-0.17164 -0.64063,0.17911 -0.92249,0.34817 -0.0612,0.0367 -0.0817,0.18982 -0.0144,0.21376 0.26976,0.096 0.56981,0.0568 0.85472,0.0852 5.90289,-3.77547 11.87778,-7.43417 17.77553,-11.2186 3.66248,-2.36389 7.20541,-4.90144 10.88554,-7.23757 0,0 -13.72712,5.35061 -13.72712,5.35061 v 0 c -3.55951,2.35668 -7.04122,4.82833 -10.63661,7.13128 -3.54678,2.26209 -7.131,4.45923 -10.69379,6.69518 -1.02636,0.64413 -4.58715,2.87217 -5.68791,3.82132 -0.57587,0.49655 -1.02283,1.12543 -1.53425,1.68815 0.0626,1.22339 -0.0247,3.5023 2.13498,2.34943 6.86981,-3.66725 13.60417,-7.35201 19.98091,-11.76653 6.46348,-4.29509 12.9153,-8.61096 19.16596,-13.21342 0,0 -13.86723,5.54298 -13.86723,5.54298 z m 28.9368,22.91419 c -2.54805,5.23318 -6.13809,9.95074 -10.29739,14.00485 -1.23553,1.10586 -1.74685,1.64441 -3.08292,2.55267 -0.42851,0.2913 -1.78236,1.05765 -1.33441,0.79725 3.81971,-2.22052 7.64049,-4.43927 11.44978,-6.67762 0.39739,-0.23351 -0.81504,0.43119 -1.21355,0.66278 -4.70809,2.73608 -9.40385,5.4933 -14.10578,8.23995 -2.53525,1.80688 -4.70243,4.05765 -6.987,6.15406 -1.34986,1.79109 -2.85103,3.44315 -4.07391,5.33139 -3.84512,7.51327 -7.00163,6.82169 10.56376,-2.84783 0.9621,-3.87537 3.14143,-7.32038 5.08608,-10.76353 2.30019,-4.08292 5.41485,-7.5437 9.08627,-10.42364 2.71856,-1.97985 5.55711,-3.78465 8.35179,-5.65791 2.97301,-1.49915 5.18024,-3.3951 7.17585,-6.03525 1.81105,-2.75527 2.1394,-5.93595 2.39219,-9.1341 -0.0178,-0.45334 0.0997,-0.93293 -0.0534,-1.36001 -0.14006,-0.39075 -0.41462,-1.16342 -0.78159,-0.96944 -4.7787,2.52602 -9.36141,5.44593 -13.72407,8.63715 -0.60432,0.44205 -0.5968,1.37342 -0.89823,2.0588 -1.53044,3.47987 -0.93986,2.168 -2.61859,5.70923 -3.18373,6.47545 -7.61137,12.16677 -12.62263,17.3135 -3.085,3.29322 -6.28782,6.44434 -9.54908,9.55599 -2.165,2.1057 -4.13217,4.41021 -6.29072,6.52045 -1.52471,1.58788 -1.89678,3.75271 -2.11556,5.86013 -0.44333,1.65283 -1.30516,3.13955 -2.53529,4.32288 -0.25802,0.30906 -3.08797,2.45914 -2.93555,2.67897 0.42799,0.61734 1.03351,1.7507 1.72298,1.45253 5.06079,-2.18862 9.51228,-5.57883 14.26842,-8.36824 3.97621,-2.86473 7.46126,-6.23843 10.80879,-9.79727 1.50177,-1.44135 2.93284,-2.96038 4.57062,-4.25309 3.91798,-3.09248 13.37888,-8.05313 -8.60411,4.77253 2.83748,-1.51534 6.03646,-1.71306 9.18307,-1.85903 3.88169,-0.22012 7.79657,0.20395 11.65091,-0.36135 4.77339,-1.37462 20.61025,-7.64414 12.3342,-11.70212 -0.68715,-0.33693 -1.43806,-0.52422 -2.1571,-0.78633 -6.19114,-1.36403 -12.52256,-0.76124 -18.657,0.54962 -7.31642,1.96621 -13.21386,5.14622 -19.69501,9.89311 -0.46875,0.34332 0.37843,1.1795 0.84649,1.52377 0.47788,0.3515 1.15939,0.252 1.73909,0.37799 4.42304,-0.79086 8.80497,-1.80758 13.22252,-2.64716 3.29269,-0.49307 6.56575,-1.09464 9.84654,-1.65861 1.91016,-0.35473 3.85283,-0.39473 5.78484,-0.52561 6.34116,-1.02332 10.92704,-5.31684 16.66406,-8.63815 0,0 -13.9524,5.46224 -13.9524,5.46224 v 0 c 21.49032,-12.20553 14.57301,-7.44408 9.2887,-5.76745 -1.92653,0.35 -3.91307,0.13115 -5.84696,0.49419 -3.34592,0.52703 -6.64045,1.33521 -10.00821,1.73588 -4.35238,0.82079 -8.69797,1.67004 -13.01162,2.66772 -0.29964,0.20612 -0.76023,0.28216 -0.89893,0.61837 -0.12434,0.30143 0.52613,0.76472 0.25417,0.9446 -3.77637,2.49784 -7.89725,4.43164 -11.81463,6.70196 -0.50208,0.29099 1.02987,-0.53828 1.56535,-0.76196 0.9067,-0.37874 3.47761,-1.22559 4.32663,-1.51195 5.91864,-1.49662 12.03598,-2.29104 18.10319,-1.15321 0.62536,0.1873 1.26531,0.33145 1.87608,0.56191 0.35702,0.13471 0.68297,0.34129 1.01518,0.52902 0.0847,0.0479 0.24781,0.0801 0.23268,0.17615 -0.016,0.10186 -0.37038,0.18085 -0.28084,0.12972 4.04453,-2.30968 8.08845,-4.62054 12.14676,-6.90592 0.3719,-0.20943 -0.72435,0.45167 -1.08653,0.6775 -0.4911,0.1563 -0.96626,0.37653 -1.47329,0.4689 -3.28476,0.59842 -6.72633,-0.17615 -10.03407,0.14011 -3.23379,0.0707 -6.50518,0.1301 -9.57811,1.27313 -9.15612,5.29739 -14.74086,7.47321 -21.1941,14.52532 -3.36652,3.50975 -6.93158,6.79987 -10.99764,9.50072 3.75715,-2.13809 7.21358,-4.92387 11.27145,-6.41425 0.67572,-0.24817 0.14276,1.4566 0.43151,2.11599 0.0633,0.14457 0.24054,-0.20439 0.36085,-0.30655 0.8756,-0.7435 1.75568,-1.48717 2.48394,-2.38296 1.09973,-1.53247 1.96761,-3.21399 2.1939,-5.11402 0.32304,-1.93604 0.9658,-3.62914 2.47272,-4.97177 2.03276,-2.18815 4.09662,-4.35228 6.23524,-6.43665 3.23157,-3.06382 6.25134,-6.32798 9.32582,-9.54849 4.90132,-5.34387 9.24011,-11.17968 12.42222,-17.72664 0.35439,-0.74415 2.36405,-4.97366 2.7602,-5.7684 0.33652,-0.67513 1.75841,-2.26151 1.04891,-2.00529 -4.27856,1.54515 -8.04121,4.28316 -12.23517,6.04505 -0.1969,0.0827 -0.15744,-2.97693 -0.13213,0.35122 -0.28456,2.99623 -0.79479,5.91005 -2.75203,8.31864 -2.08858,2.35451 -4.61815,4.04623 -7.32606,5.62799 -2.78583,1.89085 -5.68713,3.62855 -8.2761,5.79156 -3.51502,3.1251 -6.52442,6.71912 -8.77033,10.87501 -1.67658,3.02332 -4.54844,7.44896 -4.84112,10.92675 -0.0363,0.43134 0.0937,0.86065 0.14052,1.29097 15.46034,-7.16055 11.2473,-2.69511 16.19386,-10.5785 1.30091,-1.75437 2.69279,-3.44884 4.18512,-5.04283 2.18323,-2.13415 4.47341,-4.19495 7.03548,-5.86682 -3.78896,2.1652 -7.58627,4.31584 -11.36688,6.49558 -0.40343,0.2326 0.8308,-0.42186 1.23464,-0.65375 6.69366,-3.84351 12.96744,-6.40026 18.1758,-11.68537 4.05486,-4.35209 7.54202,-9.24794 10.25419,-14.54837 0,0 -13.57335,6.20164 -13.57335,6.20164 z m -38.34208,-63.5323 c 0.18978,4.67841 -0.25763,9.34908 -1.40211,13.88516 -0.72949,2.57715 -1.51614,5.55645 -3.75122,7.24898 -0.22224,0.061 -0.86824,0.29485 -0.66674,0.183 15.14561,-8.40716 12.19341,-2.65083 13.83967,-13.23684 1.12013,-4.41892 1.84218,-8.90137 2.31282,-13.4304 0.0416,-0.49934 0.0633,-2.31398 0.51813,-2.86663 0.19327,-0.23484 1.11002,-0.48757 0.85198,-0.32659 -3.96624,2.47442 -8.12949,4.63857 -11.98982,7.27516 -0.27129,0.18529 0.66387,0.1026 0.94911,0.2656 0.40475,0.23129 0.71798,0.5948 1.07697,0.8922 1.8982,1.98243 2.64713,4.54178 3.20537,7.15312 0,0 13.10553,-7.05689 13.10553,-7.05689 v 0 c -0.70939,-2.86799 -1.63481,-5.67491 -3.65679,-7.91515 -0.065,-0.0659 -2.11298,-2.32407 -2.56693,-2.13307 -11.10077,4.67063 -14.23068,3.30994 -14.77108,11.30922 -0.44415,4.48753 -1.28648,8.90054 -2.25245,13.30371 -0.35101,2.10062 -1.14171,4.6329 -0.79584,6.78984 0.91345,5.69661 11.31791,-2.20107 14.67374,-5.95323 1.73032,-2.32398 2.61939,-5.09985 3.22939,-7.90844 0.98769,-4.69475 1.34029,-9.46704 1.40234,-14.26159 0,0 -13.31207,6.78284 -13.31207,6.78284 z m -35.28432,33.71201 c 0.20443,-4.0787 1.37752,-6.28936 4.03964,-9.25426 4.22265,-3.06594 12.0095,-7.66816 -8.92298,5.00993 -0.37466,0.22692 0.79829,-0.36361 1.2116,-0.50865 0.91321,-0.32048 1.42925,-0.38162 2.36749,-0.55765 1.83121,-0.37405 3.4562,0.0423 4.73453,1.41092 -0.53924,-0.64707 0.95172,1.07022 0.56966,1.01057 -0.26689,-0.0417 -0.88551,-0.32053 -0.66034,-0.46974 4.00377,-2.65302 8.339,-4.77298 12.41251,-7.31761 0.20326,-0.12697 -0.48037,0.0365 -0.71885,0.0128 -0.32482,-0.0323 -0.64172,-0.12003 -0.96257,-0.18005 -3.12625,-0.96982 -6.37791,-1.30087 -9.63674,-1.17698 -6.56987,1.08615 -14.07036,3.83179 -17.60224,9.67107 0,0 13.75283,-5.81899 13.75283,-5.81899 v 0 c 4.37567,-3.40547 2.03844,-1.51688 -10.9009,5.9632 -0.40511,0.23418 0.83748,-0.42379 1.27924,-0.57808 0.49463,-0.17276 1.01344,-0.26644 1.52016,-0.39965 3.10807,-0.41276 6.26562,-0.15817 9.25873,0.81331 0.30558,0.1046 1.79002,0.63499 1.89433,0.58341 5.41418,-2.67704 16.99515,-3.89548 12.6297,-9.86409 -1.39217,-1.65786 -3.38485,-2.88248 -5.61806,-2.61313 -7.74476,0.84318 -14.74971,5.4539 -20.27575,10.82436 -2.43059,3.20103 -3.4218,6.07633 -3.78642,10.08833 0,0 13.41443,-6.64905 13.41443,-6.64905 z m 0.46232,32.92594 c -11.04861,3.76418 -21.6588,9.4652 -30.56939,17.02683 -0.14319,0.71041 -0.68355,1.45251 -0.42956,2.13124 1.2149,3.24652 6.41234,2.4437 8.73204,1.78273 5.78997,-1.64977 19.77675,-10.97148 19.9955,-11.10086 2.8198,-1.99358 5.44507,-4.23207 7.79244,-6.76474 0.0829,-0.0894 1.99125,-2.10909 2.01426,-2.7069 0.016,-0.41668 -0.37475,-0.74502 -0.56212,-1.11753 -0.51578,-0.1376 -1.06974,-0.65129 -1.54732,-0.41281 -8.65347,4.3212 -13.8666,8.29007 -21.26622,13.02851 -1.89145,1.2032 -3.81107,2.35281 -5.7109,3.54168 -0.48337,0.30248 -1.9586,1.16872 -1.46534,0.88264 12.10854,-7.02268 15.6621,-8.6045 10.84119,-6.41643 0.1535,0.33979 0.23473,0.77686 0.90087,0.38424 0.34365,-0.20254 0.48092,-0.63749 0.74452,-0.93689 0.33578,-0.38137 0.68394,-0.75285 1.0518,-1.10337 1.05701,-1.00721 1.27192,-1.09327 2.44843,-1.91727 -21.98039,12.98716 -13.91991,7.36448 -9.51466,5.9985 2.1247,-0.65883 4.4938,-1.17575 6.71848,-1.32178 -0.25633,-0.19444 -0.45054,-0.53736 -0.76897,-0.58334 -0.41272,-0.0596 -1.99447,1.21946 -2.00788,1.22815 -1.52691,0.98987 -3.12363,1.83902 -4.63345,2.86157 -4.37949,2.73153 -7.28231,4.523 9.96568,-5.74322 0.46549,-0.27706 -0.96116,0.50196 -1.45808,0.71764 -1.36489,0.59242 -2.8141,1.01378 -4.22291,1.48721 -5.81234,2.11229 -11.58126,6.29003 -16.39118,9.14373 -0.59038,0.35027 -1.11312,0.8046 -1.68809,1.17964 -0.72561,0.47329 -2.9642,1.79423 -2.21207,1.36432 3.27814,-1.87375 6.52738,-3.7976 9.79107,-5.6964 -4.63797,2.64346 -9.36088,5.14001 -14.14339,7.51197 -6.79658,3.27778 -13.26654,7.0247 -19.679148,11.06855 -0.279321,0.17614 -0.287683,0.59449 -0.431525,0.89174 0.235771,0.42673 0.292219,1.02449 0.707312,1.28019 1.650001,1.01644 4.066191,0.26209 5.644811,-0.0827 4.78504,-1.04511 9.43326,-2.61008 14.07424,-4.14963 4.98438,-1.59384 9.62663,-4.02751 14.14406,-6.63295 15.68634,-9.04716 11.12722,-6.25729 19.49788,-11.46984 4.76915,-2.94557 9.55123,-5.84619 14.18158,-9.00284 0.30705,-0.28568 0.96774,-0.44026 0.92114,-0.85706 -0.34179,-3.05681 -4.62164,-1.34424 -5.93857,-0.91665 -2.81991,0.91559 -4.76991,1.79641 -7.51762,2.94186 -7.66976,3.58127 -15.28818,7.28208 -22.8183,11.1493 -3.2479,1.77327 -6.45788,3.62395 -9.82261,5.17026 -5.62597,2.59631 -11.78266,5.26626 -16.4424,9.07019 -0.66188,0.54033 1.11649,1.43253 1.93338,1.68298 0.79976,0.24519 1.6587,-0.2183 2.48805,-0.32745 7.1893,-1.41681 13.85678,-4.51984 20.51264,-7.46675 9.40446,-3.96439 18.03277,-9.4869 26.77213,-14.68972 0.36174,-0.68995 0.8079,-1.06146 0.23275,-1.86491 -0.28909,-0.40384 -0.6712,-0.79967 -1.14248,-0.95642 -1.41443,-0.47043 -3.8241,0.89086 -5.03261,1.36348 -5.78207,2.4201 -9.34533,5.01451 -14.22765,10.64218 -0.78984,0.91042 2.37252,-0.43221 3.54611,-0.70682 1.69247,-0.39603 6.36763,-1.70619 8.10059,-2.18546 0.95111,-0.21583 1.89048,-0.49216 2.85332,-0.64751 0.44868,-0.0724 0.98286,0.21626 1.36304,-0.0328 0.23114,-0.15139 -0.49239,-0.25083 -0.73859,-0.37625 -0.41578,0.12956 -1.61578,0.62085 -1.24733,0.38868 3.45959,-2.18005 7.06997,-4.11266 10.55408,-6.25331 0.81926,-0.50335 -1.70344,0.89249 -2.55516,1.33873 -5.55079,2.70439 -11.12076,5.36912 -16.58273,8.25015 -0.63222,0.3503 -1.27383,0.68419 -1.89667,1.05092 -4.77129,2.80932 -9.56667,5.57942 -14.28501,8.47679 -0.52075,0.31977 -0.94206,0.77864 -1.41587,1.16457 -1.22068,0.99427 -2.35819,2.05411 -3.55252,3.0781 0.17167,0.53305 -1.57397,0.97971 -1.35726,1.66111 0.1923,0.60463 0.62769,1.26163 1.23372,1.44945 1.39224,0.43149 6.52083,-1.84306 7.86842,-2.32763 9.18269,-3.75746 17.58434,-9.14746 26.02935,-14.29648 0.40713,-0.2349 4.48265,-2.85593 4.48745,-3.1658 0.0464,-2.99867 -3.21339,-1.01866 -4.20045,-0.53646 -5.09629,2.5334 -10.24599,4.94515 -15.42733,7.2991 -5.28788,2.39825 -10.00087,4.46229 -14.93291,8.55915 -0.64604,0.53664 1.1812,1.33448 1.99619,1.5373 0.6926,0.17236 1.39068,-0.32483 2.07609,-0.52388 1.53687,-0.44634 4.41679,-1.45148 5.84043,-1.93726 3.32779,-1.11193 6.57483,-2.44061 9.832,-3.73904 0.56061,-0.22348 3.29163,-1.11329 4.1312,-1.60065 -5.22838,-3.77759 -2.16169,-0.78024 9.58229,-7.78225 0.71713,-0.42756 -1.47699,0.779 -2.21594,1.16764 -0.90087,0.47379 -3.68712,1.92393 -4.57457,2.43365 -4.8821,2.80409 -9.74106,5.64827 -14.61159,8.4724 -0.47188,0.37297 -1.05299,0.63905 -1.41565,1.11891 -1.17522,1.55497 0.82947,2.92069 2.08487,3.28652 1.12537,0.32794 2.06702,0.16929 3.20575,0.0988 6.75146,-1.89117 13.38413,-5.52491 18.22289,-10.64449 0.3708,-0.39233 1.99626,-2.3205 2.34124,-2.72732 0.93452,-1.30406 2.17125,-2.32974 3.27192,-3.47938 0.81027,-0.84632 1.43343,-1.59883 2.43456,-2.21829 -4.20727,2.40332 -8.41454,4.80665 -12.62181,7.20997 -0.39914,-0.37719 -0.36493,-0.5839 -0.79215,-0.008 -0.75167,1.01367 -0.38958,1.71847 -1.8194,1.80353 4.34662,-2.33399 8.69324,-4.66798 13.03985,-7.00196 0,0 -12.77992,7.94259 -12.77992,7.94259 v 0 c 4.58002,-2.12825 9.16004,-4.2565 13.74006,-6.38476 0.63461,-1.08656 1.76533,-2.57257 1.43435,-3.92128 -0.11529,-0.46981 -0.20933,-1.48209 -0.65537,-1.29484 -4.69511,1.97094 -8.97443,4.81397 -13.46165,7.22096 -1.92179,1.87042 -3.7224,3.87113 -5.46524,5.90749 -0.96073,1.07733 -1.38057,1.5958 -2.43046,2.58438 -0.3874,0.36477 -1.6741,1.29619 -1.20234,1.05005 21.014,-10.96429 13.25363,-7.31735 8.67041,-4.9394 -1.55076,0.31377 -1.28231,0.3307 -2.80958,0.37435 -0.31295,0.009 -0.62864,-0.0538 -0.93913,-0.0136 -0.0723,0.009 -0.20657,0.20565 -0.15423,0.15495 0.16436,-0.1592 0.30856,-0.34142 0.49029,-0.48046 0.44536,-0.34074 0.92351,-0.63634 1.38527,-0.95451 -3.54381,2.02643 -7.09872,4.03356 -10.63142,6.07929 -0.74435,0.43104 1.50952,-0.82511 2.26579,-1.23489 1.45948,-0.7908 2.9904,-1.44719 4.43528,-2.26436 4.7716,-2.69863 9.83768,-4.96185 14.23567,-8.23422 0.60381,-0.44927 -0.0936,-1.50231 -0.14046,-2.25346 -1.46206,-0.18992 -3.58486,1.0164 -4.78621,1.50519 -3.23411,1.31585 -6.4506,2.68135 -9.76335,3.79383 -7.47826,2.54491 0.82334,-0.25744 -5.6463,1.86583 -0.60668,0.19911 -1.42403,0.11296 -1.81256,0.61967 -0.365,0.47603 0.44566,1.44986 -0.0421,1.79909 -3.85155,2.75791 -8.24957,4.66001 -12.33266,7.06186 -0.57671,0.33924 1.20562,-0.58071 1.80843,-0.87107 5.14856,-2.3367 10.27314,-4.70902 15.3544,-7.18769 0.38947,-0.19036 4.31477,-1.86106 1.922,-3.16396 -0.33696,-0.18347 -0.60537,0.47201 -0.91895,0.69309 -1.43679,1.01298 -1.93747,1.29348 -3.47394,2.2526 -5.72011,3.54573 -1.34475,0.80013 8.72609,-4.8783 0.66442,-0.37463 -1.29284,0.81171 -1.96304,1.17592 -2.43291,1.32213 -4.95761,2.50475 -7.47605,3.65117 -0.86366,0.31479 -6.58651,2.0905 -7.06197,2.77467 -0.23431,0.33715 -0.12849,0.95254 0.18492,1.21778 0.49827,0.42166 0.80823,-2.23654 1.39719,-1.37206 1.14728,-1.02844 2.2991,-2.03672 3.52079,-2.97759 0.46986,-0.36185 1.94781,-1.34568 1.42595,-1.06396 -4.1953,2.26478 -15.9446,9.10826 -9.09711,5.1255 5.45035,-2.93883 10.99486,-5.6977 16.60746,-8.31411 6.70987,-3.24355 7.5365,-3.55868 17.26871,-9.87401 0.95713,-0.62109 1.32145,-2.31725 0.25,-3.10281 -0.89628,-0.65713 -4.5211,0.4828 -4.79407,0.54476 -6.43215,1.83667 -1.42014,0.43941 -7.97481,2.17314 -1.00995,0.26713 -2.13501,0.2722 -3.02514,0.81905 -4.46817,2.74502 -8.64884,5.93361 -12.91964,8.97664 -1.02794,0.73243 4.69188,-2.86145 3.36525,-1.73585 0.53779,-0.2111 3.96074,-1.4248 4.373,-1.88731 0.16581,-0.18603 0.11473,-0.49485 0.087,-0.7425 -0.0307,-0.27413 -1.62243,0.81931 -0.71395,0.41843 24.51062,-13.91866 4.67506,-2.30135 -1.43813,0.10603 -6.57805,2.94525 -13.10051,6.20938 -20.19904,7.72116 -0.72759,0.12903 -1.45518,0.25807 -2.18278,0.3871 -0.01,0.55939 0.42841,1.35674 -0.0295,1.67817 -3.89334,2.73285 -8.30049,4.64958 -12.40652,7.05106 -0.30018,0.17556 0.65661,-0.23069 0.97687,-0.36622 0.78577,-0.33253 1.41063,-0.68208 2.16951,-1.08031 3.52839,-1.42604 6.81502,-3.36957 10.11033,-5.2596 7.50736,-3.98534 15.18435,-7.6434 22.84611,-11.31946 4.27598,-1.85162 3.06054,-1.40206 7.2816,-2.94178 0.86321,-0.31488 1.73286,-0.61185 2.59888,-0.91891 0.40878,-0.14494 0.97362,-0.084 1.22552,-0.43708 0.21542,-0.30192 0.21798,-0.96399 -0.12479,-1.10565 -0.34715,-0.14348 -0.59706,0.45595 -0.89559,0.68393 -4.50941,3.12107 -9.26475,5.85521 -13.88244,8.81086 -1.1482,0.70574 -4.62832,2.76156 -3.44459,2.1172 2.95955,-1.611 5.85476,-3.33755 8.77501,-5.01876 1.10192,-0.63439 -2.2094,1.25917 -3.31998,1.87827 -2.03088,1.13212 -4.5832,2.55894 -6.7077,3.48526 -1.33564,0.58237 -2.71725,1.05302 -4.07588,1.57953 -4.07532,1.4042 -5.27124,1.88014 -9.45139,3.05912 -1.42785,0.40271 -2.86501,0.77392 -4.30969,1.11134 -0.64109,0.14973 -3.44478,0.38914 -4.34912,1.24838 -0.10937,0.10391 0.0759,0.29202 0.1138,0.43803 4.22155,-2.98372 0.44087,-0.28559 -11.08559,6.28913 -0.40697,0.23214 0.7946,-0.49729 1.20274,-0.72736 1.52008,-0.85687 3.14011,-1.5106 4.65828,-2.37163 4.85317,-2.35928 9.61284,-4.90494 14.32064,-7.54183 5.10301,-2.94235 10.22224,-5.85673 15.30903,-8.82703 0.77463,-0.45233 1.51748,-0.95704 2.27349,-1.43986 8.68639,-5.54757 -17.11567,9.58541 -7.48063,4.21853 9.02845,-2.91784 7.79351,-3.03361 20.01987,-10.1607 0.44872,-0.26157 0.87155,-0.56525 1.30732,-0.84788 1.32312,-0.84401 6.36097,-3.49652 6.35073,-5.23516 -0.003,-0.55226 -0.37496,-1.03894 -0.56244,-1.5584 -0.34484,-0.0711 -0.68278,-0.22917 -1.03453,-0.21338 -0.59411,0.0267 -1.16677,0.23116 -1.75173,0.33838 -0.73577,0.13487 -1.47529,0.24899 -2.21031,0.38787 -7.49349,1.4159 -9.75463,2.83774 -18.2406,9.02178 -1.61976,1.38153 -4.78174,3.89666 -3.94273,6.36179 0.12156,0.35713 0.50579,0.55986 0.75869,0.8398 6.22116,-1.07385 0.8721,-0.0366 14.87883,-8.09713 2.40712,-1.38524 4.69303,-2.99019 7.0705,-4.42402 1.87567,-1.23819 3.73791,-2.49515 5.60223,-3.75032 0.52564,-0.35388 2.13345,-1.3648 1.57738,-1.06095 -11.70715,6.39693 -12.48332,10.68159 -11.09295,5.21092 -0.0459,-0.17299 0.025,-0.59345 -0.13775,-0.51897 -0.32326,0.14794 -0.3951,0.59262 -0.6217,0.86654 -0.41245,0.49858 -0.84307,0.98286 -1.29296,1.44794 -2.32632,2.4048 -4.92837,4.51187 -7.69187,6.39527 21.59403,-11.72749 6.99479,-3.65652 5.09264,-2.94185 -1.08925,0.40925 -2.23898,0.66331 -3.39043,0.83103 -0.83222,0.12121 -1.68287,0.0723 -2.52283,0.0303 -0.34374,-0.0172 -0.91546,0.1234 -1.01155,-0.2071 -0.12858,-0.44222 0.39188,-0.83354 0.58782,-1.25032 3.50178,-2.78498 14.57542,-10.15311 -3.36283,1.08495 -1.10314,0.6911 2.32866,-1.16647 3.51902,-1.69332 0.95905,-0.42448 1.937,-0.80752 2.92518,-1.1589 0.69848,-0.24838 1.42018,-0.42584 2.13027,-0.63876 0,0 11.77734,-9.14977 11.77734,-9.14977 z m 437.47867,-502.976777 -12.0293,8.210938 c 3.63051,1.062218 7.44413,1.935659 9.86524,5.095703 0.25076,0.457207 0.57026,0.883048 0.7539,1.371094 0.73884,1.963391 0.3253,4.21354 0.11329,6.3125 -0.56621,-1.536623 -1.15367,-3.063769 -2.01953,-4.470704 -1.67511,-2.721833 -4.3619,-4.649734 -6.85157,-6.552734 l -12.53515,8.111328 c 2.49659,1.623721 5.11708,3.428237 6.75586,5.988281 1.15382,1.802461 1.62107,3.421191 2.3496,5.412111 0.088,0.40589 0.19045,0.83568 0.28907,1.25586 L 569.98294,111.87 c 3.54829,2.27325 5.14046,6.01209 6.24023,9.88282 -0.0251,0.20571 -0.0527,0.41844 -0.0781,0.62109 -0.23151,4.11547 -0.0383,8.41809 2.02735,12.09375 1.50399,2.0973 3.01458,3.35923 4.79492,4.57031 -0.38704,2.04327 -0.68271,4.10672 -0.73828,6.16992 -0.0525,1.95082 0.13626,2.58427 0.44141,4.45703 0.75112,2.87662 1.79962,4.58957 3.38476,5.71485 0.0419,0.21713 0.0857,0.43602 0.12695,0.6543 -0.37325,0.006 -0.74583,0.0152 -1.11914,0.0137 l -7.66211,5.5664 c -2.58527,-0.053 -5.16686,0.10072 -7.71484,0.6875 -7.75734,2.34413 -15.14878,6.43339 -21.36914,11.56641 -3.03923,3.09169 -5.58395,6.63085 -7.42969,10.56641 -1.70713,3.8771 -2.7959,7.85377 -2.98242,12.11328 -0.20724,4.20918 0.0441,8.40186 0.72266,12.5664 0.0766,0.41532 0.17067,0.82657 0.2539,1.24024 -0.68289,-0.14821 -1.36493,-0.30171 -2.05469,-0.41602 -7.38716,0.0201 -15.3294,4.61143 -18.34179,11.40625 -1.03292,2.99128 -1.99278,6.00239 -2.98633,9.01172 -1.76822,4.65927 -4.47918,8.88139 -6.82617,13.25781 -3.12322,5.17117 -6.05928,10.45611 -9.19141,15.62305 -2.3899,3.46315 -4.48385,7.09808 -6.41797,10.83008 -1.99755,3.57517 -4.21666,7.03256 -6.61328,10.35351 -3.10874,3.90522 -6.29759,7.74446 -9.65429,11.43946 -1.82135,2.01221 -3.69094,3.97922 -5.56836,5.9375 l -13.26954,13.55664 c -0.1218,0.11089 -0.23562,0.23114 -0.35937,0.33984 -1.86026,1.72578 -3.77957,3.40103 -5.4668,5.29883 -1.10182,-1.65653 -2.45993,-3.7823 -4.31054,-4.80078 -0.89749,0.54676 -2.45964,1.48084 -4.91602,2.9375 1.58042,-1.02092 3.52586,-2.19357 4.85742,-2.97266 -0.72038,-0.38469 -1.51064,-0.59954 -2.38476,-0.54101 -0.46272,0.031 -0.88662,0.27251 -1.33008,0.4082 -2.18101,1.23848 -12.84182,5.88292 -16.77149,10.26758 -1.4514,1.61944 -2.42826,3.5914 -3.67968,5.35351 -0.94442,1.39458 -1.8674,2.8039 -2.78125,4.21875 -2.82164,-0.86514 -7.16955,1.8751 -9.56836,2.72461 -8.2994,4.72065 -16.60478,9.26852 -24.45703,14.6836 -4.65583,2.91883 -9.42982,5.63864 -14.05079,8.61328 -4.51068,2.83331 -8.86713,5.87855 -13.08789,9.13086 -4.78895,3.70388 -9.18605,7.86696 -13.73437,11.85742 -5.05341,4.37026 -10.20221,8.62606 -15.40235,12.82031 -4.45523,3.52473 -8.87834,7.10636 -13.63476,10.22461 -5.56487,3.72209 -10.89818,7.74318 -16.05859,12.01172 -5.56869,4.60061 -10.84128,9.50704 -15.85352,14.71289 -5.7536,5.58362 -11.3307,11.35675 -17.31836,16.69336 -7.78275,6.9943 -15.79746,13.73372 -24.24609,19.91602 -4.5444,3.34614 -9.0445,6.77103 -13.67383,10 -1.2419,0.86622 -2.49184,1.72154 -3.76758,2.5371 -0.20419,0.13054 -0.30825,0.18482 -0.62305,0.375 -3.79974,2.09822 -7.67298,4.05905 -11.82422,5.3711 l -10.15234,7.83984 c 0.43469,-1.43956 0.95925,-2.85231 1.57422,-4.22656 l -13.59961,6.22852 c -1.22206,3.365 -2.20498,6.82082 -2.47851,10.39843 0.007,1.68138 0.42259,3.16288 1.18554,4.5 l -1.70312,1.28907 c 0.76495,-0.1856 1.50289,-0.33433 2.23047,-0.4668 0.32548,0.45893 0.69206,0.90314 1.10156,1.33008 0.88426,0.82196 1.9163,1.26536 3.08398,1.48047 l 4.15039,-3.11524 c 0.6662,0.0748 1.34276,0.16366 2.04297,0.28516 1.93663,0.37289 3.66675,1.16327 5.28125,2.16797 l -4.38281,2.08007 c -0.10526,0.33657 -0.21116,0.67321 -0.31641,1.00977 -0.90681,2.45756 -1.91982,4.87805 -2.99218,7.26758 -1.14592,2.26126 -2.55549,4.38381 -4.1543,6.35156 -1.40016,1.54516 -2.97518,2.92934 -4.63867,4.1875 -2.55118,1.03694 -5.16523,1.85336 -7.97266,2.06836 -4.42423,-0.0518 -8.80135,-0.93113 -13.12109,-1.83008 l -12.3125,8.45313 c 4.44101,0.83707 8.89271,1.74112 13.4082,2.04101 4.14058,-0.0194 7.97449,-1.36434 11.7207,-2.98242 7.55319,-3.69447 14.79937,-8.02027 21.67969,-12.84961 1.78048,-1.54494 3.61521,-3.03049 4.98633,-4.96289 1.4691,-1.95983 2.78857,-4.02942 3.80469,-6.25781 1.78139,1.82665 3.40719,3.81799 4.87109,5.90234 2.81516,4.22839 4.97165,8.85167 7.13086,13.4375 1.96177,4.40471 3.6538,8.92858 5.16602,13.50586 1.59533,4.34058 2.72903,8.8065 3.86718,13.2793 0.75085,2.77368 1.10945,5.61123 1.3086,8.46484 -1.88849,1.13356 -3.8202,2.28406 -5.66602,3.34571 -4.17006,3.18181 -8.50296,4.75531 5.73242,-2.21485 0.002,0.0364 0.004,0.0729 0.006,0.10938 l -7.48633,3.80273 c 3.14483,-1.32219 5.38856,-2.11913 7.53516,-2.95312 0.005,0.11461 0.0145,0.22912 0.0195,0.34375 0.003,0.0693 0.005,0.13781 0.008,0.20703 -4.75965,2.73373 -3.65198,2.12619 -0.32031,0.36523 0.0483,-0.0255 0.24586,-0.1304 0.32617,-0.17383 0.0798,1.91187 0.10047,3.80842 -0.0703,5.70118 l -3.08008,1.24414 c -0.28491,-1.33473 -0.2486,-0.61278 0.72461,-2.71485 l -13.34765,6.25977 c -0.80155,3.16947 -0.92408,1.82771 -0.36524,4.03125 0.11525,0.2256 0.27399,0.40549 0.4043,0.61523 -0.42695,0.30283 -0.85305,0.60765 -1.28125,0.9082 -4.0628,2.82763 -8.17836,5.63228 -11.79688,9.02735 -2.7398,2.81012 -5.1363,5.92948 -7.17773,9.28515 l 13.69336,-6.03906 c 1.91938,-3.28921 4.34289,-6.33197 7.16797,-8.88476 0.59249,-0.52696 1.20104,-1.03589 1.81445,-1.53711 0.53571,0.46201 1.10592,0.90392 1.67773,1.34179 l -2.71289,2.05274 c 0.34664,-0.0477 0.69437,-0.0949 1.04102,-0.14258 0.99067,-0.24596 1.94312,-0.59263 2.88476,-0.9707 4.43035,2.99147 9.18614,5.4911 14.20313,7.35156 1.3075,0.43752 3.47498,1.22056 4.86328,1.46484 2.80059,0.49279 5.6078,-0.59248 8.34961,-0.96875 1.8607,-0.41702 3.73229,-0.78678 5.58203,-1.25 4.77301,-1.1953 9.33762,-3.05244 13.98438,-4.64453 8.72886,-3.25382 17.32344,-6.84188 25.93945,-10.38086 8.37824,-3.42963 16.6838,-7.03006 25.02148,-10.55664 8.71421,-3.76434 16.93817,-8.56204 24.9375,-13.67187 3.95507,-2.87839 7.69751,-6.0295 11.39063,-9.23438 3.05483,-2.53648 5.83044,-5.33543 8.62109,-8.13867 7.82532,-3.4919 15.12607,-8.11123 22.55664,-12.31641 4.38545,-2.8709 8.58665,-6.00671 12.73633,-9.20703 4.60099,-3.67757 9.09405,-7.49297 13.33008,-11.58984 3.42057,-3.32802 6.73637,-6.79645 9.40039,-10.77734 2.19125,-3.36853 4.3885,-6.75293 6.08008,-10.40821 0.73393,-1.74234 1.37178,-3.54259 2.30273,-5.1914 0.94696,-1.29408 2.03053,-2.48114 3.17969,-3.60157 1.07185,-0.38953 2.15111,-0.76341 3.18164,-1.24609 8.99522,-4.08877 17.47983,-9.21179 25.76563,-14.58398 4.79338,-3.2845 9.414,-6.79835 13.99023,-10.37696 4.43168,-3.11108 9.0796,-5.91737 13.36328,-9.22851 2.53574,-2.51677 3.23146,-4.45247 2.31836,-7.85547 7.73265,-4.44868 15.567,-8.76336 23.05664,-13.62305 3.32709,-2.19957 6.71371,-4.41615 9.15235,-7.64258 1.9101,-3.05659 2.66465,-6.3203 1.90234,-9.90234 -0.28308,-0.9946 -0.59824,-1.88885 -0.94922,-2.72461 l 2.46289,-1.00195 c 1.48689,-1.94291 2.40483,-4.16012 3.21875,-6.45703 1.34014,-3.5785 2.71707,-7.14205 3.94922,-10.75977 1.4176,-3.68978 3.0278,-7.29937 4.87695,-10.79492 1.71818,-3.30482 3.63687,-6.48675 5.50977,-9.70508 2.64261,-4.65441 5.3352,-9.2819 8.07617,-13.87891 2.88687,-4.63412 5.99449,-9.12624 8.9375,-13.72461 3.20102,-4.93408 6.57049,-9.75992 9.35352,-14.95312 2.2406,-4.36101 3.9954,-8.94657 6.42187,-13.21289 1.88617,-3.22849 4.00245,-6.31089 6.73633,-8.89258 2.6644,-2.42848 5.50875,-4.68734 7.6543,-7.62305 2.7714,-3.46223 4.64625,-6.81308 5.10546,-11.32617 0.50492,-5.51277 0.2067,-10.98585 -1.48632,-16.29687 l -5.57813,3.07226 c 0.072,-1.00363 0.11562,-2.00701 0.0957,-3.00781 4.59308,-0.97407 1.02516,-0.42872 14.02734,-7.83008 1.90515,-1.08449 3.4798,-2.68112 5.08008,-4.14844 3.39359,-3.57011 6.65797,-7.31103 9.41015,-11.40234 2.2625,-3.9447 4.43923,-8.02484 5.31446,-12.53125 0.64342,-3.85417 0.63553,-7.63933 0.43945,-11.51562 l 13.10156,-5.41602 c -0.14727,-1.09179 -0.0457,-0.57342 -0.29297,-1.55273 -0.73504,-2.02879 -1.8733,-3.87617 -2.58593,-5.91797 -1.17895,-3.04574 -2.39911,-6.07352 -3.57032,-9.12305 -0.0974,-0.2752 -0.17927,-0.55534 -0.27148,-0.83203 1.7798,0.73447 3.78593,1.08378 6.06445,0.97851 0.9993,-0.0462 1.97248,-0.3321 2.95899,-0.49804 4.2463,-1.60801 9.66634,-3.78508 13.89843,-6.99414 1.86984,-0.76453 3.73986,-1.51762 5.5918,-2.32813 2.40001,2.4948 3.74646,6.01178 4.07031,9.44336 0.0662,0.70153 -0.007,1.40864 -0.01,2.11328 -0.41766,2.12653 -0.0163,1.21759 -1.04883,2.78906 l 12.22851,-5.57421 c 5.23558,-1.16435 3.36297,-0.96355 15.32422,-8.27344 0.27235,-0.16644 0.46849,-0.43011 0.62696,-0.7207 l 12.19922,-5.16211 c 0.41357,-0.58312 0.91264,-1.11263 1.24023,-1.74805 1.35161,-2.62172 0.35275,-5.7946 -0.8125,-8.25391 -2.02671,-3.56057 -4.73001,-6.86422 -8.69922,-8.30273 -1.19829,-0.18935 -2.22051,-0.27339 -3.24219,-0.0957 -0.30601,-0.23953 -0.69702,-0.31706 -1.17578,-0.0645 -4.7523,2.50735 -9.3833,5.24246 -14.05859,7.89063 -0.53118,0.30087 -1.04018,0.63783 -1.56055,0.95703 -2.86493,1.90832 -5.66899,3.90723 -8.52344,5.83008 -1.79897,0.57301 -3.61691,1.07069 -5.46093,1.43945 0.0486,-0.3281 0.0862,-0.66051 0.10937,-1 0.0748,-1.09786 -0.1524,-2.1952 -0.22851,-3.29297 -0.26942,-1.00504 -0.41586,-2.05206 -0.8086,-3.01562 -0.56471,-1.38549 -1.3951,-2.63996 -2.41992,-3.69922 -0.0373,-0.48583 -0.0752,-0.96474 -0.11133,-1.50977 -0.70729,-2.90033 -1.81429,-5.88865 -5.01172,-6.82031 -0.8431,-0.24566 -1.84153,-0.24044 -2.92773,-0.0606 -0.11964,-0.0906 -0.24168,-0.17861 -0.35938,-0.27148 -3.61913,-1.90062 -8.10521,-3.67381 -12.26953,-2.57031 -0.67266,0.17824 -1.28901,0.52293 -1.93359,0.78515 -2.13414,1.35665 -4.30159,2.66525 -6.45703,3.99024 -0.0813,-1.52303 -0.1949,-3.04338 -0.35742,-4.56055 -0.46114,-3.4931 -0.74942,-7.53783 -3.71485,-9.88672 -0.8179,-0.27944 -1.74623,-0.42588 -2.57226,0.0293 -0.37043,0.20411 -0.7312,0.38909 -1.09961,0.58789 -0.0719,-2.37058 -0.40699,-4.89364 -1.63282,-6.87891 -0.0247,-0.0764 -0.0407,-0.15423 -0.0664,-0.23047 -0.0213,-0.0356 -0.0468,-0.0663 -0.0684,-0.10156 0.89913,-2.48598 1.34572,-5.17002 0.5918,-7.60742 -0.21813,-0.70521 -0.64763,-1.32652 -0.97071,-1.99024 -1.5239,-2.06896 -3.60542,-3.36347 -5.93554,-3.88086 -2.98666,-3.55242 -6.92993,-6.10535 -11.50196,-7.03515 -0.55053,-0.002 -1.10618,-0.0752 -1.65234,-0.006 -0.53249,0.0676 -1.08964,0.14601 -1.55469,0.41406 -3.5677,2.05643 -7.16585,4.07963 -10.63672,6.29492 -0.59776,-1.54417 -0.89173,-3.1744 -1.0039,-4.82812 l 0.80273,-0.41211 c -0.14495,-2.61396 0.0143,-1.28386 -0.50195,-3.98242 -0.0548,-0.19624 -0.11547,-0.39026 -0.17188,-0.58594 0.23604,-1.49711 0.45525,-3.13983 0.96094,-4.65234 l 0.78516,-0.32618 c 1.33444,-1.53861 1.95367,-1.91685 2.58203,-3.83789 0.0231,-0.0707 0.0394,-0.14205 0.0606,-0.21289 0.2815,-0.23343 0.56079,-0.4691 0.8496,-0.69336 0.98407,-0.7641 2.03378,-1.44242 3.00196,-2.22656 1.49257,-1.20885 2.79183,-2.62665 4.17773,-3.951171 2.5248,-2.653992 3.33793,-5.968577 3.78711,-9.484375 0.0505,-2.660844 0.82996,-5.647367 -0.24805,-8.214843 -0.25603,-0.609778 -0.6575,-1.146892 -0.98632,-1.720703 -2.62674,-3.516523 -6.70967,-4.646144 -10.70313,-5.896485 z M 447.76223,312.15711 c 0.02,0.0107 0.0387,0.0242 0.0586,0.0352 1.62131,-0.98774 1.28798,-0.82303 -0.0586,-0.0352 z m 151.58008,-182.2207 c 0.25621,0.18223 0.5107,0.36664 0.75781,0.56055 -0.30188,0.15672 -0.60273,0.31643 -0.90234,0.47656 0.0439,-0.34628 0.0987,-0.69108 0.14453,-1.03711 z m 88.58008,41.2207 c 2.57658,1.30141 4.41665,3.76593 5.81836,6.29883 0.85152,1.89756 1.61662,4.3609 0.63281,6.33398 -0.009,-0.65158 -0.2189,-1.34962 -0.33789,-1.89648 -1.45456,-3.7286 -3.82125,-7.06604 -6.95117,-9.58594 l -10.57422,6.57813 c -0.12794,-0.1877 -0.26395,-0.37142 -0.40039,-0.55469 1.64255,-0.93452 3.28427,-1.86997 4.92773,-2.80273 0.90146,-0.51163 1.78104,-1.05995 2.67188,-1.58985 1.4079,-0.89729 2.83003,-1.81229 4.21289,-2.78125 z m -8.62891,14.27344 c 0.71084,1.14773 1.2949,2.37754 1.73242,3.67578 0.0291,0.27559 0.15735,0.84048 0.10938,1.32227 1.11419,-0.70193 2.14774,-1.3296 3.10547,-1.89453 l -4.38672,3.36523 c 0.0119,-0.10733 0.025,-0.23507 0.0371,-0.41602 0.32991,-0.0883 0.74885,-0.2386 0.92969,-0.37304 0.20125,-0.14963 0.28664,-0.40236 0.31445,-0.68164 -0.39752,0.25043 -0.80917,0.51487 -1.22461,0.7832 0.0172,-0.25011 0.0332,-0.49823 0.0742,-0.96094 -0.10205,-1.62238 -0.32088,-3.24352 -0.69141,-4.82031 z m -130.78125,32.2207 c 1.89149,1.53021 3.74451,3.10795 5.5625,4.72657 3.80077,3.22847 6.75409,7.2558 9.81641,11.15039 2.01989,2.67189 3.91953,5.44936 5.61133,8.34179 1.4642,2.5083 2.74077,5.11594 4.02539,7.71875 0.7519,2.01724 1.81996,3.85531 2.96679,5.65235 l -0.64843,0.33789 c -1.22649,-1.46586 -2.46684,-2.91806 -3.75196,-4.33594 -3.4436,-3.59559 -7.03856,-7.03881 -10.54492,-10.57227 -4.86928,-4.8951 -9.82816,-9.70763 -14.75195,-14.54687 -2.42837,-2.27058 -4.8832,-4.50558 -7.40235,-6.66797 l 1.48438,-0.97656 c 0.27993,0.97569 0.56959,1.95045 0.86719,2.92187 z m -25.63281,1.40235 c -0.19174,0.10805 -0.38234,0.21835 -0.57422,0.32617 0.19378,-0.10255 0.38287,-0.2181 0.57422,-0.32617 z m 76.34375,2.58789 c 0.53319,1.8412 1.03938,3.68991 1.52344,5.54687 -0.88324,-1.64071 -1.77646,-3.27707 -2.70508,-4.89258 0.3934,-0.21934 0.78795,-0.43575 1.18164,-0.65429 z m 2.1875,34.1914 c -0.11444,0.12197 -0.2345,0.23809 -0.34961,0.35938 -0.16035,0.0104 -0.32179,0.014 -0.48242,0.0215 0.27933,-0.12119 0.55627,-0.24936 0.83203,-0.38086 z m -5.76758,5.14453 c -0.2459,0.16781 -0.48919,0.33955 -0.74609,0.49219 -0.38173,0.22681 -1.56611,0.83681 -1.1836,0.61133 0.76606,-0.45156 1.22727,-0.69675 1.92969,-1.10352 z m -158.49805,60.6875 c 0.89594,0.79368 1.66872,1.98454 2.57227,3.25782 2.46325,3.47358 3.96385,7.47148 5.60547,11.36523 -3.87678,2.0247 -8.82434,4.92609 -10.89258,7.75781 -0.53511,0.73264 -0.91781,1.56321 -1.37695,2.34571 -1.7975,3.07783 -2.59976,6.55117 -3.66992,9.91601 -0.65882,-3.30522 -1.27284,-6.61991 -1.86915,-9.9375 -0.6682,-3.17682 -1.4819,-6.40256 -2.78515,-9.39648 l 3.76758,-1.6875 c 2.69102,-4.60947 5.51031,-9.14656 8.58007,-13.51367 0.0235,-0.0351 0.045,-0.0722 0.0684,-0.10743 z m 9.37696,16.66797 c 0.0471,0.0579 0.11267,0.14155 0.17187,0.21485 -0.54756,0.30707 -1.09103,0.62131 -1.63476,0.93554 z m -38.40039,2.2461 c 0.37523,-0.023 0.72764,-0.002 1.05078,0.0723 0.36206,0.0836 0.65086,0.35825 0.97656,0.53711 2.5236,3.52691 3.51416,7.95428 4.34961,12.14844 0.39437,2.01074 0.75574,4.02742 1.125,6.04297 -6.53608,1.36155 -12.21479,6.19903 -17.66406,9.64844 -3.27417,2.43839 -6.19343,5.30946 -9.43164,7.79687 -3.48446,2.77524 -6.94205,5.61952 -9.61914,9.2207 -3.21198,4.11762 -6.27026,8.34247 -9.32813,12.57422 l -6.80469,7.03907 c -4.04439,2.09711 -7.91846,4.42559 -10.95117,7.82421 -1.04655,1.52042 -1.90522,3.13271 -2.69726,4.7754 -3.78202,2.51906 -6.89496,4.57545 -7.84375,5.20898 -3.33028,2.00299 -6.6375,4.04269 -9.92188,6.11914 -2.83366,1.79149 -5.5462,3.76993 -8.2539,5.74805 -6.84483,4.41143 -13.71409,8.78349 -20.62891,13.0957 -13.60885,8.69943 -27.97217,16.10423 -42.08008,23.93945 -9.14695,5.08001 -14.86714,8.38699 -22.45312,12.77539 -0.20408,0.0458 -0.40714,0.0952 -0.61133,0.14063 l -0.61133,0.47461 -0.0469,0.002 -1.30859,0.87305 c -1.97153,1.14012 -3.16797,1.83201 -5.64844,3.26172 -2.21121,1.32087 -4.42357,2.64199 -6.63476,3.96289 -1.29621,0.77433 -2.67476,1.4244 -3.88867,2.32226 -0.2725,0.20155 -0.7957,0.80418 -0.47071,0.90039 0.2289,0.0678 0.46727,0.1206 0.70313,0.17774 l -5.45117,3.63476 c -0.30153,-0.0938 -0.59931,-0.19519 -0.91016,-0.26953 -3.55691,-0.75764 -6.91882,-0.98668 -10.41211,-0.50976 -0.36825,-0.8984 -0.5262,-1.88823 -0.47461,-2.97852 0.17712,-1.69005 0.50401,-3.35878 0.95508,-4.99414 5.92439,-2.03147 11.39414,-5.13326 16.83789,-8.19141 6.0871,-4.42249 13.21764,-7.24105 19.50195,-11.38476 5.89514,-3.8871 11.44774,-8.35383 17.12305,-12.54883 8.50193,-6.28681 16.60474,-13.09345 24.46875,-20.15625 5.98304,-5.35468 11.51585,-11.18073 17.30273,-16.74414 4.98771,-5.24801 10.36326,-10.05929 15.9668,-14.63086 3.56434,-2.69458 6.94848,-5.63739 10.60352,-8.21289 1.81359,-1.27793 3.69821,-2.45305 5.54687,-3.67969 4.76793,-3.18027 9.1929,-6.83164 13.69141,-10.37304 5.11419,-4.2649 10.27309,-8.47624 15.29492,-12.85157 4.52671,-4.03829 8.94542,-8.19351 13.83789,-11.78906 4.2037,-3.27342 8.62123,-6.2078 13.14258,-9.01562 4.64017,-2.94651 9.3988,-5.68845 14.05273,-8.61524 0.58644,-0.42627 1.60772,-1.06588 2.45703,-1.625 1.76365,-0.84839 3.57574,-1.64929 5.15821,-1.74609 z m 33.70117,0.78711 c -0.95558,0.5586 -1.9135,1.11389 -2.87891,1.65429 -0.62777,0.3514 1.23177,-0.74641 1.85742,-1.10156 0.3368,-0.19118 0.68051,-0.36907 1.02149,-0.55273 z m 69.36523,63.82617 c 2.75825,1.83781 4.16533,4.27748 5.01953,7.71484 0.49154,3.31276 -0.40561,6.22539 -2.54882,8.75 -2.59326,2.97191 -6.01314,4.93269 -9.24024,7.11133 -0.41484,0.26596 -0.97214,0.60864 -1.49804,0.93359 -1.84677,0.94255 -3.72769,1.8168 -5.66211,2.57032 -1.27389,0.48719 -0.79219,0.2463 -1.49219,0.625 l -2.01563,1.36914 c -1.65082,-2.7586 -3.71787,-5.26138 -5.33593,-8.0586 l -3.28321,1.92383 c 0.8078,-0.53889 1.63179,-1.05383 2.39649,-1.65625 2.68037,-2.11156 4.96313,-4.70092 7.36328,-7.10742 3.85568,-4.06875 7.7571,-8.12873 11.27148,-12.5 z m -17.22265,5.74023 c -3.68712,4.98859 -8.06761,9.45291 -12.38086,13.89649 l 11.26953,-13.52539 z m -15.04297,16.54492 c -0.0338,0.0342 -0.0678,0.0674 -0.10156,0.10157 -0.12894,0.0226 -0.25747,0.0474 -0.38672,0.0684 z m -4.91992,4.38868 c -0.0673,0.0477 -0.12737,0.10553 -0.19532,0.15234 -0.54608,0.37618 -2.29334,1.33119 -1.72461,0.99024 0.6387,-0.38293 1.28053,-0.76084 1.91993,-1.14258 z m 4.66406,0.0527 -3.14649,1.84375 c 2.23261,3.37069 5.02784,6.4403 6.57422,10.20899 0.70393,3.44207 -0.50195,4.51237 -3.0625,6.49414 -4.37856,3.07915 -8.94191,5.88153 -13.27539,9.02929 -4.17662,3.39379 -8.49007,6.61773 -12.96093,9.61328 -0.48185,0.22669 -0.94544,0.46648 -1.54688,0.74805 -2.83134,1.29223 -5.78047,2.29055 -8.66211,3.45899 -5.73386,2.70617 -11.21674,6.25786 -16.53711,9.49804 -0.76907,0.46837 -1.34797,1.19423 -2.03906,1.77149 -1.60154,1.65721 -3.30585,3.31996 -4.4043,5.36523 -0.75726,1.77231 -1.3303,3.62108 -2.17773,5.34961 -1.6806,3.56225 -3.86312,6.84481 -6.01367,10.13281 -2.77094,3.80248 -6.05915,7.18466 -9.44336,10.4375 -4.25474,4.08023 -8.78477,7.85781 -13.4375,11.47266 -2.57991,1.97974 -5.20952,3.8898 -7.875,5.74805 -1.40378,0.70698 -2.62744,1.35336 -3.63086,1.8164 -7.69141,3.19099 -15.99406,6.20938 -21.97852,12.1836 -2.19069,2.1657 -4.12413,4.58933 -6.41211,6.6582 -0.67408,0.60953 -3.30669,2.7158 -4.00781,3.28125 -2.8519,2.526 -5.81164,4.93697 -8.875,7.20508 -0.62567,0.29099 -1.15611,0.57655 -2.34961,1.12695 -8.35849,3.63787 -16.72783,7.25409 -25.1582,10.72266 -8.59031,3.54882 -17.18173,7.09456 -25.875,10.38476 -6.27923,2.4322 -12.66685,4.44012 -19.23633,5.89844 -2.64459,0.36261 -5.33313,1.3624 -8.04102,1.17187 -1.87616,-0.13201 -2.8905,-0.53359 -4.70898,-1.05664 -4.4457,-1.46272 -8.61327,-3.59518 -12.52539,-6.13867 2.66951,-1.55939 4.76744,-2.82327 3.23047,-2.07812 -0.55467,0.26891 -1.09347,0.5683 -1.64063,0.85156 -0.61741,0.3528 -1.23669,0.70223 -1.85547,1.05273 -0.0252,-0.0166 -0.051,-0.0322 -0.0762,-0.0488 0.63615,-0.34936 1.28725,-0.67031 1.93164,-1.00391 1.17915,-0.67379 2.35266,-1.35412 3.51563,-2.05469 0.91191,-0.54934 1.61903,-1.54209 2.30078,-2.32812 1.15968,-2.09122 1.95829,-4.32508 2.32031,-6.69727 0.20535,-1.66662 0.19556,-3.34226 0.14453,-5.01758 1.48396,-0.31304 3.21861,-0.81423 5.07227,-1.42382 1.33458,-0.32881 2.67622,-0.6282 4.00195,-0.99219 2.37878,-0.63277 5.40132,-1.39175 7.72461,-2.19336 2.69779,-0.93083 4.75937,-1.83364 7.24023,-3.22852 4.17986,-2.35014 5.08529,-2.85863 6.99219,-3.92578 0.63139,-0.10632 1.28519,-0.53772 1.91992,-0.69336 8.93282,-3.83873 16.80486,-8.61544 25.39063,-13.54687 6.9138,-3.97111 13.60429,-8.34283 20.08008,-12.99024 2.6121,-1.97352 5.25702,-3.90321 7.83593,-5.91992 2.05195,-1.60462 4.07853,-3.24276 6.09375,-4.89453 4.51675,-2.60116 9.03022,-5.20829 13.5293,-7.83984 8.30174,-3.83946 16.09736,-8.96179 23.87695,-13.56641 -0.59733,-0.29543 -0.9598,-0.54047 -1.15234,-0.75 0.9429,-0.11111 1.88429,-0.22629 2.83203,-0.30469 8.54883,-1.71632 16.37066,-6.94179 21.16992,-14.08008 3.17247,-4.81262 6.6523,-9.43908 10.66407,-13.58984 2.88531,-2.65913 5.875,-5.20757 8.8789,-7.74219 2.46353,-1.75169 5.03176,-3.35634 7.60938,-4.94726 5.56454,-3.33525 11.0393,-6.81955 16.43359,-10.42383 4.22763,-2.78315 8.46191,-5.55659 12.70117,-8.32227 0.51158,-0.17497 1.01338,-0.36548 1.57617,-0.46093 0.45124,-0.0765 0.90864,-0.10376 1.36329,-0.15625 3.95516,-0.0976 7.92142,-0.37555 11.78125,-1.30079 2.39524,-1.33282 4.87613,-2.54293 7.32031,-3.80859 z m -24.53516,4.10938 c -0.28215,0.16407 -0.56551,0.32614 -0.84765,0.49023 l 0.56836,-0.39453 z M 327.897,451.2743 l -1.69141,1.69141 -2.23828,0.64843 c 1.31164,-0.77685 2.62241,-1.5557 3.92969,-2.33984 z m -38.76172,11.24414 c -0.36454,0.31076 -0.7315,0.61854 -1.0957,0.92969 -1.36208,0.65554 -2.72674,1.30557 -4.08985,1.95898 1.72793,-0.96399 3.46197,-1.91699 5.18555,-2.88867 z m -26.83984,11.35547 c -1.72156,1.06177 -3.51671,2.22267 -4.97461,3.36133 -0.0113,0.009 -0.0201,0.0205 -0.0312,0.0293 -1.76728,0.93684 -3.53094,1.88045 -5.30079,2.8125 -2.20883,1.12084 -4.41093,2.25683 -6.61914,3.37891 -0.1305,0.0295 -0.2621,0.0543 -0.39257,0.084 5.32578,-3.02505 8.66887,-4.88762 17.31836,-9.66601 z m 3.4082,5.22461 c 0.12643,0.0405 0.24005,0.0943 0.37695,0.12305 -0.005,0.004 -0.0103,0.008 -0.0156,0.0117 -0.90235,0.65075 -1.02857,0.77365 -1.40235,1.0625 -0.80856,0.11855 -1.62074,0.20606 -2.43164,0.30469 0.55827,-0.23997 2.88457,-1.24625 3.47266,-1.50195 z m 165.56054,3.21875 c -0.003,0.007 -0.0789,0.062 -0.0957,0.0781 -1.14378,0.66037 -1.53534,0.90115 -2.92187,1.69532 -1.85908,1.06483 3.08832,-1.96452 3.01757,-1.77344 z m -59.19726,16.32812 c 1.3889,-0.74318 -1.54402,0.90149 -3.66406,2.04883 -0.002,-0.0123 -0.008,-0.0229 -0.01,-0.0351 1.22333,-0.67356 2.44253,-1.35483 3.67383,-2.01368 z m -5.12695,2.81055 c -0.008,0.014 -0.0172,0.0308 -0.0254,0.0449 -0.19023,0.0972 -0.38196,0.18549 -0.57227,0.28125 0.19869,-0.10969 0.39898,-0.21646 0.59766,-0.32617 z m -4.20899,1.79102 c -0.35384,0.20802 -1.42298,0.83171 -1.74804,1.02343 -0.11849,0.0502 -0.23867,0.0969 -0.35743,0.14649 0.70484,-0.3884 1.40478,-0.77958 2.10547,-1.16992 z m -3.82812,1.19922 c 0.0112,0.18158 0.01,0.33776 0.0332,0.54492 0.006,0.0488 0.0396,0.0704 0.0762,0.0898 -1.00738,0.39455 -2.02525,0.77179 -3.06055,1.125 -0.4469,0.15247 -0.90484,0.2704 -1.35937,0.39844 0.0881,-0.0811 0.17564,-0.1629 0.26367,-0.24414 1.36271,-0.60785 2.70739,-1.2549 4.04688,-1.91406 z m 6.21484,0.14257 c -0.57261,0.89934 -1.02679,1.38032 -1.13476,0.63867 0.45393,-0.27013 0.4751,-0.28247 0.89062,-0.52929 0.0938,-0.0428 0.14168,-0.0605 0.24414,-0.10938 z m -25.38086,14.82813 c 2.31294,-1.32113 -9.2296,5.32191 -6.92383,3.98828 1.90121,-1.09963 3.80375,-2.19668 5.70703,-3.29297 1.21301,-0.69328 -0.26525,0.15122 1.2168,-0.69531 z m -25.16016,10.45117 c -0.40915,0.43707 -0.77171,0.88942 -1.03515,1.33398 -0.84509,0.70032 -1.6952,1.39398 -2.54883,2.08399 -0.64918,0.42341 -1.2909,0.85701 -1.93945,1.28125 0.72463,-0.77163 1.44216,-1.55008 2.16406,-2.32422 1.12188,-0.78871 2.23855,-1.58473 3.35937,-2.375 z m -103.08398,3.92187 c -10.97238,4.04166 -20.98296,10.46802 -30.35352,17.41211 -3.45834,2.37428 -6.62519,5.1222 -9.86328,7.77539 -1.63486,0.48841 -3.31462,0.82401 -5.01172,1.0586 l -5.88867,4.38476 c -1.78745,-4.41326 -3.73215,-8.7936 -4.6582,-13.48828 -0.62086,-3.88164 -0.88122,-7.79665 -0.19531,-11.69531 l -13.41602,6.65039 c -0.46541,4.01269 -0.13359,8.01411 0.52735,11.98047 0.0845,0.36819 0.18421,0.73101 0.27929,1.0957 l -7.92187,3.33594 c -4.17181,4.89563 -8.10909,9.98133 -11.8125,15.24023 -3.05957,4.60691 -5.73178,9.43022 -8.98828,13.90626 -4.83491,5.39777 -11.19737,8.97249 -17.367192,12.60937 -3.34064,2.09976 -6.96883,3.74886 -10.0957,6.17969 -1.30912,1.01772 -2.05709,1.77922 -3.23829,2.90234 -3.011639,3.56253 -4.155764,8.14252 -6.162105,12.25977 -0.169805,0.33101 -0.361165,0.64163 -0.556641,0.94726 -6.390122,2.67014 -13.278421,5.71547 -16.574218,11.50781 -0.372925,0.65543 -0.625239,1.37416 -0.9375,2.06055 -1.383386,4.07085 -2.028105,8.38305 -1.523438,12.66211 0.223675,0.73724 0.430742,1.70036 0.939453,2.32813 2.024706,2.4986 6.061781,2.15295 8.865235,2.21484 4.870491,-0.17301 9.855403,-0.46081 14.558594,-1.85742 3.14888,-0.93506 3.95527,-1.47409 6.89648,-2.90235 5.20134,-3.13889 10.4866,-6.14325 15.603522,-9.41796 1.13618,-0.72712 5.31069,-4.51851 6.24414,-5.375 2.68467,-2.46335 5.28367,-5.0159 7.87695,-7.57422 0.75656,-0.0322 1.51715,0.0305 2.27539,0.041 4.33633,0.52229 8.3513,2.74511 12.83008,2.16602 3.62269,-0.4684 5.50453,-1.63033 8.75586,-3.12305 5.0377,-2.94112 10.12555,-5.79691 15.11524,-8.81836 0.41327,-0.0715 0.82757,-0.13683 1.23828,-0.21875 2.51611,-0.31695 5.03721,-0.22277 7.55859,-0.24609 0.33618,0.71815 0.67913,1.43238 1.03516,2.14258 1.99722,3.59312 3.50818,4.75357 7.4375,5.84961 3.22249,0.64034 6.43965,0.084 9.5664,-0.74805 7.8278,-2.52664 15.13418,-6.76444 21.49805,-11.96484 2.10454,-1.85056 3.80427,-4.04712 5.44336,-6.30469 1.15029,-2.02209 1.99395,-4.1105 2.35156,-6.41016 l -0.0488,-1.60742 -13.28125,6.72461 c -0.0409,0.47039 -0.0821,0.94172 -0.12304,1.41211 -0.50719,2.08735 -1.36798,4.04844 -2.61719,5.80664 -0.99434,1.32889 -2.05841,2.60133 -3.21484,3.78515 -2.38501,0.66856 -4.84503,1.03849 -7.33399,0.85352 -3.63902,-0.75017 -4.86007,-1.36583 -6.70312,-4.67383 l 5.77734,-4.32422 c -1.49364,0.21723 -2.98028,0.48422 -4.48047,0.65039 -0.98608,0.10923 -1.97069,0.15321 -2.95508,0.16797 -0.8786,-1.9098 -1.72491,-3.83436 -2.48242,-5.80078 -1.10496,-2.73527 -2.26926,-5.44234 -3.51758,-8.11328 l 11.57422,-5.0918 c 0.2146,-0.37366 0.42993,-0.74742 0.64453,-1.12109 1.80181,-3.49331 3.18537,-7.15834 4.78125,-10.74609 1.18159,-2.15071 2.38075,-3.94578 4.16407,-5.66211 0.99062,-0.95341 2.47373,-2.09823 3.72265,-3.04297 0.99008,-0.46339 1.99101,-0.91218 3.00781,-1.3418 0.91217,-0.38541 4.71053,-1.92637 5.81055,-2.25781 0.59611,-0.17962 1.22153,-0.24319 1.83203,-0.36524 l 11.92188,-9.02734 c -6.84739,1.54109 -13.21173,4.75942 -19.34375,8.08594 -6.86065,4.55929 -16.86503,8.26683 -22.26172,15.47461 -1.11759,1.49265 -1.51931,2.54603 -2.3125,4.21093 -1.23256,3.24519 -2.62576,6.39628 -4.2207,9.4668 -0.16938,-0.35191 -0.33331,-0.7061 -0.50586,-1.05664 -1.25779,-2.63211 -2.30089,-5.35034 -3.41407,-8.04492 -1.23031,-3.0121 -2.42158,-6.04101 -3.41211,-9.14258 -1.13024,-3.35086 -2.16616,-6.73321 -3.32031,-10.07617 0.5702,-0.19204 1.13552,-0.39791 1.69141,-0.63672 6.99649,-3.06511 13.71927,-7.0064 19.74414,-11.71289 3.8152,-3.20719 7.63954,-6.40536 11.70117,-9.30273 0.99607,-0.71988 1.97977,-1.45591 2.98828,-2.15821 0.0854,-0.0326 0.17061,-0.0668 0.25586,-0.0996 0.58664,-0.22605 1.18712,-0.41162 1.78125,-0.61718 z m -18.20703,11.97852 c -0.37523,0.21692 -0.74804,0.43869 -1.125,0.65234 -0.59998,0.34005 0.16268,-0.10685 1.125,-0.65234 z m -49.41406,16.39648 c 1.19304,3.53947 2.71686,6.96804 4.05859,10.45313 1.39318,4.01015 2.56414,8.09224 3.92188,12.11328 0.96267,3.14244 2.18301,6.19431 3.375,9.25391 1.13272,2.72278 2.20138,5.4655 3.48437,8.12304 1.79118,3.39263 3.28496,6.91294 4.70117,10.47461 0.0539,0.13651 0.11375,0.26993 0.16797,0.40625 -5.17099,2.29273 -10.53131,6.34447 -13.21094,7.98828 -0.84592,0.51892 -1.53592,1.25775 -2.32812,1.85547 -0.0685,0.0517 -0.23087,0.15448 -0.31836,0.2168 -0.68487,0.24196 -1.39128,0.44692 -2.13477,0.5957 -4.4199,0.88453 -8.44071,-1.35834 -12.64648,-2.18945 -1.21233,-0.11775 -4.35913,-0.59728 -5.57617,-0.0254 -9.37866,4.40694 -14.96723,7.13658 -21.58985,13.61719 -3.73689,3.68976 -7.479032,7.39813 -11.535152,10.74218 -0.22843,0.18833 -0.69445,0.50211 -1.07617,0.77344 -4.43798,1.42601 -9.17472,1.74707 -13.796879,1.97852 -1.425389,0.006 -6.475934,0.22565 -7.710938,-1.06836 -0.388963,-0.40755 -0.585799,-1.32143 -0.730469,-1.8086 -0.436818,-4.03026 0.211226,-8.10164 1.810547,-11.83007 0.619863,-1.05988 0.896036,-1.60871 1.371094,-2.23047 1.636933,-0.8584 3.46048,-2.04293 11.783205,-6.75391 2.28177,-1.29157 3.83738,-3.24065 4.91601,-5.60156 1.78677,-4.09247 3.10727,-8.51916 6.39258,-11.72266 3.986142,-3.53985 8.629502,-6.06074 13.228522,-8.71679 6.21717,-3.74611 12.61956,-7.49294 17.2539,-13.21485 3.16079,-4.50328 5.80378,-9.32033 8.89063,-13.87304 2.31706,-3.27414 4.75375,-6.45974 7.29883,-9.55665 z m 89.95117,19.80665 c -0.0994,0.36462 -0.21852,0.72088 -0.33594,1.08007 -0.17246,-0.15126 -0.32063,-0.32354 -0.48437,-0.48242 0.27446,-0.19782 0.54715,-0.39807 0.82031,-0.59765 z M 125.9927,624.24891 c -0.98737,0.61539 -1.67564,1.02166 -2.52344,1.53906 0.0528,-0.0416 0.23026,-0.20138 0.26563,-0.22656 0.70945,-0.50506 2.99688,-1.77313 2.25781,-1.3125 z m -51.054689,4.22656 c -0.339874,0.28764 -0.703712,0.55535 -1.097656,0.79688 -0.564446,0.34607 -2.334372,1.24776 -1.769531,0.90234 1.12729,-0.68938 1.886155,-1.11705 2.867187,-1.69922 z" />
</svg>
