<svg xmlns="http://www.w3.org/2000/svg" viewBox="0 0 566.93 566.93"><defs><style>.cls-1{fill:#4c4a48;}</style></defs><g id="Layer_6" data-name="Layer 6"><path class="cls-1" d="M371.5,565.92a19.15,19.15,0,0,1-15.32-7.62c-13.59-18-16.66-44-8.4-71.22,3.22-10.64,7.6-20.41,11.83-29.86A244.09,244.09,0,0,0,369,434.3c14-42.51,2.22-89.88-13.42-142.92L282.09,42.1a19.18,19.18,0,0,1,36.79-10.84l73.47,249.28c14.24,48.31,32,108.43,13.06,165.77a278.14,278.14,0,0,1-10.8,26.59c-3.92,8.74-7.61,17-10.13,25.3-4.6,15.16-3.73,29,2.31,37a19.17,19.17,0,0,1-15.29,30.73Z"/><path class="cls-1" d="M371.5,566.93a20,20,0,0,1-16.12-8c-13.8-18.27-16.92-44.56-8.57-72.12,3.25-10.71,7.63-20.51,11.88-30A244.49,244.49,0,0,0,368,434c13.92-42.23,2.15-89.43-13.43-142.31L281.12,42.39A20.18,20.18,0,1,1,319.84,31l73.48,249.28c14.27,48.44,32,108.73,13,166.36a277,277,0,0,1-10.83,26.69c-3.9,8.71-7.59,16.93-10.09,25.19-4.5,14.85-3.69,28.34,2.15,36.08a20.2,20.2,0,0,1-3.94,28.27A20,20,0,0,1,371.5,566.93Zm-71-548.42a18.19,18.19,0,0,0-17.45,23.31L356.53,291.1c15.68,53.21,27.52,100.73,13.41,143.52a245.46,245.46,0,0,1-9.41,23c-4.22,9.42-8.58,19.15-11.79,29.75-8.16,26.93-5.15,52.56,8.25,70.31a18.16,18.16,0,1,0,29-21.89c-6.23-8.26-7.15-22.42-2.47-37.89,2.54-8.38,6.25-16.66,10.18-25.43A278.17,278.17,0,0,0,404.45,446c18.8-57,1.13-117-13.07-165.16L317.91,31.55a18.2,18.2,0,0,0-17.4-13Z"/><path class="cls-1" d="M292.76,325.4a13.45,13.45,0,0,1-8.07-2.69L162.52,231.12c-26.52-19.88-53.94-40.44-75-68.1A13.47,13.47,0,1,1,109,146.71c18.77,24.66,44.66,44.07,69.7,62.85l122.17,91.59a13.47,13.47,0,0,1-8.09,24.25Z"/><path class="cls-1" d="M292.76,326.41a14.34,14.34,0,0,1-8.68-2.9L161.91,231.92c-26.57-19.92-54-40.51-75.18-68.28a14.48,14.48,0,1,1,23-17.54c18.69,24.55,44.52,43.92,69.51,62.65l122.17,91.59a14.48,14.48,0,0,1-8.7,26.07ZM98.23,142.4a12.46,12.46,0,0,0-9.89,20c21,27.55,48.32,48.06,74.78,67.9L285.29,321.9a12.47,12.47,0,0,0,15-19.95L178.08,210.36c-25.1-18.81-51-38.26-69.9-63a12.42,12.42,0,0,0-8.25-4.81A14,14,0,0,0,98.23,142.4Z"/><path class="cls-1" d="M371.48,564.37a17.62,17.62,0,0,1-16.84-12.48c-11.59-37.93-63.89-114.54-96-146.23-30.2-29.85-70.74-44.32-105.8-37.77a17.62,17.62,0,0,1-6.47-34.64c23.94-4.47,49.74-2,74.61,7.25a177.29,177.29,0,0,1,62.43,40.09c32.13,31.75,90.33,113.35,104.89,161a17.62,17.62,0,0,1-16.86,22.77Z"/><path class="cls-1" d="M371.48,565.38a18.53,18.53,0,0,1-17.81-13.19C342.12,514.38,290,438,258,406.37c-30-29.61-70.17-44-104.9-37.49a18.63,18.63,0,1,1-6.84-36.62c24.11-4.51,50.09-2,75.14,7.29a178.43,178.43,0,0,1,62.79,40.32C316.36,411.7,374.7,493.5,389.3,541.3a18.64,18.64,0,0,1-12.37,23.26A18.75,18.75,0,0,1,371.48,565.38ZM170,365.33c30.87,0,63.83,14.33,89.42,39.61C291.54,436.71,344,513.54,355.6,551.6a16.61,16.61,0,1,0,31.77-9.71C372.85,494.37,314.8,413,282.74,381.31a176.35,176.35,0,0,0-62.07-39.87c-24.7-9.15-50.32-11.64-74.07-7.2a16.61,16.61,0,0,0,6.1,32.66A93.4,93.4,0,0,1,170,365.33Z"/><path class="cls-1" d="M278.68,417.28A17.12,17.12,0,0,1,263,407c-9.65-22.26-4.57-40.16,1.31-60.89,1.62-5.73,3.3-11.66,4.9-18.33,1.53-6.42,3.48-12.66,5.37-18.7,4.86-15.53,9.05-28.95,5.26-40.39a17.1,17.1,0,0,1,32.48-10.74c7.24,21.89.68,42.84-5.1,61.34-1.79,5.74-3.49,11.16-4.75,16.44-1.76,7.37-3.62,13.93-5.26,19.71-5.42,19.13-7.44,27.32-2.83,38a17.12,17.12,0,0,1-15.68,23.91Z"/><path class="cls-1" d="M278.68,418.29a18.1,18.1,0,0,1-16.62-10.92c-9.8-22.59-4.68-40.65,1.26-61.57,1.63-5.77,3.3-11.66,4.88-18.28,1.54-6.44,3.5-12.7,5.39-18.74,4.81-15.4,9-28.67,5.28-39.8a18.11,18.11,0,0,1,34.38-11.38c7.35,22.2.74,43.32-5.08,62-1.8,5.75-3.49,11.14-4.74,16.38-1.77,7.41-3.63,14-5.27,19.75-5.35,18.88-7.35,26.95-2.87,37.28a18.13,18.13,0,0,1-16.61,25.32ZM296.05,247.2A16.16,16.16,0,0,0,291,248a16.1,16.1,0,0,0-10.22,20.34c3.89,11.75-.35,25.3-5.26,41-1.89,6-3.83,12.26-5.35,18.64-1.59,6.66-3.27,12.57-4.89,18.28-5.85,20.63-10.88,38.37-1.37,60.3a16.09,16.09,0,0,0,14.77,9.7,16.1,16.1,0,0,0,14.76-22.5c-4.75-11-2.71-19.26,2.78-38.63,1.64-5.77,3.49-12.3,5.25-19.67,1.27-5.3,3-10.73,4.76-16.47,5.75-18.39,12.25-39.19,5.11-60.76A16.12,16.12,0,0,0,296.05,247.2Z"/><path class="cls-1" d="M161.49,219.65a8.81,8.81,0,0,1-8.8-8.61c-.74-31.56-8.3-74.48-18.4-104.38A8.81,8.81,0,1,1,151,101c10.77,31.9,18.54,76,19.32,109.61a8.8,8.8,0,0,1-8.6,9Z"/><path class="cls-1" d="M161.49,220.65a9.87,9.87,0,0,1-9.81-9.58C151,179.6,143.4,136.8,133.33,107a9.82,9.82,0,0,1,18.61-6.28c10.8,32,18.59,76.15,19.37,109.91a9.82,9.82,0,0,1-9.58,10ZM142.63,96a7.81,7.81,0,0,0-7,4.34,7.78,7.78,0,0,0-.4,6c10.13,30,17.72,73,18.46,104.69a7.84,7.84,0,0,0,7.79,7.62h.2a7.8,7.8,0,0,0,7.61-8c-.78-33.56-8.53-77.49-19.28-109.31A7.8,7.8,0,0,0,142.63,96Z"/><path class="cls-1" d="M375.65,304.15a12.44,12.44,0,0,1-8.57-21.45c14-13.27,31.41-44.83,29.46-57.73-1.69-11.16-5.3-22.08-9.12-33.64-2.29-7-4.67-14.15-6.63-21.5-14.17-53-5-112.33,24.51-158.62a12.44,12.44,0,1,1,21,13.38C400.44,65.1,392.42,117,404.82,163.41c1.78,6.66,3.94,13.19,6.22,20.12,4,12,8.09,24.47,10.09,37.72,3.86,25.49-22,65.29-36.92,79.48A12.38,12.38,0,0,1,375.65,304.15Z"/><path class="cls-1" d="M375.65,305.16A13.45,13.45,0,0,1,366.38,282c13.81-13.12,31.07-44.21,29.16-56.85-1.68-11.08-5.27-22-9.07-33.47-2.31-7-4.69-14.19-6.66-21.56-14.23-53.3-5-112.9,24.64-159.42a13.44,13.44,0,1,1,22.67,14.46c-25.68,40.28-33.65,91.87-21.32,138,1.77,6.65,3.92,13.16,6.2,20.06,4,12.08,8.11,24.56,10.13,37.89,3.91,25.82-22.15,66-37.22,80.36A13.37,13.37,0,0,1,375.65,305.16ZM415.81,6.47a11.72,11.72,0,0,0-2.49.27,11.35,11.35,0,0,0-7.17,5c-29.36,46.05-38.48,105-24.39,157.81,2,7.31,4.32,14.48,6.61,21.41,3.84,11.64,7.46,22.59,9.16,33.84,2,13.16-15.63,45.19-29.76,58.61A11.43,11.43,0,0,0,383.52,300c14.8-14.07,40.42-53.46,36.62-78.6-2-13.16-6.09-25.55-10.05-37.54-2.29-6.94-4.45-13.48-6.24-20.19C391.38,117,399.44,64.79,425.42,24a11.42,11.42,0,0,0-9.61-17.57Z"/><path class="cls-1" d="M402.32,374.51a10.88,10.88,0,0,1-7.1-19.13c25.45-21.91,54.16-65.86,64-98A10.88,10.88,0,0,1,480,263.79c-11,36-42,83.5-70.6,108.08A10.87,10.87,0,0,1,402.32,374.51Z"/><path class="cls-1" d="M402.32,375.52a11.88,11.88,0,0,1-11.86-12.78,11.8,11.8,0,0,1,4.1-8.13c25.32-21.8,53.9-65.54,63.69-97.49a11.89,11.89,0,0,1,22.74,7C469.9,300.27,438.75,348,410.07,372.64A11.86,11.86,0,0,1,402.32,375.52Zm67.3-124.8a9.89,9.89,0,0,0-9.44,7c-9.89,32.26-38.73,76.42-64.31,98.43a9.89,9.89,0,0,0-1,13.93,9.88,9.88,0,0,0,13.93,1c28.43-24.48,59.31-71.75,70.3-107.62a9.87,9.87,0,0,0-6.55-12.33A9.66,9.66,0,0,0,469.62,250.72Z"/><path class="cls-1" d="M421.26,426.51a69,69,0,0,1-22.45-3.68,15,15,0,1,1,9.77-28.43c16.31,5.6,36.55-.49,47.07-14.17a15,15,0,1,1,23.83,18.31C465.83,416.31,443.51,426.51,421.26,426.51Z"/><path class="cls-1" d="M421.26,427.52a69.93,69.93,0,0,1-22.78-3.74,16,16,0,0,1,10.42-30.33c15.94,5.47,35.68-.48,46-13.83a16,16,0,0,1,25.43,19.54C466.84,416.65,444.23,427.52,421.26,427.52ZM403.71,394.6a14,14,0,0,0-4.57,27.27,67.77,67.77,0,0,0,22.12,3.63c22.35,0,44.36-10.57,57.42-27.57a14,14,0,1,0-22.23-17.08c-10.77,14-31.49,20.24-48.2,14.5A14.12,14.12,0,0,0,403.71,394.6Z"/><path class="cls-1" d="M233.74,373.61a8.27,8.27,0,0,1-4.85-1.57A652.86,652.86,0,0,1,149.18,304a8.29,8.29,0,0,1,11.75-11.7,635.32,635.32,0,0,0,77.68,66.31,8.29,8.29,0,0,1-4.87,15Z"/><path class="cls-1" d="M233.74,374.62a9.22,9.22,0,0,1-5.44-1.76,653.13,653.13,0,0,1-79.83-68.16,9.3,9.3,0,1,1,13.18-13.12,635,635,0,0,0,77.55,66.21,9.3,9.3,0,0,1-5.46,16.83Zm-78.68-83.76a7.28,7.28,0,0,0-5.16,12.42,650.62,650.62,0,0,0,79.58,67.94,7.19,7.19,0,0,0,4.26,1.39,7.32,7.32,0,0,0,5.91-3A7.28,7.28,0,0,0,238,359.42,637.25,637.25,0,0,1,160.22,293,7.24,7.24,0,0,0,155.06,290.86Z"/><path class="cls-1" d="M392.17,128.22a8.29,8.29,0,0,1-6.41-13.54A259.23,259.23,0,0,1,451.3,57.47,8.29,8.29,0,0,1,460,71.62a242.62,242.62,0,0,0-61.36,53.55A8.27,8.27,0,0,1,392.17,128.22Z"/><path class="cls-1" d="M392.17,129.23A9.31,9.31,0,0,1,385,114a260.27,260.27,0,0,1,65.79-57.43,9.33,9.33,0,0,1,12.79,3.08,9.3,9.3,0,0,1-3.08,12.79,241.68,241.68,0,0,0-61.1,53.33A9.27,9.27,0,0,1,392.17,129.23Zm63.45-72a7.23,7.23,0,0,0-3.8,1.07,258.28,258.28,0,0,0-65.28,57,7.28,7.28,0,1,0,11.28,9.21,243.66,243.66,0,0,1,61.61-53.77,7.28,7.28,0,0,0-3.81-13.49Z"/><path class="cls-1" d="M334.14,178.52a8.3,8.3,0,0,1-7.42-4.58c-1.27-2.53-4.82-4.7-10.28-6.27-1.37-.39-2.79-.75-4.3-1.13-5-1.27-10.73-2.7-15.94-6-11.79-7.42-16.48-21.38-19.58-30.62a8.29,8.29,0,1,1,15.72-5.28c3.23,9.63,6.42,17.91,12.69,21.86,3,1.88,7,2.88,11.17,3.94,1.56.4,3.18.8,4.82,1.27,10.17,2.92,17.08,7.89,20.53,14.78a8.3,8.3,0,0,1-7.41,12Z"/><path class="cls-1" d="M334.14,179.53a9.26,9.26,0,0,1-8.32-5.14c-1.12-2.24-4.55-4.28-9.65-5.75-1.33-.38-2.7-.72-4.16-1.09l-.11,0c-5.11-1.28-10.89-2.74-16.24-6.11-12.09-7.61-16.85-21.78-20-31.15a9.3,9.3,0,0,1,5.85-11.77,9.31,9.31,0,0,1,11.78,5.85c3.17,9.44,6.28,17.56,12.27,21.33,2.85,1.79,6.74,2.77,10.87,3.81,1.61.41,3.22.82,4.85,1.28,10.46,3,17.58,8.15,21.16,15.3a9.31,9.31,0,0,1-4.15,12.48A9.16,9.16,0,0,1,334.14,179.53ZM284.48,120a7.28,7.28,0,0,0-6.9,9.6c3.05,9.1,7.67,22.85,19.16,30.08,5.07,3.2,10.69,4.62,15.65,5.86l.11,0c1.48.37,2.87.72,4.22,1.12,5.73,1.64,9.5,4,10.9,6.78a7.29,7.29,0,1,0,13-6.53c-3.32-6.62-10-11.42-19.91-14.26-1.6-.46-3.2-.86-4.74-1.25-4.34-1.09-8.39-2.11-11.5-4.07-6.56-4.13-9.82-12.59-13.11-22.39A7.3,7.3,0,0,0,284.48,120Z"/><path class="cls-1" d="M162.64,267.21a8.29,8.29,0,0,1-5.47-14.52c17.47-15.35,44.16-18.7,64.89-8.15a8.29,8.29,0,1,1-7.52,14.78c-14.6-7.43-34.12-5-46.43,5.83A8.25,8.25,0,0,1,162.64,267.21Z"/><path class="cls-1" d="M162.64,268.22a9.3,9.3,0,0,1-6.14-16.29c17.78-15.61,44.93-19,66-8.29a9.3,9.3,0,0,1-8.44,16.58c-14.24-7.25-33.29-4.86-45.3,5.69A9.31,9.31,0,0,1,162.64,268.22ZM196,239.43a58,58,0,0,0-38.16,14,7.28,7.28,0,0,0,9.61,10.94c12.6-11.07,32.6-13.58,47.55-6a7.28,7.28,0,0,0,9.79-3.19,7.3,7.3,0,0,0-3.19-9.8A56.49,56.49,0,0,0,196,239.43Z"/></g><g id="Layer_7" data-name="Layer 7"><path class="cls-1" d="M347.78,487.08c3.22-10.64,7.6-20.41,11.83-29.86A244.09,244.09,0,0,0,369,434.3c14-42.51,2.22-89.88-13.42-142.92L282.09,42.1a19.18,19.18,0,0,1,36.79-10.84l73.47,249.28c14.24,48.31,32,108.43,13.06,165.77a278.14,278.14,0,0,1-10.8,26.59c-3.92,8.74-7.61,17-10.13,25.3"/><path class="cls-1" d="M385.29,495.25a6.05,6.05,0,0,1-3.47-7.83h0a6,6,0,0,1,7.82-3.47h0a6.05,6.05,0,0,1,3.47,7.83h0a6.06,6.06,0,0,1-5.65,3.87h0A6.12,6.12,0,0,1,385.29,495.25ZM346,492.88a6.06,6.06,0,0,1-4-7.55h0a6.06,6.06,0,0,1,7.55-4h0a6,6,0,0,1,4,7.55h0a6.05,6.05,0,0,1-5.79,4.3h0A6.3,6.3,0,0,1,346,492.88Zm46.52-15.36a6.06,6.06,0,0,1-3.05-8h0a6,6,0,0,1,8-3h0a6,6,0,0,1,3.06,8h0A6.06,6.06,0,0,1,395,478h0A6.19,6.19,0,0,1,392.54,477.52Zm-39.74-4.71a6,6,0,0,1-3.18-7.94h0a6,6,0,0,1,7.95-3.18h0a6,6,0,0,1,3.17,7.94h0a6,6,0,0,1-5.56,3.66h0A5.87,5.87,0,0,1,352.8,472.81Zm45.95-9.1a6.06,6.06,0,0,1-3.32-7.89h0a6,6,0,0,1,7.88-3.32h0a6.06,6.06,0,0,1,3.32,7.89h0a6,6,0,0,1-5.61,3.77h0A6.08,6.08,0,0,1,398.75,463.71Zm-39.9-4.77a6,6,0,0,1-3.07-8h0a6.05,6.05,0,0,1,8-3.07h0a6,6,0,0,1,3.07,8h0a6.06,6.06,0,0,1-5.54,3.59h0A5.91,5.91,0,0,1,358.85,458.94Zm47.45-15A6,6,0,0,1,402,436.5h0a6.06,6.06,0,0,1,7.42-4.28h0a6.05,6.05,0,0,1,4.27,7.42h0a6.06,6.06,0,0,1-5.84,4.49h0A6.13,6.13,0,0,1,406.3,443.91Zm-39.74-2.53a6,6,0,0,1-3.76-7.69h0a6.05,6.05,0,0,1,7.69-3.75h0a6.05,6.05,0,0,1,3.76,7.69h0a6.06,6.06,0,0,1-5.73,4.08h0A5.89,5.89,0,0,1,366.56,441.38Zm44.29-16.08a6,6,0,0,1-5.11-6.87h0a6,6,0,0,1,6.86-5.11h0a6.06,6.06,0,0,1,5.12,6.86h0a6.06,6.06,0,0,1-6,5.17h0A6.77,6.77,0,0,1,410.85,425.3Zm-38.21-4.2a6.07,6.07,0,0,1-5.05-6.91h0a6.07,6.07,0,0,1,6.92-5.05h0a6.06,6.06,0,0,1,5.05,6.91h0a6.07,6.07,0,0,1-6,5.13h0A6.09,6.09,0,0,1,372.64,421.1Zm40.27-10.8a6,6,0,0,1-5.68-6.4h0a6,6,0,0,1,6.4-5.68h0a6.05,6.05,0,0,1,5.68,6.4h0a6.05,6.05,0,0,1-6,5.69h-.37Zm-38.12-4.18a6.06,6.06,0,0,1-5.77-6.33h0a6,6,0,0,1,6.32-5.77h0a6.06,6.06,0,0,1,5.77,6.33h0a6,6,0,0,1-6,5.77h-.28Zm32.57-22.77a6.06,6.06,0,0,1,5.79-6.31h0a6,6,0,0,1,6.3,5.78h0a6.05,6.05,0,0,1-5.78,6.32h-.27A6.05,6.05,0,0,1,407.36,383.35Zm-38.59-2h0a6.07,6.07,0,0,1,5.64-6.45h0a6.07,6.07,0,0,1,6.45,5.64h0a6.06,6.06,0,0,1-5.64,6.45h-.4A6.06,6.06,0,0,1,368.77,381.32Zm37-16.59a6,6,0,0,1,5.27-6.74h0a6,6,0,0,1,6.74,5.27h0a6.05,6.05,0,0,1-5.28,6.74h0a6.11,6.11,0,0,1-.73.05h0A6.05,6.05,0,0,1,405.81,364.73Zm-39.41-3.9a6,6,0,0,1,5-6.93h0a6.07,6.07,0,0,1,6.93,5h0a6.07,6.07,0,0,1-5,6.93h0a6.22,6.22,0,0,1-1,.08h0A6.06,6.06,0,0,1,366.4,360.83Zm37.23-10.76a6,6,0,0,1,4.93-7h0a6,6,0,0,1,7,4.92h0a6.05,6.05,0,0,1-4.93,7h0a6.27,6.27,0,0,1-1,.09h0A6.05,6.05,0,0,1,403.63,350.07Zm-39.93-3.82h0a6,6,0,0,1,4.68-7.17h0a6.05,6.05,0,0,1,7.16,4.69h0a6.06,6.06,0,0,1-4.68,7.17h0a6.67,6.67,0,0,1-1.24.12h0A6.05,6.05,0,0,1,363.7,346.25Zm35.76-16.61a6,6,0,0,1,4.53-7.26h0a6,6,0,0,1,7.26,4.53h0a6,6,0,0,1-4.53,7.26h0a5.76,5.76,0,0,1-1.37.16h0A6.08,6.08,0,0,1,399.46,329.64Zm-40-1.81a6.06,6.06,0,0,1,4.39-7.36h0a6,6,0,0,1,7.35,4.38h0a6,6,0,0,1-4.38,7.35h0a5.93,5.93,0,0,1-1.5.19h0A6.06,6.06,0,0,1,359.41,327.83Zm35.43-16.57h0a6,6,0,0,1,4.27-7.41h0a6.06,6.06,0,0,1,7.42,4.26h0a6.06,6.06,0,0,1-4.26,7.43h0a6.19,6.19,0,0,1-1.58.21h0A6.07,6.07,0,0,1,394.84,311.26ZM354,307.54h0a6,6,0,0,1,4.16-7.47h0a6.05,6.05,0,0,1,7.48,4.17h0a6.05,6.05,0,0,1-4.18,7.47h0a5.47,5.47,0,0,1-1.64.24h0A6,6,0,0,1,354,307.54ZM390.8,296.8h0a6.05,6.05,0,0,1,4.13-7.5h0a6.06,6.06,0,0,1,7.5,4.15h0a6,6,0,0,1-4.15,7.48h0a6,6,0,0,1-1.67.24h0A6,6,0,0,1,390.8,296.8Zm-41.05-3.74a6,6,0,0,1,4.09-7.51h0a6.06,6.06,0,0,1,7.52,4.09h0a6.05,6.05,0,0,1-4.1,7.52h0a6.3,6.3,0,0,1-1.71.24h0A6.05,6.05,0,0,1,349.75,293.06Zm35.09-16.56a6.06,6.06,0,0,1,4.1-7.52h0a6,6,0,0,1,7.51,4.09h0a6,6,0,0,1-4.09,7.52h0a6,6,0,0,1-1.72.25h0A6.06,6.06,0,0,1,384.84,276.5Zm-40.51-1.83a6.05,6.05,0,0,1,4.1-7.51h0a6.06,6.06,0,0,1,7.51,4.09h0a6.06,6.06,0,0,1-4.09,7.52h0a6.07,6.07,0,0,1-1.72.25h0A6,6,0,0,1,344.33,274.67Zm35.1-16.56a6,6,0,0,1,4.09-7.52h0a6.06,6.06,0,0,1,7.52,4.1h0a6,6,0,0,1-4.1,7.51h0a5.59,5.59,0,0,1-1.71.26h0A6.05,6.05,0,0,1,379.43,258.11Zm-41.09-3.75a6.05,6.05,0,0,1,4.1-7.52h0a6,6,0,0,1,7.51,4.1h0a6,6,0,0,1-4.1,7.51h0a5.83,5.83,0,0,1-1.7.25h0A6.07,6.07,0,0,1,338.34,254.36Zm36.81-10.77a6.05,6.05,0,0,1,4.1-7.51h0a6.06,6.06,0,0,1,7.51,4.09h0a6,6,0,0,1-4.1,7.52h0a6,6,0,0,1-1.71.25h0A6,6,0,0,1,375.15,243.59Zm-41.09-3.75a6,6,0,0,1,4.1-7.51h0a6,6,0,0,1,7.51,4.09h0a6,6,0,0,1-4.09,7.52h0a6,6,0,0,1-1.72.25h0A6.07,6.07,0,0,1,334.06,239.84Zm35.1-16.56a6.06,6.06,0,0,1,4.09-7.52h0a6.05,6.05,0,0,1,7.52,4.1h0a6,6,0,0,1-4.1,7.51h0a5.88,5.88,0,0,1-1.7.25h0A6,6,0,0,1,369.16,223.28Zm-40.51-1.82a6,6,0,0,1,4.09-7.51h0a6.05,6.05,0,0,1,7.52,4.08h0a6.08,6.08,0,0,1-4.1,7.53h0a6.36,6.36,0,0,1-1.71.24h0A6,6,0,0,1,328.65,221.46Zm35.09-16.56a6,6,0,0,1,4.1-7.52h0a6,6,0,0,1,7.51,4.09h0a6.06,6.06,0,0,1-4.09,7.52h0a6.32,6.32,0,0,1-1.72.24h0A6.05,6.05,0,0,1,363.74,204.9Zm-41.09-3.77a6.06,6.06,0,0,1,4.1-7.51h0a6,6,0,0,1,7.51,4.09h0a6,6,0,0,1-4.09,7.52h0a6,6,0,0,1-1.72.25h0A6,6,0,0,1,322.65,201.13Zm36.81-10.75a6,6,0,0,1,4.1-7.51h0a6,6,0,0,1,7.51,4.08h0a6.06,6.06,0,0,1-4.09,7.53h0a5.93,5.93,0,0,1-1.71.24h0A6.07,6.07,0,0,1,359.46,190.38Zm-41.08-3.75a6.06,6.06,0,0,1,4.09-7.53h0a6.06,6.06,0,0,1,7.52,4.1h0a6,6,0,0,1-4.1,7.51h0a5.68,5.68,0,0,1-1.71.26h0A6,6,0,0,1,318.38,186.63Zm35.09-16.57a6.06,6.06,0,0,1,4.1-7.52h0a6.05,6.05,0,0,1,7.51,4.1h0a6,6,0,0,1-4.09,7.51h0a6,6,0,0,1-1.72.25h0A6.05,6.05,0,0,1,353.47,170.06ZM313,168.24a6.06,6.06,0,0,1,4.09-7.52h0a6.05,6.05,0,0,1,7.52,4.1h0a6,6,0,0,1-4.1,7.51h0a5.68,5.68,0,0,1-1.71.26h0A6.07,6.07,0,0,1,313,168.24Zm35.09-16.56a6.07,6.07,0,0,1,4.1-7.52h0a6.05,6.05,0,0,1,7.52,4.09h0a6.06,6.06,0,0,1-4.1,7.52h0a6,6,0,0,1-1.71.25h0A6.07,6.07,0,0,1,348.05,151.68ZM307,147.92a6,6,0,0,1,4.09-7.51h0a6,6,0,0,1,7.52,4.08h0a6.06,6.06,0,0,1-4.1,7.53h0a6.3,6.3,0,0,1-1.71.24h0A6.05,6.05,0,0,1,307,147.92Zm36.81-10.76a6,6,0,0,1,4.09-7.52h0a6.06,6.06,0,0,1,7.52,4.1h0a6,6,0,0,1-4.1,7.51h0a5.59,5.59,0,0,1-1.71.26h0A6.06,6.06,0,0,1,343.78,137.16Zm-41.09-3.75a6.05,6.05,0,0,1,4.1-7.52h0a6,6,0,0,1,7.51,4.1h0a6,6,0,0,1-4.09,7.51h0a5.93,5.93,0,0,1-1.71.24h0A6.06,6.06,0,0,1,302.69,133.41Zm35.09-16.57a6.05,6.05,0,0,1,4.1-7.51h0a6,6,0,0,1,7.52,4.08h0a6.07,6.07,0,0,1-4.09,7.53h0a6,6,0,0,1-1.71.25h0A6.09,6.09,0,0,1,337.78,116.84ZM297.27,115a6.06,6.06,0,0,1,4.1-7.53h0a6,6,0,0,1,7.51,4.1h0a6,6,0,0,1-4.09,7.51h0a6.07,6.07,0,0,1-1.72.25h0A6.05,6.05,0,0,1,297.27,115Zm35.1-16.57a6.06,6.06,0,0,1,4.09-7.52h0A6.05,6.05,0,0,1,344,95h0a6,6,0,0,1-4.1,7.52h0a5.88,5.88,0,0,1-1.7.25h0A6.06,6.06,0,0,1,332.37,98.46ZM291.28,94.7a6.06,6.06,0,0,1,4.1-7.52h0a6.05,6.05,0,0,1,7.51,4.1h0a6.06,6.06,0,0,1-4.09,7.52h0a6,6,0,0,1-1.71.25h0A6.07,6.07,0,0,1,291.28,94.7ZM328.09,84a6.06,6.06,0,0,1,4.1-7.53h0a6.05,6.05,0,0,1,7.51,4.1h0A6,6,0,0,1,335.61,88h0a6,6,0,0,1-1.72.25h0A6.05,6.05,0,0,1,328.09,84ZM287,80.18a6.06,6.06,0,0,1,4.1-7.51h0a6,6,0,0,1,7.51,4.09h0a6,6,0,0,1-4.09,7.52h0a6,6,0,0,1-1.71.25h0A6.05,6.05,0,0,1,287,80.18Zm35.1-16.56a6.07,6.07,0,0,1,4.09-7.52h0a6.06,6.06,0,0,1,7.52,4.1h0a6.06,6.06,0,0,1-4.09,7.52h0a6,6,0,0,1-1.71.25h0A6.08,6.08,0,0,1,322.1,63.62ZM281.59,61.8a6,6,0,0,1,4.09-7.51h0a6.06,6.06,0,0,1,7.52,4.09h0a6.07,6.07,0,0,1-4.1,7.52h0a6.36,6.36,0,0,1-1.71.24h0A6,6,0,0,1,281.59,61.8Zm35.09-16.56a6,6,0,0,1,4.1-7.51h0a6,6,0,0,1,7.51,4.09h0a6.06,6.06,0,0,1-4.09,7.52h0a6.32,6.32,0,0,1-1.72.24h0A6.06,6.06,0,0,1,316.68,45.24Zm-41.11-4.53a6.06,6.06,0,0,1,5-7h0a6.06,6.06,0,0,1,6.94,5h0a6.05,6.05,0,0,1-5,7h0a6.65,6.65,0,0,1-1,.07h0A6.06,6.06,0,0,1,275.57,40.71Zm37-9.25a6,6,0,0,1,3.15-8h0a6,6,0,0,1,7.95,3.16h0a6,6,0,0,1-3.16,8h0a6.09,6.09,0,0,1-2.39.49h0A6,6,0,0,1,312.53,31.46ZM281.42,30.3a6,6,0,0,1-1.34-8.45h0a6,6,0,0,1,8.46-1.34h0A6,6,0,0,1,289.87,29h0a6,6,0,0,1-4.9,2.49h0A6,6,0,0,1,281.42,30.3Zm19.82-6.73h0a6,6,0,0,1-5.69-6.38h0a6,6,0,0,1,6.38-5.7h0a6.05,6.05,0,0,1,5.7,6.39h0a6,6,0,0,1-6,5.7h-.35Z"/><path class="cls-1" d="M292.76,325.4a13.45,13.45,0,0,1-8.07-2.69L162.52,231.12c-26.52-19.88-53.94-40.44-75-68.1A13.47,13.47,0,1,1,109,146.71c18.77,24.66,44.66,44.07,69.7,62.85l122.17,91.59a13.47,13.47,0,0,1-8.09,24.25Z"/><path class="cls-1" d="M286.71,325.4a6,6,0,0,1,6.05-6h0a6.53,6.53,0,0,1,.78,0h0a4.85,4.85,0,0,1,.77-.21h0a6,6,0,0,1,7.16,4.67h0A6,6,0,0,1,296.8,331h0a6.11,6.11,0,0,1-2,.08h0a5.76,5.76,0,0,1-2,.35h0A6.05,6.05,0,0,1,286.71,325.4Zm-10.83-1.73a6,6,0,0,1-1.21-8.47h0a6,6,0,0,1,8.47-1.22h0a6.06,6.06,0,0,1,1.21,8.48h0a6.07,6.07,0,0,1-4.85,2.42h0A6,6,0,0,1,275.88,323.67Zm23.83-14.36a6,6,0,0,1,3.56-7.78h0a6,6,0,0,1,7.78,3.55h0a6.05,6.05,0,0,1-3.55,7.79h0a6.24,6.24,0,0,1-2.12.38h0A6.05,6.05,0,0,1,299.71,309.31Zm-42.39.44a6.05,6.05,0,0,1-1.21-8.48h0a6.05,6.05,0,0,1,8.47-1.21h0a6.06,6.06,0,0,1,1.21,8.48h0a6.07,6.07,0,0,1-4.85,2.42h0A6,6,0,0,1,257.32,309.75Zm33.92-8.24A6.06,6.06,0,0,1,290,293h0a6,6,0,0,1,8.47-1.21h0a6.05,6.05,0,0,1,1.21,8.48h0a6,6,0,0,1-4.84,2.42h0A6.09,6.09,0,0,1,291.24,301.51Zm-46.84-1.45a6,6,0,0,1-1.21-8.47h0a6.06,6.06,0,0,1,8.48-1.21h0a6,6,0,0,1,1.2,8.47h0a6,6,0,0,1-4.84,2.42h0A6,6,0,0,1,244.4,300.06Zm33.93-8.24a6,6,0,0,1-1.21-8.47h0a6,6,0,0,1,8.47-1.21h0a6,6,0,0,1,1.21,8.47h0A6,6,0,0,1,282,293h0A6,6,0,0,1,278.33,291.82Zm-46-.83a6,6,0,0,1-1.21-8.47h0a6,6,0,0,1,8.47-1.21h0a6,6,0,0,1,1.21,8.46h0a6,6,0,0,1-4.84,2.44h0A6,6,0,0,1,232.29,291Zm27.48-13.08a6,6,0,0,1-1.21-8.47h0a6,6,0,0,1,8.47-1.22h0a6.06,6.06,0,0,1,1.21,8.48h0a6.06,6.06,0,0,1-4.84,2.42h0A6,6,0,0,1,259.77,277.91Zm-46-.84a6,6,0,0,1-1.21-8.47h0a6,6,0,0,1,8.47-1.21h0a6,6,0,0,1,1.21,8.47h0a6,6,0,0,1-4.84,2.42h0A6,6,0,0,1,213.73,277.07Zm33.93-8.24a6,6,0,0,1-1.21-8.47h0a6.06,6.06,0,0,1,8.48-1.21h0a6.06,6.06,0,0,1,1.21,8.47h0a6.06,6.06,0,0,1-4.86,2.42h0A6,6,0,0,1,247.66,268.83Zm-46.84-1.44a6.05,6.05,0,0,1-1.22-8.47h0a6.05,6.05,0,0,1,8.48-1.21h0a6,6,0,0,1,1.21,8.47h0a6.06,6.06,0,0,1-4.84,2.42h0A6,6,0,0,1,200.82,267.39Zm33.93-8.24a6.06,6.06,0,0,1-1.22-8.48h0a6.06,6.06,0,0,1,8.47-1.21h0a6.05,6.05,0,0,1,1.21,8.48h0a6,6,0,0,1-4.84,2.42h0A6,6,0,0,1,234.75,259.15Zm-46-.84a6,6,0,0,1-1.21-8.46h0a6,6,0,0,1,8.47-1.22h0a6,6,0,0,1,1.21,8.47h0a6,6,0,0,1-4.85,2.42h0A6,6,0,0,1,188.71,258.31Zm27.47-13.08a6,6,0,0,1-1.21-8.47h0a6.06,6.06,0,0,1,8.47-1.22h0a6.07,6.07,0,0,1,1.21,8.49h0a6,6,0,0,1-4.84,2.41h0A6.09,6.09,0,0,1,216.18,245.23Zm-46-.83a6,6,0,0,1-1.21-8.47h0a6,6,0,0,1,8.46-1.21h0a6,6,0,0,1,1.22,8.47h0a6.07,6.07,0,0,1-4.85,2.42h0A6,6,0,0,1,170.15,244.4Zm33.92-8.24a6.06,6.06,0,0,1-1.21-8.48h0a6.07,6.07,0,0,1,8.48-1.21h0a6.07,6.07,0,0,1,1.21,8.48h0a6.07,6.07,0,0,1-4.85,2.42h0A6,6,0,0,1,204.07,236.16Zm-46.83-1.44a6.05,6.05,0,0,1-1.22-8.48h0A6.06,6.06,0,0,1,164.5,225h0a6.07,6.07,0,0,1,1.21,8.48h0a6.07,6.07,0,0,1-4.85,2.42h0A6.06,6.06,0,0,1,157.24,234.72Zm33.92-8.25A6,6,0,0,1,190,218h0a6,6,0,0,1,8.47-1.21h0a6,6,0,0,1,1.21,8.47h0a6,6,0,0,1-4.85,2.42h0A6,6,0,0,1,191.16,226.47Zm-46-.89h0a6.06,6.06,0,0,1-1.15-8.49h0a6.05,6.05,0,0,1,8.48-1.14h0a6,6,0,0,1,1.14,8.49h0a6.05,6.05,0,0,1-4.81,2.38h0A6.08,6.08,0,0,1,145.11,225.58Zm27.49-13a6,6,0,0,1-1.21-8.47h0a6,6,0,0,1,8.47-1.21h0a6,6,0,0,1,1.2,8.47h0a6,6,0,0,1-4.84,2.42h0A6,6,0,0,1,172.6,212.55Zm-45.88-1.48a6.08,6.08,0,0,1-.83-8.52h0a6.06,6.06,0,0,1,8.53-.83h0a6.07,6.07,0,0,1,.83,8.52h0a6,6,0,0,1-4.69,2.2h0A6,6,0,0,1,126.72,211.07Zm33.75-7.68a6.06,6.06,0,0,1-1.13-8.48h0a6.07,6.07,0,0,1,8.49-1.13h0a6,6,0,0,1,1.13,8.48h0a6,6,0,0,1-4.81,2.38h0A6.06,6.06,0,0,1,160.47,203.39Zm-46.19-3a6.07,6.07,0,0,1-.46-8.56h0a6.05,6.05,0,0,1,8.54-.46h0a6.06,6.06,0,0,1,.47,8.55h0a6,6,0,0,1-4.51,2h0A6,6,0,0,1,114.28,200.4Zm33.37-7.05a6.06,6.06,0,0,1-.91-8.52h0a6.05,6.05,0,0,1,8.51-.91h0a6.05,6.05,0,0,1,.91,8.51h0a6,6,0,0,1-4.71,2.26h0A6,6,0,0,1,147.65,193.35Zm-44.59-3.56a6,6,0,0,1,0-8.56h0a6.05,6.05,0,0,1,8.56,0h0a6.06,6.06,0,0,1,0,8.57h0a6,6,0,0,1-4.29,1.77h0A6,6,0,0,1,103.06,189.79ZM129.73,178a6,6,0,0,1-.36-8.54h0a6.06,6.06,0,0,1,8.56-.36h0a6.06,6.06,0,0,1,.35,8.55h0a6,6,0,0,1-4.46,2h0A6,6,0,0,1,129.73,178ZM87,172.17h0a6,6,0,0,1,.86-8.51h0a6,6,0,0,1,8.52.86h0a6.06,6.06,0,0,1-.86,8.51h0a6,6,0,0,1-3.82,1.37h0A6.08,6.08,0,0,1,87,172.17Zm31.59-5a6.06,6.06,0,0,1,.17-8.56h0a6.06,6.06,0,0,1,8.56.17h0a6,6,0,0,1-.16,8.55h0A6.06,6.06,0,0,1,123,169h0A6.08,6.08,0,0,1,118.63,167.18Zm-34.11-6.86A6.07,6.07,0,0,1,78.74,154h0a6.06,6.06,0,0,1,6.33-5.76h0a6,6,0,0,1,5.77,6.31h0a6,6,0,0,1-6,5.78h-.28Zm23.08-5.59a6,6,0,0,1,.87-8.51h0a6.05,6.05,0,0,1,8.52.88h0a6.06,6.06,0,0,1-.88,8.51h0A6,6,0,0,1,112.3,157h0A6,6,0,0,1,107.6,154.73Zm-20.2-9.87a6,6,0,0,1,3.18-8h0a6.06,6.06,0,0,1,8,3.17h0A6.06,6.06,0,0,1,95.35,148h0a5.8,5.8,0,0,1-2.38.49h0A6.05,6.05,0,0,1,87.4,144.86Z"/><path class="cls-1" d="M338,515.19c-21.22-38.64-55.74-86.23-79.32-109.53-30.2-29.85-70.74-44.32-105.8-37.77a17.62,17.62,0,0,1-6.47-34.64c23.94-4.47,49.74-2,74.61,7.25a177.29,177.29,0,0,1,62.43,40.09c17,16.79,41.27,47.52,62.53,79.8"/><path class="cls-1" d="M332.7,518.1a6,6,0,0,1,2.39-8.21h0a6,6,0,0,1,8.22,2.39h0a6,6,0,0,1-2.4,8.21h0a6,6,0,0,1-2.9.76h0A6,6,0,0,1,332.7,518.1Zm-7.42-13a6.06,6.06,0,0,1,2.11-8.3h0a6.07,6.07,0,0,1,8.3,2.11h0a6.07,6.07,0,0,1-2.11,8.3h0a6,6,0,0,1-3.09.85h0A6.05,6.05,0,0,1,325.28,505.14Zm-12.13-19.49h0a6.05,6.05,0,0,1,1.78-8.38h0a6,6,0,0,1,8.37,1.78h0a6,6,0,0,1-1.78,8.37h0a6,6,0,0,1-3.28,1h0A6.06,6.06,0,0,1,313.15,485.65Zm-8.89-13.31a6.07,6.07,0,0,1,1.58-8.42h0a6.05,6.05,0,0,1,8.41,1.57h0a6,6,0,0,1-1.57,8.41h0a6,6,0,0,1-3.41,1.06h0A6.07,6.07,0,0,1,304.26,472.34Zm-8.61-12.29h0a6.05,6.05,0,0,1,1.38-8.45h0a6,6,0,0,1,8.44,1.38h0a6,6,0,0,1-1.38,8.45h0a6,6,0,0,1-3.52,1.14h0A6,6,0,0,1,295.65,460.05Zm37-8.6a6,6,0,0,1,1.54-8.41h0a6.06,6.06,0,0,1,8.43,1.54h0a6.05,6.05,0,0,1-1.55,8.41h0a6,6,0,0,1-3.44,1.07h0A6.06,6.06,0,0,1,332.65,451.45Zm-50.76-9.8a6,6,0,0,1,1.05-8.49h0a6,6,0,0,1,8.49,1.06h0a6,6,0,0,1-1.05,8.49h0a6,6,0,0,1-3.71,1.27h0A6,6,0,0,1,281.89,441.65Zm41.52-3.26a6,6,0,0,1,1.35-8.45h0a6,6,0,0,1,8.44,1.34h0a6,6,0,0,1-1.34,8.46h0a6.08,6.08,0,0,1-3.55,1.15h0A6,6,0,0,1,323.41,438.39Zm-51.53-9.15a6.06,6.06,0,0,1,.78-8.53h0a6,6,0,0,1,8.52.77h0a6,6,0,0,1-.77,8.52h0a6,6,0,0,1-3.88,1.41h0A6.06,6.06,0,0,1,271.88,429.24ZM309.6,420a6.05,6.05,0,0,1,1-8.5h0a6,6,0,0,1,8.49,1.05h0a6.06,6.06,0,0,1-1.05,8.5h0a6.06,6.06,0,0,1-3.72,1.28h0A6,6,0,0,1,309.6,420Zm-47.47-2a6,6,0,0,1,.39-8.55h0a6,6,0,0,1,8.55.4h0a6,6,0,0,1-.4,8.54h0A6,6,0,0,1,266.6,420h0A6,6,0,0,1,262.13,418Zm38.11-9.69a6,6,0,0,1,.82-8.52h0a6,6,0,0,1,8.51.82h0a6,6,0,0,1-.82,8.52h0a6,6,0,0,1-3.84,1.38h0A6,6,0,0,1,300.24,408.32Zm-54.14-6a6.06,6.06,0,0,1-.74-8.53h0a6.08,6.08,0,0,1,8.54-.73h0a6.06,6.06,0,0,1,.72,8.54h0a6,6,0,0,1-4.63,2.15h0A6,6,0,0,1,246.1,402.36Zm43.79-6.12a6.06,6.06,0,0,1,.49-8.55h0a6.07,6.07,0,0,1,8.55.49h0a6,6,0,0,1-.5,8.54h0a6,6,0,0,1-4,1.54h0A6,6,0,0,1,289.89,396.24Zm-56.16-3.17h0a6,6,0,0,1-1.68-8.39h0a6.05,6.05,0,0,1,8.4-1.68h0a6.07,6.07,0,0,1,1.67,8.4h0a6.06,6.06,0,0,1-5,2.69h0A6,6,0,0,1,233.73,393.07Zm-12.45-7.37h0a6,6,0,0,1-2.57-8.16h0a6.06,6.06,0,0,1,8.16-2.59h0a6,6,0,0,1,2.57,8.17h0a6.06,6.06,0,0,1-5.37,3.25h0A6.08,6.08,0,0,1,221.28,385.7Zm52.84-5.62a6,6,0,0,1-.39-8.54h0a6,6,0,0,1,8.55-.4h0a6.05,6.05,0,0,1,.4,8.55h0a6.06,6.06,0,0,1-4.48,2h0A6,6,0,0,1,274.12,380.08Zm-73.25-2.83a6,6,0,0,1-4-7.57h0a6.06,6.06,0,0,1,7.58-4h0a6.06,6.06,0,0,1,4,7.58h0a6.07,6.07,0,0,1-5.78,4.26h0A5.86,5.86,0,0,1,200.87,377.25Zm-52.32-3a6.05,6.05,0,0,1-5.77-6.33h0a6.06,6.06,0,0,1,6.33-5.77h0a6.06,6.06,0,0,1,5.76,6.33h0a6,6,0,0,1-6,5.77h-.28Zm37.44-.5h0a6.06,6.06,0,0,1-5-7h0a6,6,0,0,1,6.95-5h0a6.06,6.06,0,0,1,5,7h0a6.08,6.08,0,0,1-6,5.08h0A6.61,6.61,0,0,1,186,373.72Zm-14.2-1.32a6,6,0,0,1-5.93-6.16h0A6.05,6.05,0,0,1,172,360.3h0a6.07,6.07,0,0,1,5.93,6.17h0a6.06,6.06,0,0,1-6.06,5.93h-.12Zm91.12-1.71h0a6.07,6.07,0,0,1-1.09-8.5h0a6.06,6.06,0,0,1,8.48-1.1h0a6.05,6.05,0,0,1,1.11,8.49h0a6,6,0,0,1-4.8,2.37h0A6,6,0,0,1,262.91,370.69ZM130.22,364.1a6,6,0,0,1,1.51-8.42h0a6,6,0,0,1,8.42,1.5h0a6,6,0,0,1-1.51,8.42h0a5.93,5.93,0,0,1-3.45,1.09h0A6,6,0,0,1,130.22,364.1Zm119.93-2.36a6.06,6.06,0,0,1-1.86-8.36h0a6.06,6.06,0,0,1,8.36-1.86h0a6.06,6.06,0,0,1,1.86,8.35h0a6,6,0,0,1-5.12,2.81h0A6,6,0,0,1,250.15,361.74Zm-119.08-9.67a6.06,6.06,0,0,1-4.37-7.37h0a6.07,6.07,0,0,1,7.36-4.36h0a6.05,6.05,0,0,1,4.37,7.37h0a6,6,0,0,1-5.86,4.55h0A6,6,0,0,1,131.07,352.07ZM230.51,351a6,6,0,0,1-2.94-8h0a6,6,0,0,1,8-3h0a6,6,0,0,1,3,8h0a6,6,0,0,1-5.49,3.52h0A6.12,6.12,0,0,1,230.51,351ZM217,345.49a6.06,6.06,0,0,1-3.68-7.74h0a6,6,0,0,1,7.73-3.67h0a6,6,0,0,1,3.68,7.73h0a6,6,0,0,1-5.71,4h0A6.21,6.21,0,0,1,217,345.49Zm-14.85-4.44h0a6,6,0,0,1-4.46-7.3h0a6,6,0,0,1,7.3-4.46h0a6,6,0,0,1,4.46,7.3h0a6,6,0,0,1-5.87,4.63h0A5.82,5.82,0,0,1,202.18,341.05Zm-58.61-7.38a6,6,0,0,1,5-6.94h0a6,6,0,0,1,6.93,5h0a6,6,0,0,1-5,6.94h0a6.32,6.32,0,0,1-1,.08h0A6,6,0,0,1,143.57,333.67Zm36.68,3.87a6.06,6.06,0,0,1-5.57-6.51h0a6.05,6.05,0,0,1,6.5-5.56h0a6.06,6.06,0,0,1,5.57,6.51h0a6.06,6.06,0,0,1-6,5.58h0Zm-20.7-6.17a6.06,6.06,0,0,1,5.85-6.26h0a6,6,0,0,1,6.24,5.85h0a6,6,0,0,1-5.84,6.25h-.2A6.06,6.06,0,0,1,159.55,331.37Z"/><path class="cls-1" d="M278.68,417.28A17.12,17.12,0,0,1,263,407c-9.65-22.26-4.57-40.16,1.31-60.89,1.62-5.73,3.3-11.66,4.9-18.33,1.53-6.42,3.48-12.66,5.37-18.7,4.86-15.53,9.05-28.95,5.26-40.39a17.1,17.1,0,0,1,32.48-10.74c7.24,21.89.68,42.84-5.1,61.34-1.79,5.74-3.49,11.16-4.75,16.44-1.76,7.37-3.62,13.93-5.26,19.71-5.42,19.13-7.44,27.32-2.83,38a17.12,17.12,0,0,1-15.68,23.91Z"/><path class="cls-1" d="M272.63,417.27a6,6,0,0,1,6.05-6h0a6.08,6.08,0,0,1,2.6.58h0a6,6,0,0,1,2.11-1.65h0a6,6,0,0,1,8.06,2.89h0a6,6,0,0,1-2.87,8.05h0a6.05,6.05,0,0,1-5.21,0h0a6,6,0,0,1-4.69,2.25h0A6,6,0,0,1,272.63,417.27Zm-11.87-2.42h0a6,6,0,0,1,.84-8.51h0a6.07,6.07,0,0,1,8.53.83h0a6.07,6.07,0,0,1-.85,8.53h0a6,6,0,0,1-3.83,1.37h0A6,6,0,0,1,260.76,414.85Zm33.6-5.58a6,6,0,0,1-4.82-7.07h0a6,6,0,0,1,7.06-4.83h0a6.06,6.06,0,0,1,4.83,7.07h0a6.05,6.05,0,0,1-5.94,4.93h0A6.17,6.17,0,0,1,294.36,409.27ZM252,390h0a6,6,0,0,1,5.26-6.75h0a6,6,0,0,1,6.75,5.25h0a6,6,0,0,1-5.26,6.75h0a4.85,4.85,0,0,1-.76.05h0A6,6,0,0,1,252,390Zm39.62-3.26a6.06,6.06,0,0,1-5.91-6.19h0a6.06,6.06,0,0,1,6.2-5.92h0a6.07,6.07,0,0,1,5.91,6.2h0a6.06,6.06,0,0,1-6.05,5.91h-.15Zm-34.28-7.58a6.05,6.05,0,0,1-5.31-6.71h0a6.05,6.05,0,0,1,6.72-5.31h0a6.05,6.05,0,0,1,5.3,6.72h0a6,6,0,0,1-6,5.34h0A5.63,5.63,0,0,1,257.38,379.17Zm35.45-7.49a6,6,0,0,1-4.35-7.37h0a6,6,0,0,1,7.36-4.36h0a6.05,6.05,0,0,1,4.36,7.37h0a6.07,6.07,0,0,1-5.86,4.55h0A6,6,0,0,1,292.83,371.68Zm-33.37-7.49a6.06,6.06,0,0,1-4.39-7.34h0a6,6,0,0,1,7.35-4.4h0a6,6,0,0,1,4.39,7.34h0a6.05,6.05,0,0,1-5.86,4.58h0A6.32,6.32,0,0,1,259.46,364.19Zm37.56-8.1a6.05,6.05,0,0,1-4.21-7.45h0a6.06,6.06,0,0,1,7.46-4.21h0a6.07,6.07,0,0,1,4.21,7.46h0a6,6,0,0,1-5.83,4.42h0A6.15,6.15,0,0,1,297,356.09ZM265.54,341.8a6.06,6.06,0,0,1-4.28-7.42h0a6,6,0,0,1,7.4-4.27h0a6.06,6.06,0,0,1,4.29,7.41h0A6.08,6.08,0,0,1,267.1,342h0A6,6,0,0,1,265.54,341.8Zm37.32-8.15a6.06,6.06,0,0,1-4.09-7.52h0a6,6,0,0,1,7.51-4.1h0a6,6,0,0,1,4.1,7.51h0a6.05,6.05,0,0,1-5.8,4.35h0A6.43,6.43,0,0,1,302.86,333.65Zm-33.38-7.5a6.06,6.06,0,0,1-4.16-7.48h0a6.06,6.06,0,0,1,7.48-4.17h0A6.08,6.08,0,0,1,277,322h0a6.06,6.06,0,0,1-5.82,4.4h0A6.4,6.4,0,0,1,269.48,326.15Zm37.78-7a6.07,6.07,0,0,1-4-7.56h0a6.06,6.06,0,0,1,7.56-4h0a6.06,6.06,0,0,1,4,7.56h0a6.06,6.06,0,0,1-5.79,4.28h0A6,6,0,0,1,307.26,319.16Zm-33.5-7.53a6.06,6.06,0,0,1-4-7.57h0a6.06,6.06,0,0,1,7.58-4h0a6.05,6.05,0,0,1,4,7.58h0a6.05,6.05,0,0,1-5.78,4.26h0A5.91,5.91,0,0,1,273.76,311.63Zm38.16-7.93a6,6,0,0,1-4.63-7.2h0a6,6,0,0,1,7.19-4.63h0a6,6,0,0,1,4.63,7.19h0a6,6,0,0,1-5.91,4.78h0A6.27,6.27,0,0,1,311.92,303.7Zm-31.57-14.35a6.06,6.06,0,0,1-5.36-6.68h0a6,6,0,0,1,6.67-5.35h0A6,6,0,0,1,287,284h0a6,6,0,0,1-6,5.4h0C280.79,289.39,280.57,289.37,280.35,289.35Zm29-14.29h0a6,6,0,0,1,5.74-6.35h0a6,6,0,0,1,6.34,5.74h0a6,6,0,0,1-5.74,6.35h-.3A6,6,0,0,1,309.36,275.06Zm-35.77-6.19a6.05,6.05,0,0,1,4.41-7.33h0a6,6,0,0,1,7.33,4.41h0a6,6,0,0,1-4.41,7.33h0a6.08,6.08,0,0,1-1.46.18h0A6,6,0,0,1,273.59,268.87Zm33.51-7.29a6.07,6.07,0,0,1,4.09-7.53h0a6.07,6.07,0,0,1,7.52,4.1h0a6,6,0,0,1-4.1,7.52h0a6,6,0,0,1-1.71.25h0A6.06,6.06,0,0,1,307.1,261.58Zm-28.37-3.67a6.06,6.06,0,0,1-1.23-8.47h0A6,6,0,0,1,286,248.2h0a6.06,6.06,0,0,1,1.25,8.48h0a6.06,6.06,0,0,1-4.87,2.43h0A6,6,0,0,1,278.73,257.91Zm21.9-4.67a6.06,6.06,0,0,1-3-8h0a6,6,0,0,1,8-3h0a6,6,0,0,1,3,8h0a6,6,0,0,1-5.51,3.55h0A6.19,6.19,0,0,1,300.63,253.24Z"/><path class="cls-1" d="M161.49,219.65a8.81,8.81,0,0,1-8.8-8.61c-.74-31.56-8.3-74.48-18.4-104.38A8.81,8.81,0,1,1,151,101c10.77,31.9,18.54,76,19.32,109.61a8.8,8.8,0,0,1-8.6,9Z"/><path class="cls-1" d="M155.44,219.65a6.06,6.06,0,0,1,6.05-6.06h.3a6,6,0,0,1,6.63,5.4h0a6,6,0,0,1-5.4,6.64h0a5.09,5.09,0,0,1-.78,0h0a6,6,0,0,1-.75,0h0A6.06,6.06,0,0,1,155.44,219.65Zm-8.85-9.93h0a6.05,6.05,0,0,1,5.87-6.23h0a6,6,0,0,1,6.24,5.87h0a6,6,0,0,1-5.87,6.22h-.18A6.08,6.08,0,0,1,146.59,209.72Zm17.58-1.88h0a6,6,0,0,1,5.84-6.25h0a6,6,0,0,1,6.25,5.84h0a6,6,0,0,1-5.83,6.25h-.22A6,6,0,0,1,164.17,207.84ZM145,187a6.06,6.06,0,0,1,5.38-6.67h0a6.05,6.05,0,0,1,6.65,5.38h0a6,6,0,0,1-5.37,6.66h0a4.82,4.82,0,0,1-.65,0h0A6.06,6.06,0,0,1,145,187Zm17.53-1.93a6,6,0,0,1,5.39-6.64h0a6.06,6.06,0,0,1,6.66,5.37h0a6.07,6.07,0,0,1-5.39,6.66h0l-.64,0h0A6.06,6.06,0,0,1,162.52,185.11ZM143,171.27a6.07,6.07,0,0,1,5.11-6.88h0A6.07,6.07,0,0,1,155,169.5h0a6.06,6.06,0,0,1-5.11,6.87h0a5.34,5.34,0,0,1-.89.07h0A6.07,6.07,0,0,1,143,171.27Zm17.7-1a6.05,6.05,0,0,1,5.13-6.85h0a6.06,6.06,0,0,1,6.85,5.14h0a6,6,0,0,1-5.13,6.84h0a5.07,5.07,0,0,1-.86.07h0A6.06,6.06,0,0,1,160.68,170.32Zm-20.13-13.78a6,6,0,0,1,4.86-7h0a6,6,0,0,1,7,4.86h0a6.06,6.06,0,0,1-4.86,7h0a6.8,6.8,0,0,1-1.1.09h0A6,6,0,0,1,140.55,156.54Zm17.58-1.95h0a6.06,6.06,0,0,1,4.89-7h0a6,6,0,0,1,7,4.89h0a6.06,6.06,0,0,1-4.9,7h0a5.54,5.54,0,0,1-1.07.1h0A6.07,6.07,0,0,1,158.13,154.59Zm-22.31-20.43a6,6,0,0,1,4.47-7.3h0a6,6,0,0,1,7.3,4.47h0a6.05,6.05,0,0,1-4.47,7.3h0a6.18,6.18,0,0,1-1.42.16h0A6.05,6.05,0,0,1,135.82,134.16Zm17.67-2a6.07,6.07,0,0,1,4.5-7.29h0a6.07,6.07,0,0,1,7.29,4.5h0a6.05,6.05,0,0,1-4.51,7.28h0a5.57,5.57,0,0,1-1.39.17h0A6.06,6.06,0,0,1,153.49,132.19Zm-21.72-13.36a6.05,6.05,0,0,1,4.11-7.51h0a6.07,6.07,0,0,1,7.51,4.12h0a6.06,6.06,0,0,1-4.12,7.5h0a5.88,5.88,0,0,1-1.7.25h0A6,6,0,0,1,131.77,118.83Zm18-1.07A6.06,6.06,0,0,1,154,110.3h0a6,6,0,0,1,7.45,4.21h0a6,6,0,0,1-4.19,7.46h0a6.17,6.17,0,0,1-1.64.22h0A6.09,6.09,0,0,1,149.78,117.76ZM133,108.55a6.07,6.07,0,0,1-5.11-6.87h0a6.06,6.06,0,0,1,6.87-5.11h0a6.07,6.07,0,0,1,5.12,6.87h0a6.06,6.06,0,0,1-6,5.17h0A6.77,6.77,0,0,1,133,108.55Zm12.18-5.69h0a6.05,6.05,0,0,1,3.51-7.81h0a6.06,6.06,0,0,1,7.81,3.5h0a6,6,0,0,1-3.5,7.81h0a6,6,0,0,1-2.15.4h0A6.06,6.06,0,0,1,145.21,102.86Z"/><path class="cls-1" d="M375.65,304.15a12.44,12.44,0,0,1-8.57-21.45c14-13.27,31.41-44.83,29.46-57.73-1.69-11.16-5.3-22.08-9.12-33.64-2.29-7-4.67-14.15-6.63-21.5-14.17-53-5-112.33,24.51-158.62a12.44,12.44,0,1,1,21,13.38C400.44,65.1,392.42,117,404.82,163.41c1.78,6.66,3.94,13.19,6.22,20.12,4,12,8.09,24.47,10.09,37.72,3.86,25.49-22,65.29-36.92,79.48A12.38,12.38,0,0,1,375.65,304.15Z"/><path class="cls-1" d="M369.59,304.15a6.06,6.06,0,0,1,6.05-6h0a6.08,6.08,0,0,1,2.15.39h0a6.25,6.25,0,0,1,1.53-1.55h0a6,6,0,0,1,8.43,1.45h0a6,6,0,0,1-1.44,8.43h0a6.08,6.08,0,0,1-5.65.72h0a6.05,6.05,0,0,1-5,2.66h0A6.06,6.06,0,0,1,369.59,304.15Zm-11.29-6h0a6.06,6.06,0,0,1,3.57-7.78h0a6,6,0,0,1,7.78,3.57h0a6.06,6.06,0,0,1-3.57,7.78h0a6.23,6.23,0,0,1-2.11.38h0A6.05,6.05,0,0,1,358.3,298.14Zm31.7-3.35a6.07,6.07,0,0,1-1-8.51h0a6.06,6.06,0,0,1,8.5-1h0a6,6,0,0,1,1,8.49h0a6,6,0,0,1-4.77,2.33h0A6,6,0,0,1,390,294.79ZM369.12,281a6,6,0,0,1-.82-8.52h0a6,6,0,0,1,8.51-.82h0a6,6,0,0,1,.83,8.52h0a6.05,6.05,0,0,1-4.68,2.2h0A6,6,0,0,1,369.12,281Zm34.52-5a6,6,0,0,1-2.21-8.26h0a6,6,0,0,1,8.26-2.22h0a6.07,6.07,0,0,1,2.22,8.28h0a6.07,6.07,0,0,1-5.25,3h0A5.94,5.94,0,0,1,403.64,276Zm-24.52-7.71a6.07,6.07,0,0,1-1.91-8.35h0a6,6,0,0,1,8.34-1.91h0a6.05,6.05,0,0,1,1.92,8.34h0a6,6,0,0,1-5.14,2.84h0A6.1,6.1,0,0,1,379.12,268.28Zm32-5.46a6.06,6.06,0,0,1-3-8h0a6,6,0,0,1,8-3h0a6.07,6.07,0,0,1,3,8h0a6.08,6.08,0,0,1-5.53,3.58h0A6.3,6.3,0,0,1,411.1,262.82ZM387,255.36a6.05,6.05,0,0,1-2.8-8.08h0a6.06,6.06,0,0,1,8.09-2.82h0a6.06,6.06,0,0,1,2.8,8.09h0a6,6,0,0,1-5.44,3.41h0A6.13,6.13,0,0,1,387,255.36ZM417.55,248a6.06,6.06,0,0,1-4.22-7.45h0a6.06,6.06,0,0,1,7.45-4.22h0a6.06,6.06,0,0,1,4.22,7.45h0a6,6,0,0,1-5.83,4.43h0A6.49,6.49,0,0,1,417.55,248Zm-21.13-14a6.06,6.06,0,0,1-5.8-6.29h0a6.07,6.07,0,0,1,6.3-5.81h0a6.07,6.07,0,0,1,5.8,6.3h0a6,6,0,0,1-6,5.8h-.26Zm18.42-13.74h0a6.06,6.06,0,0,1,5-7h0a6,6,0,0,1,7,5h0a6.06,6.06,0,0,1-5,7h0a5.72,5.72,0,0,1-1,.09h0A6.06,6.06,0,0,1,414.84,220.22ZM388,213.6h0a6,6,0,0,1,4.32-7.38h0a6,6,0,0,1,7.39,4.32h0a6,6,0,0,1-4.3,7.38h0a6,6,0,0,1-1.55.2h0A6.05,6.05,0,0,1,388,213.6ZM411.68,206h0a6,6,0,0,1,4.25-7.43h0a6.07,6.07,0,0,1,7.43,4.27h0a6,6,0,0,1-4.27,7.41h0a5.38,5.38,0,0,1-1.58.22h0A6,6,0,0,1,411.68,206Zm-28-6.59h0a6.05,6.05,0,0,1,3.9-7.62h0a6,6,0,0,1,7.62,3.89h0a6.05,6.05,0,0,1-3.89,7.62h0a5.76,5.76,0,0,1-1.87.3h0A6.07,6.07,0,0,1,383.71,199.44Zm23.39-8.55a6,6,0,0,1,3.87-7.63h0a6,6,0,0,1,7.63,3.87h0a6.07,6.07,0,0,1-3.89,7.64h0a6.08,6.08,0,0,1-1.87.29h0A6,6,0,0,1,407.1,190.89ZM376.57,177.2a6.06,6.06,0,0,1,4.1-7.52h0a6,6,0,0,1,7.51,4.1h0a6,6,0,0,1-4.08,7.51h0a6.07,6.07,0,0,1-1.72.25h0A6.08,6.08,0,0,1,376.57,177.2ZM400,168.58h0a6,6,0,0,1,4.14-7.48h0a6,6,0,0,1,7.49,4.13h0a6.06,6.06,0,0,1-4.15,7.5h0a6,6,0,0,1-1.67.23h0A6,6,0,0,1,400,168.58Zm-27.49-7.49a6.06,6.06,0,0,1,4.68-7.17h0a6.08,6.08,0,0,1,7.17,4.69h0a6.06,6.06,0,0,1-4.69,7.16h0a5.94,5.94,0,0,1-1.24.13h0A6,6,0,0,1,372.49,161.09Zm23.81-7.73a6,6,0,0,1,4.78-7.09h0a6.06,6.06,0,0,1,7.11,4.78h0a6.07,6.07,0,0,1-4.8,7.1h0a6.48,6.48,0,0,1-1.15.11h0A6.05,6.05,0,0,1,396.3,153.36Zm-26.42-7.66a6.06,6.06,0,0,1,5.23-6.77h0a6.05,6.05,0,0,1,6.78,5.23h0a6.06,6.06,0,0,1-5.23,6.78h0a6.78,6.78,0,0,1-.77.05h0A6.07,6.07,0,0,1,369.88,145.7Zm24-8.87h0a6,6,0,0,1,5.44-6.61h0a6.06,6.06,0,0,1,6.61,5.44h0a6.05,6.05,0,0,1-5.44,6.6h0q-.3,0-.6,0h0A6.06,6.06,0,0,1,393.9,136.83Zm-25.69-15a6.06,6.06,0,0,1,6-6.13h0a6,6,0,0,1,6.12,6h0a6.08,6.08,0,0,1-6,6.14h-.08A6.06,6.06,0,0,1,368.21,121.88ZM399,119.11a6,6,0,0,1-5.84-6.25h0a6,6,0,0,1,6.25-5.84h0a6,6,0,0,1,5.84,6.25h0a6,6,0,0,1-6,5.85H399Zm-24.7-7.4a6,6,0,0,1-5.63-6.45h0a6.05,6.05,0,0,1,6.44-5.63h0a6.06,6.06,0,0,1,5.64,6.45h0a6,6,0,0,1-6,5.64h-.42ZM399.64,104a6,6,0,0,1-5.28-6.73h0A6,6,0,0,1,401.07,92h0a6,6,0,0,1,5.3,6.71h0a6,6,0,0,1-6,5.34h0A6,6,0,0,1,399.64,104Zm-24.22-7.37a6,6,0,0,1-5.14-6.84h0a6.05,6.05,0,0,1,6.84-5.15h0a6.05,6.05,0,0,1,5.15,6.84h0a6.06,6.06,0,0,1-6,5.21h0A6.33,6.33,0,0,1,375.42,96.62ZM401.74,88a6,6,0,0,1-4.68-7.17h0a6.06,6.06,0,0,1,7.18-4.67h0a6,6,0,0,1,4.66,7.17h0a6,6,0,0,1-5.92,4.8h0A5.9,5.9,0,0,1,401.74,88ZM379.29,73.74A6.06,6.06,0,0,1,375,66.36h0A6,6,0,0,1,382.32,62h0a6,6,0,0,1,4.35,7.37h0a6.08,6.08,0,0,1-5.86,4.53h0A6.09,6.09,0,0,1,379.29,73.74Zm27.94-8.29a6,6,0,0,1-3.7-7.72h0a6,6,0,0,1,7.71-3.7h0A6.06,6.06,0,0,1,415,61.74h0a6.07,6.07,0,0,1-5.71,4.05h0A6.11,6.11,0,0,1,407.23,65.45Zm-23.75-7.3a6,6,0,0,1-3.74-7.69h0a6.06,6.06,0,0,1,7.7-3.76h0a6.07,6.07,0,0,1,3.74,7.71h0a6.05,6.05,0,0,1-5.72,4.09h0A6.24,6.24,0,0,1,383.48,58.15Zm28.88-6.94a6,6,0,0,1-3-8h0a6.05,6.05,0,0,1,8-3h0a6.06,6.06,0,0,1,3,8h0a6.07,6.07,0,0,1-5.53,3.56h0A6.21,6.21,0,0,1,412.36,51.21Zm-23.82-7.33a6,6,0,0,1-3.16-8h0a6,6,0,0,1,8-3.15h0a6.06,6.06,0,0,1,3.15,8h0a6.07,6.07,0,0,1-5.56,3.65h0A5.93,5.93,0,0,1,388.54,43.88Zm30.65-7.31a6.06,6.06,0,0,1-2.25-8.26h0a6.06,6.06,0,0,1,8.26-2.24h0a6.06,6.06,0,0,1,2.25,8.27h0a6.08,6.08,0,0,1-5.26,3h0A6,6,0,0,1,419.19,36.57ZM398.34,22.86a6.06,6.06,0,0,1-2.19-8.28h0a6.07,6.07,0,0,1,8.28-2.19h0a6.06,6.06,0,0,1,2.18,8.29h0a6,6,0,0,1-5.23,3h0A6,6,0,0,1,398.34,22.86ZM420.82,14a6,6,0,0,1,1-8.5h0a6.06,6.06,0,0,1,8.5,1h0a6.07,6.07,0,0,1-1,8.51h0a6.13,6.13,0,0,1-3.73,1.28h0A6,6,0,0,1,420.82,14ZM406.23,7.9A6.06,6.06,0,0,1,410.14.29h0a6.07,6.07,0,0,1,7.62,3.91h0a6.06,6.06,0,0,1-3.92,7.62h0a6,6,0,0,1-1.85.28h0A6,6,0,0,1,406.23,7.9Z"/><path class="cls-1" d="M402.32,374.51a10.88,10.88,0,0,1-7.1-19.13c25.45-21.91,54.16-65.86,64-98A10.88,10.88,0,0,1,480,263.79c-11,36-42,83.5-70.6,108.08A10.87,10.87,0,0,1,402.32,374.51Z"/><path class="cls-1" d="M396.26,374.51a6.06,6.06,0,0,1,6.07-6.05h0a5.9,5.9,0,0,1,1.46.18h0a6.19,6.19,0,0,1,1.14-.95h0a6.06,6.06,0,0,1,8.37,1.8h0a6.06,6.06,0,0,1-1.8,8.37h0a6.09,6.09,0,0,1-4.76.79h0a6,6,0,0,1-4.41,1.91h0A6.06,6.06,0,0,1,396.26,374.51Zm-10.61-7.84h0a6.06,6.06,0,0,1,4.86-7h0a6.06,6.06,0,0,1,7,4.87h0a6.05,6.05,0,0,1-4.86,7.05h0a6.59,6.59,0,0,1-1.09.1h0A6.06,6.06,0,0,1,385.65,366.67Zm35.16-5.54a6.06,6.06,0,0,1-.43-8.55h0a6.06,6.06,0,0,1,8.55-.41h0a6.05,6.05,0,0,1,.42,8.54h0a6.06,6.06,0,0,1-4.49,2h0A6,6,0,0,1,420.81,361.13Zm-21.2-9.57a6.06,6.06,0,0,1-.08-8.56h0a6.07,6.07,0,0,1,8.57-.08h0a6.06,6.06,0,0,1,.08,8.56h0a6.09,6.09,0,0,1-4.33,1.81h0A6.08,6.08,0,0,1,399.61,351.56Zm31.28-1.71a6,6,0,0,1-.93-8.51h0a6.06,6.06,0,0,1,8.51-.95h0a6.05,6.05,0,0,1,.94,8.51h0a6,6,0,0,1-4.72,2.27h0A6.13,6.13,0,0,1,430.89,349.85Zm-20.11-10a6.05,6.05,0,0,1-.78-8.52h0a6,6,0,0,1,8.53-.78h0a6,6,0,0,1,.77,8.52h0a6,6,0,0,1-4.65,2.18h0A6,6,0,0,1,410.78,339.89Zm30.11-2.73a6.06,6.06,0,0,1-1.42-8.45h0a6.05,6.05,0,0,1,8.44-1.42h0a6.05,6.05,0,0,1,1.42,8.44h0a6,6,0,0,1-4.94,2.55h0A6.06,6.06,0,0,1,440.89,337.16Zm-20.5-9a6.05,6.05,0,0,1-1.28-8.47h0a6.06,6.06,0,0,1,8.46-1.28h0a6.07,6.07,0,0,1,1.29,8.47h0a6.07,6.07,0,0,1-4.89,2.46h0A6.07,6.07,0,0,1,420.39,328.19ZM454,318a6.06,6.06,0,0,1-2.05-8.31h0a6,6,0,0,1,8.31-2.06h0a6.06,6.06,0,0,1,2.06,8.31h0a6,6,0,0,1-5.19,2.93h0A6,6,0,0,1,454,318Zm-20.21-8.77a6,6,0,0,1-2-8.33h0a6.06,6.06,0,0,1,8.33-2h0a6,6,0,0,1,2,8.33h0a6,6,0,0,1-5.14,2.87h0A6,6,0,0,1,433.79,309.23Zm28-4.22a6.07,6.07,0,0,1-2.48-8.19h0a6.05,6.05,0,0,1,8.19-2.5h0a6,6,0,0,1,2.48,8.19h0a6,6,0,0,1-5.34,3.21h0A6.11,6.11,0,0,1,461.76,305Zm-19.58-9.58a6.06,6.06,0,0,1-2.46-8.2h0a6.06,6.06,0,0,1,8.2-2.46h0a6,6,0,0,1,2.46,8.2h0a6,6,0,0,1-5.33,3.19h0A6,6,0,0,1,442.18,295.43Zm27.1-4.73a6,6,0,0,1-3-8h0a6,6,0,0,1,8-3h0a6,6,0,0,1,3,8h0a6,6,0,0,1-5.51,3.54h0A5.82,5.82,0,0,1,469.28,290.7Zm-20-8.63a6.06,6.06,0,0,1-3-8h0a6,6,0,0,1,8-3h0a6,6,0,0,1,3,8h0a6,6,0,0,1-5.5,3.54h0A6.08,6.08,0,0,1,449.29,282.07Zm29.18-12.7a6,6,0,0,1-4.2-7.46h0a6,6,0,0,1,7.46-4.19h0a6,6,0,0,1,4.19,7.45h0a6,6,0,0,1-5.82,4.42h0A6.09,6.09,0,0,1,478.47,269.37Zm-21.3-9.2a6.07,6.07,0,0,1-2.06-8.32h0a6,6,0,0,1,8.31-2h0a6,6,0,0,1,2.06,8.3h0a6,6,0,0,1-5.19,2.94h0A6.13,6.13,0,0,1,457.17,260.17Zm14.58-3.91a6.05,6.05,0,0,1-2.8-8.09h0a6.06,6.06,0,0,1,8.09-2.79h0a6.05,6.05,0,0,1,2.8,8.09h0a6.06,6.06,0,0,1-5.45,3.4h0A5.93,5.93,0,0,1,471.75,256.26Z"/><path class="cls-1" d="M421.26,426.51a69,69,0,0,1-22.45-3.68,15,15,0,1,1,9.77-28.43c16.31,5.6,36.55-.49,47.07-14.17a15,15,0,1,1,23.83,18.31C465.83,416.31,443.51,426.51,421.26,426.51Z"/><path class="cls-1" d="M415.21,426.5a6,6,0,0,1,6-6.05h0a6,6,0,0,1,1.55.2h0a6.61,6.61,0,0,1,1.56-.27h0a6.06,6.06,0,0,1,6.32,5.77h0a6,6,0,0,1-5.77,6.32h0a6.16,6.16,0,0,1-1.83-.19h0a6.14,6.14,0,0,1-1.83.27h0A6,6,0,0,1,415.21,426.5ZM405,430.82h0a6,6,0,0,1-4.62-7.2h0a6,6,0,0,1,7.2-4.63h0a6,6,0,0,1,4.62,7.21h0a6.06,6.06,0,0,1-5.91,4.76h0A6.36,6.36,0,0,1,405,430.82Zm28.76-5.12a6.06,6.06,0,0,1,4.39-7.36h0a6.06,6.06,0,0,1,7.34,4.4h0a6,6,0,0,1-4.39,7.34h0a6.26,6.26,0,0,1-1.48.19h0A6,6,0,0,1,433.71,425.7Zm15.55-4.36a6.06,6.06,0,0,1,2.76-8.11h0a6,6,0,0,1,8.1,2.74h0a6.05,6.05,0,0,1-2.75,8.11h0a5.94,5.94,0,0,1-2.67.63h0A6.08,6.08,0,0,1,449.26,421.34ZM383.07,413a6,6,0,0,1,4.65-7.18h0a6,6,0,0,1,7.19,4.65h0a6.05,6.05,0,0,1-4.65,7.19h0a6.22,6.22,0,0,1-1.27.13h0A6.06,6.06,0,0,1,383.07,413Zm86.17-3.46a6.05,6.05,0,0,1,0-8.56h0a6.05,6.05,0,0,1,8.56,0h0a6.07,6.07,0,0,1,0,8.57h0a6,6,0,0,1-4.26,1.74h0A6,6,0,0,1,469.24,409.55Zm-79.92-8.44a6.05,6.05,0,0,1,.68-8.53h0a6,6,0,0,1,8.53.66h0a6.06,6.06,0,0,1-.67,8.54h0a6,6,0,0,1-3.93,1.45h0A6.05,6.05,0,0,1,389.32,401.11Zm35.77-4.4a6.06,6.06,0,0,1,4.59-7.22h0a6.06,6.06,0,0,1,7.22,4.6h0a6.05,6.05,0,0,1-4.6,7.22h0a5.92,5.92,0,0,1-1.32.14h0A6,6,0,0,1,425.09,396.71ZM406.33,400h0a6,6,0,0,1-4-7.57h0a6,6,0,0,1,7.57-4h0a6.06,6.06,0,0,1,4,7.58h0a6.06,6.06,0,0,1-5.78,4.25h0A5.91,5.91,0,0,1,406.33,400Zm74.33-1.1a6,6,0,0,1-4.39-7.35h0a6,6,0,0,1,7.34-4.39h0a6.06,6.06,0,0,1,4.4,7.34h0a6.06,6.06,0,0,1-5.87,4.57h0A6.24,6.24,0,0,1,480.66,398.93Zm-39.92-6.41a6.05,6.05,0,0,1,1.78-8.38h0a6.08,6.08,0,0,1,8.39,1.78h0a6.05,6.05,0,0,1-1.79,8.37h0a6,6,0,0,1-3.29,1h0A6.07,6.07,0,0,1,440.74,392.52Zm11.83-9.26a6.06,6.06,0,0,1-.13-8.57h0a6.05,6.05,0,0,1,8.56-.13h0a6.07,6.07,0,0,1,.14,8.57h0a6.07,6.07,0,0,1-4.35,1.83h0A6,6,0,0,1,452.57,383.26Zm21.08-.48h0a6,6,0,0,1-.37-8.55h0a6.06,6.06,0,0,1,8.56-.37h0a6.05,6.05,0,0,1,.36,8.55h0a6,6,0,0,1-4.46,2h0A6,6,0,0,1,473.65,382.78Z"/><path class="cls-1" d="M233.74,373.61a8.27,8.27,0,0,1-4.85-1.57A652.86,652.86,0,0,1,149.18,304a8.29,8.29,0,0,1,11.75-11.7,635.32,635.32,0,0,0,77.68,66.31,8.29,8.29,0,0,1-4.87,15Z"/><path class="cls-1" d="M227.69,373.61a6,6,0,0,1,6.05-6.05h0l.41,0h0l.4-.17h0a6.05,6.05,0,0,1,7.81,3.49h0a6.07,6.07,0,0,1-3.49,7.82h0a6.14,6.14,0,0,1-2.59.38h0a6,6,0,0,1-2.55.57h0A6,6,0,0,1,227.69,373.61ZM217.25,371a6,6,0,0,1-1.22-8.47h0a6,6,0,0,1,8.46-1.22h0a6,6,0,0,1,1.23,8.46h0a6,6,0,0,1-4.85,2.43h0A6,6,0,0,1,217.25,371Zm13.42-10.69a6.07,6.07,0,0,1-1.29-8.47h0a6.06,6.06,0,0,1,8.47-1.28h0a6.07,6.07,0,0,1,1.29,8.47h0a6.09,6.09,0,0,1-4.88,2.46h0A6.09,6.09,0,0,1,230.67,360.31Zm-31.92-3.65h0a6,6,0,0,1-.93-8.52h0a6.06,6.06,0,0,1,8.51-.92h0a6,6,0,0,1,.93,8.51h0a6,6,0,0,1-4.72,2.26h0A6,6,0,0,1,198.75,356.66Zm19.73-5.55h0a6.06,6.06,0,0,1-1.08-8.5h0a6.06,6.06,0,0,1,8.49-1.08h0A6,6,0,0,1,227,350h0a6,6,0,0,1-4.79,2.35h0A6,6,0,0,1,218.48,351.11Zm-32.3-4.81h0a6.07,6.07,0,0,1-.72-8.54h0a6.05,6.05,0,0,1,8.53-.71h0a6.05,6.05,0,0,1,.71,8.53h0a6,6,0,0,1-4.62,2.14h0A6.07,6.07,0,0,1,186.18,346.3ZM205.72,341a6.06,6.06,0,0,1-.87-8.51h0a6.05,6.05,0,0,1,8.52-.87h0a6,6,0,0,1,.87,8.51h0a6,6,0,0,1-4.7,2.23h0A6,6,0,0,1,205.72,341Zm-31.09-4.67a6.06,6.06,0,0,1-.52-8.55h0a6.06,6.06,0,0,1,8.55-.51h0a6,6,0,0,1,.51,8.54h0a6,6,0,0,1-4.53,2h0A6,6,0,0,1,174.63,336.3Zm13.21-10.46a6,6,0,0,1-.55-8.54h0a6.06,6.06,0,0,1,8.54-.56h0a6.07,6.07,0,0,1,.56,8.54h0a6.05,6.05,0,0,1-4.56,2.07h0A6,6,0,0,1,187.84,325.84Zm-30.46-5.38a6,6,0,0,1-.21-8.55h0a6,6,0,0,1,8.55-.21h0a6,6,0,0,1,.21,8.55h0a6,6,0,0,1-4.39,1.89h0A6,6,0,0,1,157.38,320.46Zm19.1-4.83a6.06,6.06,0,0,1-.35-8.56h0a6.06,6.06,0,0,1,8.56-.35h0a6.06,6.06,0,0,1,.34,8.56h0a6,6,0,0,1-4.45,2h0A6,6,0,0,1,176.48,315.63Zm-30.76-6.55h0a6,6,0,0,1,0-8.56h0a6.06,6.06,0,0,1,8.56,0h0a6.05,6.05,0,0,1,0,8.56h0a6,6,0,0,1-4.28,1.77h0A6,6,0,0,1,145.72,309.08Zm18.91-4.64h0a6,6,0,0,1-.14-8.55h0a6.06,6.06,0,0,1,8.56-.14h0a6.05,6.05,0,0,1,.13,8.56h0a6,6,0,0,1-4.34,1.84h0A6.06,6.06,0,0,1,164.63,304.44Zm-19.46-9a6,6,0,0,1,1-8.5h0a6.05,6.05,0,0,1,8.5,1h0a6.05,6.05,0,0,1-1,8.5h0a6,6,0,0,1-3.77,1.31h0A6,6,0,0,1,145.17,295.4Z"/><path class="cls-1" d="M392.17,128.22a8.29,8.29,0,0,1-6.41-13.54A259.23,259.23,0,0,1,451.3,57.47,8.29,8.29,0,0,1,460,71.62a242.62,242.62,0,0,0-61.36,53.55A8.27,8.27,0,0,1,392.17,128.22Z"/><path class="cls-1" d="M386.12,128.22a6,6,0,0,1,6.06-6h.48l.43-.2h0a6.06,6.06,0,0,1,8,3.1h0a6.06,6.06,0,0,1-3.1,8h0a6,6,0,0,1-2.93.5h0a6.09,6.09,0,0,1-2.86.71h0A6,6,0,0,1,386.12,128.22Zm-3.49-4.52a6.06,6.06,0,0,1-4.34-7.38h0a6,6,0,0,1,7.37-4.34h0a6,6,0,0,1,4.35,7.37h0a6.05,6.05,0,0,1-5.85,4.54h0A6.17,6.17,0,0,1,382.63,123.7Zm19.89-3.32a6,6,0,0,1-.43-8.55h0a6.06,6.06,0,0,1,8.55-.44h0a6.07,6.07,0,0,1,.43,8.56h0a6.06,6.06,0,0,1-4.5,2h0A6.07,6.07,0,0,1,402.52,120.38Zm-7.95-16a6,6,0,0,1-.22-8.55h0a6.05,6.05,0,0,1,8.56-.21h0a6,6,0,0,1,.21,8.55h0a6,6,0,0,1-4.39,1.88h0A6,6,0,0,1,394.57,104.34Zm23.9-.81a6.06,6.06,0,0,1,.38-8.55h0a6,6,0,0,1,8.55.4h0a6.06,6.06,0,0,1-.38,8.55h0a6,6,0,0,1-4.09,1.59h0A6,6,0,0,1,418.47,103.53ZM429.7,93.39a6.06,6.06,0,0,1,.92-8.51h0a6.07,6.07,0,0,1,8.52.92h0a6.05,6.05,0,0,1-.93,8.51h0a6,6,0,0,1-3.8,1.34h0A6,6,0,0,1,429.7,93.39Zm-23.92-.66a6.05,6.05,0,0,1,.32-8.55h0a6.05,6.05,0,0,1,8.55.32h0a6.06,6.06,0,0,1-.32,8.56h0a6,6,0,0,1-4.12,1.61h0A6,6,0,0,1,405.78,92.73Zm36.58-9.36A6,6,0,0,1,443.85,75h0a6.06,6.06,0,0,1,8.43,1.48h0a6,6,0,0,1-1.49,8.43h0A6,6,0,0,1,447.33,86h0A6,6,0,0,1,442.36,83.37Zm-25.43-.87a6,6,0,0,1,.82-8.52h0a6,6,0,0,1,8.51.82h0a6,6,0,0,1-.81,8.52h0a6,6,0,0,1-3.85,1.38h0A6,6,0,0,1,416.93,82.5ZM463.62,71a6.06,6.06,0,0,1-5.76-6.33h0a6.06,6.06,0,0,1,6.33-5.76h0A6,6,0,0,1,470,65.21h0a6.05,6.05,0,0,1-6,5.77h-.29Zm-28.48-2.84a6,6,0,0,1,1.57-8.41h0a6,6,0,0,1,8.42,1.57h0a6.06,6.06,0,0,1-1.58,8.41h0a6,6,0,0,1-3.42,1.06h0A6,6,0,0,1,435.14,68.13ZM448,57.68a6.06,6.06,0,0,1,4.67-7.17h0a6.06,6.06,0,0,1,7.18,4.67h0a6.06,6.06,0,0,1-4.68,7.17h0a5.9,5.9,0,0,1-1.25.13h0A6.07,6.07,0,0,1,448,57.68Z"/><path class="cls-1" d="M334.14,178.52a8.3,8.3,0,0,1-7.42-4.58c-1.27-2.53-4.82-4.7-10.28-6.27-1.37-.39-2.79-.75-4.3-1.13-5-1.27-10.73-2.7-15.94-6-11.79-7.42-16.48-21.38-19.58-30.62a8.29,8.29,0,1,1,15.72-5.28c3.23,9.63,6.42,17.91,12.69,21.86,3,1.88,7,2.88,11.17,3.94,1.56.4,3.18.8,4.82,1.27,10.17,2.92,17.08,7.89,20.53,14.78a8.3,8.3,0,0,1-7.41,12Z"/><path class="cls-1" d="M328.09,178.52a6,6,0,0,1,6.05-6.05h0a6.06,6.06,0,0,1,3.32,1h0a6,6,0,0,1-1.09-3.31h0a6.05,6.05,0,0,1,5.88-6.21h0a6,6,0,0,1,6.22,5.88h0a6.05,6.05,0,0,1-5.88,6.22h0a6,6,0,0,1-3.49-1h0a6.09,6.09,0,0,1,1.1,3.47h0a6.06,6.06,0,0,1-6.06,6h0A6,6,0,0,1,328.09,178.52Zm-8.59-3.2a6.06,6.06,0,0,1-2.44-8.21h0a6,6,0,0,1,8.22-2.42h0a6,6,0,0,1,2.42,8.2h0a6.05,6.05,0,0,1-5.33,3.17h0A6,6,0,0,1,319.5,175.32Zm-21.6-7a6.06,6.06,0,0,1-3-8h0a6.06,6.06,0,0,1,8-3h0a6.05,6.05,0,0,1,3,8h0a6.06,6.06,0,0,1-5.52,3.57h0A6,6,0,0,1,297.9,168.31Zm32.61-5.58h0a6,6,0,0,1-1.26-8.46h0a6,6,0,0,1,8.46-1.27h0a6.05,6.05,0,0,1,1.27,8.46h0a6.06,6.06,0,0,1-4.87,2.45h0A6.06,6.06,0,0,1,330.51,162.73Zm-47.45-6a6.07,6.07,0,0,1,.93-8.52h0a6.07,6.07,0,0,1,8.51.93h0a6.05,6.05,0,0,1-.93,8.51h0a6,6,0,0,1-3.79,1.34h0A6.08,6.08,0,0,1,283.06,156.75Zm34.84.4a6.05,6.05,0,0,1-4.28-7.41h0a6.06,6.06,0,0,1,7.42-4.28h0a6.06,6.06,0,0,1,4.28,7.41h0a6.05,6.05,0,0,1-5.84,4.49h0A6.19,6.19,0,0,1,317.9,157.15Zm-23.43-12.79h0a6.06,6.06,0,0,1,1.59-8.41h0a6.06,6.06,0,0,1,8.42,1.59h0a6.07,6.07,0,0,1-1.6,8.42h0a6.09,6.09,0,0,1-3.4,1h0A6,6,0,0,1,294.47,144.36Zm-19.78-2.14h0a6,6,0,0,1,3.23-7.93h0a6,6,0,0,1,7.91,3.23h0a6.05,6.05,0,0,1-3.22,7.93h0a6.11,6.11,0,0,1-2.34.47h0A6,6,0,0,1,274.69,142.22Zm12.81-13h0a6.05,6.05,0,0,1,3.73-7.71h0a6,6,0,0,1,7.7,3.74h0a6.06,6.06,0,0,1-3.73,7.7h0a6.28,6.28,0,0,1-2,.33h0A6,6,0,0,1,287.5,129.21Zm-11.68-7.44a6,6,0,0,1,3.44-7.83h0a6,6,0,0,1,7.83,3.45h0a6,6,0,0,1-3.44,7.83h0a6,6,0,0,1-2.19.42h0A6,6,0,0,1,275.82,121.77Z"/><path class="cls-1" d="M162.64,267.21a8.29,8.29,0,0,1-5.47-14.52c17.47-15.35,44.16-18.7,64.89-8.15a8.29,8.29,0,1,1-7.52,14.78c-14.6-7.43-34.12-5-46.43,5.83A8.25,8.25,0,0,1,162.64,267.21Z"/><path class="cls-1" d="M156.59,267.21a6.05,6.05,0,0,1,6-6h0a6,6,0,0,1,1.29.13h0a6.31,6.31,0,0,1,1.53-1.83h0a6.05,6.05,0,0,1,8.51.91h0a6,6,0,0,1-.9,8.5h0a6,6,0,0,1-5.1,1.21h0a6.06,6.06,0,0,1-5.33,3.17h0A6,6,0,0,1,156.59,267.21Zm58.48-5.54a6.06,6.06,0,0,1,3.91-7.62h0A6.08,6.08,0,0,1,226.6,258h0a6,6,0,0,1-3.92,7.61h0a6,6,0,0,1-1.85.3h0A6.06,6.06,0,0,1,215.07,261.67Zm-62,1a6,6,0,0,1-4.35-7.36h0a6.05,6.05,0,0,1,7.37-4.36h0a6.06,6.06,0,0,1,4.35,7.37h0a6,6,0,0,1-5.86,4.55h0A6.09,6.09,0,0,1,153.1,262.7Zm24.6-4.18a6.05,6.05,0,0,1,4.12-7.5h0a6.07,6.07,0,0,1,7.51,4.11h0a6.07,6.07,0,0,1-4.12,7.51h0a5.88,5.88,0,0,1-1.7.25h0A6.06,6.06,0,0,1,177.7,258.52ZM205,262.18h0a6.06,6.06,0,0,1-4.4-7.35h0a6.07,6.07,0,0,1,7.35-4.4h0a6,6,0,0,1,4.39,7.35h0a6,6,0,0,1-5.86,4.58h0A6.3,6.3,0,0,1,205,262.18ZM220,250.5a6,6,0,0,1,.86-8.51h0a6,6,0,0,1,8.51.86h0a6,6,0,0,1-.85,8.51h0a6,6,0,0,1-3.83,1.36h0A6,6,0,0,1,220,250.5Zm-53-5.06a6.06,6.06,0,0,1,3.24-7.93h0a6.06,6.06,0,0,1,7.92,3.25h0a6.05,6.05,0,0,1-3.24,7.92h0a6.07,6.07,0,0,1-2.34.47h0A6,6,0,0,1,167,245.44Zm15.12-5.73a6,6,0,0,1,5.23-6.78h0a6.06,6.06,0,0,1,6.78,5.23h0a6.07,6.07,0,0,1-5.23,6.78h0c-.26,0-.52.05-.78.05h0A6.06,6.06,0,0,1,182.14,239.71Zm20.37,5.15a6,6,0,0,1-5.28-6.73h0a6,6,0,0,1,6.73-5.28h0a6.06,6.06,0,0,1,5.29,6.74h0a6.05,6.05,0,0,1-6,5.31h0A4.53,4.53,0,0,1,202.51,244.86Z"/></g></svg>