<?xml version="1.0" encoding="UTF-8" standalone="no"?>
<!-- Created with Inkscape (http://www.inkscape.org/) -->

<svg
   version="1.1"
   id="svg824"
   width="8.5in"
   height="8in"
   viewBox="0 0 816 768"
   sodipodi:docname="Trips.svg"
   inkscape:version="1.1 (c68e22c387, 2021-05-23)"
   xmlns:inkscape="http://www.inkscape.org/namespaces/inkscape"
   xmlns:sodipodi="http://sodipodi.sourceforge.net/DTD/sodipodi-0.dtd"
   xmlns="http://www.w3.org/2000/svg"
   xmlns:svg="http://www.w3.org/2000/svg">
  <sodipodi:namedview
     id="namedview6"
     pagecolor="#ffffff"
     bordercolor="#666666"
     borderopacity="1.0"
     inkscape:pageshadow="2"
     inkscape:pageopacity="0.0"
     inkscape:pagecheckerboard="0"
     showgrid="false"
     inkscape:zoom="0.79770252"
     inkscape:cx="487.02366"
     inkscape:cy="687.59968"
     inkscape:window-width="2560"
     inkscape:window-height="1377"
     inkscape:window-x="-8"
     inkscape:window-y="-8"
     inkscape:window-maximized="1"
     inkscape:current-layer="g932"
     inkscape:snap-others="false"
     inkscape:snap-nodes="false"
     units="in"
     inkscape:document-units="in" />
  <defs
     id="defs828" />
  <g
     id="g1811"
     transform="matrix(1.1540071,0,0,1.0842422,146.30071,-113.27977)"
     style="fill:#28170b">
    <g
       id="g932"
       transform="translate(2.1725994,1.1561951)">
      <path
         style="fill:#4c4a48;stroke-width:0.356365"
         d="m 573.67408,766.00813 c 0.0166,-0.42832 0.0984,-0.51542 0.20871,-0.22214 0.0998,0.26541 0.0875,0.58251 -0.0273,0.70468 -0.11478,0.12217 -0.19644,-0.095 -0.18145,-0.48254 z m -2.00049,-2.981 c -8.67103,-13.18761 -21.18889,-26.37023 -27.35718,-28.81 -7.8358,-3.0993 -8.0653,-15.54238 -0.35185,-19.07415 4.27259,-1.95627 7.67507,-1.2749 11.21035,2.24503 6.29745,6.26996 11.98618,19.69758 16.42821,38.7768 2.10374,9.03595 2.11331,9.96924 0.0705,6.86232 z M 301.67577,730.28466 c -9.16212,-15.17113 -10.8147,-17.61288 -13.09023,-19.34114 -2.94644,-2.23782 -5.71675,-3.5592 -7.85921,-3.74868 -5.63219,-0.49813 -8.90523,-6.85236 -6.43631,-12.49548 2.02817,-4.63568 7.02702,-6.3118 11.56035,-3.87611 8.00159,4.2991 14.34246,15.27676 16.64448,28.81589 0.70857,4.16732 1.32826,13.12717 0.90791,13.12717 -0.12556,0 -0.9027,-1.11674 -1.72699,-2.48165 z m 225.51139,-25.55941 c -1.10947,-0.66067 -2.29708,-2.27117 -6.02767,-8.17421 -4.36838,-6.91221 -4.65436,-7.47395 -4.78683,-9.40239 -0.10646,-1.54994 0.0287,-2.40312 0.55361,-3.49269 1.33666,-2.77488 3.10852,-3.88342 6.20781,-3.88375 2.9481,-3.4e-4 3.74689,0.77482 8.34174,8.09461 5.06434,8.0677 5.25989,8.4726 5.25989,10.89174 0,2.18562 -0.55054,3.56743 -2.00471,5.03183 -1.96236,1.97612 -5.13495,2.36929 -7.54384,0.93486 z M 269.67276,680.8831 c -1.84011,-0.77869 -2.75034,-2.28396 -5.38621,-8.90746 -2.3605,-5.93157 -2.61774,-6.80779 -2.47214,-8.42064 0.37551,-4.15913 4.25205,-6.57997 7.72661,-4.8251 1.62263,0.81954 2.06509,1.61642 4.87768,8.78547 2.94768,7.51336 3.03376,7.84498 2.49828,9.62416 -1.00902,3.35261 -4.23208,5.01818 -7.24422,3.74357 z m 133.85222,-3.49578 c -5.69744,-7.16622 -11.95983,-12.99037 -16.17788,-15.04572 -1.52871,-0.7449 -2.07528,-0.8581 -2.62665,-0.54405 -1.54298,0.87891 -5.05429,-1.74462 -6.31685,-4.71972 -0.75877,-1.78793 -0.90415,-5.10668 -0.29714,-6.78126 0.63462,-1.75061 0.49385,-1.97267 -1.40177,-2.21164 -2.50298,-0.31552 -3.69294,-1.34509 -6.32038,-5.46863 -2.78274,-4.36726 -3.14827,-6.08706 -1.85738,-8.73977 0.45022,-0.92527 1.29859,-1.95002 1.93742,-2.34025 1.28131,-0.78273 4.04544,-0.93012 5.19232,-0.2768 0.98971,0.56375 5.86653,7.12684 6.50584,8.75539 0.28353,0.72229 0.46284,2.0619 0.4018,3.00169 l -0.11026,1.69726 2.7634,-0.10992 c 2.48298,-0.0988 2.98399,0.004 4.93723,1.00291 5.12949,2.62602 9.30382,9.174 12.89437,20.22648 1.52129,4.68289 3.85488,14.13745 3.6897,14.94882 -0.0581,0.2854 -1.49262,-1.22991 -3.21377,-3.39479 z m 104.82335,-3.16948 c -1.35528,-0.7274 -2.10184,-1.71447 -6.18722,-8.18024 -4.36814,-6.91332 -4.6544,-7.47568 -4.78683,-9.40401 -0.10646,-1.54994 0.0287,-2.40311 0.55361,-3.49268 1.33666,-2.77489 3.10852,-3.88343 6.20781,-3.88376 2.94879,-3.3e-4 3.74703,0.77449 8.33918,8.09461 2.2358,3.56394 4.27287,6.89354 4.52687,7.39906 1.74256,3.46849 0.40853,8.43061 -2.62976,9.78177 -1.73776,0.7728 -4.24106,0.64199 -6.02366,-0.31475 z m -344.80605,-3.5846 c -1.02111,-2.32539 -2.93526,-6.79228 -4.25368,-9.92644 -2.04103,-4.85193 -2.66283,-5.97437 -4.18579,-7.55593 -2.09493,-2.17558 -4.47997,-3.64445 -6.82626,-4.20413 -2.14093,-0.51067 -3.42957,-1.49627 -4.48416,-3.42971 -3.21539,-5.89499 0.43769,-12.75187 6.79369,-12.75187 2.34675,0 3.50399,0.54004 6.02061,2.80962 4.90464,4.42318 8.59417,12.45456 9.77194,21.27154 0.63299,4.73865 0.19973,15.78738 -0.68456,17.45733 -0.21617,0.40828 -0.79242,-0.57468 -2.15179,-3.67041 z m 95.07688,-18.42694 c -1.84011,-0.77869 -2.75034,-2.28396 -5.38621,-8.90746 -2.3605,-5.93157 -2.61774,-6.8078 -2.47214,-8.42064 0.37551,-4.15913 4.25204,-6.57997 7.7266,-4.8251 1.62264,0.81953 2.06509,1.61642 4.87768,8.78547 2.94769,7.51336 3.03377,7.84498 2.49829,9.62416 -1.00902,3.35261 -4.23208,5.01818 -7.24422,3.74357 z M 2.8018033,646.42006 c 0.1008711,-0.17372 3.9917253,-2.9125 8.6463487,-6.08621 5.02778,-3.42817 8.893459,-6.32191 9.523567,-7.12913 1.73727,-2.2255 3.167174,-5.68852 3.419279,-8.28098 0.438493,-4.50906 3.357881,-7.20696 7.817305,-7.2242 5.435492,-0.0209 9.264062,5.96062 7.202047,11.2523 -0.834018,2.14032 -3.332847,5.70323 -5.388811,7.68358 -5.464883,5.26385 -12.779287,8.55925 -21.517747,9.69452 -3.6944352,0.47997 -9.9621663,0.53821 -9.7019887,0.0901 z M 489.53582,643.69514 c -1.10836,-0.66001 -2.28934,-2.25955 -5.96953,-8.08528 -4.79294,-7.58715 -5.34929,-8.92007 -4.89871,-11.73653 0.26445,-1.653 1.80184,-3.88218 3.04378,-4.41351 2.65649,-1.13645 5.45747,-0.96369 7.32519,0.45184 0.52332,0.39659 2.94077,3.98417 5.37215,7.97234 4.11263,6.74592 4.43042,7.39482 4.56072,9.31202 0.2097,3.08569 -1.37379,5.94609 -3.84293,6.94184 -1.62332,0.65464 -4.0737,0.46059 -5.59067,-0.44272 z M 143.00489,628.73588 c -1.56283,-1.01424 -1.9882,-2.10561 -3.39174,-8.70219 -1.79202,-8.42238 -1.64798,-10.18483 0.97576,-11.939 1.42103,-0.95009 4.49812,-0.8238 5.83999,0.23967 1.47943,1.17248 1.87727,2.27286 2.98417,8.25414 1.61066,8.7033 1.59359,9.475 -0.25302,11.44043 -1.22523,1.30409 -1.50121,1.42725 -3.19518,1.426 -1.22912,0 -2.2269,-0.24331 -2.95998,-0.71905 z m 217.46527,-2.04282 c -0.92767,-0.5364 -7.98567,-10.35262 -9.09286,-12.64635 -1.42516,-2.95239 0.0642,-7.1645 2.84706,-8.05194 1.81569,-0.57897 2.55791,-0.55041 4.23318,0.16306 1.21417,0.51706 1.97898,1.45251 5.60148,6.85122 3.99523,5.95426 4.20172,6.3508 4.33087,8.31667 0.11227,1.7091 -0.004,2.28576 -0.67907,3.35111 -0.44808,0.70773 -1.35562,1.57605 -2.01676,1.92958 -1.44384,0.7721 -3.96607,0.81394 -5.2239,0.0866 z m -112.9046,-3.16356 c -1.84012,-0.77869 -2.75035,-2.28396 -5.38622,-8.90746 -2.36049,-5.93157 -2.61773,-6.8078 -2.47213,-8.42065 0.37931,-4.20133 4.38952,-6.64724 7.83379,-4.77792 1.71977,0.93336 2.1549,1.74241 5.08231,9.45022 2.61549,6.88662 2.64188,6.98894 2.22733,8.63981 -0.88981,3.54357 -4.1519,5.34182 -7.28508,4.016 z m 222.97188,-10.34953 c -1.10225,-0.65648 -2.30339,-2.2726 -5.93879,-7.99039 -2.81314,-4.4245 -4.63788,-7.6599 -4.76817,-8.45425 -0.36122,-2.20201 -0.57075,-2.37348 -3.1681,-2.59224 -7.89846,-0.66519 -17.87575,-10.68115 -32.94237,-33.06994 -4.44983,-6.6124 -30.222,-48.00719 -35.02133,-56.25064 -7.70267,-13.23024 -16.16811,-30.22755 -20.50948,-41.17985 -5.21868,-13.16555 -7.38774,-23.13794 -5.76093,-26.48625 0.45824,-0.94318 0.71866,-1.0847 1.99594,-1.0847 4.1546,0 13.12332,7.12267 22.93695,18.21578 3.46022,3.91139 3.81643,4.4366 3.36727,4.96487 -1.14719,1.34919 -0.10124,2.98101 1.43362,2.23668 0.48359,-0.23451 1.01406,-0.33769 1.17887,-0.22929 0.50898,0.33482 8.31593,10.35657 12.74176,16.35656 6.14611,8.33216 18.95168,27.79892 35.10645,53.3682 18.07077,28.60183 25.39161,45.05852 24.44176,54.94327 -0.16688,1.73689 -0.11962,1.8937 0.636,2.10896 0.44898,0.1279 1.12995,0.23482 1.51334,0.23757 1.67862,0.0121 3.19224,1.81524 7.61849,9.07559 4.12416,6.76485 4.44202,7.41354 4.57232,9.33106 0.20971,3.0857 -1.37379,5.9461 -3.84293,6.94184 -1.62346,0.65468 -4.0737,0.4606 -5.59067,-0.44283 z m -441.631183,-0.3599 c -0.629016,-0.45497 -1.452257,-1.46365 -1.829423,-2.24149 -0.657955,-1.35693 -0.669227,-1.69109 -0.278043,-8.24142 0.281328,-4.71083 0.5781,-7.20931 0.957363,-8.05998 0.786515,-1.76411 2.323301,-2.79665 4.405216,-2.95974 2.225232,-0.17434 3.677178,0.72195 4.733084,2.92183 0.74438,1.55083 0.75037,1.68899 0.361846,8.3444 -0.440123,7.53928 -0.787697,8.81723 -2.782741,10.23155 -1.58929,1.12667 -4.013404,1.1288 -5.567302,0.005 z M 344.11187,601.68803 c -0.75994,-0.2914 -1.41414,-0.53232 -1.45379,-0.53533 -0.0396,-0.004 -1.97425,-2.84044 -4.29913,-6.3053 -4.02762,-6.00249 -4.2335,-6.3972 -4.36268,-8.36406 -0.11216,-1.7076 0.004,-2.28327 0.67337,-3.33122 1.58349,-2.47992 4.72814,-3.40081 7.11917,-2.0848 1.01061,0.55625 7.9902,10.14662 9.18199,12.61661 1.39009,2.88107 0.2991,6.21739 -2.53076,7.73895 -1.77621,0.95505 -2.42523,0.99483 -4.32817,0.26515 z m -205.60563,-0.92839 c -1.52974,-0.34489 -2.74638,-1.25671 -3.35882,-2.51723 -0.90277,-1.85808 -3.04731,-12.87008 -2.85677,-14.66925 0.31828,-3.00548 2.18961,-4.63881 5.23025,-4.56509 3.36431,0.0815 4.3148,1.54395 5.90642,9.08745 1.35845,6.43842 1.52976,8.97106 0.69816,10.32192 -1.10912,1.80164 -3.53391,2.81235 -5.61924,2.3422 z m 98.00571,-5.90694 c -1.83517,-0.77659 -2.75089,-2.2854 -5.34814,-8.81191 -1.77687,-4.4649 -2.59663,-6.98897 -2.59663,-7.99494 0,-1.62822 -0.41254,-1.97399 -1.72713,-1.44766 -1.30006,0.52055 -5.17213,0.47974 -6.73579,-0.071 -6.9,-2.43017 -11.74211,-13.35989 -15.34291,-34.63235 -0.91825,-5.4247 -4.94397,-34.23047 -5.87466,-42.03563 -1.14125,-9.57114 -1.50294,-26.2353 -0.7421,-34.19157 1.09214,-11.42086 3.3541,-18.57742 6.48024,-20.50266 6.35224,-3.91206 17.26027,18.86107 23.02804,48.07651 1.2103,6.13055 6.26871,38.11774 7.12211,45.03728 1.81459,14.71282 1.37145,26.69487 -1.18169,31.94975 -0.6208,1.27773 -0.33655,1.70682 1.31444,1.98436 1.55977,0.26217 2.7662,1.02938 3.50444,2.22859 0.2905,0.47184 1.71531,3.97791 3.16627,7.79123 2.60693,6.85136 2.63314,6.95309 2.2186,8.604 -0.88982,3.54357 -4.15191,5.34182 -7.28509,4.016 z M 30.990918,583.95886 c -0.661154,-0.35353 -1.573114,-1.22185 -2.026578,-1.92958 -0.819061,-1.27833 -0.823165,-1.33443 -0.625002,-8.53812 0.212958,-7.74148 0.362869,-8.46307 2.121567,-10.2121 0.79931,-0.7949 1.243464,-0.91913 3.286529,-0.91913 2.043065,0 2.48722,0.12423 3.28653,0.91913 1.831133,1.82105 1.995348,2.58705 1.72745,8.05756 -0.405153,8.27329 -0.68752,10.25523 -1.610962,11.30748 -1.763071,2.00899 -3.977411,2.48165 -6.159534,1.31476 z M 326.9317,576.27443 c -1.02118,-0.45089 -2.07452,-1.69421 -5.04545,-5.9554 -4.40904,-6.32389 -4.89025,-7.23549 -4.89025,-9.26396 0,-4.35269 3.55639,-6.90557 7.42781,-5.33193 1.34339,0.54606 1.98599,1.2786 5.35492,6.10443 2.10557,3.01618 4.07101,6.10213 4.36762,6.85773 1.11003,2.82757 -0.22981,6.5693 -2.73583,7.64027 -1.62336,0.6938 -2.82271,0.68008 -4.47882,-0.0511 z m -196.01669,-4.5245 c -0.60823,-0.39471 -1.34085,-1.20134 -1.62806,-1.79245 -0.73255,-1.50777 -2.96586,-12.33298 -2.9643,-14.36846 0.002,-3.25032 2.03436,-5.26003 5.29087,-5.23318 3.39164,0.028 4.22999,1.37899 5.95167,9.59131 1.68877,8.05531 1.45882,10.20074 -1.2798,11.94069 -1.28387,0.81567 -4.00882,0.7457 -5.37038,-0.13791 z M 32.047,554.54137 c -2.201308,-1.29257 -2.524156,-2.48442 -2.264047,-8.35809 0.366375,-8.27331 0.662076,-10.39438 1.597739,-11.46055 1.310446,-1.49323 2.647604,-2.0621 4.363282,-1.85628 1.782041,0.21379 3.084052,1.13172 4.021055,2.83488 0.634273,1.1529 0.645099,1.52979 0.245756,8.55511 -0.428126,7.53174 -0.65295,8.60376 -2.095828,9.99357 -1.082217,1.04241 -4.315482,1.20295 -5.867957,0.29136 z m 278.89684,-3.01568 c -1.9006,-0.45863 -2.80337,-1.45069 -6.72208,-7.38707 -4.01567,-6.08324 -4.62054,-7.50717 -4.14406,-9.75572 0.54922,-2.59182 3.71152,-4.86495 6.10356,-4.38733 2.34329,0.46789 2.94209,1.08022 7.06529,7.22517 3.5806,5.3363 4.1443,6.37351 4.30406,7.9192 0.41997,4.06394 -2.90613,7.27876 -6.60677,6.38575 z m -49.37226,-2.97645 c -4.97406,-0.81294 -8.34558,-2.76338 -12.65334,-7.32008 -3.85498,-4.07771 -6.16031,-7.8118 -7.67901,-12.43803 -0.91047,-2.77351 -1.04953,-3.70699 -1.05147,-7.05666 -0.003,-4.68203 0.61589,-7.38939 2.72986,-11.94867 3.60548,-7.77614 11.15378,-16.40899 23.47937,-26.85287 2.97076,-2.51722 15.81733,-12.92741 27.76558,-22.49981 7.6492,-6.12816 19.6692,-13.47437 28.08161,-17.16247 3.36478,-1.47517 3.73287,-1.5506 3.73287,-0.76504 0,0.83248 0.36201,0.67452 1.52989,-0.66754 0.86878,-0.99835 1.74864,-1.43144 4.86047,-2.39241 7.29818,-2.25374 14.73024,-3.13245 19.39652,-2.2933 2.66602,0.47944 6.17734,2.06615 7.05368,3.18745 0.29883,0.38236 0.72844,2.10146 0.95469,3.82023 0.22625,1.71877 0.87282,4.77947 1.43683,6.80155 0.56401,2.02208 1.02819,4.03384 1.03151,4.47057 0.003,0.43674 -0.46408,2.33934 -1.0387,4.22799 -2.73248,8.98153 -9.38665,20.43234 -17.91201,30.82396 -5.84225,7.12111 -11.29212,12.54694 -21.11256,21.01935 -2.94475,2.54053 -8.38519,7.30677 -12.08987,10.59165 -14.57404,12.92253 -23.91002,19.74144 -32.17324,23.49903 -5.60131,2.54713 -11.88584,3.6835 -16.34268,2.9551 z m -134.99003,-4.74911 c -2.47438,-0.49346 -3.53275,-2.30254 -4.59569,-7.85543 l -0.62273,-3.25322 -2.27048,-1.94287 c -2.23411,-1.91175 -4.48602,-4.23468 -4.10522,-4.23468 0.1069,0 1.09114,0.42212 2.1872,0.93804 2.29783,1.0816 3.02324,0.96797 2.86585,-0.44891 -0.0862,-0.77605 -0.51252,-1.20676 -2.00473,-2.0254 -1.04237,-0.57186 -2.39426,-1.57688 -3.00419,-2.23338 -2.63163,-2.83258 -4.89916,-8.48695 -6.3197,-15.75896 -1.39455,-7.13897 -3.8272,-26.84289 -4.03441,-32.67787 -0.5036,-14.18111 2.43963,-25.90809 7.15357,-28.50262 4.67148,-2.57115 10.91139,4.47193 15.99083,18.04909 1.74818,4.67281 3.05764,10.48803 5.04451,22.4022 2.79551,16.76313 3.34054,23.26186 2.4071,28.70119 -0.49696,2.89592 -2.13289,6.4843 -3.51666,7.71372 -1.48629,1.32052 -1.73718,1.85131 -1.29279,2.73508 0.51128,1.01681 0.91616,0.93697 2.55756,-0.50434 3.42277,-3.00554 5.04424,-8.11378 5.04424,-15.89126 0,-5.9691 -0.48754,-10.02463 -2.91004,-24.20697 -1.03449,-6.05633 -1.80592,-11.14061 -1.71429,-11.2984 0.0916,-0.15779 1.93283,-1.86247 4.09158,-3.78816 2.15874,-1.92568 5.45449,-4.96174 7.32388,-6.74679 14.68038,-14.01798 30.9194,-23.10584 44.23029,-24.75268 5.73425,-0.70945 10.5473,0.42064 13.13283,3.08356 l 1.11419,1.14752 -1.57499,1.79213 c -3.79184,4.31462 -5.68718,12.41195 -6.42575,27.45225 l -0.4042,8.23122 -2.78394,3.96781 c -3.90479,5.56531 -8.30747,10.76606 -13.16102,15.54675 -2.28768,2.25333 -7.41725,7.38377 -11.39903,11.40098 -15.4731,15.61074 -23.91046,21.86171 -32.00927,23.71464 l -2.86433,0.65533 -0.0709,2.71153 c -0.0751,2.87363 -0.51712,3.91445 -2.19576,5.17009 -1.09037,0.81561 -2.25585,1.02944 -3.86356,0.70881 z M 33.5023,525.42403 c -0.609786,-0.39573 -1.440851,-1.41247 -1.846815,-2.25943 -0.699776,-1.45993 -0.722927,-1.81875 -0.445716,-6.90789 0.160823,-2.95238 0.266233,-5.71615 0.234246,-6.14172 -0.03199,-0.42558 -0.769551,-1.90275 -1.639038,-3.28263 -4.154642,-6.59341 -4.703709,-13.07396 -1.673799,-19.75561 3.46554,-7.64232 8.22262,-12.45606 27.696249,-28.02617 12.184417,-9.74203 17.722776,-13.34576 25.630485,-16.67737 12.586872,-5.30301 24.760398,-5.3856 28.597218,-0.19403 l 0.71012,0.96087 -1.71957,1.64552 c -4.25204,4.06893 -6.90068,14.06384 -6.90311,26.04957 l -0.001,4.79985 -1.95429,2.55318 c -4.330014,5.65697 -10.992293,11.97363 -28.21192,26.74841 -11.691087,10.03118 -20.163867,14.0613 -27.519781,13.08991 -2.644581,-0.34923 -3.108501,0.009 -3.109361,2.39955 -0.0017,4.41397 -4.412788,7.22469 -7.84395,4.99799 z M -9.2579878,504.2164 c -7.7682332,-1.75467 -13.7603052,-8.05912 -17.3791272,-18.28515 -2.9429,-8.31601 -4.634796,-18.66089 -5.62906,-34.41818 -0.631116,-10.00201 -0.608335,-36.9707 0.03742,-44.30198 0.284975,-3.23533 0.518137,-7.12325 0.518137,-8.63981 0,-1.52607 0.168661,-2.92156 0.377698,-3.12503 0.207735,-0.20221 0.719175,-2.61465 1.136539,-5.36097 2.659987,-17.50327 8.68687,-33.64029 15.516649,-41.5459 l 1.702545,-1.97074 7.1642202,-0.30776 c 3.9403191,-0.16927 7.2453359,-0.22143 7.3444798,-0.1159 0.099144,0.10552 -0.293715,0.98401 -0.87302392,1.95218 -5.05791428,8.45312 -9.63735968,22.62101 -11.97712408,37.05485 -1.941627,11.97775 -2.084744,14.38027 -2.080557,34.92687 0.0039,19.04424 0.212526,24.07299 1.411006,34.00775 2.20138,18.24822 7.3695333,31.41737 14.9593547,38.11844 2.0610582,1.81972 7.9134813,5.26441 8.9440603,5.26441 0.791345,0 0.408897,0.68451 -1.224919,2.19237 -4.6853523,4.32413 -12.7831144,6.17299 -19.9482978,4.55455 z M 15.267193,495.62736 C 0.49330681,492.29366 -7.1088014,478.20549 -9.9260089,448.93951 -11.304897,434.61519 -11.515092,406.54475 -10.31969,396.36537 -7.8024633,374.93013 -2.8181729,357.91013 4.0634339,347.25094 l 0.9707239,-1.50359 6.4982192,-0.24172 c 3.574017,-0.13294 11.270568,-0.24218 17.103443,-0.24275 l 10.605227,-10e-4 1.001505,1.56252 c 4.483752,6.99541 8.740467,17.95201 11.24827,28.95254 3.578562,15.69744 4.78973,31.64487 4.072296,53.61988 -0.36899,11.30207 -0.928524,19.89231 -1.703837,26.15798 l -0.249905,2.01961 -3.799676,3.04793 c -11.486789,9.21418 -18.286119,15.83293 -21.566151,20.99336 -2.78442,4.38069 -4.291717,8.73308 -4.599156,13.28026 l -0.087,1.28678 -2.590688,0.0731 c -1.500792,0.0423 -3.89856,-0.22204 -5.699513,-0.62842 z M 194.71552,483.18475 c 0,-0.18693 0.30571,-0.73044 0.67936,-1.20781 l 0.67936,-0.86794 0.0115,0.81428 c 0.006,0.44785 -0.2994,0.99136 -0.67937,1.2078 -0.38654,0.22018 -0.69085,0.24382 -0.69085,0.0537 z m 55.95886,-2.48186 c -6.09682,-0.71618 -8.35766,-1.05762 -12.13015,-1.83188 -4.7077,-0.96619 -12.00328,-3.25897 -12.57537,-3.95202 -0.19417,-0.23525 -1.03908,-2.58949 -1.87757,-5.23165 l -1.52453,-4.80393 1.92605,-3.10057 c 7.73422,-12.4506 8.87253,-24.73675 3.42113,-36.92449 -2.88297,-6.44546 -6.79804,-10.27139 -11.52318,-11.26082 -1.17513,-0.24607 -1.96166,-0.59141 -1.89108,-0.83031 0.23307,-0.78885 5.95646,-3.55862 8.5407,-4.13316 1.95733,-0.43516 3.77294,-0.52735 7.42664,-0.37709 7.21589,0.29675 11.92821,1.60424 23.4889,6.51728 9.22516,3.92049 15.268,5.72157 27.6623,8.2448 13.34909,2.71762 17.03971,4.13572 20.1304,7.73505 1.31777,1.5346 1.94468,2.66773 2.49567,4.51074 0.83257,2.78496 1.2247,8.26936 0.85437,11.94986 l -0.24156,2.40082 -4.20696,2.87625 c -4.3173,2.95171 -6.06449,4.32322 -24.75973,19.43585 l -10.88089,8.79577 -6.56307,0.0608 c -3.6097,0.0334 -7.10712,-0.003 -7.77207,-0.0813 z M 132.37367,470.19417 c -0.0881,-0.2653 -0.53971,-1.77464 -1.00367,-3.35409 l -0.84355,-2.87173 0.91992,-0.39722 c 6.26396,-2.70479 8.70585,-5.57368 10.52807,-12.36905 0.70691,-2.63617 0.75595,-3.60418 0.77584,-15.31419 0.0117,-6.87508 0.0505,-13.43449 0.0864,-14.57647 l 0.0651,-2.07633 2.72945,1.94448 c 5.25503,3.74372 9.42312,4.79421 18.85962,4.75323 5.14156,-0.0223 7.49828,-0.20421 10.88089,-0.83975 6.48414,-1.21827 14.74415,-3.46887 22.36617,-6.0941 7.60795,-2.62039 11.10105,-3.31029 15.601,-3.08131 5.263,0.26782 8.31036,2.38016 11.36764,7.87969 2.7955,5.02863 4.4896,12.63331 4.04483,18.1568 -0.32501,4.03656 -1.44878,8.58087 -3.00018,12.1325 -1.55568,3.56141 -3.75334,7.34667 -4.26522,7.34642 -0.18998,-9e-5 -0.94279,-1.39073 -1.6729,-3.0903 -3.7587,-8.74957 -8.52584,-14.93448 -12.35744,-16.03261 -0.84001,-0.24074 -1.98564,-1.09 -3.16798,-2.34842 -3.43679,-3.65793 -6.92963,-4.82088 -13.54451,-4.50967 -10.95777,0.51552 -25.19107,7.02461 -38.33604,17.53162 -2.1503,1.71877 -7.15054,6.14121 -11.11165,9.82765 -8.35276,7.77354 -8.69744,8.05877 -8.92177,7.38285 z m 231.42743,-7.97948 c -1.57836,-0.25538 -1.61286,-0.47002 -0.64526,-4.01258 0.6227,-2.27987 0.65748,-2.25402 1.97376,1.4681 0.77672,2.19628 0.84691,2.97356 0.25468,2.82022 -0.11081,-0.0287 -0.82325,-0.15277 -1.58318,-0.27574 z m -235.8673,-4.60358 c -2.06562,-4.64115 -4.36829,-8.35474 -6.7569,-10.89703 -2.08375,-2.21783 -4.95929,-4.02464 -6.40522,-4.02464 -0.59769,0 -1.50862,-0.68774 -2.95181,-2.22857 -3.29637,-3.51939 -6.58165,-4.74559 -12.732837,-4.75244 -4.722589,-0.005 -9.193184,0.87866 -15.08025,2.98165 -5.394244,1.92694 -13.488424,6.165 -18.466528,9.66894 -2.177273,1.53252 -4.063298,2.7864 -4.191171,2.7864 -0.272606,0 -0.490248,-0.76395 -1.179377,-4.13978 -0.949457,-4.65105 -1.592396,-11.46986 -1.793596,-19.02225 -0.219822,-8.25135 0.120356,-13.20023 1.456834,-21.19398 0.70703,-4.2289 2.472318,-12.19573 2.788174,-12.58319 0.06146,-0.0754 1.63411,0.33821 3.49478,0.91912 3.263448,1.01887 3.63944,1.05559 10.636957,1.03884 6.503532,-0.0155 7.701111,-0.11856 11.576791,-0.99564 10.630791,-2.40579 20.469923,-6.14628 34.450103,-13.0967 2.8967,-1.44014 5.43089,-2.61843 5.63154,-2.61843 0.20065,0 1.48349,0.88219 2.85076,1.96042 5.01022,3.95107 7.83167,8.19532 9.09972,13.68852 0.71186,3.0838 0.76914,12.8361 0.13048,22.21915 -0.27615,4.05713 -0.33328,9.59741 -0.17251,16.72813 0.2027,8.99009 0.15259,11.20955 -0.3196,14.15458 -1.01072,6.30395 -3.37217,10.12681 -7.48098,12.1107 -2.67207,1.29017 -2.85606,1.18168 -4.58536,-2.7038 z m 260.93134,-5.40382 c -3.73332,-4.2164 -3.92282,-4.50442 -3.56769,-5.42286 0.20629,-0.53348 0.92484,-2.2935 1.59683,-3.91117 6.86671,-16.53034 6.53209,-43.30705 -1.01997,-81.61858 -0.67762,-3.43754 -2.38236,-11.40805 -3.78835,-17.71224 -1.40598,-6.30419 -3.81041,-17.47159 -5.34317,-24.81646 C 369.8222,285.56331 365.64694,271.48559 360.2,262.9485 c -0.78832,-1.23555 -1.26035,-2.24645 -1.04898,-2.24645 0.79206,0 7.50021,2.97709 9.30855,4.13116 7.12111,4.54463 12.024,18.63393 20.37583,58.55338 1.73452,8.29054 4.00873,18.8789 5.05377,23.52968 7.77801,34.61451 10.5877,55.25213 10.03564,73.71409 -0.3856,12.89612 -2.08602,21.42822 -5.7885,29.04445 -1.49627,3.07803 -4.23563,6.98538 -4.89726,6.98538 -0.23713,0 -2.2054,-2.00381 -4.37391,-4.4529 z m -332.186738,0.59256 c 0.116881,-1.11215 0.309031,-2.93959 0.427001,-4.06098 0.117966,-1.12139 0.280416,-1.96872 0.360997,-1.88296 0.08058,0.0858 0.457802,1.54096 0.83827,3.23377 l 0.691759,3.07782 -0.966399,0.82539 c -0.531523,0.45396 -1.100894,0.82621 -1.265272,0.82721 -0.164381,10e-4 -0.203241,-0.90811 -0.08636,-2.02025 z m 251.064558,-8.51268 c 0.0588,-2.14309 0.24021,-3.59876 0.4447,-3.56819 0.18998,0.0284 0.85061,0.16562 1.46805,0.30494 1.70112,0.38388 1.44626,-0.5916 -0.55426,-2.12131 -1.3949,-1.06663 -1.74703,-1.57874 -2.09404,-3.04559 -0.7075,-2.99044 -2.12509,-5.57998 -4.21771,-7.70442 -3.40323,-3.455 -7.76498,-5.13551 -19.11341,-7.36412 -6.64584,-1.3051 -17.46265,-3.9984 -18.58545,-4.62762 -0.6892,-0.38623 -2.32651,-2.9923 -2.32672,-3.70344 -1.4e-4,-0.36437 1.31742,-0.43889 6.00135,-0.33944 9.66592,0.20524 12.7923,-0.6522 16.80862,-4.60985 6.16363,-6.07362 8.96489,-14.86123 8.9679,-28.13257 0.003,-10.70273 -1.84716,-22.49505 -6.09351,-38.8506 -0.22601,-0.8705 -0.21385,-0.87472 1.76091,-0.61212 8.74119,1.16242 16.87581,7.59122 25.94315,20.50289 8.30937,11.83239 12.65938,21.39492 14.16395,31.13636 0.86228,5.58287 0.53375,13.03464 -1.03265,23.42263 -0.67434,4.4722 -1.61372,11.57498 -2.08747,15.78396 -0.47375,4.20898 -0.98077,7.77171 -1.12671,7.91719 -0.14591,0.14548 -2.0378,1.03248 -4.20414,1.9711 -2.16636,0.93862 -6.12842,2.8989 -8.8046,4.35617 -2.67619,1.45728 -4.98984,2.7068 -5.14148,2.77672 -0.15165,0.0699 -0.23106,-1.50179 -0.17648,-3.49269 z m 72.55906,-0.91414 c -1.28616,-1.24168 -3.54317,-3.23444 -5.01554,-4.42833 -1.47238,-1.1939 -2.67705,-2.34237 -2.67705,-2.55215 0,-0.20978 0.47983,-1.54504 1.06633,-2.96724 5.28062,-12.80557 4.48103,-33.2558 -2.43369,-62.24405 -1.58899,-6.66142 -2.49691,-10.08815 -8.45487,-31.91147 -1.54968,-5.67629 -4.12296,-16.77664 -6.4086,-27.6448 -6.88774,-32.75107 -9.87277,-43.74949 -14.46934,-53.31268 -0.87472,-1.81987 -1.65075,-3.45534 -1.72446,-3.63437 -0.37817,-0.91825 8.08042,2.07353 12.43323,4.39759 3.1243,1.66815 5.34331,4.40314 7.88208,9.71484 4.5231,9.46354 7.58101,20.67076 13.84332,50.73588 1.53732,7.3806 3.5546,16.72814 4.48286,20.7723 7.77079,33.85499 10.71174,55.2422 10.26141,74.62346 -0.24764,10.65811 -0.95389,15.93947 -3.07404,22.98796 -0.97334,3.23576 -2.83933,7.72068 -3.21229,7.72068 -0.0885,0 -1.21316,-1.01593 -2.49935,-2.25762 z m -23.1307,-7.16296 c -3.81184,-1.9195 -10.08952,-2.47892 -16.34099,-1.45618 -1.61486,0.26419 -2.99898,0.42262 -3.07587,0.35206 -0.0769,-0.0706 0.5742,-0.79713 1.44674,-1.61462 7.68022,-7.19537 11.12217,-21.40354 9.5728,-39.51569 -1.28571,-15.0297 -4.59067,-30.40717 -12.95873,-60.29481 -3.04886,-10.88947 -3.84603,-14.27154 -7.79914,-33.08862 -7.3532,-35.00193 -10.88638,-47.12831 -16.41626,-56.34256 -0.75382,-1.25607 -0.99558,-1.93017 -0.69223,-1.93017 0.7923,0 9.84195,2.81529 14.1549,4.40349 9.32896,3.43532 11.26092,5.22091 15.28423,14.12619 3.93017,8.69921 7.34052,21.50207 13.26391,49.79401 4.14582,19.80187 4.57125,21.57989 8.6349,36.08928 6.84525,24.44102 9.92461,38.22295 11.62369,52.02266 0.8343,6.77593 0.84035,20.1082 0.0111,24.63263 -0.93264,5.08913 -2.77739,10.79753 -3.68154,11.39229 -0.21734,0.14296 -1.2017,-0.11645 -2.18751,-0.57647 -3.49407,-1.63052 -6.779,-0.85113 -7.83358,1.85861 -0.51216,1.31609 -0.67113,1.32391 -3.00651,0.1479 z m -27.90607,-1.8847 c 0.54263,-5.00705 1.92744,-15.4258 2.77318,-20.86421 1.22294,-7.86405 1.5084,-16.86257 0.70595,-22.25502 -1.20523,-8.09908 -4.84784,-17.08882 -10.70297,-26.41419 -4.23888,-6.75122 -7.90906,-11.62361 -12.09309,-16.05439 -6.40442,-6.78213 -12.01747,-10.16971 -18.63108,-11.24423 -3.84991,-0.6255 -3.78331,-0.56699 -4.81699,-4.23292 -0.50498,-1.79085 -2.79415,-9.54293 -5.08708,-17.22684 -3.13715,-10.51301 -5.1525,-18.20194 -8.14287,-31.06654 -2.18565,-9.40268 -4.52393,-19.24654 -5.19617,-21.87525 -4.18485,-16.36461 -7.88653,-26.74636 -11.65415,-32.68527 -0.8855,-1.39583 -1.52765,-2.62551 -1.42702,-2.73262 0.28625,-0.30467 7.63714,0.5948 13.23147,1.61902 14.49372,2.65354 30.79233,7.63963 36.59613,11.19552 2.50554,1.53511 4.57153,4.45222 7.15544,10.10321 4.4325,9.69391 7.16129,19.81235 13.45562,49.89449 4.08894,19.54198 4.55084,21.47003 9.00948,37.60651 7.18284,25.99595 9.96382,38.66913 11.61744,52.94179 0.66712,5.75813 0.56481,17.99802 -0.18735,22.40955 -1.45221,8.51754 -4.45564,14.81214 -8.92914,18.71371 -1.45469,1.26871 -6.76512,4.28167 -7.54657,4.28167 -0.23371,0 -0.27921,-0.73904 -0.13023,-2.11399 z m 76.74202,-5.17917 c 0.58564,-5.99221 0.54861,-18.88918 -0.0761,-26.53075 -1.24789,-15.26353 -3.73401,-29.92097 -9.32282,-54.96387 -1.3989,-6.26846 -3.7842,-17.35314 -5.30065,-24.63264 -6.38321,-30.64208 -9.36392,-41.0989 -15.16952,-53.21752 -0.30269,-0.63192 1.05048,-0.18588 3.67053,1.20988 4.19366,2.23406 6.77706,5.82013 9.89017,13.72878 3.64589,9.26206 6.75676,21.23871 11.90038,45.81571 1.71396,8.18943 3.66641,17.37153 4.33881,20.40465 1.28861,5.81288 2.94057,17.22642 3.69826,25.55176 0.61034,6.70612 0.60564,29.95479 -0.007,35.84601 -0.80591,7.74658 -3.12112,20.47083 -3.80676,20.92186 -0.12877,0.0847 -0.0455,-1.77555 0.18494,-4.13387 z m -248.07952,-5.96258 c -5.19195,-0.74834 -9.69941,-2.73721 -12.81077,-5.65262 l -1.69708,-1.59022 -0.0145,-9.69579 c -0.012,-8.02953 -0.11643,-10.07489 -0.60772,-11.9017 -0.73365,-2.72793 -1.51737,-4.71376 -2.59974,-6.58725 -0.70162,-1.21447 -0.79918,-1.73729 -0.62258,-3.33652 0.2813,-2.54752 1.733,-8.5784 2.85678,-11.86817 0.86423,-2.52994 1.0458,-2.77568 3.36858,-4.55903 3.57238,-2.74276 7.91925,-6.68153 10.73344,-9.72579 2.34305,-2.5346 2.58932,-2.69665 5.208,-3.42703 4.9442,-1.37898 10.31817,-1.857 20.87316,-1.85667 15.37828,3.7e-4 20.40191,0.75591 23.4414,3.525 1.23512,1.12524 2.04947,2.59526 4.91119,8.86547 1.88681,4.1341 4.90553,10.2877 6.70827,13.67467 3.76658,7.07661 6.14629,12.33578 6.7035,14.81474 1.12424,5.00163 -0.18151,8.40294 -4.57825,11.92575 -7.2277,5.79106 -30.78746,14.45682 -45.81143,16.85039 -4.53513,0.72252 -12.8682,1.00515 -16.06226,0.54477 z m 253.37209,-3.01282 c 0,-0.45497 0.23665,-2.71149 0.52253,-5.01449 2.24111,-18.05589 0.71199,-45.76256 -3.60838,-65.38139 -0.56888,-2.5833 -2.29432,-10.73557 -3.83426,-18.11617 -6.24604,-29.9356 -9.53283,-42.03057 -14.01227,-51.5631 -1.29627,-2.75854 -1.70757,-3.95225 -1.36184,-3.95225 0.63206,0 6.33337,2.20366 8.81985,3.40902 2.58063,1.251 3.90119,2.37901 5.75733,4.91786 4.74708,6.49306 9.48279,21.488 14.96116,47.37229 1.3695,6.47066 3.4013,16.06636 4.51505,21.32378 2.31075,10.90762 2.92399,16.15446 2.5997,22.2429 -0.63168,11.85949 -3.44458,23.23813 -8.54336,34.55922 -2.23656,4.96599 -5.3583,11.02954 -5.67841,11.02954 -0.077,0 -0.13865,-0.37225 -0.1371,-0.82721 z m -151.81712,-4.85689 c -1.70985,-0.66014 -5.05184,-2.03086 -7.42664,-3.04604 -9.73487,-4.16148 -15.83276,-5.70015 -22.79805,-5.7526 -2.90365,-0.0219 -5.35457,0.1531 -6.49537,0.46369 -1.00767,0.27435 -1.89945,0.42716 -1.98173,0.33958 -0.0823,-0.0876 0.72079,-0.95904 1.78461,-1.93657 l 1.93423,-1.77734 6.09246,1.54257 c 9.54869,2.41766 16.9822,3.83661 28.24057,5.39074 1.37718,0.19011 1.46367,0.28481 2.70869,2.96606 0.70736,1.52332 1.23299,2.82379 1.16809,2.88992 -0.0649,0.0661 -1.517,-0.41988 -3.22686,-1.08001 z m -50.08663,-1.86079 c 2.29509,-1.15074 3.03548,-1.14263 1.79422,0.0197 -0.6784,0.63523 -1.35205,0.89833 -2.24527,0.87691 l -1.27608,-0.0306 1.72713,-0.86596 z m 210.1048,0.27661 c -0.52246,-0.0735 -0.94992,-0.26387 -0.94992,-0.42311 0,-0.15924 0.68021,-1.84405 1.51158,-3.74401 7.38239,-16.87153 9.89947,-35.62574 6.79199,-50.60576 -0.34605,-1.66821 -0.49776,-3.03312 -0.3371,-3.03312 0.55344,0 2.80516,3.49933 4.14002,6.4339 1.45127,3.19047 2.80593,8.21536 3.469,12.86779 0.53938,3.78462 0.539,12.76378 0,16.54431 -2.01458,14.11156 -7.87372,22.9094 -14.62488,21.96 z M 260.40193,409.0305 c -5.49789,-0.57965 -12.38425,-1.67369 -18.53589,-2.9448 -4.8023,-0.9923 -15.04056,-3.4479 -15.43929,-3.70303 -0.13233,-0.0847 -0.0159,-0.83223 0.25907,-1.66124 0.71607,-2.16014 0.62135,-5.69723 -0.2313,-8.63723 -0.87319,-3.01094 -2.44703,-6.40434 -6.62536,-14.28522 -1.71533,-3.23533 -4.66364,-9.26016 -6.55178,-13.38851 -4.77841,-10.44774 -6.35702,-12.02172 -13.29413,-13.25505 -1.37738,-0.24489 -2.50433,-0.52011 -2.50433,-0.61163 0,-0.0915 0.60368,-1.02786 1.3415,-2.08077 2.43462,-3.47435 3.60596,-6.68314 4.21355,-11.54276 0.73219,-5.85611 -0.31777,-12.67355 -4.34924,-28.23972 -5.30547,-20.48529 -6.71623,-28.11995 -7.48925,-40.52988 -0.36292,-5.82637 -0.33703,-7.87583 0.1974,-15.62518 0.88352,-12.81125 1.07678,-21.4321 0.59113,-26.36884 -0.43514,-4.42324 -1.41677,-9.45986 -2.26466,-11.61972 -0.45412,-1.1568 -0.45064,-1.31764 0.0327,-1.51507 0.89836,-0.36691 11.40688,0.16359 16.01703,0.80859 14.11229,1.97443 33.39729,7.115 41.33388,11.01788 4.33798,2.13324 7.27828,5.82268 10.43374,13.09209 3.58879,8.26774 6.64729,19.08984 12.35533,43.71776 4.50711,19.44621 4.91298,21.00069 9.16765,35.1107 9.37118,31.07818 12.46152,45.33018 12.95445,59.74333 0.47827,13.98379 -2.17532,23.3933 -8.24257,29.22801 -2.1987,2.11443 -3.84835,2.94991 -6.84698,3.46771 -2.96206,0.51148 -10.78538,0.42747 -16.52269,-0.17742 z m -348.158911,-5.03636 c 0.08752,-0.25276 0.505426,-1.57631 0.928682,-2.94121 0.469011,-1.51246 0.960913,-2.48165 1.259532,-2.48165 0.269486,0 0.489975,0.23274 0.489975,0.51721 0,0.90704 -2.027899,5.36521 -2.440485,5.36521 -0.218256,0 -0.325223,-0.2068 -0.237704,-0.45956 z m 145.554132,-2.67969 c -0.118464,-0.32857 -0.218423,-1.20428 -0.222129,-1.94602 -0.0037,-0.74174 -0.233065,-3.15876 -0.509682,-5.37115 -0.276616,-2.21239 -0.444296,-4.08494 -0.372624,-4.16123 0.09902,-0.10539 2.837654,1.93683 3.600124,2.68463 0.11646,0.11422 -1.989448,9.0658 -2.183967,9.28341 -0.05298,0.0593 -0.193262,-0.16107 -0.311722,-0.48964 z M -63.084224,394.4352 c -0.459567,-2.62506 -0.464804,-3.10519 -0.03894,-3.56884 0.791299,-0.8615 1.106348,-0.0832 1.370225,3.38502 0.208568,2.74121 0.16749,3.21695 -0.277756,3.21695 -0.381277,0 -0.666059,-0.81989 -1.053529,-3.03313 z m 15.299399,0.36766 c -0.457989,-0.65718 -3.923577,-5.91 -7.701301,-11.67293 -3.777724,-5.76294 -7.109197,-10.76759 -7.403274,-11.12145 -0.892841,-1.07436 -1.227202,-0.7586 -1.007039,0.95102 0.260686,2.02428 -0.413598,3.18505 -1.850173,3.18505 -1.244804,0 -1.75985,-0.77704 -2.94231,-4.43904 -0.627955,-1.94474 -0.825483,-3.15323 -0.686611,-4.20076 0.175845,-1.32645 0.100349,-1.52748 -0.770167,-2.05079 -0.70551,-0.42412 -1.357096,-1.52772 -2.422307,-4.10272 -0.801449,-1.93739 -1.457183,-4.01485 -1.457183,-4.61657 0,-0.74921 -0.26138,-1.2763 -0.829321,-1.67238 -0.456126,-0.31809 -1.585798,-2.03292 -2.510383,-3.81071 -0.924582,-1.77779 -1.9115,-3.66587 -2.193149,-4.19573 -0.281646,-0.52987 -1.641418,-2.54899 -3.021713,-4.48694 -1.380294,-1.93796 -2.623826,-3.84144 -2.763401,-4.22995 -0.139575,-0.38852 -1.456182,-1.89916 -2.925793,-3.35698 l -2.67202,-2.65058 -1.73215,0.61235 c -0.993877,0.35135 -1.732149,0.83444 -1.732149,1.13342 0,0.2866 0.544044,1.32708 1.208987,2.31219 0.664944,0.9851 1.208988,2.07384 1.208988,2.41941 0,0.34557 0.589526,1.24954 1.310058,2.0088 1.870158,1.9707 4.598615,6.78539 4.814057,8.49498 0.125372,0.99486 0.4468,1.62586 1.038361,2.0384 0.505094,0.35225 1.491099,2.02273 2.40211,4.06964 1.32189,2.97009 1.511967,3.68232 1.31458,4.92582 -0.20645,1.3006 -0.124971,1.54843 0.773732,2.35329 1.779647,1.59383 2.851366,8.25709 1.532413,9.52753 -0.824143,0.79383 -2.236524,0.77671 -2.880718,-0.0349 -0.7316,-0.92176 -2.359419,-6.51351 -2.361999,-8.11375 -0.0017,-1.10413 -0.184619,-1.46372 -0.993128,-1.9532 -1.200026,-0.72652 -4.163908,-5.47486 -4.634865,-7.42537 -0.222746,-0.92253 -0.608468,-1.51628 -1.119324,-1.723 -0.93459,-0.3782 -4.781825,-5.13287 -5.722091,-7.07175 -0.367732,-0.75828 -0.834339,-1.37869 -1.036905,-1.37869 -0.608111,0 -4.826877,-4.47377 -5.893827,-6.25007 -1.07431,-1.78856 -2.43905,-2.96892 -5.57626,-4.82287 -4.62047,-2.73049 -7.95321,-8.78975 -9.44756,-17.17661 -0.73521,-4.12634 -0.97502,-9.66488 -0.51962,-12.00114 0.19785,-1.01496 0.61652,-3.25165 0.93039,-4.97042 1.17023,-6.40829 4.60047,-16.17805 8.67381,-24.70412 6.1465,-12.86549 13.814838,-24.07137 23.607158,-34.49755 15.064221,-16.03934 33.37957,-27.80492 55.102579,-35.39728 17.501653,-6.11696 34.9338678,-10.85328 46.459673,-12.62307 13.367802,-2.05262 21.583247,0.70202 25.154998,8.43447 1.678068,3.63284 2.772824,8.319 3.880325,16.60998 1.545232,11.56788 2.794707,16.5764 7.293451,29.23579 2.820551,7.93698 3.500783,10.66618 3.527919,14.15457 0.02791,3.58664 -0.955225,6.17126 -3.40975,8.96419 -5.018729,5.71066 -20.067722,13.47743 -33.974058,17.53397 -16.0045184,4.66859 -30.788632,5.6423 -45.906029,3.02344 -2.515051,-0.43569 -4.691229,-0.66379 -4.835952,-0.50688 -0.392869,0.42595 1.863216,2.30151 4.328273,3.59822 1.195385,0.62882 2.050312,1.25473 1.899838,1.3909 -0.150474,0.13618 -0.915773,0.44169 -1.700666,0.67892 -0.784895,0.23723 -1.617857,0.67598 -1.851025,0.97502 -0.350628,0.44965 -0.269397,0.60623 0.469664,0.9053 1.56254,0.6323 4.778054,1.44004 8.162529,2.05044 4.122223,0.74344 17.4099869,1.19473 17.7536158,0.60295 0.2827131,-0.48687 0.018031,-0.55658 -5.8364506,-1.53715 -7.0747132,-1.18496 -13.6442902,-2.96701 -13.6442902,-3.70112 0,-0.42679 -0.282565,-0.41434 11.226315,-0.49488 7.9892499,-0.0559 10.5432745,-0.20854 14.6805654,-0.87726 5.1307437,-0.8293 12.9523936,-2.65125 18.4802416,-4.30472 2.888006,-0.86385 3.82035,-0.94591 13.126153,-1.15535 10.713563,-0.24111 15.551897,0.0567 22.625343,1.39288 4.734099,0.89425 11.249848,3.05421 11.526289,3.82095 0.108062,0.29973 0.601702,0.54497 1.096973,0.54497 1.616475,0 5.703369,2.88681 8.842796,6.24617 2.392966,2.56061 3.264674,3.80892 4.390242,6.287 1.690527,3.7219 2.710885,8.05119 3.017778,12.80416 0.548632,8.49684 -2.215017,13.45964 -9.634976,17.30192 -9.232718,4.78098 -23.00245,6.59292 -50.500072,6.64525 -6.649433,0.0127 -15.276424,0.17484 -19.1710918,0.3604 -13.9094561,0.66273 -29.3474322,0.84224 -33.3335202,0.38759 -12.829367,-1.4633 -19.187271,-6.00608 -21.113821,-15.08603 -0.306686,-1.44542 -0.47441,-2.71658 -0.372727,-2.82481 0.101682,-0.10823 2.357999,0.55915 5.014035,1.48306 9.189319,3.19653 20.582771,6.03106 30.422059,7.56858 5.15624,0.80574 6.9486715,0.91166 6.9486715,0.41064 0,-0.46979 0.7114616,-0.21099 -21.7617795,-7.91604 l -20.552792,-7.04662 0.06243,-2.3169 c 0.03433,-1.27429 0.139216,-2.39863 0.233075,-2.49853 0.09386,-0.0999 2.397385,0.40614 5.118951,1.12453 13.498577,3.56312 26.703165,5.37394 39.2113527,5.37728 5.0076032,0.001 6.6394396,-0.25595 5.6695862,-0.89392 -0.1763602,-0.11601 -10.5571956,-2.4308 -23.0685199,-5.14399 -26.217362,-5.68545 -24.640227,-5.30886 -24.866975,-5.93777 -0.09625,-0.26696 0.391167,-1.39323 1.083146,-2.50282 l 1.258145,-2.01744 1.380644,0.51846 c 2.011932,0.75553 9.126303,2.30637 14.298249,3.11685 6.654707,1.04283 12.979147,1.52713 20.7818055,1.5914 6.22435611,0.0513 7.8575431,-0.0981 7.32063513,-0.66956 -0.0906637,-0.0965 -2.96526353,-0.5116 -6.38799773,-0.92243 -10.8809699,-1.30607 -19.5265139,-3.16637 -28.5455869,-6.14228 -2.282061,-0.75299 -4.015642,-1.5162 -3.949065,-1.73857 0.06527,-0.21801 1.770072,-1.27668 3.788439,-2.3526 3.894312,-2.07592 4.245347,-2.60879 2.214483,-3.36153 -0.602218,-0.22322 -1.674511,-0.81383 -2.382877,-1.31247 -0.708367,-0.49865 -1.563294,-0.90599 -1.899838,-0.9052 -0.707707,10e-4 -7.123608,5.33564 -7.278898,6.05146 -0.06116,0.28192 0.685061,0.82709 1.813482,1.32489 1.054572,0.46522 1.901586,0.93949 1.882256,1.05394 -0.01934,0.11445 -0.770916,0.90902 -1.670193,1.76572 l -1.635045,1.55763 -2.669348,-0.95524 -2.669349,-0.95524 -1.963178,1.62253 c -2.427064,2.00592 -2.616616,2.69616 -0.944607,3.43972 0.685866,0.30502 2.093131,0.95284 3.127251,1.4396 l 1.880225,0.88503 -0.596339,1.72375 c -0.327984,0.94807 -0.770536,1.79561 -0.983449,1.88342 -0.212913,0.0878 -2.532484,-0.60321 -5.154602,-1.53562 l -4.767485,-1.69529 -1.408474,1.08444 c -0.774664,0.59645 -1.45892,1.35085 -1.520568,1.67645 -0.08366,0.44182 1.467369,1.40749 6.114197,3.8067 l 6.226287,3.2147 0.0171,1.95495 c 0.01627,1.85961 -0.02079,1.94275 -0.760108,1.70494 -1.921178,-0.618 -7.713518,-3.0011 -11.686566,-4.80813 -2.390452,-1.08724 -4.588271,-1.97679 -4.884038,-1.97679 -0.295766,0 -0.902433,0.31429 -1.348145,0.69843 l -0.810392,0.69844 1.348336,2.08369 c 1.965914,3.03808 8.555906,10.22158 13.875128,15.12475 2.545572,2.34646 4.628309,4.34513 4.628309,4.44149 0,0.2514 -1.920329,-1.00031 -7.426639,-4.84085 -5.08358,-3.5457 -10.227377,-7.79279 -13.989716,-11.55091 -1.234895,-1.23352 -2.415475,-2.24286 -2.623507,-2.24299 -0.614901,-3.7e-4 -1.621242,1.39899 -1.415814,1.96877 0.104259,0.28918 9.115301,15.80563 20.02453,34.481 10.909232,18.67537 20.022395,34.36882 20.251478,34.87434 0.370351,0.81727 0.328264,0.80074 -0.379768,-0.14918 -0.43795,-0.58757 -10.484611,-15.80834 -22.325914,-33.82392 -11.841303,-18.01559 -21.771117,-32.81329 -22.066251,-32.88379 -0.721455,-0.17233 -2.172931,0.68561 -2.172931,1.28438 0,0.26425 0.310302,1.02215 0.689558,1.68421 0.379259,0.66207 0.690142,1.42653 0.69085,1.69882 6.91e-4,0.27228 0.584197,1.20673 1.296636,2.07655 1.48033,1.80734 4.231457,7.40729 4.231457,8.61317 0,0.44385 0.444745,1.41771 0.988324,2.16413 1.334325,1.83225 3.160922,6.88943 3.158636,8.74509 -0.0014,1.04213 0.21151,1.71106 0.691333,2.17324 0.385419,0.37124 1.170131,2.31455 1.767395,4.37688 0.995322,3.4368 1.752141,4.87014 10.305796,19.5182 9.127429,15.63063 10.170226,17.46343 9.936072,17.46343 -0.06595,0 -0.494624,-0.53769 -0.952616,-1.19486 z m 3.55346,-118.7511 c 2.589814,-1.2662 5.411858,-4.13892 6.676179,-6.79607 0.932706,-1.96021 1.008617,-2.42411 1.008617,-6.16391 0,-3.89806 -0.04221,-4.127 -1.168366,-6.33721 -1.437483,-2.82121 -3.91558,-5.3448 -6.528371,-6.64821 -1.707892,-0.852 -2.419212,-0.98533 -5.256703,-0.98533 -2.955551,0 -3.504583,0.11313 -5.526802,1.13877 -10.928137,5.54261 -10.239622,21.80169 1.113001,26.28321 2.658247,1.04936 6.979825,0.8301 9.682445,-0.49125 z M -84.521307,393.9522 c -0.114004,-0.31621 0.122985,-1.97647 0.526649,-3.68948 0.794446,-3.37137 1.432564,-4.18359 2.581468,-3.28576 0.633648,0.49516 0.623962,0.5986 -0.340281,3.63404 -0.545869,1.71841 -1.159862,3.30252 -1.364429,3.52025 -0.533775,0.56812 -1.162967,0.48784 -1.403407,-0.17905 z m 153.847524,-0.71777 c -4.708731,-1.02403 -8.383677,-2.98778 -11.34492,-6.06227 -1.935506,-2.00952 -2.068575,-2.26417 -2.617921,-5.00985 -1.359694,-6.79586 -3.087638,-13.65661 -4.527863,-17.97776 l -1.54395,-4.63235 v -7.28967 c 0,-8.10357 -0.115607,-7.73599 2.433015,-7.73599 2.689134,0 12.35646,-1.50951 16.488711,-2.57463 13.89347,-3.58118 20.456733,-10.32057 20.456733,-21.00569 0,-5.60892 -1.390827,-12.36324 -3.310009,-16.07453 -0.455905,-0.88162 -0.756373,-1.72787 -0.667713,-1.88056 0.415622,-0.71576 9.724144,-1.8235 15.42651,-1.83579 25.47318,-0.0549 52.63788,10.98474 61.35261,24.93351 3.69529,5.91467 3.89432,12.91027 0.56901,20 -6.28785,13.40606 -26.05284,28.17643 -52.67337,39.3628 -14.036815,5.89849 -23.99399,8.37831 -33.349386,8.30562 -2.445405,-0.019 -5.456562,-0.25428 -6.691457,-0.52284 z m -133.98771,-7.25521 c -0.160105,-0.45496 -0.571205,-2.10002 -0.913556,-3.65567 -0.512138,-2.32719 -0.543361,-2.92989 -0.176188,-3.40077 0.566169,-0.72609 2.297681,-0.74603 2.556042,-0.0294 0.362904,1.00657 0.983387,6.82396 0.786184,7.37093 -0.315622,0.87543 -1.91534,0.67298 -2.252482,-0.28505 z m -17.239389,-2.55517 c -0.451456,-0.48051 -0.545326,-3.58751 -0.191413,-6.33572 0.293065,-2.2757 1.387247,-3.18894 2.713016,-2.26437 0.988148,0.68913 1.08563,1.72125 0.491644,5.20532 -0.572628,3.35877 -1.774687,4.71302 -3.013247,3.39477 z m 216.857862,-2.2001 c -1.04491,-1.00411 -2.3273,-2.09709 -2.84976,-2.42884 -0.52245,-0.33175 -0.94991,-0.71647 -0.94991,-0.85493 0,-0.38876 7.95612,-5.21496 8.18877,-4.96734 0.11297,0.12023 -0.11964,1.42074 -0.5169,2.89002 -0.39726,1.46929 -0.89744,3.61984 -1.1115,4.77901 -0.21406,1.15917 -0.49532,2.17512 -0.62503,2.25765 -0.12971,0.0825 -1.09076,-0.67147 -2.13567,-1.67557 z M 45.718928,353.85031 c -0.920036,-1.97357 -2.454833,-4.88588 -3.410655,-6.47181 -0.955822,-1.58591 -1.679757,-2.9374 -1.608741,-3.00329 0.07101,-0.0659 1.645912,-0.23432 3.499778,-0.37429 2.634847,-0.19892 3.407366,-0.14927 3.538804,0.22749 0.09248,0.26507 0.05238,3.34582 -0.08912,6.84609 l -0.257269,6.36413 z m 116.181212,-2.14162 c 0,-0.1469 0.32,-0.74541 0.71111,-1.33002 1.42322,-2.12734 3.39563,-7.21183 3.96822,-10.2293 1.72909,-9.11216 -2.66967,-17.96512 -12.65239,-25.46429 -1.6943,-1.27278 -3.08054,-2.40252 -3.08054,-2.51053 0,-0.10801 0.93442,-1.24155 2.0765,-2.51898 2.27627,-2.54606 4.51447,-6.98984 5.12044,-10.16631 1.02451,-5.37041 0.87855,-8.94894 -0.9822,-24.08116 -1.85981,-15.1245 -2.08103,-21.24343 -1.318,-36.45557 0.77298,-15.41033 -0.72904,-23.89527 -5.35902,-30.27314 -0.88075,-1.21325 -2.29885,-2.78077 -3.15132,-3.48338 -1.03916,-0.85649 -1.40816,-1.36193 -1.11971,-1.53375 0.90094,-0.53663 13.33589,-1.1467 18.72302,-0.91857 9.91082,0.4197 14.56096,1.64019 17.56762,4.61085 3.46663,3.42514 5.44755,7.91164 6.67228,15.11177 0.78081,4.59034 0.77486,18.14809 -0.0121,27.5041 -1.51646,18.02946 -0.11048,30.95178 5.88775,54.11449 4.96548,19.17467 5.69116,22.88066 5.7233,29.22828 0.0327,6.45904 -1.47431,10.98709 -5.03786,15.13708 l -1.68194,1.9587 -11.1053,0.007 c -10.43483,0.007 -13.91728,0.24002 -19.65457,1.31658 -0.71244,0.13368 -1.29534,0.12287 -1.29534,-0.024 z M 143.59261,308.4767 c -4.78479,-2.38094 -12.7289,-5.30475 -18.34294,-6.75108 -6.43402,-1.65759 -15.92115,-3.15549 -19.98563,-3.15549 -1.67624,0 -1.74074,-0.0381 -1.74074,-1.02942 0,-0.56619 0.18653,-1.22796 0.41451,-1.47061 0.30671,-0.32644 3.57975,-0.44118 12.58553,-0.44118 7.12987,0 12.54058,-0.14955 13.06326,-0.36106 0.49073,-0.19858 1.05259,-0.80993 1.24857,-1.35856 0.68149,-1.9078 -0.2244,-2.53815 -8.26496,-5.75115 -4.79562,-1.91632 -7.18839,-3.04163 -6.89236,-3.24144 0.24941,-0.16834 2.78508,-0.33023 5.63484,-0.35975 2.84976,-0.0295 6.33147,-0.15614 7.73714,-0.28137 2.23218,-0.19886 2.64151,-0.35035 3.23303,-1.19654 0.60465,-0.86495 0.62658,-1.08141 0.20456,-2.01857 -0.42362,-0.94073 -1.2322,-1.33639 -7.78756,-3.81061 -4.02317,-1.5185 -7.40958,-2.8648 -7.52535,-2.99179 -0.2381,-0.26117 3.22339,-0.56348 10.45258,-0.91288 4.14397,-0.20028 5.06911,-0.35262 5.78587,-0.95269 1.06263,-0.88965 1.09301,-2.13875 0.076,-3.12365 -0.42747,-0.41396 -3.93463,-1.86627 -7.79371,-3.22736 -3.85907,-1.3611 -6.92235,-2.57493 -6.80727,-2.69741 0.11507,-0.12248 3.65081,-0.41431 7.8572,-0.64851 7.26412,-0.40443 7.67947,-0.4672 8.27533,-1.2504 0.34505,-0.45353 0.62735,-1.11882 0.62735,-1.47844 0,-1.48855 -1.25124,-2.14706 -9.78852,-5.15158 -4.71874,-1.66066 -8.44933,-3.14906 -8.2902,-3.30754 0.15913,-0.15848 4.17345,-0.9752 8.9207,-1.81494 7.09488,-1.255 8.77048,-1.66589 9.41284,-2.30817 0.99245,-0.99236 0.99152,-1.93366 -0.003,-2.99212 -0.63557,-0.67646 -2.06111,-1.10284 -7.513,-2.24717 -3.70056,-0.77676 -7.03931,-1.53383 -7.41927,-1.68237 -0.64393,-0.25172 -0.6322,-0.28591 0.17271,-0.5033 0.47496,-0.12828 3.95246,-0.79257 7.72778,-1.47621 4.30479,-0.77951 7.05783,-1.44904 7.38346,-1.79563 0.71623,-0.76231 0.65068,-2.39278 -0.12843,-3.19461 -0.45448,-0.46773 -3.2181,-1.22809 -9.26514,-2.54912 -4.73961,-1.03541 -8.67492,-1.94371 -8.74513,-2.01844 -0.18905,-0.20122 1.38636,-0.68929 9.59054,-2.97117 6.04547,-1.68147 7.57117,-2.23589 8.20384,-2.98117 0.98052,-1.15504 0.97946,-1.79565 -0.005,-2.84312 -0.7103,-0.75601 -1.58764,-0.92523 -9.5818,-1.8482 -4.83996,-0.5588 -8.85377,-1.07332 -8.9196,-1.14338 -0.21554,-0.22942 1.05229,-0.77476 8.57512,-3.68849 4.08465,-1.58207 7.77638,-3.20742 8.20385,-3.6119 0.96212,-0.9104 0.99744,-2.21109 0.0864,-3.1808 -0.60975,-0.64899 -1.18756,-0.74107 -4.92231,-0.78437 -2.3273,-0.027 -7.87475,-0.15106 -12.32767,-0.27573 l -8.09622,-0.22668 -0.30003,-1.23519 c -0.16501,-0.67935 -0.20046,-1.34112 -0.0788,-1.4706 0.40538,-0.43133 19.58139,-0.22026 23.47974,0.25845 8.6972,1.06798 12.12314,2.37698 15.31861,5.85296 4.87957,5.30793 6.69403,14.11088 5.9288,28.76386 -0.44108,8.44599 -0.43861,21.58143 0.005,26.65472 0.1945,2.22429 0.90776,8.51113 1.58502,13.97075 2.29819,18.52641 1.57276,23.96382 -4.0032,30.00545 -1.28511,1.39243 -2.47339,2.51428 -2.64063,2.49301 -0.16722,-0.0213 -2.24707,-1.00554 -4.62187,-2.18724 z M 80.715265,297.98844 C 74.8204,291.60658 66.139868,287.65049 54.029106,285.82641 c -2.238939,-0.33723 -3.948793,-0.73137 -3.799676,-0.87589 0.149116,-0.14451 1.825533,-0.96041 3.725371,-1.81311 7.282269,-3.26849 11.872706,-7.01638 14.063924,-11.48261 1.129571,-2.30233 1.134679,-2.33657 1.113046,-7.46007 -0.01928,-4.56387 -0.143407,-5.62621 -1.095471,-9.3751 -4.073716,-16.04081 -4.805416,-19.95336 -5.294196,-28.30915 -0.78608,-13.43819 -1.004955,-15.72005 -1.842708,-19.21115 -1.113533,-4.64035 -2.591576,-7.55261 -5.478973,-10.79547 l -2.334055,-2.6214 0.962562,-0.2049 c 5.011779,-1.06685 27.501708,-1.24232 34.966517,-0.27282 6.514851,0.84613 10.669037,2.36587 13.705113,5.01378 2.15551,1.87993 2.90837,3.22162 3.54467,6.31706 0.31458,1.53034 0.79784,2.91326 1.07392,3.07316 0.27608,0.15989 5.60044,0.39914 11.83192,0.53165 6.23148,0.13251 11.23407,0.34298 11.11687,0.46772 -0.11719,0.12474 -4.89139,2.05537 -10.60932,4.29029 -10.0118,3.91324 -11.84583,4.88015 -10.70029,5.64124 0.2455,0.16311 5.29734,0.84351 11.22631,1.51199 5.92898,0.66848 10.99313,1.33399 11.25367,1.47891 0.28661,0.15941 -0.60023,0.57065 -2.24526,1.04116 -1.49544,0.42773 -6.44208,1.83212 -10.99253,3.12088 -5.60647,1.58783 -8.39028,2.54255 -8.63563,2.96161 -0.25992,0.44394 -0.24611,0.69554 0.0489,0.89173 0.22605,0.15032 5.32477,1.33331 11.33049,2.62888 6.00571,1.29557 10.98221,2.46361 11.05887,2.59564 0.0767,0.13203 -4.85026,1.13644 -10.94874,2.23203 -10.69371,1.92112 -12.60901,2.44062 -11.85163,3.2146 0.18999,0.19414 5.08639,1.36795 10.88089,2.60847 5.79451,1.24051 10.84635,2.3976 11.22632,2.57131 0.65181,0.29799 0.64205,0.32848 -0.17271,0.53968 -0.47496,0.1231 -5.1382,0.97025 -10.36276,1.88254 -5.22455,0.91229 -9.85954,1.82456 -10.29998,2.02728 -0.55054,0.25339 -0.76643,0.61696 -0.69085,1.1634 0.0961,0.69468 1.43744,1.2679 10.64541,4.5493 5.7945,2.06496 10.3023,3.84509 10.01733,3.95584 -0.28498,0.11075 -4.71506,0.39848 -9.84462,0.63939 -10.88547,0.51123 -11.70345,0.62885 -11.85022,1.70394 -0.0965,0.70721 0.77687,1.08656 10.01733,4.35087 5.5677,1.96686 10.27076,3.72088 10.45125,3.89782 0.19527,0.19144 -0.0145,0.32421 -0.51814,0.32787 -0.46546,0.003 -5.34699,0.2499 -10.84784,0.54781 -8.15948,0.44191 -10.09988,0.64805 -10.53547,1.11928 -0.48186,0.52129 -0.47488,0.62425 0.0715,1.05595 0.33298,0.2631 4.76306,2.01605 9.84462,3.89546 5.08155,1.87941 9.62196,3.62105 10.0898,3.8703 0.98727,0.52599 -0.96217,0.68946 -13.97677,1.17197 -7.42342,0.27523 -7.6018,0.30009 -7.70544,1.07414 -0.11869,0.88648 -0.84229,0.55025 12.97999,6.03141 4.83643,1.91786 7.52967,3.16043 7.25392,3.34672 -0.24122,0.16295 -5.59591,0.29882 -11.8993,0.30191 -12.78733,0.006 -12.2767,-0.0984 -12.68219,2.60056 -0.42537,2.83131 -0.32971,2.77983 -5.633378,3.03155 -2.621424,0.12441 -6.476082,0.56126 -8.565903,0.97079 -2.089822,0.40952 -3.881887,0.7471 -3.982368,0.75017 -0.100481,0.003 -1.18857,-1.08339 -2.417976,-2.41436 z M 26.838933,285.97773 c 0.09499,-0.1064 1.989728,-0.94695 4.210524,-1.86789 2.220797,-0.92094 4.551763,-1.95732 5.179926,-2.30305 0.628162,-0.34574 1.679422,-0.60712 2.336133,-0.58084 0.833957,0.0334 2.188531,-0.51784 4.491974,-1.8279 13.825974,-7.86336 17.39542,-14.57887 13.943349,-26.23286 -0.299487,-1.01104 -1.750614,-5.31256 -3.224733,-9.55893 -3.946257,-11.36767 -5.271325,-16.81668 -6.392378,-26.28707 -1.403939,-11.86013 -3.30777,-17.85403 -7.033856,-22.14498 -1.023263,-1.17838 -1.774473,-2.23405 -1.669357,-2.34593 0.239805,-0.25524 6.165848,0.49078 8.02036,1.00967 3.914457,1.09525 7.813698,4.39912 9.728942,8.24343 2.301035,4.61868 3.025799,8.83657 3.565947,20.75258 0.494877,10.91736 1.306018,15.78945 5.049766,30.33123 1.491611,5.79386 1.612019,6.58553 1.649533,10.84572 0.0385,4.37214 -0.0069,4.6914 -0.933785,6.56469 -2.370075,4.79015 -7.252714,8.09979 -18.873197,12.79295 -2.176841,0.87917 -4.534367,1.59848 -5.238948,1.59848 -0.704577,0 -1.332864,0.16014 -1.396194,0.35585 -0.06515,0.20137 -3.039347,0.46275 -6.85093,0.60208 -3.704684,0.13541 -6.658068,0.15917 -6.563076,0.0528 z"
         id="path936" />
    </g>
  </g>
</svg>
