<?xml version="1.0" encoding="UTF-8" standalone="no"?>
<!-- Created with Inkscape (http://www.inkscape.org/) -->

<svg
   version="1.1"
   id="svg824"
   width="8.5in"
   height="11in"
   viewBox="0 0 816 1056"
   sodipodi:docname="Moser.svg"
   inkscape:version="1.1 (c68e22c387, 2021-05-23)"
   xmlns:inkscape="http://www.inkscape.org/namespaces/inkscape"
   xmlns:sodipodi="http://sodipodi.sourceforge.net/DTD/sodipodi-0.dtd"
   xmlns="http://www.w3.org/2000/svg"
   xmlns:svg="http://www.w3.org/2000/svg">
  <sodipodi:namedview
     id="namedview6"
     pagecolor="#ffffff"
     bordercolor="#666666"
     borderopacity="1.0"
     inkscape:pageshadow="2"
     inkscape:pageopacity="0.0"
     inkscape:pagecheckerboard="0"
     showgrid="false"
     inkscape:zoom="0.28203043"
     inkscape:cx="1317.2337"
     inkscape:cy="1189.5879"
     inkscape:window-width="2560"
     inkscape:window-height="1377"
     inkscape:window-x="-8"
     inkscape:window-y="-8"
     inkscape:window-maximized="1"
     inkscape:current-layer="svg824"
     inkscape:snap-others="false"
     inkscape:snap-nodes="false"
     units="in"
     inkscape:document-units="in" />
  <defs
     id="defs828" />
  <path
     id="path2078-4"
     style="fill:#2b0000;stroke:#000000;stroke-width:0.782438px;stroke-linecap:butt;stroke-linejoin:miter;stroke-opacity:1"
     d="m 550.01949,10.783678 c -2.79005,8.555878 -12.73654,15.727436 -17.18784,1.16598 -1.13094,-3.6996224 -9.15637,-3.927542 -10.00311,1.618695 -1.56371,10.242337 -11.92713,7.320585 -12.10327,2.223287 -0.36193,-10.4728304 -11.42063,-7.9039821 -12.42388,-1.75843 -1.22709,7.516799 -8.45549,11.147966 -11.34062,4.402017 -4.90218,-11.4621377 -18.30402,-9.2836105 -16.58075,0.523358 5.06481,12.187802 8.92513,40.238826 7.13582,65.514678 -8.21488,116.040107 -2.68169,253.604037 25.39035,370.244617 8.67901,32.30627 -36.98064,228.35665 -23.44051,255.28116 13.59462,2.59436 22.6656,12.6479 36.12803,-21.2061 -2.17948,-35.19927 5.0457,-114.04665 14.783,-183.12334 33.4343,-95.05376 47.13539,-303.97536 26.15537,-429.498985 -2.05401,-12.289068 -1.96816,-39.10555 4.1056,-59.828652 0.75428,-6.6009942 -9.59455,-8.6973407 -10.61819,-5.558285 z M 293.61774,30.941451 C 260.3609,72.14832 247.10242,149.46737 247.10242,149.46737 c -60.21195,88.33446 -41.30585,198.58436 -0.44628,291.016 24.69636,69.12714 19.24221,295.74165 27.33615,392.8576 5.25371,21.4752 15.80729,27.35109 26.28865,14.70397 2.24412,-58.41896 -13.64097,-292.76686 -9.99486,-360.84791 0.90397,-16.87891 4.673,-32.88214 9.69395,-45.00895 51.6317,-105.91842 73.24362,-203.92472 23.71509,-294.10295 0,0 -25.3836,-49.462371 -30.07738,-117.143679 z M 406.18862,571.87082 c 0,0 22.17262,193.4498 -11.86515,239.49392 -28.49767,-49.6219 -39.39203,-79.81324 -20.43432,-161.13161 -74.18091,27.23495 -41.11609,195.36264 -69.88456,210.96932 -20.26234,10.41866 -36.02106,13.20328 -47.51637,-67.0706 -6.4353,-43.95331 -35.13619,-99.86034 -69.90315,-112.01763 17.22578,62.10003 19.40794,91.62104 5.40648,128.93444 C 154.13159,788.80277 131.02582,739.75043 90.043053,735.4291 141.05991,821.87996 136.01075,816.90369 147.6007,891.75858 112.90732,856.20015 72.649901,843.03852 33.477149,856.50871 c 0,0 111.074311,74.52484 142.686991,185.65849 l 458.30259,-0.1766 c 64.73695,-2.3616 51.08066,-175.57021 121.65756,-235.32515 -53.57624,-23.26144 -74.18104,61.32664 -114.10812,71.2864 -18.76684,-53.76519 -3.99853,-127.9531 60.37645,-216.31539 -88.10456,22.36951 -120.83975,113.55807 -145.17871,117.08023 -8.72824,-58.56209 58.32321,-90.63231 43.37432,-155.67716 -40.18488,60.61465 -47.60494,57.18809 -85.3184,96.92474 -17.86719,19.013 -28.68547,16.44973 -41.65739,8.13529 -26.47352,-23.02944 -13.71932,-96.27971 -67.42382,-156.22874 z"
     sodipodi:nodetypes="ssssssccccccscscccccsccccccccccccccccccccccc" />
</svg>
