<svg xmlns="http://www.w3.org/2000/svg" xmlns:xlink="http://www.w3.org/1999/xlink" viewBox="0 0 566.93 566.93"><defs><style>.cls-1{mask:url(#mask);}.cls-2{fill:#fff;}.cls-3{fill:none;}.cls-4{fill:#4c4a48;}</style><mask id="mask" x="-435.87" y="388.35" width="1097.34" height="808.04" maskUnits="userSpaceOnUse"/></defs><g id="Armfotinger"><g class="cls-1"><path class="cls-2" d="M-185.13,652.11a125.34,125.34,0,0,0-8.54,24.82A131.48,131.48,0,0,0-196.9,703c-.47,17.54,2.44,35.06,7.48,51.83a236.93,236.93,0,0,0,21.06,48.07,315.68,315.68,0,0,0,29.89,43.19c22.22,27.15,48.22,51.06,76.34,72A538.36,538.36,0,0,0,127,1007c34,8.3,69,13,104.08,12.84a316,316,0,0,0,52.29-4.54,236.44,236.44,0,0,0,50.37-14.45c16.1-6.8,31.4-15.73,44.57-27.25a131.4,131.4,0,0,0,17.94-19,122.19,122.19,0,0,0,22.14-47,131.91,131.91,0,0,0,3.25-26c.48-17.49-2.39-35-7.4-51.71a237,237,0,0,0-21-48,314.83,314.83,0,0,0-29.82-43.18c-22.17-27.16-48.13-51.09-76.22-72a530.78,530.78,0,0,0-90.14-53.82,531.37,531.37,0,0,0-98.89-35.3c-34-8.34-69-13.14-104.11-13A316.45,316.45,0,0,0-58.24,569a237.35,237.35,0,0,0-50.47,14.4c-16.13,6.8-31.48,15.73-44.71,27.27a131.29,131.29,0,0,0-18,19.09A125.76,125.76,0,0,0-185.13,652.11Zm0,0a125.24,125.24,0,0,1,13.67-22.42,131.34,131.34,0,0,1,18-19.12c13.22-11.56,28.56-20.51,44.7-27.33a236.8,236.8,0,0,1,50.49-14.48,316.88,316.88,0,0,1,52.36-4.55c35.1-.21,70.13,4.55,104.2,12.86a530.77,530.77,0,0,1,99,35.21,530.81,530.81,0,0,1,90.31,53.77C315.76,687,341.78,710.92,364,738.1a316.16,316.16,0,0,1,30,43.26,237.9,237.9,0,0,1,21.1,48.17c5.05,16.82,8,34.39,7.5,52a132.48,132.48,0,0,1-3.24,26.16A121.62,121.62,0,0,1,397,955.09a131.3,131.3,0,0,1-18.09,19.17c-13.27,11.58-28.67,20.53-44.84,27.35A237.21,237.21,0,0,1,283.5,1016a316.37,316.37,0,0,1-52.42,4.5c-35.12.17-70.16-4.63-104.22-13a538.66,538.66,0,0,1-189.22-89.2c-28.11-21-54.1-44.92-76.3-72.11A316.23,316.23,0,0,1-168.53,803a237.41,237.41,0,0,1-21-48.12c-5-16.79-7.91-34.32-7.42-51.87a131.42,131.42,0,0,1,3.26-26.06A125.21,125.21,0,0,1-185.13,652.11Z"/><path class="cls-2" d="M-214.9,638.1a138.11,138.11,0,0,0-9.4,27.3,144.87,144.87,0,0,0-3.55,28.66c-.52,19.3,2.68,38.57,8.22,57A260.55,260.55,0,0,0-196.47,804a347.8,347.8,0,0,0,32.89,47.52c24.43,29.86,53,56.16,84,79.17a592.39,592.39,0,0,0,208.06,97.8c37.44,9.13,75.93,14.36,114.49,14.13a347.5,347.5,0,0,0,57.52-5,260.16,260.16,0,0,0,55.42-15.89c17.71-7.49,34.55-17.3,49-30a144,144,0,0,0,19.74-21,137.35,137.35,0,0,0,15-24.57A138.9,138.9,0,0,0,449,919a144.55,144.55,0,0,0,3.57-28.56c.53-19.25-2.63-38.48-8.15-56.9a259.83,259.83,0,0,0-23.07-52.84,348.31,348.31,0,0,0-32.8-47.51C364.18,703.32,335.62,677,304.72,654a583.88,583.88,0,0,0-99.17-59.19A583.84,583.84,0,0,0,96.77,555.93c-37.44-9.17-75.94-14.45-114.52-14.26a348.26,348.26,0,0,0-57.58,4.94,260,260,0,0,0-55.51,15.85c-17.75,7.48-34.63,17.3-49.18,30a144.27,144.27,0,0,0-19.82,21A137.82,137.82,0,0,0-214.9,638.1Zm0,0a137.48,137.48,0,0,1,15-24.67,144.34,144.34,0,0,1,19.81-21c14.54-12.72,31.42-22.56,49.17-30.07a260.77,260.77,0,0,1,55.53-15.92,348.56,348.56,0,0,1,57.6-5c38.61-.23,77.14,5,114.62,14.15a584.43,584.43,0,0,1,108.9,38.73,584.79,584.79,0,0,1,99.33,59.15c31,23,59.59,49.36,84.06,79.26a348,348,0,0,1,32.93,47.58,261.12,261.12,0,0,1,23.2,53c5.56,18.49,8.76,37.81,8.25,57.17A144.4,144.4,0,0,1,450,919.21a133.76,133.76,0,0,1-24.54,52.14,144.81,144.81,0,0,1-19.9,21.07c-14.59,12.74-31.52,22.58-49.31,30.08a260.62,260.62,0,0,1-55.62,15.88,348.15,348.15,0,0,1-57.66,4.95c-38.63.19-77.17-5.09-114.64-14.28A592.82,592.82,0,0,1-79.84,931c-30.93-23.06-59.52-49.41-83.94-79.32a347.5,347.5,0,0,1-32.85-47.58,260.27,260.27,0,0,1-23.12-52.93c-5.53-18.47-8.7-37.75-8.16-57.06a144.91,144.91,0,0,1,3.58-28.67A137.89,137.89,0,0,1-214.9,638.1Z"/><path class="cls-2" d="M-247.65,622.68a152.61,152.61,0,0,0-10.34,30,159.31,159.31,0,0,0-3.91,31.52c-.57,21.24,2.95,42.43,9,62.72a286.86,286.86,0,0,0,25.48,58.18,382.7,382.7,0,0,0,36.17,52.27c26.88,32.84,58.34,61.78,92.36,87.09A651.73,651.73,0,0,0,130,1052.1c41.18,10.05,83.52,15.81,125.94,15.55a382.23,382.23,0,0,0,63.28-5.49,286.31,286.31,0,0,0,61-17.47c19.48-8.24,38-19,53.95-33a158,158,0,0,0,21.72-23.06,147.63,147.63,0,0,0,26.82-57,158.52,158.52,0,0,0,3.92-31.43c.59-21.18-2.89-42.34-9-62.61a286,286,0,0,0-25.39-58.12,381.26,381.26,0,0,0-36.09-52.27C389.36,694.4,357.94,665.43,324,640.1A642,642,0,0,0,214.86,575,642.69,642.69,0,0,0,95.19,532.28C54,522.19,11.66,516.39-30.79,516.6A382.86,382.86,0,0,0-94.12,522a287.09,287.09,0,0,0-61.06,17.44c-19.53,8.23-38.1,19-54.1,33a158.94,158.94,0,0,0-21.81,23.1A152.11,152.11,0,0,0-247.65,622.68Zm0,0a152,152,0,0,1,16.54-27.13,159,159,0,0,1,21.79-23.13c16-14,34.56-24.81,54.09-33.07a287.41,287.41,0,0,1,61.08-17.5,383.29,383.29,0,0,1,63.36-5.5c42.47-.26,84.85,5.51,126.07,15.57a642.77,642.77,0,0,1,119.79,42.61A641.92,641.92,0,0,1,324.32,639.6c34.05,25.32,65.54,54.29,92.46,87.18A382.71,382.71,0,0,1,453,779.12a286.71,286.71,0,0,1,25.52,58.27c6.11,20.34,9.63,41.58,9.06,62.88a159,159,0,0,1-3.92,31.63,147.15,147.15,0,0,1-27,57.33,159.93,159.93,0,0,1-21.87,23.18c-16.05,14-34.67,24.83-54.24,33.08A287.29,287.29,0,0,1,319.38,1063,383.92,383.92,0,0,1,256,1068.4c-42.5.21-84.88-5.6-126.1-15.7A651.69,651.69,0,0,1-99.07,944.8c-34-25.35-65.47-54.34-92.33-87.24a381.86,381.86,0,0,1-36.14-52.33A287.13,287.13,0,0,1-253,747c-6.08-20.31-9.57-41.52-9-62.76A158.71,158.71,0,0,1-258,652.71,152.39,152.39,0,0,1-247.65,622.68Z"/><path class="cls-2" d="M-283.67,605.72a167.19,167.19,0,0,0-11.38,33,174.63,174.63,0,0,0-4.3,34.68c-.63,23.36,3.24,46.67,9.94,69a315.46,315.46,0,0,0,28,64,421.32,421.32,0,0,0,39.79,57.5c29.57,36.13,64.17,68,101.6,95.81a716.63,716.63,0,0,0,251.75,118.37c45.31,11.06,91.88,17.4,138.55,17.12a420.72,420.72,0,0,0,69.62-6A315.22,315.22,0,0,0,407,1070c21.44-9.06,41.82-20.94,59.36-36.29a173.9,173.9,0,0,0,23.9-25.37,162.08,162.08,0,0,0,29.5-62.68,174.33,174.33,0,0,0,4.33-34.58c.64-23.3-3.19-46.58-9.87-68.88a315.2,315.2,0,0,0-27.93-63.94,419.89,419.89,0,0,0-39.71-57.5c-29.52-36.14-64.08-68-101.48-95.87a706,706,0,0,0-120-71.62,706.33,706.33,0,0,0-131.64-47C48.15,495.17,1.56,488.79-45.13,489a421.23,421.23,0,0,0-69.66,6A314.76,314.76,0,0,0-182,514.19c-21.48,9-41.91,20.93-59.51,36.3a174.8,174.8,0,0,0-24,25.41A166.86,166.86,0,0,0-283.67,605.72Zm0,0a166.84,166.84,0,0,1,18.19-29.83,175,175,0,0,1,24-25.45c17.59-15.38,38-27.29,59.5-36.37a315.08,315.08,0,0,1,67.19-19.25,420.58,420.58,0,0,1,69.69-6.05c46.72-.28,93.33,6.07,138.68,17.13a707.16,707.16,0,0,1,131.76,46.88,706.71,706.71,0,0,1,120.17,71.58c37.45,27.86,72.09,59.72,101.69,95.89A421.67,421.67,0,0,1,487,777.82a315.47,315.47,0,0,1,28.06,64.1c6.72,22.36,10.59,45.73,10,69.15a175.65,175.65,0,0,1-4.32,34.78,162,162,0,0,1-29.68,63,176.34,176.34,0,0,1-24,25.49c-17.65,15.4-38.13,27.31-59.65,36.38A316,316,0,0,1,340.05,1090a420.13,420.13,0,0,1-69.74,6c-46.74.24-93.37-6.14-138.71-17.25A717.47,717.47,0,0,1-120.23,960c-37.42-27.89-72-59.77-101.56-95.95a420.92,420.92,0,0,1-39.76-57.57,315.81,315.81,0,0,1-28-64c-6.69-22.34-10.53-45.67-9.88-69a174.58,174.58,0,0,1,4.33-34.68A167.28,167.28,0,0,1-283.67,605.72Z"/><path class="cls-2" d="M-323.3,587.07a184.11,184.11,0,0,0-12.51,36.34,191.51,191.51,0,0,0-4.73,38.15c-.7,25.69,3.55,51.34,10.93,75.9a346.84,346.84,0,0,0,30.82,70.39A462.69,462.69,0,0,0-255,871.1c32.53,39.76,70.59,74.78,111.76,105.41a788.26,788.26,0,0,0,276.93,130.22c49.84,12.17,101.08,19.14,152.41,18.83a461.42,461.42,0,0,0,76.59-6.64,346.42,346.42,0,0,0,73.79-21.14c23.59-10,46-23,65.32-39.92a192.43,192.43,0,0,0,26.3-27.91,178.64,178.64,0,0,0,32.46-69,191.28,191.28,0,0,0,4.75-38.05c.71-25.64-3.5-51.25-10.85-75.78A347.23,347.23,0,0,0,523.7,776.8,463.44,463.44,0,0,0,480,713.55c-32.48-39.76-70.5-74.8-111.64-105.46a777.69,777.69,0,0,0-132-78.78A777.5,777.5,0,0,0,91.55,477.65c-49.84-12.21-101.09-19.23-152.45-19a461.93,461.93,0,0,0-76.63,6.58,346.77,346.77,0,0,0-73.89,21.1c-23.63,10-46.1,23-65.46,39.94a192.29,192.29,0,0,0-26.38,28A183.63,183.63,0,0,0-323.3,587.07Zm0,0a184,184,0,0,1,20-32.82,192.44,192.44,0,0,1,26.37-28c19.35-16.92,41.82-30,65.45-40a347,347,0,0,1,73.91-21.18,462.35,462.35,0,0,1,76.66-6.64c51.39-.31,102.66,6.67,152.54,18.85a777.16,777.16,0,0,1,144.93,51.57,777.72,777.72,0,0,1,132.18,78.73c41.19,30.65,79.29,65.7,111.84,105.49A462.22,462.22,0,0,1,524.4,776.4a346.89,346.89,0,0,1,30.87,70.5c7.39,24.6,11.64,50.3,11,76.05a192.51,192.51,0,0,1-4.74,38.25,178.23,178.23,0,0,1-32.64,69.33,192.32,192.32,0,0,1-26.46,28c-19.4,17-41.92,30-65.59,40a348,348,0,0,1-74,21.13,461.92,461.92,0,0,1-76.71,6.59c-51.41.26-102.7-6.76-152.57-19a788.85,788.85,0,0,1-277-130.52c-41.16-30.68-79.21-65.75-111.72-105.55a461.4,461.4,0,0,1-43.73-63.32,346.64,346.64,0,0,1-30.78-70.45c-7.36-24.57-11.59-50.23-10.88-75.93a192.2,192.2,0,0,1,4.77-38.15A183.76,183.76,0,0,1-323.3,587.07Z"/><path class="cls-2" d="M-366.89,566.55a201.88,201.88,0,0,0-13.76,40,211,211,0,0,0-5.21,42c-.76,28.26,3.91,56.48,12,83.49a382.2,382.2,0,0,0,33.9,77.44A509,509,0,0,0-291.8,879c35.78,43.73,77.65,82.26,122.93,116a867.43,867.43,0,0,0,304.63,143.26c54.82,13.38,111.19,21.06,167.66,20.72a508.2,508.2,0,0,0,84.25-7.3,381.18,381.18,0,0,0,81.19-23.26c25.95-11,50.62-25.34,71.86-43.91a211.85,211.85,0,0,0,28.94-30.71,196.59,196.59,0,0,0,35.71-75.89A210.66,210.66,0,0,0,610.6,936c.78-28.21-3.86-56.38-12-83.37a380.6,380.6,0,0,0-33.81-77.39,507.6,507.6,0,0,0-48.06-69.58c-35.73-43.74-77.56-82.29-122.81-116A855.07,855.07,0,0,0,248.74,503,855.06,855.06,0,0,0,89.45,446.17C34.63,432.74-21.75,425-78.25,425.32a508.92,508.92,0,0,0-84.3,7.24,382.19,382.19,0,0,0-81.28,23.22c-26,11-50.7,25.34-72,43.94a211.66,211.66,0,0,0-29,30.75A202.89,202.89,0,0,0-366.89,566.55Zm0,0a202.37,202.37,0,0,1,22-36.1,211.2,211.2,0,0,1,29-30.78c21.29-18.62,46-33,72-44a381,381,0,0,1,81.29-23.29,508.19,508.19,0,0,1,84.33-7.31c56.52-.34,112.93,7.34,167.79,20.74A855.5,855.5,0,0,1,249,502.54a855.72,855.72,0,0,1,145.39,86.61c45.31,33.71,87.21,72.27,123,116a510.17,510.17,0,0,1,48.18,69.64,382.37,382.37,0,0,1,33.94,77.54c8.13,27.06,12.81,55.33,12,83.65a212,212,0,0,1-5.22,42.06,196.21,196.21,0,0,1-35.9,76.25,211.16,211.16,0,0,1-29.09,30.83c-21.34,18.64-46.1,33-72.13,44a382.22,382.22,0,0,1-81.39,23.25,509.89,509.89,0,0,1-84.38,7.25c-56.55.29-113-7.43-167.82-20.87a867.39,867.39,0,0,1-304.7-143.56c-45.28-33.74-87.14-72.32-122.9-116.09a509.52,509.52,0,0,1-48.11-69.65A382.16,382.16,0,0,1-374,732c-8.1-27-12.75-55.26-12-83.53a211.21,211.21,0,0,1,5.24-42A201.88,201.88,0,0,1-366.89,566.55Z"/><path class="cls-2" d="M-414.83,544A222.26,222.26,0,0,0-430,588c-.81,3.8-1.69,7.58-2.29,11.42-.31,1.91-.7,3.82-1,5.74l-.77,5.77c-.28,1.93-.45,3.86-.63,5.79l-.54,5.8-.32,5.82-.16,2.91-.06,2.91c-.84,31.08,4.3,62.12,13.22,91.84s21.92,58.2,37.29,85.18a560.31,560.31,0,0,0,52.95,76.54c39.35,48.11,85.41,90.49,135.22,127.55a953.79,953.79,0,0,0,335.1,157.6c60.31,14.73,122.31,23.17,184.44,22.81a559.84,559.84,0,0,0,92.67-8c30.57-5.36,60.68-13.62,89.32-25.58s55.69-27.88,79.06-48.32l2.2-1.9,2.14-2,4.26-3.95,4.12-4.11c1.37-1.36,2.75-2.73,4.05-4.17l3.94-4.26c1.32-1.43,2.54-2.94,3.81-4.4,2.57-2.9,4.91-6,7.32-9a216,216,0,0,0,39.3-83.48c.8-3.79,1.69-7.57,2.29-11.4.31-1.91.7-3.81,1-5.73l.77-5.76c.29-1.92.46-3.85.64-5.78l.54-5.79.32-5.8.17-2.9.06-2.91c.85-31-4.25-62-13.15-91.72s-21.85-58.17-37.2-85.13A558.87,558.87,0,0,0,557.23,697c-39.3-48.11-85.32-90.52-135.1-127.61a940.36,940.36,0,0,0-159.76-95.32,940,940,0,0,0-175.23-62.5C26.83,396.78-35.18,388.29-97.33,388.62a559.5,559.5,0,0,0-92.73,8c-30.59,5.35-60.73,13.59-89.41,25.55s-55.78,27.87-79.2,48.33l-2.21,1.9-2.14,2-4.27,4-4.13,4.11c-1.38,1.37-2.76,2.73-4.06,4.18l-4,4.27c-1.31,1.43-2.54,2.94-3.81,4.4-2.58,2.91-4.93,6-7.34,9A222.21,222.21,0,0,0-414.83,544Zm0,0a222.23,222.23,0,0,1,24.21-39.71c2.41-3,4.76-6.14,7.34-9,1.27-1.46,2.5-3,3.81-4.4l4-4.27c1.3-1.45,2.68-2.82,4.05-4.18l4.13-4.12,4.27-3.95,2.14-2,2.21-1.91c23.41-20.47,50.6-36.32,79.19-48.4s58.83-20.25,89.43-25.61a559.85,559.85,0,0,1,92.76-8c62.17-.36,124.21,8.09,184.56,22.82A940.66,940.66,0,0,1,262.58,473.6,939.92,939.92,0,0,1,422.5,568.87C472.34,606,518.43,648.36,557.81,696.5a560.72,560.72,0,0,1,53,76.61c15.39,27,28.26,55.52,37.33,85.29s14.09,60.85,13.25,92l-.06,2.91-.16,2.92-.33,5.82-.54,5.82c-.17,1.93-.34,3.87-.63,5.8l-.77,5.78c-.26,1.93-.65,3.84-1,5.76-.6,3.85-1.49,7.64-2.3,11.44a215.7,215.7,0,0,1-39.47,83.86c-2.42,3-4.78,6.15-7.36,9.06-1.28,1.47-2.51,3-3.83,4.41l-4,4.28c-1.3,1.45-2.69,2.82-4.07,4.19l-4.14,4.12-4.28,4-2.14,2-2.21,1.91c-23.47,20.49-50.71,36.34-79.34,48.41s-58.9,20.23-89.52,25.58a560.47,560.47,0,0,1-92.81,8c-62.2.33-124.25-8.16-184.59-22.94a954.47,954.47,0,0,1-335.17-157.91c-49.81-37.11-95.86-79.54-135.19-127.69a559.9,559.9,0,0,1-52.92-76.61c-15.36-27-28.2-55.5-37.25-85.24-8.9-29.73-14-60.78-13.16-91.87l.06-2.92.16-2.9.33-5.82.54-5.8c.18-1.94.35-3.87.64-5.79l.77-5.77c.26-1.93.65-3.83,1-5.75.61-3.84,1.49-7.62,2.3-11.42A222,222,0,0,1-414.83,544Z"/></g></g><g id="Nesledyr"><path class="cls-3" d="M372.85,297.16c-.55-.75-1.12-1.47-1.7-2.17q-8,7.92-16.77,15.17c1.35.74,2.67,1.52,4,2.32a75.89,75.89,0,0,1,12.2,9.85l.2.21a3.42,3.42,0,0,0,.46,0,40.61,40.61,0,0,0,13.29-.95l.42-.1-.69-1.85C381.07,311.43,377.61,303.54,372.85,297.16Z"/><path class="cls-3" d="M328.66,329a53.58,53.58,0,0,1,4,11.36A134.44,134.44,0,0,1,335,353.66l3.53,24.77,1.77,12.39c.53,4,1.17,7.32,2.22,9.25a6.63,6.63,0,0,0,2,2.31,14.19,14.19,0,0,0,4,1.73,56.1,56.1,0,0,0,5.56,1.2c2,.33,4.3.84,6.47,1.31,1.09.21,2.16.56,3.23.85s2.15.59,3.2.94l3.14,1.11,1.56.55,1.53.65L376.3,412c1,.47,2,1,3,1.46,1.45.68,2.84,1.48,4.23,2.28-.12-4-.27-8-.51-11.9a168.8,168.8,0,0,0-3.36-25.62c-3.28-14.93-9.55-28.92-19.57-38.13a44.83,44.83,0,0,1-9.66-3.42,82.83,82.83,0,0,1-13.55-8.52,37.58,37.58,0,0,0-6.08-.53Z"/><path class="cls-3" d="M391.15,292.78a39.37,39.37,0,0,0-5.09-2.12,85.23,85.23,0,0,1,5.23,12c1.6,4.53,2.84,9,4,13.49.18.7.35,1.4.52,2.09l3.14-1.14c4.08-1.55,8.23-3.25,12.49-4.94a69.61,69.61,0,0,0-6.38-8.46A46.84,46.84,0,0,0,391.15,292.78Z"/><path class="cls-3" d="M418,293.23a89,89,0,0,1,8.39,13.67c1.3-.38,2.59-.75,3.89-1.1l3.3-.79a113.37,113.37,0,0,0-16.83-23.92c-1.46-1.58-3-3.11-4.54-4.58l-11.94.39A64.58,64.58,0,0,1,418,293.23Z"/><path class="cls-3" d="M349.22,252.81a56.93,56.93,0,0,0-9.48,1.85c-.05.29-.09.58-.14.87a239.55,239.55,0,0,1,25.55,1.09l6.56.55c.75-.76,1.5-1.53,2.24-2.3A69.48,69.48,0,0,0,349.22,252.81Z"/><path class="cls-3" d="M141.61,307.33a71.8,71.8,0,0,1,18.13-10.5c-6.28-2.57-13.44-5-20.85-8.85a67.31,67.31,0,0,0-9.77,5.41q-1.94,1.31-3.76,2.75c-.17.59-.35,1.17-.51,1.76a160.22,160.22,0,0,0-4.61,25.66l3.65-.53c1.31-.16,2.6-.42,3.89-.69A69.2,69.2,0,0,1,141.61,307.33Z"/><path class="cls-3" d="M113,310.12a49.06,49.06,0,0,0-4.8,10.86c-.33,1.12-.62,2.25-.87,3.4h.26c1.37,0,2.74-.09,4.11-.13l2-.08,1.08-.09c0-5.91.2-11.86.76-17.81C114.63,307.51,113.76,308.79,113,310.12Z"/><path class="cls-3" d="M154.52,268.66c1.4-.48,2.8-1,4.21-1.39,4.24-1.31,8.49-2.44,12.82-3.36l3.24-.7,3.28-.59c2.18-.43,4.39-.72,6.6-1,2.86-.38,5.75-.67,8.65-.88-.11-.18-.24-.35-.35-.52a38.68,38.68,0,0,1-4.92-12.45c-.15-.78-.26-1.55-.36-2.3a39.27,39.27,0,0,0-11.5-.49,48.92,48.92,0,0,0-23,8.58,58.83,58.83,0,0,0-10.77,9.84,42.71,42.71,0,0,0,5.53,2.85C150,267.1,152.2,267.9,154.52,268.66Z"/><path class="cls-3" d="M464.53,417.64a64,64,0,0,0,3.16,10,37.65,37.65,0,0,0,2.31,4.68,59.76,59.76,0,0,0-1.21-15.92,158.24,158.24,0,0,0-5.91-20.24c-.75-2.13-1.52-4.26-2.29-6.4.2,2.28.41,4.57.66,6.84A175.41,175.41,0,0,0,464.53,417.64Z"/><path class="cls-3" d="M186.6,278.79l3.09.91q5.31,1.49,10.66,2.7,2.25-1.22,4.68-2.3A120.81,120.81,0,0,0,186.6,278.79Z"/><path class="cls-3" d="M165.27,43.12a33.32,33.32,0,0,1,3.7.78.47.47,0,0,1-.06-.09,9.22,9.22,0,0,0-14.13-.68A33.55,33.55,0,0,1,165.27,43.12Z"/><path class="cls-4" d="M408.76,301.19a75.27,75.27,0,0,1,6.87,9.67c2.46-.95,5-1.86,7.58-2.7a85,85,0,0,0-7.92-12.28,60.42,60.42,0,0,0-16.93-15.09,54.3,54.3,0,0,0-7.31-3.57l-3.08.11q-2.79,3.29-5.71,6.49l.62.88a44,44,0,0,1,10.95,4.13A51.54,51.54,0,0,1,408.76,301.19Z"/><path class="cls-4" d="M439.19,356.05l-.52-2.66-.6-2.65c-.4-1.78-.84-3.47-1.28-5.21-.88-3.45-1.82-6.89-2.85-10.32-1.49-5-3.17-10-5.13-14.93-2.25,1-4.49,2-6.74,3.08,2,4.53,3.78,9.18,5.39,13.92,1.12,3.29,2.16,6.61,3.16,10,.49,1.67,1,3.37,1.43,5l.65,2.49.57,2.51a160,160,0,0,1,3.11,20.56,358.34,358.34,0,0,1,.91,42c-.39,14.07-1.24,28.14-2,42.23s-1.44,28.21-1.75,42.36v0a1,1,0,0,0,2,0h0c-.24-14.07,1.06-28.13,2.27-42.17s2.56-28.11,3.42-42.24a362,362,0,0,0,.48-42.58A166.62,166.62,0,0,0,439.19,356.05Z"/><path class="cls-4" d="M437.14,304.39l2.12-.37c2.33-.38,4.64-.83,7-1.11a132.47,132.47,0,0,0-15.14-27l-13.53.45c.84.88,1.66,1.77,2.46,2.68a119.61,119.61,0,0,1,17.05,25.4Z"/><path class="cls-4" d="M348.61,232.31c-2.11.05-4.23.19-6.33.41-.29,5.35-.77,10.74-1.47,16.16a61.47,61.47,0,0,1,8.52-1.28,75.28,75.28,0,0,1,28.46,3.48q4.89-5.27,9.46-10.84A91,91,0,0,0,348.61,232.31Z"/><path class="cls-4" d="M407.2,251.81q-2.59,3.93-5.34,7.76L418,260.88A110.75,110.75,0,0,0,407.2,251.81Z"/><path class="cls-4" d="M290,266.08c.56,1.25,1.12,2.52,1.66,3.82.73-.53,1.46-1,2.21-1.53a69,69,0,0,1,13.58-7.1c.88-2.27,1.72-4.57,2.48-6.92,1.38-4.23,2.57-8.6,3.59-13a84.31,84.31,0,0,0-9.78,5.86A78.32,78.32,0,0,0,288,261.73C288.65,263.16,289.34,264.6,290,266.08Z"/><path class="cls-4" d="M473.73,437a23.43,23.43,0,0,1-3-4.06,36,36,0,0,1-2.32-4.7,63.33,63.33,0,0,1-3.17-10.07,177.08,177.08,0,0,1-3.3-21.08q-.36-3.44-.66-6.87c-1-11.94-1.65-24-2.75-36.06a180.7,180.7,0,0,0-8.27-40.49c-.25.06-.51.1-.76.15-2.51.42-4.94,1.17-7.39,1.8a172.63,172.63,0,0,1,10.32,39.27c.75,5.25,1.41,10.54,2.06,15.85,1.08,8.94,2.14,17.92,3.56,26.87a192.46,192.46,0,0,0,4.43,21.26,94.41,94.41,0,0,0,3.46,10.39,43.06,43.06,0,0,0,4.26,8c.41.58.83,1.16,1.29,1.72a.27.27,0,0,0,.07.08,1.5,1.5,0,1,0,2.18-2.05Z"/><path class="cls-4" d="M387.36,319c.24.68.47,1.36.7,2,1.82-.48,3.67-1.06,5.53-1.68-.2-.71-.39-1.43-.59-2.14-2.52-8.76-5.42-17.7-10.38-26-.38-.63-.77-1.25-1.17-1.87-.58-.9-1.19-1.78-1.82-2.65l-2,2.09c-1.15,1.21-2.32,2.4-3.49,3.59.74.93,1.45,1.88,2.12,2.87C381.12,302.26,384.4,310.51,387.36,319Z"/><path class="cls-4" d="M404.12,397.89a1,1,0,0,0,1.06.94,1,1,0,0,0,.93-1.06c-.56-9.07-.89-18.15-2-27.19s-2.6-18-4.48-26.92c-.6-2.78-1.23-5.54-1.89-8.3-1.46.62-3,1.22-4.48,1.78q1.13,3.76,2.18,7.54c2.36,8.67,4.43,17.43,6,26.3a148.33,148.33,0,0,1,2.71,26.84h0Z"/><path class="cls-4" d="M337.42,280.65c-.93.17-1.86.35-2.76.55l-.18,0-1.29.31c0,.12-.07.23-.11.34-.14.4-.3.78-.45,1.18.86-.51,1.74-1,2.63-1.44C336,281.28,336.69,281,337.42,280.65Z"/><path class="cls-4" d="M117.08,303.62a183.11,183.11,0,0,0-1.56,20.49l2.76-.25a164.5,164.5,0,0,1,3.79-25.4c-.87.78-1.73,1.58-2.54,2.42S117.87,302.68,117.08,303.62Z"/><path class="cls-4" d="M211.69,239.54a49.49,49.49,0,0,0-6.85-3.95,47,47,0,0,0-7.14-2.7q.15.86.27,1.68a57.55,57.55,0,0,0,2,9.92.5.5,0,0,0,.05.13l.18.1c6.83,3.69,12.35,9.52,16.76,16.3q5.25.6,10.51,1.7-5.43-7.41-10.51-15Q214.29,243.64,211.69,239.54Z"/><path class="cls-4" d="M135.53,257.81a11.77,11.77,0,0,0,1.35,1.47,24.68,24.68,0,0,0,2.53,2.24,63.81,63.81,0,0,1,11.14-10.84,53.07,53.07,0,0,1,24.56-10.12,44.72,44.72,0,0,1,11.84-.07c-.07-1.72-.09-3.37-.12-4.94s-.08-3.06-.19-4.48a54.7,54.7,0,0,0-12.93.89,61,61,0,0,0-27.64,13.1,69.74,69.74,0,0,0-11.21,12v0Z"/><path class="cls-4" d="M127.7,281.22c-.79-.63-1.57-1.28-2.34-2-.58-.53-1.15-1.08-1.72-1.64a107,107,0,0,0-3.37,10.26,72.18,72.18,0,0,1,7.11-5.85C127.49,281.75,127.59,281.48,127.7,281.22Z"/><path class="cls-4" d="M117.48,340l-1.93,0h0c0,2.55.09,5.1.11,7.65.53-1.88,1.14-3.74,1.8-5.59C117.46,341.35,117.46,340.68,117.48,340Z"/><path class="cls-4" d="M105.55,339.35l-1.87-.23a46.38,46.38,0,0,0,1.89,6.63l0,.07a1,1,0,0,0,1.82-.83A29.15,29.15,0,0,1,105.55,339.35Z"/><path class="cls-4" d="M196.22,265.08a154.24,154.24,0,0,0-36.37,5.34c2.56.76,5.22,1.54,8,2.38,1.93.6,3.87,1.21,5.87,1.91l1.63.56a131.54,131.54,0,0,1,32.1.15,63.92,63.92,0,0,1-6.41-5.2A53.33,53.33,0,0,1,196.22,265.08Z"/><path class="cls-4" d="M126,292.37a69.15,69.15,0,0,1,9.45-5.95c-1.73-1-3.46-2.08-5.16-3.27-.34.22-.68.43-1,.66-1.23.83-2.42,1.7-3.6,2.61a65.8,65.8,0,0,0-6.44,5.59c-1,.94-1.86,1.92-2.75,2.93-.56.63-1.12,1.26-1.65,1.92a57.13,57.13,0,0,0-7,11,54,54,0,0,0-4.16,12.31c-.29,1.41-.51,2.83-.67,4.26l2.43,0c.23-1.24.5-2.47.82-3.69a51,51,0,0,1,4.6-11.36,53,53,0,0,1,4.47-6.69c.74-1,1.51-1.9,2.31-2.8.12-.13.23-.27.35-.41a60.52,60.52,0,0,1,5-4.83C124,293.91,125,293.13,126,292.37Z"/><path class="cls-4" d="M143.06,318.16l3-1.15c.43-.31.85-.65,1.3-.95a60.53,60.53,0,0,1,16.05-7.73c1.52-1,3-2,4.5-3q2-1.44,4.06-3c-.84-.35-1.68-.7-2.51-1.07l-4.69-2.08a69.84,69.84,0,0,0-21.64,11,64.48,64.48,0,0,0-11.41,11.28c2.5-.66,5-1.25,7.45-2.09C140.49,319,141.8,318.66,143.06,318.16Z"/><path class="cls-4" d="M121,340q-1.48,3.54-2.67,7.18c-.29.89-.56,1.79-.83,2.69-.53,1.82-1,3.65-1.46,5.5-.09.38-.16.75-.25,1.13-.47,2.12-.88,4.24-1.23,6.38A157.18,157.18,0,0,0,113,392.72c.3,9.92,1.39,19.74,1.79,29.6v.06a1,1,0,0,0,1.1.89,1,1,0,0,0,.89-1.09,254.89,254.89,0,0,1-1.13-29.48,152.94,152.94,0,0,1,3-29.05,93.92,93.92,0,0,1,8.42-23.88c-.69,0-1.39.06-2.09.09Z"/><path class="cls-4" d="M141.59,211.43a75.2,75.2,0,0,1,21.77-2.08,36.19,36.19,0,0,1,10.39,2.2,27.72,27.72,0,0,1,8.85,5.32,19.41,19.41,0,0,1,5.45,8.19c.16.48.29,1,.42,1.45a32.69,32.69,0,0,1,.81,4.75c.13,1.32.22,2.67.29,4.05.1,1.84.18,3.73.34,5.67a44.1,44.1,0,0,0,.68,5.1c0,.25.09.5.15.76a34.82,34.82,0,0,0,4.79,11.27c.51.78,1.05,1.53,1.6,2.26a44.76,44.76,0,0,0,4.09,4.69c.74.74,1.51,1.46,2.29,2.15a61.36,61.36,0,0,0,9.64,6.91c1.19.7,2.4,1.35,3.61,2,.37-.08.73-.14,1.1-.2l.29-.06a47.91,47.91,0,0,1,6.27-.63,50.56,50.56,0,0,1,13.69,1.32c-.92-1.15-1.82-2.32-2.73-3.48-1.11-.3-2.22-.6-3.31-.92-1.7-.51-3.39-1-5-1.61-2-.7-4-1.46-5.88-2.3-1.29-.55-2.56-1.13-3.8-1.75l-.25-.13a55.31,55.31,0,0,1-5.75-3.31c-1.29-.85-2.52-1.76-3.71-2.72a36.45,36.45,0,0,1-6.18-6.3,28,28,0,0,1-2.6-4.15,27.68,27.68,0,0,1-1.88-4.61q-.33-1.14-.57-2.34c-.54-2.55-.83-5.28-1.17-8.11-.11-.86-.22-1.75-.35-2.64a47.6,47.6,0,0,0-1-5.09,27.83,27.83,0,0,0-1.23-3.75,23.94,23.94,0,0,0-7.36-9.63c-6.31-5-14.26-7-21.83-7s-14.92,1.72-22.24,2.77l-.08,0a1,1,0,1,0,.45,1.94Z"/><path class="cls-4" d="M257.32,246c1.33,4,2.8,8,4.27,11.78q6.36,6.31,13,12.29c1.66,1.5,3.32,3,5,4.45,1.15,1,2.31,2,3.46,2.94.84-.87,1.7-1.68,2.54-2.52.37-.34.75-.67,1.13-1q-1.08-2.92-2.26-5.72l-.48-1.11c-1-2.27-2-4.5-3-6.68-3.24-6.86-6.58-13.31-9.27-19.76a82.64,82.64,0,0,1-4.42-13.21A47.93,47.93,0,0,1,266,214.15c.35-9,3.2-18.28,6.73-27.54s7.78-18.7,10.8-28.69a177.72,177.72,0,0,0,6.57-30.29,180.06,180.06,0,0,0,1.2-30.77c-.47-10.25-2.12-20.33-3.53-30.44l0-.14a1.5,1.5,0,1,0-2.91.7h0c2.33,9.79,2.7,19.94,2.53,29.93A176.09,176.09,0,0,1,284,126.64a169.62,169.62,0,0,1-8.4,28.5c-3.53,9.19-8.26,18-12.67,27.31A147.37,147.37,0,0,0,256.86,197a77.58,77.58,0,0,0-3.81,16,61.35,61.35,0,0,0,.31,17A95.76,95.76,0,0,0,257.32,246Z"/><path class="cls-4" d="M149.62,54.09c.23,2.17.59,4.31,1,6.41.62,3.17,1.38,6.3,2,9.33.15.76.28,1.49.39,2.23l.35,2.37.73,4.74q1.53,9.48,3.5,18.9a398.74,398.74,0,0,0,23.18,73.45,406.38,406.38,0,0,0,34.34,63.92c.91,1.37,1.79,2.75,2.71,4.11q8.83,13.09,18.71,25.5c1,1.29,2.06,2.57,3.1,3.85q2.32,2.85,4.7,5.65l1,1.16c.44.52.88,1.05,1.33,1.57,1,1.18,2.05,2.34,3.08,3.51a43.81,43.81,0,0,1,4.83,2.93,39.43,39.43,0,0,1,6.77,6,15.19,15.19,0,0,1,1.75,1.11,16.85,16.85,0,0,1,2.12,1.84,16,16,0,0,1,1.65,1.93,17.13,17.13,0,0,1,1.74,3,16.51,16.51,0,0,1,.84,2.39c.09.33.18.67.25,1,.05-.21.12-.41.17-.61.12-.42.23-.84.36-1.25.44-1.45.95-2.87,1.5-4.26.31-.76.62-1.51,1-2.25.56-1.24,1.17-2.44,1.82-3.62.23-.41.45-.84.69-1.24a47.74,47.74,0,0,1,3.14-4.72l.45-.59-.48-.44c-.5-.43-1-.87-1.48-1.31-1.75-1.57-3.48-3.15-5.2-4.76s-3.22-3-4.8-4.53q-4.82-4.65-9.44-9.49a375.6,375.6,0,0,1-27.1-31.39A393,393,0,0,1,190.56,167,389.72,389.72,0,0,1,163.65,96.6q-2.49-9.12-4.55-18.39l-1-4.63-.48-2.32c-.17-.83-.37-1.65-.57-2.44-.84-3.16-1.77-6.16-2.55-9.2a56.88,56.88,0,0,1-1.72-9.06,21,21,0,0,1-.09-2.5V48a17.92,17.92,0,0,1,.13-1.81,8.24,8.24,0,0,1,1.36-3.76l.15-.17a9.23,9.23,0,0,1,14.18.68l.06.09v0a1.5,1.5,0,0,0,1.71.48,1.4,1.4,0,0,0,.4-.21,1.5,1.5,0,0,0,.27-2.1v0a12.35,12.35,0,0,0-9.41-4.59,13.21,13.21,0,0,0-5.22.89,11.1,11.1,0,0,0-4.41,3.18,9.82,9.82,0,0,0-1.42,2.46,13.22,13.22,0,0,0-.74,2.53,22.38,22.38,0,0,0-.37,4.51v.6C149.4,51.87,149.5,53,149.62,54.09Z"/><path class="cls-4" d="M290.43,431.2c1.34-31.8,8-41.43,16.28-61.05-3.12-3.46-7.87-6.72-13.44-10.62a96.13,96.13,0,0,1-9.71-7.65,47.33,47.33,0,0,1-8.65-10.48,16.14,16.14,0,0,1-5.66-9,72.35,72.35,0,0,0-16.42,3.29,23.31,23.31,0,0,0-3.46,3.07,37.5,37.5,0,0,0-5.05,6.95,45.62,45.62,0,0,0-3.64,8.45c-.5,1.48-.84,3-1.22,4.53L239,361c-.16.76-.22,1.63-.33,2.44a87.55,87.55,0,0,0-.57,10.23c0,7,.7,14.32,1.43,21.84.35,3.76.72,7.56,1,11.42s.47,7.79.51,11.7a148.38,148.38,0,0,1-6.9,45.79c-2.27,7.35-5.46,14.27-7.8,21.54a2,2,0,0,1-3.82-1.23,2.88,2.88,0,0,1,.13-.31h0c3.46-6.62,5-14,6.37-21.25a145.4,145.4,0,0,0,2.14-22,142.48,142.48,0,0,0-1.29-21.79c-1-7.14-2.61-14.25-4.37-21.58S222,383,220.88,375a105,105,0,0,1-1-12.31c0-1.06-.07-2.08,0-3.19l.08-1.94c-6.36,15.16-10.69,28.75-12.82,35.23-19.4,59.07-22.5,106.84-7.75,126.41,40.62,18.65,132,12.65,131.53-8.52C302.44,478.86,288.78,470.6,290.43,431.2Z"/><path class="cls-4" d="M309.64,342.43a20.17,20.17,0,0,0-2.27-3.27,6,6,0,0,0-.58-.62,7.72,7.72,0,0,0-.59-.54,11.84,11.84,0,0,0-1.27-1,10.45,10.45,0,0,0-1.41-.79c1.41,1.59,3.06,3.25,4.87,5Z"/><path class="cls-4" d="M513.36,313.92a126.82,126.82,0,0,0-63.14-8.69c-.68.08-1.37.15-2.05.24l-.83.11c-2.49.3-4.95.85-7.42,1.3l-1.5.29-.56.11c-.68.15-1.36.35-2,.52l-.24.06-3.83,1c-1.14.32-2.27.67-3.4,1s-2.43.79-3.64,1.21c-2.48.86-4.93,1.79-7.32,2.78-.47.19-.95.37-1.42.57l-2.14.9c-5.61,2.38-11.13,4.85-16.63,6.95-.84.32-1.69.62-2.54.93-1.75.63-3.5,1.22-5.25,1.74-.86.26-1.73.5-2.59.73l-.78.21a50.55,50.55,0,0,1-10.61,1.59,80.41,80.41,0,0,1,5.23,7.09c.29.46.57.93.85,1.39a68.47,68.47,0,0,0,6.85-1.67c.45-.14.89-.3,1.34-.45.77-.25,1.55-.49,2.32-.76q2.4-.84,4.73-1.79c.78-.31,1.54-.64,2.31-1,6.3-2.68,12.28-5.73,18.23-8.56.53-.26,1.06-.52,1.59-.76s1.16-.54,1.74-.8q3.45-1.61,6.93-3c1.14-.44,2.28-.88,3.43-1.3.89-.32,1.77-.64,2.66-.94l3.79-1.19.87-.27c.34-.11.69-.22,1-.31l1.63-.39.3-.08c2.59-.6,5.15-1.33,7.79-1.7l.32-.05c.89-.17,1.8-.31,2.7-.45a121.34,121.34,0,0,1,28.89-1,123.09,123.09,0,0,1,31.42,6.83,98.84,98.84,0,0,1,28.36,15.39l0,0a1,1,0,0,0,1.16-1.63A142.62,142.62,0,0,0,513.36,313.92Z"/><path class="cls-4" d="M330.85,255.94c1-.1,2-.16,3-.23.34-1.73.66-3.47.95-5.2.94-5.69,1.59-11.37,2-17,.15-1.8.27-3.6.37-5.4q.19-3.23.3-6.45c.44-12.81.06-25.47-.53-38-.28-6.28-.65-12.51-1-18.74s-.66-12.37-.74-18.48c-.18-12.2.52-24.32,3.73-35.78s9.09-22.1,17.75-30.1a50.37,50.37,0,0,1,7-5.34c.62-.38,1.27-.72,1.9-1.09l1-.54,1-.48,2-.93,2.06-.78,1-.39,1-.29,2.11-.58L378,69.7c.36-.06.72-.15,1.08-.19l1.1-.09c.73-.06,1.47-.14,2.2-.18h2.21a16.43,16.43,0,0,1,2.22.12c.74.07,1.48.12,2.21.21a37.22,37.22,0,0,1,16.51,6.48,26.14,26.14,0,0,1,10.16,14.25l0,.1.06.16a1.5,1.5,0,1,0,2.78-1.13l-.93-2.28c-.15-.38-.29-.77-.46-1.14l-.59-1.08c-.41-.71-.75-1.46-1.17-2.15l-1.38-2a16.54,16.54,0,0,0-1.52-1.91c-.55-.6-1-1.28-1.62-1.83a37.14,37.14,0,0,0-3.61-3.26,41.29,41.29,0,0,0-17.58-8.1c-.8-.15-1.61-.26-2.42-.39a18.36,18.36,0,0,0-2.45-.27l-2.46-.16c-.82,0-1.65,0-2.47,0l-1.24,0c-.41,0-.82.09-1.24.13l-2.47.29c-.82.16-1.63.35-2.45.52l-1.22.26-1.19.36-2.37.74-2.3.92-1.15.46-1.11.54c-.74.37-1.5.72-2.23,1.11a55.37,55.37,0,0,0-8.22,5.51c-10.25,8.37-17.57,19.87-21.82,32.3a109.81,109.81,0,0,0-4.59,19,183.85,183.85,0,0,0-1.8,19.18c-.3,6.36-.36,12.69-.4,18.94s-.06,12.48-.16,18.68c-.17,12.4-.56,24.71-1.71,36.81q-.56,5.76-1.4,11.43c-.32,2.13-.65,4.25-1,6.35a166.2,166.2,0,0,1-4.11,17.43c-.3,1-.62,2-.94,3q2.5-.69,5-1.21A109.79,109.79,0,0,1,330.85,255.94Z"/><path class="cls-4" d="M322.75,289.87c.54-1.14,1.07-2.29,1.58-3.44.37-.83.75-1.66,1.1-2.5l-.64.24-1.52.63c-.52.21-1,.43-1.46.66a45.49,45.49,0,0,0-4.39,2.4,39.74,39.74,0,0,0-5.8,4.29c-.3.26-.59.52-.87.79a44.38,44.38,0,0,0-3.13,3.36c-.37.54-.8,1.05-1.18,1.57a7.49,7.49,0,0,0-.41.63l-.72,1.11-.61,1.12a5.28,5.28,0,0,0-.33.62l-.09.2c0,.09-.09.19-.13.29l-.5,1.1c-.12.38-.25.75-.38,1.11l-.2.54-.12.55-.1.36-.18.71a1.33,1.33,0,0,0,0,.21,16.27,16.27,0,0,1,5.42-.69c.17-.08.36-.13.53-.21s.57-.23.86-.33l.07,0,.08,0a56.77,56.77,0,0,1,10-2.17c.68-.08,1.35-.15,2-.21l.82-.07c.35,0,.71-.05,1.07-.06,1.24-.07,2.48-.1,3.71-.08,1.69,0,3.36.18,5,.38l.61.08A63.65,63.65,0,0,1,344,305.55l1,.36c1.25.44,2.48.92,3.68,1.44q9.87-7.71,18.93-16.33c.85-.8,1.69-1.61,2.53-2.42l.33-.33q2.37-2.31,4.68-4.7l1-1.05c.92-1,1.84-1.92,2.74-2.9.64-.68,1.28-1.35,1.91-2l-3.65.13-5.76.21-6.48.23c-2.83.11-5.62.23-8.37.38l-.83.7c-1.56,1.3-3.12,2.59-4.71,3.85q-5.76,4.59-11.78,8.81c-2,1.38-3.94,2.74-5.94,4.06q-2.76,1.82-5.57,3.55l-.72-.43q-.58-.36-1.17-.69l-1.45-.79c-1-.55-2.08-1.07-3.16-1.55l-1.42-.59c.65-1.19,1.29-2.4,1.9-3.62C322.1,291.18,322.43,290.53,322.75,289.87Z"/><path class="cls-4" d="M565.6,141.21c-14.28-1.66-28.53-3.62-42.91-4.6a416.09,416.09,0,0,0-43.28-.8c-7.27.33-14.88,1.13-22.2,4.11a40.08,40.08,0,0,0-5.32,2.67c-.84.53-1.66,1.1-2.49,1.66s-1.57,1.23-2.35,1.84a46.21,46.21,0,0,0-7.88,8.75c-4.46,6.35-7.51,13.27-10.24,20-1.38,3.37-2.65,6.73-4,10l-4.18,9.65a243.62,243.62,0,0,1-26.57,44.3q-1.32,1.74-2.66,3.46-4.23,5.42-8.75,10.59-1.56,1.77-3.15,3.53l-1.16,1.26,5.85.49,11.45,1,.55,0q3.72-4.87,7.2-9.91c.76-1.11,1.53-2.23,2.28-3.35a255.5,255.5,0,0,0,24.88-47.13l3.82-10.3c1.23-3.43,2.32-6.84,3.48-10.17,2.29-6.66,4.78-13.09,8.29-18.68a32.91,32.91,0,0,1,13.93-12.9c5.87-2.77,12.7-4,19.67-4.63a407,407,0,0,1,42.67-1.46c14.25.27,28.58,1,42.64,3.59h.1a1.49,1.49,0,1,0,.34-3Z"/><path class="cls-4" d="M308.08,267.12c-1.36.6-2.7,1.26-4,1.95a63.2,63.2,0,0,0-6.65,4.06c-1.21.82-2.38,1.71-3.53,2.65-1.32,1.08-2.61,2.22-3.88,3.4-.37.39-.76.78-1.14,1.16s-.79.81-1.18,1.22-.7.76-1,1.17c-.53.63-1.07,1.25-1.59,1.89L284,286.08l-.4.54-.32.46a44.09,44.09,0,0,0-2.91,4.71l0,.06a44.37,44.37,0,0,0-2.34,5.09,47.15,47.15,0,0,0-1.77,5.51c-.11.42-.2.85-.3,1.28l-.18.82c-.06.31-.14.62-.19.93l0,.17a14.74,14.74,0,0,1,1.45,2,13.7,13.7,0,0,1,2,1.67,13.4,13.4,0,0,1,1.33,1.58l.24.35c.07.1.12.2.19.3a14.8,14.8,0,0,1,.75,1.36l4.58-1.25,1.8-.49.49-.13,3.32-.91c.53-.14,1.06-.26,1.59-.37.74-.16,1.48-.27,2.21-.36.05-.22.1-.43.13-.65l.05-.38.21-1.41,0-.3.05-.42.17-.7.06-.28.24-1.07,0-.07.46-1.4.22-.71.29-.69.31-.75.27-.65.34-.66.37-.7c.11-.23.23-.46.35-.69l.15-.23c.08-.15.17-.3.26-.44l.74-1.19.09-.15.13-.18.81-1.12a17.14,17.14,0,0,1,1.37-1.74c.1-.12.19-.24.29-.35l.37-.45a42.66,42.66,0,0,1,4.85-4.63c.49-.4,1-.77,1.51-1.15,1-.78,2.1-1.53,3.2-2.22a49.48,49.48,0,0,1,7.1-3.73,58.94,58.94,0,0,1,8-2.73l1.34-.35c1.54-.39,3.09-.75,4.67-1.06L335,276a138.71,138.71,0,0,1,18.18-1.81c1.81-.08,3.64-.13,5.48-.17l3.25-.07,3.15,0h.72l7.23-.08,4.38,0,7-.07,6.7-.08,3.34,0,3.22,0,11.61-.12,5.36-.06,14.43-.16,4.23,0,29.5-.32,32.56-.36c10.86-.08,21.72-.42,32.55.3H528a1.5,1.5,0,1,0-.06-3c-10.85.19-21.68-.66-32.52-1.27l-32.51-1.92-36.52-2.16-5.16-.31L401.92,263l-2.43-.14-1.59-.09-4.21-.25-.23,0-18.54-1.09-6.81-.4-2.72-.16a234.21,234.21,0,0,0-26.46-.42q-3.06.17-6.15.48l-1.17.12c-2.86.35-5.74.8-8.62,1.39a73.69,73.69,0,0,0-8.87,2.38c-.56.19-1.12.39-1.67.6Q310.25,266.15,308.08,267.12Z"/><path class="cls-4" d="M392.63,484.37a86.51,86.51,0,0,1-2.39-13.1c-.44-4.43-.63-8.88-.72-13.33-.11-8.9.34-17.81.89-26.74,0-.68.09-1.35.13-2q-2.1-1.29-4.26-2.44l0,4.33c-.05,9,0,18,.62,27,.33,4.5.83,9,1.46,13.46s1.49,8.89,2.36,13.33c0,0,0,.05,0,.07a1,1,0,0,0,1.93-.52Z"/><path class="cls-4" d="M313.29,312.88c.2.1.38.22.58.33l.21.13c.82.46,1.6,1,2.36,1.46a37.43,37.43,0,0,1,4.63,3.71,37,37,0,0,1,3.18,3.44l.05.07c1.13-.19,2.26-.35,3.41-.43a5.43,5.43,0,0,1,.57,0l.39,0a42.89,42.89,0,0,1,9.9,1l.08,0,.59.13A50.54,50.54,0,0,1,350.46,327a58.88,58.88,0,0,1,10.16,6.87c.77.65,1.51,1.33,2.24,2a62.81,62.81,0,0,1,5.19,5.63c.36.44.72.87,1.07,1.31a72.43,72.43,0,0,1,6.51,10.73,90.38,90.38,0,0,1,4.72,11.9,117.85,117.85,0,0,1,3.12,12.61c.8,4.28,1.37,8.63,1.82,13s.67,8.79.84,13.22.2,8.93.19,13.42q2.43,1.49,4.74,3.13c.33-5.5.63-11,.75-16.59.08-4.52.07-9.07-.1-13.62s-.55-9.13-1.14-13.7A124,124,0,0,0,388,363.28a100.78,100.78,0,0,0-4.44-13.34,87.28,87.28,0,0,0-4.49-9c-.7-1.23-1.44-2.45-2.24-3.65-.14-.21-.3-.41-.44-.62a72.17,72.17,0,0,0-8.14-9.65c-.26-.26-.51-.53-.77-.78a70.13,70.13,0,0,0-11.56-8.88q-2.94-1.74-6.07-3.23a57.41,57.41,0,0,0-6.6-2.63l-.66-.21-.15-.05a54.14,54.14,0,0,0-15-2.38c-1.22,0-2.45.07-3.67.17-1.06.09-2.12.21-3.18.37a48.83,48.83,0,0,0-7.77,1.79h0c-.26.08-.52.15-.77.24l-.36.13c-.18.07-.35.16-.52.24l.85.4C312.43,312.44,312.87,312.65,313.29,312.88Z"/><path class="cls-4" d="M65,77A20.32,20.32,0,0,1,74.83,73a26.62,26.62,0,0,1,10.79.75,33.45,33.45,0,0,1,17.72,11.94,51.23,51.23,0,0,1,8.84,19.86,104.39,104.39,0,0,1,2.31,22.09c.06,14.89-2.2,29.9-4.12,45S106.56,203.15,107,219a112.57,112.57,0,0,0,3.13,23.82A84.61,84.61,0,0,0,114,254.5c.85,1.88,1.61,3.82,2.62,5.64.49.92,1,1.86,1.46,2.77l1.62,2.68c.27.45.52.89.83,1.35l1,1.37a29.74,29.74,0,0,0,2.07,2.67h0c.62.76,1.28,1.48,1.95,2.17.89.92,1.82,1.8,2.76,2.65.46.41.92.8,1.39,1.18.68.55,1.38,1.08,2.08,1.59l.37.27c.82.58,1.66,1.14,2.5,1.67,1.48.93,3,1.78,4.49,2.57.54.28,1.09.54,1.64.81,1.2.59,2.39,1.16,3.59,1.68,5.74,2.55,11.42,4.47,16.71,6.5,1.72.67,3.43,1.33,5,2l.51.22,4.81,2,1.79.72,3.69,1.48.06,0,3.38-2.66c2.24-1.76,4.56-3.56,7-5.35l1.55-1.12q2.07-1.49,4.28-2.94-2.78-.75-5.53-1.58l-5.27-1.67c-1.74-.59-3.5-1.16-5.24-1.78l-5.27-1.9-.05,0c-1.91-.7-3.79-1.33-5.66-1.95l-2-.66c-4.3-1.36-8.45-2.63-12.36-4-1.53-.55-3-1.13-4.48-1.74-.62-.27-1.24-.53-1.85-.81a44,44,0,0,1-6.35-3.52c-.7-.47-1.38-1-2-1.48l-.33-.28a30.5,30.5,0,0,1-3.11-2.9,14,14,0,0,1-1.29-1.48,3.25,3.25,0,0,0-.23-.29l-.73-.91c-.25-.33-.48-.71-.72-1.06l-.21-.31-1.24-1.83c-.46-.73-.87-1.49-1.31-2.23-.93-1.46-1.63-3.06-2.43-4.6a73.15,73.15,0,0,1-3.75-9.84,101.36,101.36,0,0,1-3.86-21.27c-1.18-14.64-.15-29.72,1-44.86s2.72-30.51,1.89-46.12a109.38,109.38,0,0,0-3.61-23.15,55.57,55.57,0,0,0-10.69-21.08A37.21,37.21,0,0,0,86.32,70.92a33.35,33.35,0,0,0-11.87-.61,26.38,26.38,0,0,0-11.2,4.3h0l-.08.06A1.5,1.5,0,1,0,65,77Z"/><path class="cls-4" d="M220.44,304.33c-.21,0-.4.05-.6.07a3.94,3.94,0,0,0-.66.1c-1,.2-2.08.4-3.14.71a44.91,44.91,0,0,0-6.06,2.13l-.49.2c-.55.23-1.1.49-1.66.75,1,.25,2,.51,3,.74l2.24-1a105.73,105.73,0,0,1,10.13-3.77c-.52,0-1,0-1.55,0S220.85,304.3,220.44,304.33Z"/><path class="cls-4" d="M210.71,326.22a90.64,90.64,0,0,1,20.47-6.28l.51-.08.72-.47c1.15-.73,2.32-1.44,3.5-2.13a18,18,0,0,1,.42-3.87c.07-.35.14-.69.23-1l.16-.57a2.32,2.32,0,0,0,0-.64,4.84,4.84,0,0,0-1.37-2.17,10.44,10.44,0,0,0-1.63-1.35,96.34,96.34,0,0,0-11.57,2.88l-1.59.5q-3.69,1.25-7.26,2.74c-1,.43-2,.87-3,1.33-1.33.61-2.65,1.23-3.95,1.89a118.57,118.57,0,0,0-44.22,39.12c-11,16.32-18.26,34.76-22.78,53.53a246.85,246.85,0,0,0-5,28.46c-1.17,9.56-1.7,19.14-2.59,28.69v.06a1,1,0,0,0,2,.07,206.85,206.85,0,0,1,3.22-28.43,241.61,241.61,0,0,1,6.44-27.77c5.4-18.15,13.35-35.55,24.62-50.43A109.84,109.84,0,0,1,210.71,326.22Z"/><path class="cls-4" d="M404.58,434.61a91,91,0,0,0-11.53-10.11c-.7-.51-1.41-1-2.12-1.51-1.51-1-3-2-4.62-3-.61-.37-1.21-.74-1.83-1.09l-.52-.28c-1.72-.92-3.41-1.89-5.2-2.66-1-.45-1.95-.91-2.93-1.35l-3-1.18-1.51-.59-1.53-.5-3.08-1c-1-.31-2.09-.55-3.14-.83s-2.09-.57-3.16-.74c-2.12-.4-4.29-.84-6.35-1.12s-4.05-.61-5.88-1.07a17.76,17.76,0,0,1-4.93-1.89,10.2,10.2,0,0,1-3.32-3.21c-1.72-2.7-2.49-6.44-3.19-10.49l-2.16-12.36L330.25,355c-.73-4.1-1.43-8.38-2.62-12.76a49.27,49.27,0,0,0-3.73-9.9c-.53-1-1.11-2-1.74-3a2.12,2.12,0,0,0-.12-.2,28.68,28.68,0,0,0-1.74-2.4,30.83,30.83,0,0,0-2.6-2.89l-.54-.53a29.69,29.69,0,0,0-5.87-4.24l-.75-.42a26.21,26.21,0,0,0-2.53-1.12l-.58-.22a24.3,24.3,0,0,0-3.47-1c-.46-.1-.92-.2-1.39-.26-.29,0-.59-.08-.88-.11l-.73-.06-.61,0h-.1a21.87,21.87,0,0,0-4.62.32c-.58.11-1.17.24-1.75.39l-.25.07-.34.09-.57.19a6.76,6.76,0,0,0-3,2.35l-.16.23c.31.09.62.2.92.31a13.78,13.78,0,0,1,1.51.7,13.94,13.94,0,0,1,1.42.88c.35.25.69.51,1,.79a13.58,13.58,0,0,1,2,2.17,15.52,15.52,0,0,1,1,1.59,14.37,14.37,0,0,1,.63,1.31c.16.39.31.79.43,1.17s.19.54.29.81A10.82,10.82,0,0,1,305,330a18,18,0,0,1,7.22,5.76c.37.49.7,1,1,1.54a33.37,33.37,0,0,1,2.94,5.82c.29.73.58,1.47.84,2.24.72,2.1,1.34,4.31,1.92,6.58a51.34,51.34,0,0,1,5.85,8.22c.57,1.08,1.13,2.17,1.66,3.26s.95,2.26,1.33,3.4a43.56,43.56,0,0,1,1.69,6.75,67.59,67.59,0,0,1,.79,12.52c-.09,3.82-.32,7.33-.51,10.85.27,1,.57,2,.93,3.06a24.76,24.76,0,0,0,3.3,6.58,17.12,17.12,0,0,0,5.94,5.07,25,25,0,0,0,6.87,2.22c2.26.41,4.42.6,6.51.79s4,.43,6.06.69c1,.09,2,.33,3,.51s2,.36,3,.59l2.93.76,1.47.39,1.45.47,2.89.94,2.84,1.1c1.92.69,3.73,1.62,5.59,2.46.52.25,1,.52,1.54.78.74.39,1.49.79,2.23,1.2q2.22,1.23,4.37,2.59c.68.44,1.35.89,2,1.35a87.93,87.93,0,0,1,10,8A68,68,0,0,1,417.6,456.1h0a.16.16,0,0,0,0,.07,1,1,0,1,0,1.73-1A106,106,0,0,0,404.58,434.61Z"/><path class="cls-4" d="M234.6,358.07c.33-1.69.63-3.38,1.1-5a51.84,51.84,0,0,1,3.58-9.57c.5-1,1-1.94,1.6-2.89a94.52,94.52,0,0,0-11.58,6.84c-1.14.78-2.25,1.6-3.36,2.43-.07.31-.15.62-.21.93-.42,2-.65,4-.9,6.05s-.29,4.08-.28,6.06a102.28,102.28,0,0,0,.62,11.79c.86,7.74,2.37,15.23,3.85,22.6s2.91,14.64,3.67,22a146.27,146.27,0,0,1,.57,22.16,148.79,148.79,0,0,1-2.9,22.09,100.25,100.25,0,0,1-6.72,21.32h0l0,.07a1,1,0,1,0,1.87.7c2.64-7.1,5.4-14.15,7.45-21.46a147.39,147.39,0,0,0,5.43-45.29c-.29-7.68-1.26-15.28-2.24-22.74s-2-14.82-2.27-22.08a93.72,93.72,0,0,1,.16-10.75C234.11,361.47,234.37,359.77,234.6,358.07Z"/><path class="cls-4" d="M133.78,335.67c3-.51,6.08-.92,9.07-1.65,1.5-.36,3-.62,4.5-1l4.46-1.24a120.13,120.13,0,0,0,17.33-6.64c2.85-1.24,5.53-2.83,8.29-4.28s5.3-3.17,7.82-4.79c2.92-1.88,5.76-3.76,8.56-5.57l.74-.47c1.78-1.14,3.56-2.26,5.33-3.31l.52-.3,1-.59c1.88-1.08,3.75-2.07,5.63-2.95a51.57,51.57,0,0,1,7.14-2.82c1.19-.39,2.38-.67,3.57-.95a21.35,21.35,0,0,1,3.23-.48h.34a27.35,27.35,0,0,1,6.31.33,26.65,26.65,0,0,1,7.57,2.44A22.27,22.27,0,0,1,238,303c.4.29.79.6,1.15.91a14.08,14.08,0,0,1,2.4,2.61,13.73,13.73,0,0,1,.78,1.28,10.87,10.87,0,0,1,.72,2,11.54,11.54,0,0,1,.2,1.67c0,.13,0,.26,0,.4s0,.51.05.75a6.37,6.37,0,0,0,.1.63c.61-.29,1.22-.59,1.84-.87a101.86,101.86,0,0,1,9.63-3.79q2.77-.93,5.61-1.69l2-.54.28-.06c-.06-.24-.11-.48-.17-.71s-.05-.17-.07-.26c-.12-.44-.25-.88-.39-1.31,0-.06,0-.11-.05-.16s0-.08,0-.12l-.18-.47c-.18-.49-.37-1-.57-1.44s-.47-1.05-.72-1.57-.59-1.13-.9-1.67c-.15-.26-.29-.52-.44-.77-.28-.43-.56-.86-.85-1.28l-.47-.63a32.84,32.84,0,0,0-6-6.18c-.43-.34-.86-.66-1.29-1s-.86-.57-1.29-.85l-.4-.26c-1.06-.68-2.14-1.32-3.23-1.88s-2.35-1.11-3.54-1.59a45.42,45.42,0,0,0-12.47-3h-.06c-.57-.05-1.14-.08-1.71-.11-.41,0-.82-.05-1.24-.06a44.33,44.33,0,0,0-6.8.34c-.37.05-.74.08-1.11.14l-1.07.17c-.86.16-1.72.34-2.56.56-.61.15-1.2.3-1.77.47-1.48.46-3,.94-4.37,1.5-.15.06-.32.11-.47.18a67.2,67.2,0,0,0-8.29,3.92l-.66.36c-.93.52-1.83,1.05-2.72,1.59-1.83,1.12-3.61,2.28-5.33,3.46-.71.48-1.39,1-2.08,1.46-2.52,1.78-4.95,3.58-7.32,5.36-1.69,1.27-3.36,2.53-5,3.75l-.17.12-1.66,1.2c-1.69,1.23-3.38,2.42-5.08,3.55-1.37.83-2.72,1.71-4.09,2.55-1,.61-2,1.19-3,1.72a106.27,106.27,0,0,1-15.13,7l-1.64.57-2.31.81c-1.31.48-2.68.8-4,1.21-.44.14-.89.26-1.34.39-2.25.63-4.53,1.11-6.81,1.65-1.06.23-2.14.41-3.21.59l-.93.17c-1,.18-2,.34-3,.48-.38.05-.77.12-1.15.15l-4.2.51h-.1l-1.29.09-2.59.18h-.23l-1,.07-1.07.08-2.12,0c-1.41,0-2.82.06-4.23.05l-.65,0-1.12-.05-2.23-.08-1.1-.06c-1.13-.05-2.25-.13-3.37-.26a109.82,109.82,0,0,1-16.76-2.81A157.24,157.24,0,0,1,65.1,318.9c-5.51-2-11.11-4.08-16.95-5.63A57.6,57.6,0,0,0,30,311.05a40.92,40.92,0,0,0-17.55,5,32.11,32.11,0,0,0-7.27,5.66,27,27,0,0,0-5.09,7.8s0,.08,0,.12a1.49,1.49,0,1,0,2.84.93h0c1.71-5.24,5.93-9.46,10.91-12a33.78,33.78,0,0,1,8-2.71,36.74,36.74,0,0,1,8.36-.85,52.89,52.89,0,0,1,16.54,3.15c5.41,1.8,10.71,4.17,16.09,6.53a164.87,164.87,0,0,0,16.74,6.56,117.69,117.69,0,0,0,17.73,4.16c1.66.31,3.33.5,5,.68l.91.09,1.87.2.91.09.38,0c1.52.11,3.05.17,4.57.25l2.29.12h6.88l2.36-.13,2.22-.12c1.47-.06,2.93-.22,4.39-.38l.18,0,3.38-.39C133,335.77,133.39,335.73,133.78,335.67Z"/><path class="cls-4" d="M221.19,347.3q2.42-2,4.93-3.89l.26-.19,1.68-1.21a98.16,98.16,0,0,1,16.76-9.62c1.56-.7,3.13-1.36,4.72-2,1.07-.41,2.15-.79,3.24-1.16q3.6-1.2,7.28-2.07a77.86,77.86,0,0,1,8.67-1.52l.4-.05h0l.44-.06.27-.07a6.63,6.63,0,0,0,2-.77,6.3,6.3,0,0,0,.8-.55l.85,1.26.21.31,3,4.38c.31.47.63.93.93,1.39.65,1,1.27,2,1.87,3,.36.6.72,1.19,1.05,1.78l.32.58.43.76.93,1.58.47.78.52.73,1.05,1.45c.73,1,1.49,1.87,2.28,2.74a63.46,63.46,0,0,0,7.23,6.72c3.29,2.67,6.56,5,9.55,7.45a60.75,60.75,0,0,1,5.81,5.26c.73.78,1.43,1.56,2.07,2.37a22.61,22.61,0,0,1,1.51,2.1A23.1,23.1,0,0,1,314,371a27.73,27.73,0,0,1,1.9,4.86c2,6.88,2,14.94,2.46,23l2.3,48.34,1.15,24.17c.27,6.13.64,12.26.73,18.39,0,1.93,0,3.86,0,5.78v.08a1,1,0,0,0,1.05.94,1,1,0,0,0,.95-1c-.11-1.92-.17-3.85-.2-5.78-.11-6.13.06-12.27.13-18.41l.36-24.19.74-48.39c0-.93,0-1.86,0-2.8.05-3.09.11-6.19.07-9.41a69.41,69.41,0,0,0-.87-10.52c-.14-.78-.28-1.56-.46-2.35-.24-1.05-.52-2.1-.85-3.15s-.77-2.26-1.25-3.37a29.42,29.42,0,0,0-1.58-3.12,29,29,0,0,0-1.83-2.94,46.83,46.83,0,0,0-4.14-5.13c-.6-.65-1.21-1.28-1.82-1.89-.95-.95-1.91-1.87-2.87-2.75-3.11-2.85-6.2-5.44-9-8.06-1.34-1.25-2.6-2.51-3.76-3.78a34.8,34.8,0,0,1-3.34-4.26l-.65-1.05-.33-.52-.26-.54-.53-1.07-.28-.57-.36-.77c-.34-.71-.69-1.39-1-2.08-.21-.42-.42-.84-.64-1.25l-.2-.37-.63-1.16-.5-.91-.27-.48C287.1,322.6,286,320.78,285,319l-.07-.12-.88-1.52c-.55-.95-1.08-1.9-1.59-2.83a4.36,4.36,0,0,0-.24-.41,6.24,6.24,0,0,0-.53-.71,5.92,5.92,0,0,0-.41-.45,6.57,6.57,0,0,0-1-.8,6.46,6.46,0,0,0-1.84-.87.29.29,0,0,0-.1,0,6.68,6.68,0,0,0-2.31-.26,6.47,6.47,0,0,0-1.22.2,6.93,6.93,0,0,0-2,.84,6.81,6.81,0,0,0-.93.73l-.06.05-.19.18a5.28,5.28,0,0,0-.53-.27c-.2-.09-.4-.16-.6-.23a7,7,0,0,0-1.44-.32,6.77,6.77,0,0,0-.9,0c-.26,0-.53,0-.79.06l-.23,0h-.06c-1.08.2-2.17.41-3.25.65l-.4.09-1.29.31a94.07,94.07,0,0,0-16,5.39l0,0-.66.29c-1.14.51-2.27,1-3.38,1.59l-.42.2-.2.11c-1.19.59-2.35,1.21-3.51,1.85l-.3.17-.66.38c-1.22.69-2.43,1.4-3.62,2.14q-3,1.88-5.92,3.94-4,2.87-7.75,6a140.42,140.42,0,0,0-32.29,40.19c-8.17,15-14,31.08-18.49,47.28-2.27,8.11-4.23,16.28-6,24.47s-3.34,16.43-5.53,24.51c0,0,0,.05,0,.07a1,1,0,0,0,2,.38c1.6-8.22,3.88-16.27,6.15-24.31s4.73-16,7.45-23.88c5.43-15.71,12-31,20.73-44.9A133.88,133.88,0,0,1,221.19,347.3Z"/></g></svg>