<svg xmlns="http://www.w3.org/2000/svg" xmlns:xlink="http://www.w3.org/1999/xlink" viewBox="0 0 566.93 566.93"><defs><style>.cls-1{mask:url(#mask);}.cls-2{fill:#4c4a48;}</style><mask id="mask" x="200.74" y="408.35" width="1097.34" height="808.04" maskUnits="userSpaceOnUse"/></defs><g id="Armfotinger"><g class="cls-1"><path class="cls-2" d="M421.7,658.1a138.11,138.11,0,0,0-9.4,27.3,144.87,144.87,0,0,0-3.55,28.66c-.51,19.3,2.68,38.57,8.22,57A261.11,261.11,0,0,0,440.13,824,347.8,347.8,0,0,0,473,871.48c24.44,29.86,53,56.16,84,79.17a592.45,592.45,0,0,0,208,97.8c37.44,9.13,75.93,14.36,114.49,14.13a347.5,347.5,0,0,0,57.52-5,260.16,260.16,0,0,0,55.42-15.89c17.72-7.49,34.55-17.3,49-30a143.43,143.43,0,0,0,19.74-21A134,134,0,0,0,1085.62,939a143.81,143.81,0,0,0,3.57-28.56c.54-19.25-2.63-38.48-8.14-56.9A260.42,260.42,0,0,0,1058,800.69a348.31,348.31,0,0,0-32.8-47.51c-24.39-29.86-53-56.19-83.85-79.23a592.5,592.5,0,0,0-208-98c-37.44-9.17-75.94-14.45-114.52-14.26a348.14,348.14,0,0,0-57.57,4.94,260.09,260.09,0,0,0-55.52,15.85c-17.75,7.48-34.63,17.3-49.18,30a144.81,144.81,0,0,0-19.82,21A138.4,138.4,0,0,0,421.7,658.1Zm0,0a138.64,138.64,0,0,1,15-24.67,144.34,144.34,0,0,1,19.81-21c14.54-12.72,31.42-22.56,49.17-30.07a260.94,260.94,0,0,1,55.53-15.92,348.58,348.58,0,0,1,57.61-5c38.61-.23,77.14,5,114.61,14.15a592.31,592.31,0,0,1,208.23,97.88c31,23,59.59,49.36,84.06,79.26a348,348,0,0,1,32.93,47.58,261.16,261.16,0,0,1,23.21,53c5.55,18.49,8.76,37.81,8.24,57.17a144.4,144.4,0,0,1-3.57,28.76A133.76,133.76,0,0,1,1062,991.35a145.29,145.29,0,0,1-19.89,21.07c-14.6,12.74-31.53,22.58-49.32,30.08a260.62,260.62,0,0,1-55.62,15.88,348.12,348.12,0,0,1-57.65,4.95c-38.64.19-77.18-5.09-114.65-14.28A592.82,592.82,0,0,1,556.76,951c-30.92-23.06-59.51-49.41-83.94-79.32A347.5,347.5,0,0,1,440,824.05a261.38,261.38,0,0,1-23.12-52.93c-5.52-18.47-8.7-37.75-8.16-57.06a144.91,144.91,0,0,1,3.58-28.67A137.89,137.89,0,0,1,421.7,658.1Z"/><path class="cls-2" d="M389,642.68a152.61,152.61,0,0,0-10.34,30,159.3,159.3,0,0,0-3.9,31.52c-.57,21.24,2.94,42.43,9,62.72a286.82,286.82,0,0,0,25.47,58.18,382.7,382.7,0,0,0,36.17,52.27c26.88,32.84,58.34,61.78,92.36,87.09a651.73,651.73,0,0,0,228.87,107.6c41.18,10.05,83.52,15.81,126,15.55a382.32,382.32,0,0,0,63.28-5.49,286.39,286.39,0,0,0,61-17.47c19.49-8.24,38-19,54-33a158.54,158.54,0,0,0,21.72-23.06,147.42,147.42,0,0,0,26.81-57,158.53,158.53,0,0,0,3.93-31.43c.58-21.18-2.9-42.34-9-62.61a286.49,286.49,0,0,0-25.38-58.12,382.22,382.22,0,0,0-36.1-52.27c-26.83-32.85-58.25-61.82-92.24-87.15A651.62,651.62,0,0,0,731.79,552.28c-41.18-10.09-83.53-15.89-126-15.68A383,383,0,0,0,542.48,542a287.26,287.26,0,0,0-61.06,17.44c-19.53,8.23-38.1,19-54.1,33a158.94,158.94,0,0,0-21.81,23.1A152.11,152.11,0,0,0,389,642.68Zm0,0a152,152,0,0,1,16.54-27.13,159,159,0,0,1,21.79-23.13c16-14,34.56-24.81,54.09-33.07a287.41,287.41,0,0,1,61.08-17.5,383.29,383.29,0,0,1,63.36-5.5c42.47-.26,84.85,5.51,126.07,15.57a651.8,651.8,0,0,1,229,107.68c34.05,25.32,65.54,54.29,92.45,87.18a382.78,382.78,0,0,1,36.22,52.34,287.22,287.22,0,0,1,25.51,58.27c6.12,20.34,9.64,41.58,9.07,62.88a159,159,0,0,1-3.93,31.63,147.15,147.15,0,0,1-27,57.33,159.93,159.93,0,0,1-21.87,23.18c-16.05,14-34.67,24.83-54.23,33.08A287.37,287.37,0,0,1,956,1083a383.92,383.92,0,0,1-63.41,5.44c-42.49.21-84.88-5.6-126.1-15.7A651.69,651.69,0,0,1,537.53,964.8c-34-25.35-65.47-54.34-92.33-87.24a381.86,381.86,0,0,1-36.14-52.33A286.54,286.54,0,0,1,383.63,767c-6.09-20.31-9.58-41.52-9-62.76a159.45,159.45,0,0,1,3.94-31.53A152.39,152.39,0,0,1,389,642.68Z"/><path class="cls-2" d="M352.93,625.72a167.16,167.16,0,0,0-11.37,33,174.65,174.65,0,0,0-4.31,34.68c-.62,23.36,3.24,46.67,9.95,69a314.35,314.35,0,0,0,28,64A420.36,420.36,0,0,0,415,883.93c29.57,36.13,64.17,68,101.6,95.81a716.63,716.63,0,0,0,251.75,118.37c45.31,11.06,91.89,17.4,138.55,17.12a420.72,420.72,0,0,0,69.62-6A315.22,315.22,0,0,0,1043.6,1090c21.44-9.06,41.82-20.94,59.36-36.29a174,174,0,0,0,23.91-25.37,162.46,162.46,0,0,0,29.5-62.68,174.32,174.32,0,0,0,4.32-34.58c.64-23.3-3.19-46.58-9.87-68.88a314.1,314.1,0,0,0-27.93-63.94,419,419,0,0,0-39.71-57.5c-29.52-36.14-64.08-68-101.47-95.87A716.67,716.67,0,0,0,730.06,526.27c-45.31-11.1-91.89-17.48-138.58-17.25a421.35,421.35,0,0,0-69.67,6,314.93,314.93,0,0,0-67.17,19.19c-21.48,9-41.91,20.93-59.51,36.3a174.8,174.8,0,0,0-24,25.41A167.44,167.44,0,0,0,352.93,625.72Zm0,0a167.42,167.42,0,0,1,18.19-29.83,175,175,0,0,1,24-25.45c17.59-15.38,38-27.29,59.5-36.37a315.67,315.67,0,0,1,67.19-19.25,420.58,420.58,0,0,1,69.69-6.05c46.72-.28,93.34,6.07,138.68,17.13A717,717,0,0,1,982.08,644.36c37.45,27.86,72.09,59.72,101.69,95.89a421.67,421.67,0,0,1,39.83,57.57,315.47,315.47,0,0,1,28.06,64.1c6.73,22.36,10.6,45.73,10,69.15a174.91,174.91,0,0,1-4.32,34.78,162,162,0,0,1-29.68,63.05,175.8,175.8,0,0,1-24.05,25.49c-17.65,15.4-38.12,27.31-59.64,36.38A316.12,316.12,0,0,1,976.66,1110a420.34,420.34,0,0,1-69.75,6c-46.74.24-93.37-6.14-138.71-17.25A717.31,717.31,0,0,1,516.38,980c-37.43-27.89-72-59.77-101.57-95.95a421.81,421.81,0,0,1-39.76-57.57,315.22,315.22,0,0,1-28-64c-6.69-22.34-10.54-45.67-9.89-69a174.59,174.59,0,0,1,4.34-34.68A167.25,167.25,0,0,1,352.93,625.72Z"/><path class="cls-2" d="M313.3,607.07a184.11,184.11,0,0,0-12.51,36.34,192.25,192.25,0,0,0-4.73,38.15c-.69,25.69,3.55,51.34,10.93,75.9a346.84,346.84,0,0,0,30.82,70.39,462.69,462.69,0,0,0,43.76,63.25c32.53,39.76,70.59,74.78,111.76,105.41a788.26,788.26,0,0,0,276.93,130.22c49.84,12.17,101.08,19.14,152.42,18.83a461.31,461.31,0,0,0,76.58-6.64,346.68,346.68,0,0,0,73.8-21.14c23.58-10,46-23,65.31-39.92a191.89,191.89,0,0,0,26.3-27.91,178.25,178.25,0,0,0,32.46-69,191.28,191.28,0,0,0,4.75-38.05c.71-25.64-3.5-51.25-10.85-75.78a346.67,346.67,0,0,0-30.73-70.35,462.55,462.55,0,0,0-43.69-63.25c-32.47-39.76-70.5-74.8-111.63-105.46A788.31,788.31,0,0,0,728.15,497.65c-49.84-12.21-101.08-19.23-152.45-19a461.93,461.93,0,0,0-76.63,6.58,346.77,346.77,0,0,0-73.89,21.1c-23.63,10-46.1,23-65.46,39.94a192.29,192.29,0,0,0-26.38,28A183.63,183.63,0,0,0,313.3,607.07Zm0,0a184,184,0,0,1,20-32.82,193,193,0,0,1,26.37-28c19.35-16.92,41.82-30,65.45-40A347.14,347.14,0,0,1,499,485.08a462.35,462.35,0,0,1,76.66-6.64c51.39-.31,102.67,6.67,152.54,18.85a788.8,788.8,0,0,1,277.11,130.3c41.2,30.65,79.29,65.7,111.85,105.49A463.11,463.11,0,0,1,1161,796.4a347.41,347.41,0,0,1,30.86,70.5c7.39,24.6,11.65,50.3,11,76.05a192.51,192.51,0,0,1-4.74,38.25,178.23,178.23,0,0,1-32.64,69.33,192.8,192.8,0,0,1-26.45,28c-19.41,17-41.93,30-65.6,40a348,348,0,0,1-74,21.13,462,462,0,0,1-76.72,6.59c-51.41.26-102.7-6.76-152.57-19a788.69,788.69,0,0,1-277-130.52c-41.17-30.68-79.22-65.75-111.73-105.55a462.29,462.29,0,0,1-43.73-63.32,346.64,346.64,0,0,1-30.78-70.45c-7.36-24.57-11.59-50.23-10.88-75.93a192.2,192.2,0,0,1,4.77-38.15A183.76,183.76,0,0,1,313.3,607.07Z"/><path class="cls-2" d="M269.72,586.55a201.27,201.27,0,0,0-13.77,40,211,211,0,0,0-5.21,42c-.76,28.26,3.91,56.48,12,83.49a382.2,382.2,0,0,0,33.9,77.44A509.92,509.92,0,0,0,344.8,899c35.78,43.73,77.65,82.26,122.93,116a867.43,867.43,0,0,0,304.63,143.26c54.82,13.38,111.19,21.06,167.66,20.72a508.2,508.2,0,0,0,84.25-7.3,381,381,0,0,0,81.19-23.26c26-11,50.62-25.34,71.86-43.91a211.3,211.3,0,0,0,28.94-30.71A196.59,196.59,0,0,0,1242,997.86,210.66,210.66,0,0,0,1247.2,956c.78-28.21-3.86-56.38-11.94-83.37a381.19,381.19,0,0,0-33.82-77.39,507.6,507.6,0,0,0-48.06-69.58c-35.72-43.74-77.56-82.29-122.81-116A867.32,867.32,0,0,0,726.05,466.17c-54.82-13.43-111.2-21.14-167.69-20.85a508.83,508.83,0,0,0-84.3,7.24,381.86,381.86,0,0,0-81.28,23.22c-26,11-50.71,25.34-72,43.94a211.66,211.66,0,0,0-29,30.75A202.26,202.26,0,0,0,269.72,586.55Zm0,0a201.74,201.74,0,0,1,22-36.1,211.2,211.2,0,0,1,29-30.78c21.29-18.62,46-33,72-44A381,381,0,0,1,474,452.38a508.19,508.19,0,0,1,84.33-7.31c56.53-.34,112.93,7.34,167.79,20.74A867.51,867.51,0,0,1,1031,609.15c45.31,33.71,87.21,72.27,123,116a510.17,510.17,0,0,1,48.18,69.64,382.41,382.41,0,0,1,33.95,77.54c8.12,27.06,12.8,55.33,12,83.65a212,212,0,0,1-5.22,42.06,195.84,195.84,0,0,1-35.9,76.25,211.63,211.63,0,0,1-29.08,30.83c-21.35,18.64-46.11,33-72.14,44a382.22,382.22,0,0,1-81.39,23.25,509.89,509.89,0,0,1-84.38,7.25c-56.55.29-113-7.43-167.82-20.87a867.39,867.39,0,0,1-304.7-143.56c-45.28-33.74-87.14-72.32-122.9-116.09a509.52,509.52,0,0,1-48.11-69.65A382.16,382.16,0,0,1,262.64,752c-8.09-27-12.74-55.26-12-83.53a211.21,211.21,0,0,1,5.24-42A201.91,201.91,0,0,1,269.72,586.55Z"/><path class="cls-2" d="M221.77,564a222.26,222.26,0,0,0-15.15,44c-.8,3.8-1.69,7.58-2.28,11.42-.32,1.91-.7,3.82-1,5.74l-.76,5.77c-.29,1.93-.46,3.86-.64,5.79l-.53,5.8-.33,5.82-.16,2.91-.06,2.91c-.84,31.08,4.3,62.12,13.23,91.84s21.91,58.2,37.28,85.18a560.31,560.31,0,0,0,53,76.54c39.36,48.11,85.41,90.49,135.22,127.55a954,954,0,0,0,335.1,157.6C835,1207.56,897,1216,959.11,1215.64a560.05,560.05,0,0,0,92.68-8c30.56-5.36,60.67-13.62,89.31-25.58s55.7-27.88,79.06-48.32l2.21-1.9,2.13-2,4.26-3.95,4.12-4.11c1.38-1.36,2.75-2.73,4-4.17l4-4.26c1.31-1.43,2.53-2.94,3.8-4.4,2.57-2.9,4.92-6,7.32-9a216,216,0,0,0,39.3-83.48c.81-3.79,1.69-7.57,2.29-11.4.32-1.91.7-3.81,1-5.73l.77-5.76c.29-1.92.46-3.85.64-5.78l.54-5.79.32-5.8.17-2.9.06-2.91c.86-31-4.25-62-13.15-91.72s-21.85-58.17-37.2-85.13A558.87,558.87,0,0,0,1193.83,717c-39.3-48.11-85.32-90.52-135.1-127.61a953.9,953.9,0,0,0-335-157.82c-60.31-14.77-122.32-23.26-184.47-22.93a559.6,559.6,0,0,0-92.73,8c-30.58,5.35-60.73,13.59-89.41,25.55s-55.78,27.87-79.2,48.33l-2.21,1.9-2.13,2-4.28,4-4.13,4.11c-1.38,1.37-2.76,2.73-4.06,4.18l-4,4.27c-1.31,1.43-2.54,2.94-3.81,4.4-2.58,2.91-4.93,6-7.34,9A222.21,222.21,0,0,0,221.77,564Zm0,0A222.23,222.23,0,0,1,246,524.27c2.41-3,4.76-6.14,7.34-9,1.27-1.46,2.5-3,3.81-4.4l4-4.27c1.3-1.45,2.68-2.82,4.06-4.18l4.12-4.12,4.28-3.95,2.13-2,2.21-1.91c23.41-20.47,50.6-36.32,79.19-48.4s58.84-20.25,89.43-25.61a559.85,559.85,0,0,1,92.76-8c62.17-.36,124.22,8.09,184.56,22.82A954.43,954.43,0,0,1,1059.1,588.87C1109,626,1155,668.36,1194.42,716.5a560.66,560.66,0,0,1,53,76.61c15.39,27,28.26,55.52,37.33,85.29s14.09,60.85,13.25,92l-.06,2.91-.16,2.92-.33,5.82-.53,5.82c-.18,1.93-.35,3.87-.64,5.8l-.77,5.78c-.26,1.93-.64,3.84-1,5.76-.6,3.85-1.49,7.64-2.29,11.44a215.91,215.91,0,0,1-39.48,83.86c-2.42,3-4.78,6.15-7.36,9.06-1.28,1.47-2.5,3-3.82,4.41l-4,4.28c-1.3,1.45-2.69,2.82-4.07,4.19l-4.13,4.12-4.29,4-2.14,2-2.21,1.91c-23.47,20.49-50.71,36.34-79.34,48.41s-58.9,20.23-89.51,25.58a560.68,560.68,0,0,1-92.82,8c-62.2.33-124.25-8.16-184.59-22.94a954.47,954.47,0,0,1-335.17-157.91C389.54,998.42,343.5,956,304.16,907.84a560.79,560.79,0,0,1-52.92-76.61c-15.36-27-28.2-55.5-37.24-85.24s-14-60.78-13.17-91.87l.06-2.92.17-2.9.32-5.82.54-5.8c.18-1.94.35-3.87.64-5.79l.77-5.77c.27-1.93.65-3.83,1-5.75.6-3.84,1.48-7.62,2.29-11.42A222,222,0,0,1,221.77,564Z"/></g></g><g id="Pigghuder"><path class="cls-2" d="M566.71,220.89a12.08,12.08,0,0,0-.67-2.17,12.53,12.53,0,0,0-1.07-2,11,11,0,0,0-1.44-1.75,11.7,11.7,0,0,0-1.76-1.45,12.12,12.12,0,0,0-2-1.07,11.81,11.81,0,0,0-2.17-.66,11.2,11.2,0,0,0-4.54,0,12.15,12.15,0,0,0-2.18.66,11.68,11.68,0,0,0-1.91,1,11.61,11.61,0,0,0-20.78-3.09,11.61,11.61,0,0,0-18.54,1,11.62,11.62,0,0,0-18.55,1,11.62,11.62,0,0,0-18.54,1A11.62,11.62,0,0,0,454,214.56a11.61,11.61,0,0,0-18.54,1,11.62,11.62,0,0,0-18.55,1.05,11.61,11.61,0,0,0-18.44.9,11.61,11.61,0,0,0-16.62-1.4,11.64,11.64,0,0,0-15.34-5.56,11.6,11.6,0,0,0-13.33-9.66,11.6,11.6,0,0,0-10.05-12.83,11.6,11.6,0,0,0-6.47-15.35,11.61,11.61,0,0,0-4.82-17.81,11.59,11.59,0,0,0-4.7-18,11.62,11.62,0,0,0-4.7-18,11.61,11.61,0,0,0-4.69-18,11.62,11.62,0,0,0-4.7-18,11.62,11.62,0,0,0-4.69-18,11.61,11.61,0,0,0-4.82-18,11.61,11.61,0,0,0-8.4-18.7c.05-.21.12-.42.16-.63a11.87,11.87,0,0,0,0-4.55A12.24,12.24,0,0,0,293.57,19a12.15,12.15,0,0,0-1.44-1.76,11.14,11.14,0,0,0-1.77-1.44,11.37,11.37,0,0,0-2-1.07,12.4,12.4,0,0,0-2.17-.67,11.51,11.51,0,0,0-4.53,0,12.14,12.14,0,0,0-2.17.67,11,11,0,0,0-2,1.07,10.71,10.71,0,0,0-1.77,1.44A12.22,12.22,0,0,0,274.25,19a12.86,12.86,0,0,0-1.06,2,12,12,0,0,0-.66,2.17,11.68,11.68,0,0,0-.23,2.28,12,12,0,0,0,.18,2,11.61,11.61,0,0,0-9.66,18.24A11.62,11.62,0,0,0,258.27,63a11.62,11.62,0,0,0-4.47,17.25,11.62,11.62,0,0,0-4.48,17.23,11.62,11.62,0,0,0-4.47,17.25,11.62,11.62,0,0,0-4.47,17.24,11.61,11.61,0,0,0-4.47,17.25,11.6,11.6,0,0,0-4.48,17.23,11.63,11.63,0,0,0-6.26,7.59,11.51,11.51,0,0,0,1,8.33,11.62,11.62,0,0,0-7.77,13.27,11.62,11.62,0,0,0-11.32,10.8,11.61,11.61,0,0,0-13.74,7.5,11.59,11.59,0,0,0-15,3.38,11.63,11.63,0,0,0-16.68.16,11.59,11.59,0,0,0-17.77-1.14,11.62,11.62,0,0,0-17.79-1.13A11.59,11.59,0,0,0,108.29,214a11.61,11.61,0,0,0-17.78-1.13,11.59,11.59,0,0,0-17.77-1.14A11.61,11.61,0,0,0,55,210.62a11.61,11.61,0,0,0-17.88-1,11.61,11.61,0,0,0-19.84,2.24,12.72,12.72,0,0,0-1.17-.58,13.7,13.7,0,0,0-2.18-.66,11.51,11.51,0,0,0-4.53,0,13.7,13.7,0,0,0-2.18.66,11.89,11.89,0,0,0-3.77,2.51A12.24,12.24,0,0,0,2,215.54a11.37,11.37,0,0,0-1.07,2,12.63,12.63,0,0,0-.66,2.17,11.32,11.32,0,0,0,0,4.54,12.91,12.91,0,0,0,.66,2.17,12.12,12.12,0,0,0,1.07,2A11.64,11.64,0,0,0,3.4,230.2a11.78,11.78,0,0,0,1.77,1.45,11.6,11.6,0,0,0,2,1.06,12.77,12.77,0,0,0,2.18.67c.26.05.52.08.78.11A11.6,11.6,0,0,0,24.9,248.92a11.61,11.61,0,0,0,15.67,9.91,11.62,11.62,0,0,0,15.69,9.92,11.59,11.59,0,0,0,15.67,9.92,11.61,11.61,0,0,0,15.68,9.91,11.6,11.6,0,0,0,15.67,9.93A11.63,11.63,0,0,0,119,308.42a11.61,11.61,0,0,0,15.48,10,11.62,11.62,0,0,0,12.6,10.83,11.63,11.63,0,0,0,9.14,13.48,11.6,11.6,0,0,0,5.11,15.62,11.63,11.63,0,0,0,.6,16.27,11.61,11.61,0,0,0-3.74,16.23,11.6,11.6,0,0,0-6.5,17.25A11.62,11.62,0,0,0,145,425.4a11.61,11.61,0,0,0-6.68,17.31A11.61,11.61,0,0,0,131.65,460,11.63,11.63,0,0,0,125,477.33a11.62,11.62,0,0,0-6.66,17.31,11.61,11.61,0,0,0-6.6,17.42,11.62,11.62,0,0,0-4.11,20.07c-.26.22-.52.45-.76.69a12.31,12.31,0,0,0-1.45,1.77,12.07,12.07,0,0,0-1.07,2,11.81,11.81,0,0,0-.66,2.17,11.54,11.54,0,0,0-.22,2.26,11.67,11.67,0,0,0,.22,2.28,12,12,0,0,0,.66,2.17,12.48,12.48,0,0,0,1.07,2,12.22,12.22,0,0,0,1.45,1.76,11.24,11.24,0,0,0,1.77,1.44,11.55,11.55,0,0,0,2,1.07,12.77,12.77,0,0,0,2.18.67,11.49,11.49,0,0,0,2.27.22,11.64,11.64,0,0,0,2.27-.22,13,13,0,0,0,2.17-.67,11.89,11.89,0,0,0,3.77-2.51,12.15,12.15,0,0,0,1.44-1.76,12.57,12.57,0,0,0,1-1.77,11.61,11.61,0,0,0,19-9.43,11.61,11.61,0,0,0,14.29-11.74,11.62,11.62,0,0,0,14.29-11.75,11.62,11.62,0,0,0,14.29-11.74,11.63,11.63,0,0,0,14.29-11.76,11.61,11.61,0,0,0,14.3-11.74,11.6,11.6,0,0,0,14.29-11.75,11.62,11.62,0,0,0,14.3-11.51,11.62,11.62,0,0,0,14.19-8.5,11.61,11.61,0,0,0,15.63-4.39,11.62,11.62,0,0,0,16.39.06A11.62,11.62,0,0,0,306.44,446a11.55,11.55,0,0,0,4.9,7.06h0a11.53,11.53,0,0,0,9.34,1.55,11.62,11.62,0,0,0,14.39,11.49,11.6,11.6,0,0,0,14.39,11.62,11.6,11.6,0,0,0,14.38,11.63A11.62,11.62,0,0,0,378.23,501a11.61,11.61,0,0,0,14.39,11.63A11.61,11.61,0,0,0,407,524.24a11.61,11.61,0,0,0,14.51,11.59,11.61,11.61,0,0,0,17.82,10s0,0,0,0a12,12,0,0,0,1.07,2,11.72,11.72,0,0,0,1.44,1.77,12.24,12.24,0,0,0,1.77,1.44,11.64,11.64,0,0,0,2,1.07,10.53,10.53,0,0,0,2.18.66,11.55,11.55,0,0,0,2.26.23,11.68,11.68,0,0,0,2.28-.23,10.63,10.63,0,0,0,2.17-.66,12.53,12.53,0,0,0,2-1.07,11.56,11.56,0,0,0,1.75-1.44,11.7,11.7,0,0,0,2.52-3.77,11.81,11.81,0,0,0,.66-2.17,10.93,10.93,0,0,0,.23-2.27,10.79,10.79,0,0,0-.23-2.27,11.58,11.58,0,0,0-.66-2.17,11.73,11.73,0,0,0-1.07-2,11.13,11.13,0,0,0-1.45-1.76c-.23-.24-.49-.46-.74-.68a11.6,11.6,0,0,0-3.44-20.72,11.62,11.62,0,0,0-6.68-17.32,11.61,11.61,0,0,0-6.7-17.31A11.61,11.61,0,0,0,434,459.93a11.62,11.62,0,0,0-6.7-17.32,11.62,11.62,0,0,0-6.69-17.31A11.61,11.61,0,0,0,414,408a11.62,11.62,0,0,0-6.47-17.25,11.61,11.61,0,0,0-3.63-16.19,11.59,11.59,0,0,0,.78-16.28,11.62,11.62,0,0,0,5.29-15.58,11.6,11.6,0,0,0,9.28-13.38A11.65,11.65,0,0,0,432,318.55a11.62,11.62,0,0,0,15.55-9.93,11.61,11.61,0,0,0,15.72-9.87,11.6,11.6,0,0,0,15.72-9.86A11.62,11.62,0,0,0,494.67,279a11.59,11.59,0,0,0,15.72-9.87,11.61,11.61,0,0,0,15.73-9.86,11.61,11.61,0,0,0,15.74-10.07,11.61,11.61,0,0,0,15-14.56c.26,0,.52-.06.77-.11a12.63,12.63,0,0,0,2.17-.66,12.91,12.91,0,0,0,2-1.07,11.68,11.68,0,0,0,4.27-5.21,11.94,11.94,0,0,0,.67-2.18,11.54,11.54,0,0,0,.22-2.26A11.67,11.67,0,0,0,566.71,220.89Zm-543.27,3.7a2.44,2.44,0,1,1-1.57-3.08A2.44,2.44,0,0,1,23.44,224.59Zm14.67,4.77a3.05,3.05,0,1,1-2-3.85A3,3,0,0,1,38.11,229.36Zm11.22-5.17a2,2,0,1,1,2,2.32,1.53,1.53,0,0,1-.3,0A2,2,0,0,1,49.33,224.19Zm-1.54,18a2,2,0,0,1-1.8,1.11,2,2,0,0,1-.91-.22,2,2,0,1,1,2.71-.89ZM49.44,237a3.81,3.81,0,1,1,4.8-2.44A3.8,3.8,0,0,1,49.44,237Zm5.75,8.87A2,2,0,0,1,53.38,247a2,2,0,0,1-.91-.22,2,2,0,1,1,2.72-.89Zm10.53-19.28a2,2,0,1,1,2,2.31,1.42,1.42,0,0,1-.29,0A2,2,0,0,1,65.72,226.63Zm-8.2-1.22a2,2,0,1,1,2,2.31,1.46,1.46,0,0,1-.29,0A2,2,0,0,1,57.52,225.41Zm5.06,24.24a2,2,0,0,1-1.8,1.1,2.06,2.06,0,0,1-.91-.21,2,2,0,1,1,2.71-.89Zm7.4,3.74a2,2,0,1,1-.9-2.72A2,2,0,0,1,70,253.39Zm2.2-13a4.76,4.76,0,1,1-3.06-6A4.75,4.75,0,0,1,72.18,240.43Zm5.19,16.7a2,2,0,0,1-1.81,1.11,2.08,2.08,0,0,1-.9-.21,2,2,0,0,1-.89-2.72,2,2,0,1,1,3.6,1.82Zm.55-28.69a2,2,0,0,1-2,1.72l-.31,0a2,2,0,0,1,.6-4A2,2,0,0,1,77.92,228.44Zm28.79,4.29a2,2,0,1,1,2,2.31l-.31,0A2,2,0,0,1,106.71,232.73Zm-24.59-3.67a2,2,0,1,1,2,2.33l-.31,0A2,2,0,0,1,82.12,229.06Zm2.64,31.81A2,2,0,0,1,83,262a2,2,0,0,1-.92-.22,2,2,0,1,1,2.71-.89Zm7.41,3.74a2,2,0,0,1-1.81,1.11,2,2,0,0,1-1.8-2.93,2,2,0,1,1,3.61,1.82ZM92.39,247a6,6,0,1,1-3.82-7.51A6,6,0,0,1,92.39,247Zm1.92-16.11a2,2,0,0,1-2,1.73l-.3,0a2,2,0,1,1,2.3-1.7Zm5.25,37.47a2,2,0,0,1-1.81,1.11,2,2,0,1,1,.92-3.82A2,2,0,0,1,99.56,268.35Zm.65-34.55a2,2,0,1,1,.3,0A1.56,1.56,0,0,1,100.21,233.8ZM107,272.09a2,2,0,0,1-1.8,1.11,2,2,0,1,1,.91-3.82A2,2,0,0,1,107,272.09Zm7.4,3.74a2,2,0,0,1-1.81,1.11,2.12,2.12,0,0,1-.91-.21,2,2,0,0,1-.88-2.72,2,2,0,0,1,3.6,1.82Zm1.09-21.35a7.45,7.45,0,1,1-4.78-9.39A7.46,7.46,0,0,1,115.44,254.48Zm1.16-18.24a2,2,0,1,1,.31,0Zm5.14,43.33a2,2,0,0,1-1.8,1.1,2,2,0,0,1-.91-.21,2,2,0,1,1,2.71-.89Zm17.76-42a2,2,0,1,1,2,2.31,1.56,1.56,0,0,1-.31,0A2,2,0,0,1,139.5,237.61Zm-8.2-1.23a2,2,0,0,1,4,.6,2,2,0,0,1-2,1.73,1.55,1.55,0,0,1-.31,0A2,2,0,0,1,131.3,236.38Zm-8.2-1.22a2,2,0,1,1,2,2.33l-.3,0A2,2,0,0,1,123.1,235.16Zm6,48.15a2,2,0,0,1-2.71.89,2,2,0,1,1,2.71-.89Zm7.41,3.74a2,2,0,0,1-1.81,1.11,2.12,2.12,0,0,1-.91-.21,2,2,0,1,1,2.72-.9Zm-6.25-18a9.31,9.31,0,1,1,11.73-6A9.31,9.31,0,0,1,130.29,269.09Zm13.64,21.7a2,2,0,0,1-1.81,1.1,2,2,0,0,1-.91-.21,2,2,0,1,1,2.72-.89ZM123.12,534a2.44,2.44,0,1,1-.54-3.4A2.44,2.44,0,0,1,123.12,534Zm321.16-3.62a2.44,2.44,0,1,1-.54,3.41A2.44,2.44,0,0,1,444.28,530.35ZM408.87,238.73a2,2,0,1,1,.58,4l-.29,0a2,2,0,0,1-.29-4Zm-8.21,1.19a2,2,0,1,1,.59,4l-.29,0a2,2,0,0,1-.3-4Zm-8.2,1.18a2,2,0,0,1,2.3,1.71A2,2,0,0,1,393,245.1a1.37,1.37,0,0,1-.29,0,2,2,0,0,1-.29-4Zm6.18,188.6a2.05,2.05,0,0,1-.89.22,2,2,0,1,1,.89-.22Zm1.9,3.8a2,2,0,0,1,1.81,3.62,2.12,2.12,0,0,1-.91.21,2,2,0,0,1-.9-3.83Zm-37.06-74.12a2,2,0,1,1,1.8,3.61,1.93,1.93,0,0,1-.9.22,2,2,0,0,1-.9-3.83Zm-1.91-3.8a2,2,0,1,1,.91-2.7A2,2,0,0,1,361.57,355.58Zm5.62,11.21a2,2,0,0,1,1.8,3.62,2.08,2.08,0,0,1-.9.21,2,2,0,0,1-1.81-1.12A2,2,0,0,1,367.19,366.79Zm3.7,7.41a2,2,0,1,1,.9,3.83,2,2,0,0,1-1.8-1.11A2,2,0,0,1,370.89,374.2Zm1.05-59.7a2,2,0,1,1,1.82,3.61,2,2,0,0,1-.91.22,2,2,0,0,1-.91-3.83Zm2.66,67.12a2,2,0,1,1,1.81,3.61,2.16,2.16,0,0,1-.91.21,2,2,0,0,1-.9-3.82Zm3.71,7.41a2,2,0,0,1,1.8,3.61,2.1,2.1,0,0,1-.91.22,2,2,0,0,1-.89-3.83Zm1.05-78.24a2,2,0,0,1,1.8,3.61,2,2,0,0,1-.89.21,2,2,0,0,1-.91-3.82ZM382,396.44a2,2,0,0,1,2.71.9,2,2,0,0,1-.9,2.72,2.12,2.12,0,0,1-.91.21,2,2,0,0,1-.9-3.83Zm3.71,7.41a2,2,0,0,1,1.81,3.62,2.16,2.16,0,0,1-.91.21,2,2,0,0,1-.9-3.83Zm1.7,48.24a7.45,7.45,0,1,1-1.65,10.41A7.45,7.45,0,0,1,387.42,452.09Zm5.71-33.41a2,2,0,1,1,1.81,3.61,2.16,2.16,0,0,1-.91.21,2,2,0,0,1-.9-3.82ZM396,307a2.11,2.11,0,0,1-.9.21,2,2,0,1,1,.9-.21Zm-3.86,105.19a2,2,0,0,1-.9,2.71,2.06,2.06,0,0,1-.91.21,2,2,0,0,1-1.8-1.11,2,2,0,1,1,3.61-1.81ZM389.48,308a2,2,0,0,1-.9,2.71,2,2,0,0,1-.9.22,2,2,0,1,1,1.8-2.93Zm-5.22-65.69a2,2,0,1,1,.58,4l-.29,0a2,2,0,0,1-.29-4Zm-8.2,1.18a2,2,0,0,1,.58,4,1.42,1.42,0,0,1-.29,0,2,2,0,0,1-.29-4Zm-8.21,1.19a2,2,0,1,1,.59,4l-.29,0a2,2,0,0,1-.3-4Zm-8.19,1.2a2,2,0,0,1,2.29,1.7,2,2,0,0,1-1.71,2.29,1.46,1.46,0,0,1-.29,0,2,2,0,0,1-.29-4Zm7,21.21a14.55,14.55,0,1,1-9.34,18.33A14.55,14.55,0,0,1,366.67,267.07Zm-15.21-20a2,2,0,1,1,.57,4l-.28,0a2,2,0,0,1-.29-4Zm-25.92,29.57a18.19,18.19,0,1,1-11.67,22.92A18.2,18.2,0,0,1,325.54,276.61Zm-5.16-52a2,2,0,0,1-1.66,2.31,1.84,1.84,0,0,1-.33,0,2,2,0,0,1-2-1.7,2,2,0,1,1,4-.64Zm-1.31-8.18a2,2,0,0,1-1.68,2.31,1.77,1.77,0,0,1-.32,0,2,2,0,0,1-2-1.69,2,2,0,1,1,4-.64Zm-1.32-8.19a2,2,0,0,1-1.68,2.32l-.32,0a2,2,0,1,1,2-2.34ZM316.41,200a2,2,0,0,1-1.66,2.32l-.32,0a2,2,0,1,1,2-2.34Zm-1.31-8.18a2,2,0,0,1-1.67,2.31l-.33,0a2,2,0,1,1,2-2.34Zm-1.32-8.18A2,2,0,0,1,312.1,186a1.19,1.19,0,0,1-.32,0,2,2,0,1,1,2-2.34Zm-1.32-8.18a2,2,0,0,1-1.68,2.32l-.32,0a2,2,0,0,1-.33-4A2,2,0,0,1,312.46,175.48Zm-1.33-8.18a2,2,0,0,1-1.67,2.32,1.76,1.76,0,0,1-.33,0,2,2,0,1,1,2-2.35Zm-1.32-8.19a2.05,2.05,0,0,1-1.68,2.33,1.72,1.72,0,0,1-.32,0,2,2,0,1,1,2-2.35Zm-1.32-8.18a2,2,0,0,1-1.68,2.33l-.32,0a2,2,0,1,1,2-2.35Zm-1.33-8.18a2,2,0,0,1-1.67,2.33l-.32,0a2,2,0,0,1-2-1.7,2,2,0,0,1,4-.65Zm-1.32-8.17a2,2,0,0,1-1.67,2.31l-.33,0a2,2,0,1,1,2-2.34Zm-1.32-8.18a2,2,0,0,1-1.68,2.31,1.66,1.66,0,0,1-.32,0,2,2,0,1,1,2-2.34ZM283.37,142a9.31,9.31,0,1,1-9.31,9.31A9.31,9.31,0,0,1,283.37,142Zm-7.44-16.78a7.45,7.45,0,1,1,7.44,7.45A7.45,7.45,0,0,1,275.93,125.23ZM283.37,170a11.64,11.64,0,1,1-11.63,11.64A11.64,11.64,0,0,1,283.37,170Zm0,32.61a14.55,14.55,0,1,1-14.54,14.55A14.55,14.55,0,0,1,283.37,202.57Zm0,38.43a18.19,18.19,0,1,1-18.18,18.18A18.18,18.18,0,0,1,283.37,241ZM303.2,118.22a2,2,0,0,1-1.68,2.31,1.66,1.66,0,0,1-.32,0,2,2,0,1,1,2-2.34ZM301.87,110a2,2,0,0,1-1.67,2.31,1.69,1.69,0,0,1-.33,0,2,2,0,1,1,2-2.34Zm-1.32-8.19a2,2,0,0,1-1.68,2.32,1.67,1.67,0,0,1-.32,0,2,2,0,1,1,2-2.34Zm-1.32-8.18A2,2,0,0,1,297.56,96l-.32,0a2,2,0,1,1,2-2.34Zm-1.33-8.18a2,2,0,0,1-1.66,2.32l-.32,0a2,2,0,1,1,2-2.34Zm-1.32-8.18a2,2,0,0,1-1.66,2.32l-.34,0a2,2,0,0,1-.31-4A2,2,0,0,1,296.58,77.31Zm-1.32-8.18a2,2,0,0,1-1.67,2.31l-.32,0a2,2,0,1,1,2-2.34Zm-3.64-9.86A2,2,0,0,1,293.94,61a2,2,0,0,1-1.67,2.31l-.32,0a2,2,0,0,1-2-1.69A2,2,0,0,1,291.62,59.27Zm-8.25-28.2a2.44,2.44,0,1,1-2.43,2.44A2.45,2.45,0,0,1,283.37,31.07Zm0,14.21a3,3,0,1,1-3.05,3A3.05,3.05,0,0,1,283.37,45.28Zm0,15.43a3.82,3.82,0,1,1-3.81,3.82A3.82,3.82,0,0,1,283.37,60.71Zm0,17a4.77,4.77,0,1,1-4.76,4.77A4.76,4.76,0,0,1,283.37,77.67Zm0,18.86a6,6,0,1,1-5.95,6A6,6,0,0,1,283.37,96.53ZM272.35,61a2,2,0,1,1,4,.65,2,2,0,0,1-2,1.69,1.93,1.93,0,0,1-.33,0A2,2,0,0,1,272.35,61ZM271,69.13a2.05,2.05,0,0,1,2.33-1.68,2,2,0,0,1-.33,4l-.32,0A2,2,0,0,1,271,69.13Zm-1.32,8.18a2,2,0,1,1,2,2.34l-.32,0A2,2,0,0,1,269.7,77.31Zm-1.31,8.18a2,2,0,1,1,2,2.34l-.33,0A2,2,0,0,1,268.39,85.49Zm-1.32,8.18a2,2,0,1,1,2,2.34l-.32,0A2,2,0,0,1,267.07,93.67Zm-1.33,8.19a2,2,0,1,1,2,2.34l-.32,0A2,2,0,0,1,265.74,101.86ZM264.42,110a2,2,0,1,1,2,2.34l-.32,0A2,2,0,0,1,264.42,110Zm-1.32,8.18a2,2,0,1,1,2,2.34l-.33,0A2,2,0,0,1,263.1,118.22Zm-1.33,8.18a2,2,0,1,1,2,2.34l-.32,0A2,2,0,0,1,261.77,126.4Zm-1.32,8.18a2,2,0,0,1,2.31-1.67,2,2,0,0,1-.32,4l-.32,0A2,2,0,0,1,260.45,134.58Zm-1.32,8.17a2,2,0,0,1,4,.65,2,2,0,0,1-2,1.7l-.33,0A2,2,0,0,1,259.13,142.75Zm-1.32,8.18a2,2,0,1,1,2,2.35,1.77,1.77,0,0,1-.32,0A2,2,0,0,1,257.81,150.93Zm-1.33,8.19a2,2,0,1,1,2,2.35l-.32,0A2,2,0,0,1,256.48,159.12Zm-1.32,8.18a2,2,0,1,1,2,2.35l-.32,0A2,2,0,0,1,255.16,167.3Zm-1.32,8.18a2,2,0,1,1,2,2.35,1.69,1.69,0,0,1-.33,0A2,2,0,0,1,253.84,175.48Zm-1.33,8.18a2,2,0,1,1,2,2.34,1.16,1.16,0,0,1-.32,0A2,2,0,0,1,252.51,183.66Zm-1.32,8.18a2,2,0,1,1,2,2.34,1.66,1.66,0,0,1-.32,0A2,2,0,0,1,251.19,191.84ZM249.87,200a2,2,0,1,1,2,2.34l-.33,0A2,2,0,0,1,249.87,200Zm-1.32,8.18a2,2,0,1,1,2,2.34l-.32,0A2,2,0,0,1,248.55,208.2Zm-1.33,8.19a2,2,0,1,1,4,.64,2,2,0,0,1-2,1.69,1.72,1.72,0,0,1-.32,0A2,2,0,0,1,247.22,216.39Zm-1.32,8.18a2,2,0,1,1,4,.64,2,2,0,0,1-2,1.7,1.73,1.73,0,0,1-.32,0A2,2,0,0,1,245.9,224.57ZM218.45,288a18.19,18.19,0,1,1,11.68,22.92A18.19,18.19,0,0,1,218.45,288Zm-5.19-39.37a2,2,0,1,1,2,2.32,1.37,1.37,0,0,1-.29,0A2,2,0,0,1,213.26,248.58Zm-8.2-1.22a2,2,0,1,1,2,2.32l-.3,0A2,2,0,0,1,205.06,247.36Zm-8.19-1.22a2,2,0,1,1,2,2.32l-.3,0A2,2,0,0,1,196.87,246.14Zm-8.2-1.21a2,2,0,1,1,2,2.31l-.3,0A2,2,0,0,1,188.67,244.93Zm11.57,21.81a14.55,14.55,0,1,1-18.33,9.34A14.55,14.55,0,0,1,200.24,266.74ZM182.38,397.67a2,2,0,1,1,1.81,2.92,2.12,2.12,0,0,1-.91-.21A2,2,0,0,1,182.38,397.67Zm-.11,9.22a2,2,0,0,1-1.81,1.11,2.11,2.11,0,0,1-.9-.21,2,2,0,1,1,2.71-.9Zm2.42-95.48a2,2,0,1,1,1.8,2.93,2,2,0,0,1-1.8-2.93Zm1.41,78.85a2,2,0,1,1,1.81,2.93A2.09,2.09,0,0,1,187,393,2,2,0,0,1,186.1,390.26Zm3.71-7.4a2,2,0,1,1,1.81,2.92,1.88,1.88,0,0,1-.91-.22A2,2,0,0,1,189.81,382.86Zm2.28-67.71a2,2,0,1,1,3.6,1.83,2,2,0,0,1-1.81,1.1,2.08,2.08,0,0,1-.9-.21A2,2,0,0,1,192.09,315.15Zm1.44,60.3a2,2,0,1,1,1.81,2.92,2,2,0,0,1-1.81-2.92Zm3.72-7.41a2,2,0,1,1,1.8,2.92,2,2,0,0,1-.9-.21A2,2,0,0,1,197.25,368Zm3.71-7.41a2,2,0,1,1,1.81,2.93,2.12,2.12,0,0,1-.91-.21A2,2,0,0,1,201,360.63Zm3.72-7.4a2,2,0,1,1,1.81,2.92,2,2,0,0,1-.91-.21A2,2,0,0,1,204.68,353.23ZM180.47,243.71a2,2,0,1,1,2,2.31,1.51,1.51,0,0,1-.3,0A2,2,0,0,1,180.47,243.71Zm-3.17,64a2,2,0,1,1,1.8,2.93,2,2,0,0,1-.91-.22A2,2,0,0,1,177.3,307.67Zm.36,103.91a2,2,0,0,1-.91,3.82,1.92,1.92,0,0,1-.9-.21,2,2,0,0,1,1.81-3.61ZM163.8,434.7a2,2,0,1,1,1.8,2.93,2.08,2.08,0,0,1-.9-.21A2,2,0,0,1,163.8,434.7Zm-.4-131.8a2,2,0,1,1,.91.22A2,2,0,0,1,163.4,302.9Zm4.12,124.4a2,2,0,1,1,1.8,2.92,2,2,0,0,1-.9-.21A2,2,0,0,1,167.52,427.3Zm2.38-123.37a2,2,0,0,1,3.61,1.82,2,2,0,0,1-3.61-1.82Zm1.33,116a2,2,0,1,1,1.8,2.93,2,2,0,0,1-.9-.22A2,2,0,0,1,171.23,419.89Zm1.05-177.41a2,2,0,1,1,2,2.32,1.51,1.51,0,0,1-.3,0A2,2,0,0,1,172.28,242.48Zm-8.2-1.22a2,2,0,1,1,2,2.32l-.3,0A2,2,0,0,1,164.08,241.26Zm-8.2-1.22a2,2,0,1,1,4,.6,2,2,0,0,1-2,1.72l-.29,0A2,2,0,0,1,155.88,240Zm-8.19-1.21a2,2,0,0,1,2.3-1.71,2,2,0,0,1-.3,4l-.3,0A2,2,0,0,1,147.69,238.83Zm3.63,55.7a2,2,0,0,1-1.8,1.11,2,2,0,0,1-.92-.22,2,2,0,1,1,2.72-.89Zm7.4,3.75a2,2,0,0,1-1.81,1.1,1.93,1.93,0,0,1-.9-.22,2,2,0,0,1,1.81-3.6A2,2,0,0,1,158.72,298.28Zm-.35-17.62A11.63,11.63,0,1,1,173,273.19,11.62,11.62,0,0,1,158.37,280.66Zm1.72,161.45a2,2,0,1,1,1.79,2.92,2.08,2.08,0,0,1-.9-.21A2,2,0,0,1,160.09,442.11Zm-3.73,7.41a2,2,0,0,1,2.72-.9,2,2,0,0,1,.89,2.7,2,2,0,0,1-1.8,1.12,1.9,1.9,0,0,1-.9-.22A2,2,0,0,1,156.36,449.52Zm-7.43,14.81a2,2,0,1,1,1.8,2.93,2,2,0,0,1-.9-.22A2,2,0,0,1,148.93,464.33Zm-3.72,7.4a2,2,0,1,1,3.62,1.82,2,2,0,0,1-1.81,1.11,2.12,2.12,0,0,1-.91-.21A2,2,0,0,1,145.21,471.73Zm-7.43,14.82a2,2,0,1,1,3.61,1.81,2,2,0,0,1-1.8,1.11,2.09,2.09,0,0,1-.91-.21A2,2,0,0,1,137.78,486.55Zm-5.45,35.79a3.05,3.05,0,1,1-.68-4.26A3.07,3.07,0,0,1,132.33,522.34ZM134,503.18a2,2,0,0,1-1.81,1.11,2.08,2.08,0,0,1-.9-.21,2,2,0,1,1,2.71-.9Zm.1-9.22a2,2,0,0,1,3.62,1.81,2,2,0,0,1-1.81,1.12,2,2,0,0,1-.91-.22A2,2,0,0,1,134.06,494Zm8.4,15.73a3.82,3.82,0,1,1-.84-5.33A3.82,3.82,0,0,1,142.46,509.69Zm-.07-27.83a2,2,0,1,1,.91.21A2.16,2.16,0,0,1,142.39,481.86ZM147.85,514a2,2,0,0,1-2.86,0,2,2,0,1,1,2.86,0Zm5.86-5.85a2,2,0,0,1-1.43.59,2,2,0,0,1-1.42-.59,2,2,0,1,1,2.85,0Zm0-12.4a4.76,4.76,0,1,1-1-6.65A4.76,4.76,0,0,1,153.76,495.75Zm.69-35.9a1.93,1.93,0,0,1-.9-.22,2,2,0,1,1,.9.22Zm5.12,42.44a2,2,0,0,1-1.42.58,2,2,0,0,1-1.44-3.44,2,2,0,0,1,2.86,2.86Zm5.87-5.86A2,2,0,0,1,164,497a2,2,0,0,1-1.42-.59,2,2,0,0,1,0-2.86,2,2,0,0,1,2.86,2.86Zm1.08-16.2a6,6,0,1,1-1.32-8.32A6,6,0,0,1,166.52,480.23Zm4.77,10.33a2,2,0,0,1-2.85,0,2,2,0,1,1,2.85,0Zm-.61-26.2a7.45,7.45,0,1,1,10.41-1.65A7.46,7.46,0,0,1,170.68,464.36Zm6.47,20.35a2,2,0,0,1-1.42.59,2,2,0,0,1-1.43-3.45,2,2,0,0,1,2.85,2.86Zm5.87-5.86a2.06,2.06,0,0,1-1.44.6,2,2,0,1,1,1.44-.6Zm5.86-5.86a2,2,0,1,1-2.86-2.85,2,2,0,0,1,2.86,2.85Zm5.86-5.85a2,2,0,1,1,0-2.86A2,2,0,0,1,194.74,467.14Zm-9.82-22.38a9.31,9.31,0,1,1,13-2.07A9.32,9.32,0,0,1,184.92,444.76Zm15.68,16.52a2,2,0,0,1-1.42.59,2,2,0,0,1-1.44-.59,2,2,0,1,1,2.86,0Zm5.86-5.87a2,2,0,0,1-1.43.6,2,2,0,0,1-1.42-.6,2,2,0,1,1,2.85,0Zm5.86-5.85a2,2,0,0,1-1.43.59,2,2,0,0,1-1.42-.59,2,2,0,0,1,0-2.86,2,2,0,0,1,2.85,2.86Zm5.86-5.86a2,2,0,0,1-1.42.59,2.06,2.06,0,0,1-1.44-.59,2,2,0,1,1,2.86,0Zm-.57-24.13A11.64,11.64,0,1,1,215,403.31,11.64,11.64,0,0,1,217.61,419.57Zm6.44,18.27a2,2,0,0,1-1.44.6,2,2,0,0,1-1.42-.6,2,2,0,1,1,2.86,0ZM229.9,432a2,2,0,0,1-1.42.58,2,2,0,1,1,1.42-.58Zm5.86-5.86a2,2,0,0,1-2.85,0,2,2,0,1,1,2.85,0Zm5.87-5.87a2,2,0,0,1-2.86,0,2,2,0,0,1,0-2.85,2,2,0,0,1,2.86,0A2,2,0,0,1,241.63,420.26Zm-.79-27.72a14.55,14.55,0,1,1-3.22-20.32A14.55,14.55,0,0,1,240.84,392.54Zm6.65,21.86a2,2,0,0,1-1.43.6,2,2,0,0,1-1.42-.6,2,2,0,1,1,2.85,0Zm5.86-5.85a2,2,0,1,1,0-2.86A2,2,0,0,1,253.35,408.55Zm5.86-5.86a2,2,0,0,1-2.86,0,2,2,0,1,1,2.86,0Zm5.87-5.86a2,2,0,0,1-1.44.59,2,2,0,0,1-1.42-.59,2,2,0,1,1,2.86,0Zm3.42-36.18a18.18,18.18,0,1,1-4-25.4A18.17,18.17,0,0,1,268.5,360.65Zm14.87-28.49a22.73,22.73,0,1,1,22.74-22.73A22.73,22.73,0,0,1,283.37,332.16Zm21.51,64.24a2,2,0,0,1-1.42.59,2.07,2.07,0,0,1-1.44-.6,2,2,0,1,1,2.86,0Zm5.86,5.86a2,2,0,0,1-2.86-2.86,2,2,0,0,1,2.86,2.86Zm5.85,5.87a2,2,0,0,1-2.85-2.86,2,2,0,1,1,2.85,2.86Zm-18.23-47.69a18.18,18.18,0,1,1,25.4,4A18.18,18.18,0,0,1,298.36,360.44ZM322.44,414a2,2,0,0,1-2.85-2.86,2,2,0,0,1,2.85,2.86Zm5.85,5.87a2,2,0,0,1-1.42.59,2,2,0,0,1-1.43-3.45,2,2,0,1,1,2.85,2.86Zm5.86,5.86a2,2,0,1,1,0-2.84A2,2,0,0,1,334.15,425.72Zm5.85,5.87a2,2,0,0,1-2.85,0,2,2,0,1,1,2.85,0Zm5.85,5.87a2,2,0,0,1-1.42.59,2,2,0,1,1,1.43-3.45A2,2,0,0,1,345.85,437.46Zm.49-41.91a14.55,14.55,0,1,1,3.22-20.32A14.55,14.55,0,0,1,346.34,395.55Zm5.37,47.78a2,2,0,1,1,0-2.86A2,2,0,0,1,351.71,443.33Zm5.85,5.86a2,2,0,1,1,0-2.85A2,2,0,0,1,357.56,449.19Zm5.85,5.87a2,2,0,0,1-1.42.6,2.07,2.07,0,0,1-1.44-.6,2,2,0,1,1,2.86,0Zm-14.16-35.71a11.64,11.64,0,1,1,16.26,2.58A11.64,11.64,0,0,1,349.25,419.35Zm20,41.58a2,2,0,0,1-1.44.59,2,2,0,1,1,1.44-.59Zm5.84,5.86a2,2,0,0,1-2.84,0,2,2,0,1,1,2.84,0Zm5.86,5.87a2,2,0,0,1-1.42.6,2.07,2.07,0,0,1-1.44-.6,2,2,0,1,1,2.86,0Zm1-28.12a9.31,9.31,0,1,1,2.06-13A9.31,9.31,0,0,1,381.94,444.54Zm4.89,34a2,2,0,1,1,0-2.86A2,2,0,0,1,386.83,478.53Zm5.85,5.86a2,2,0,1,1-2.85-2.85,2,2,0,1,1,2.85,2.85Zm5.85,5.87a2,2,0,0,1-1.43.59,2,2,0,0,1-1.42-.59,2,2,0,1,1,2.85,0Zm5.86,5.87a2,2,0,0,1-1.42.58,2,2,0,1,1,1.42-.58Zm5.85,5.87a2,2,0,1,1,0-2.86A2,2,0,0,1,410.24,502Zm-1.57-20.66A6,6,0,1,1,410,473,6,6,0,0,1,408.67,481.34Zm7.42,26.52a2,2,0,0,1-2.85,0,2,2,0,1,1,2.85,0Zm-3-12.32a4.76,4.76,0,1,1,6.66,1.06A4.77,4.77,0,0,1,413.1,495.54ZM422,513.73a2,2,0,0,1-2.86-2.86,2,2,0,1,1,2.86,2.86Zm7.78-3.41a3.82,3.82,0,1,1,.84-5.33A3.81,3.81,0,0,1,429.73,510.32Zm9.74,8.22a3,3,0,1,1-4.26-.67A3.05,3.05,0,0,1,439.47,518.54Zm-5.57-18.33a2,2,0,1,1,1.8,3.61,2.05,2.05,0,0,1-.89.22,2,2,0,0,1-.91-3.83Zm-3.71-7.41a2,2,0,0,1,1.81,3.61,2.11,2.11,0,0,1-.9.21,2,2,0,0,1-.91-3.82Zm-3.71-7.42a2,2,0,0,1,1.81,3.62,2,2,0,0,1-.9.21,2,2,0,0,1-.91-3.83Zm-3.7-7.41a2,2,0,0,1,1.81,3.62,2.12,2.12,0,0,1-.91.21,2,2,0,0,1-1.8-1.11A2,2,0,0,1,422.78,478Zm-3.71-7.41a2,2,0,0,1,2.71.91,2,2,0,0,1-.9,2.7,2,2,0,0,1-.9.22,2,2,0,0,1-.91-3.83Zm-3.7-7.41a2,2,0,0,1,1.8,3.61,1.93,1.93,0,0,1-.9.22,2,2,0,0,1-.9-3.83Zm-3.71-7.41a2,2,0,0,1,1.81,3.61,2.08,2.08,0,0,1-.9.21,2,2,0,0,1-.91-3.82ZM408,448.32a2,2,0,0,1,1.81,3.62,2,2,0,0,1-.9.21,2,2,0,0,1-1.8-1.12A2,2,0,0,1,408,448.32Zm-3.7-7.41a2,2,0,0,1,1.81,3.62,2.16,2.16,0,0,1-.91.21,2,2,0,0,1-1.8-1.11A2,2,0,0,1,404.25,440.91Zm-.85-137.65a1.89,1.89,0,0,1-.91.23,2,2,0,0,1-.91-3.83,2,2,0,1,1,1.82,3.6Zm7.4-3.7a2,2,0,0,1-1.81-3.62,2,2,0,1,1,1.81,3.62ZM408.54,281A11.64,11.64,0,1,1,416,266.33,11.64,11.64,0,0,1,408.54,281Zm9.67,14.84a1.92,1.92,0,0,1-.89.22,2,2,0,1,1,.89-.22Zm-.56-54.31a1.46,1.46,0,0,1-.29,0,2,2,0,1,1,.29,0Zm15.82-6.37a2,2,0,0,1,2.29,1.72,2,2,0,0,1-1.71,2.28,1.37,1.37,0,0,1-.29,0,2,2,0,0,1-.29-4Zm-8.2,1.19a2,2,0,1,1,.58,4l-.29,0a2,2,0,0,1-.29-4Zm.36,55.79a2.11,2.11,0,0,1-.9.21,2,2,0,1,1,.9-.21Zm7.41-3.72a2,2,0,0,1-.91.22,2,2,0,1,1,.91-.22Zm7.4-3.71a1.93,1.93,0,0,1-.9.22,2,2,0,1,1,.9-.22Zm-3.82-15.28a9.31,9.31,0,1,1,6-11.73A9.31,9.31,0,0,1,436.62,269.43ZM442.26,238l-.3,0a2,2,0,1,1,.3,0Zm15.82-6.37a2,2,0,0,1,.58,4l-.3,0a2,2,0,0,1-.28-4ZM447.85,281a1.9,1.9,0,0,1-.9.22,2,2,0,1,1,.9-.22Zm2.31-44.19a2,2,0,1,1,2-2.31,2,2,0,0,1-1.7,2.29Zm5.1,40.48a2,2,0,0,1-.89.21,2,2,0,1,1,.89-.21Zm7.42-3.71a2,2,0,1,1,.9-2.71A2,2,0,0,1,462.68,273.58Zm-1.82-14a7.44,7.44,0,1,1,4.78-9.38A7.45,7.45,0,0,1,460.86,259.59Zm6-25.17-.29,0a2,2,0,1,1,.29,0Zm3.22,35.45a2.08,2.08,0,0,1-.9.21,2,2,0,0,1-1.81-1.11,2,2,0,1,1,2.71.9Zm29-44.2a2,2,0,0,1,.59,4l-.3,0a2,2,0,0,1-.29-4ZM482.68,228a2,2,0,1,1,.58,4l-.29,0a2,2,0,0,1-.29-4Zm-9.91,3.48a2,2,0,1,1,2.29,1.7,1.46,1.46,0,0,1-.3,0A2,2,0,0,1,472.77,231.52Zm4.72,34.63a1.83,1.83,0,0,1-.9.23,2,2,0,0,1-1.81-1.12,2,2,0,1,1,2.71.89Zm7.41-3.7a2,2,0,0,1-.9.21,2,2,0,0,1-1.8-1.11,2,2,0,1,1,2.7.9ZM482,251.15a6,6,0,1,1,3.83-7.51A6,6,0,0,1,482,251.15Zm7.15-22a2,2,0,1,1,2.3,1.71,1.62,1.62,0,0,1-.3,0A2,2,0,0,1,489.17,229.14Zm3.14,29.59a1.93,1.93,0,0,1-.9.22,2,2,0,0,1-1.81-1.12,2,2,0,1,1,2.71.9Zm7.42-3.7a2.16,2.16,0,0,1-.91.21,2,2,0,0,1-1.81-1.11,2,2,0,1,1,2.72.9Zm1-11.21a4.77,4.77,0,1,1,3.06-6A4.78,4.78,0,0,1,500.73,243.82Zm6.4,7.5a2,2,0,0,1-2.71-.91A2,2,0,0,1,508,248.6,2,2,0,0,1,507.13,251.32Zm.73-22.84-.29,0a2,2,0,1,1,.29,0Zm7.63-5.18a2,2,0,1,1,.57,4l-.29,0a2,2,0,0,1-.28-4Zm-1,24.3a2,2,0,0,1-.9.22,2,2,0,0,1-.91-3.83,2,2,0,1,1,1.81,3.61Zm2.93-10.22a3.82,3.82,0,1,1,2.45-4.81A3.81,3.81,0,0,1,517.47,237.38Zm4.48,6.51a1.94,1.94,0,0,1-.91.22,2,2,0,1,1,.91-.22Zm10.69-12.24a3.05,3.05,0,1,1,2-3.85A3.07,3.07,0,0,1,532.64,231.65Zm13.91-5.16a2.44,2.44,0,1,1,1.57-3.08A2.46,2.46,0,0,1,546.55,226.49Z"/></g></svg>