<?xml version="1.0" encoding="UTF-8" standalone="no"?>
<!-- Created with Inkscape (http://www.inkscape.org/) -->

<svg
   version="1.1"
   id="svg824"
   width="8.5in"
   height="11in"
   viewBox="0 0 816 1056"
   sodipodi:docname="Reptiler.svg"
   inkscape:version="1.1 (c68e22c387, 2021-05-23)"
   xmlns:inkscape="http://www.inkscape.org/namespaces/inkscape"
   xmlns:sodipodi="http://sodipodi.sourceforge.net/DTD/sodipodi-0.dtd"
   xmlns="http://www.w3.org/2000/svg"
   xmlns:svg="http://www.w3.org/2000/svg">
  <sodipodi:namedview
     id="namedview6"
     pagecolor="#ffffff"
     bordercolor="#666666"
     borderopacity="1.0"
     inkscape:pageshadow="2"
     inkscape:pageopacity="0.0"
     inkscape:pagecheckerboard="0"
     showgrid="false"
     inkscape:zoom="0.79770252"
     inkscape:cx="487.02366"
     inkscape:cy="487.02366"
     inkscape:window-width="2560"
     inkscape:window-height="1377"
     inkscape:window-x="-8"
     inkscape:window-y="-8"
     inkscape:window-maximized="1"
     inkscape:current-layer="g1811"
     inkscape:snap-others="false"
     inkscape:snap-nodes="false"
     units="in"
     inkscape:document-units="in" />
  <defs
     id="defs828" />
  <g
     id="g1811"
     transform="matrix(1.1540071,0,0,1.0842422,146.30071,-113.27977)"
     style="fill:#28170b">
    <path
       id="path1451"
       style="fill:#000000;stroke:#000000;stroke-width:1.10539px;stroke-linecap:butt;stroke-linejoin:miter;stroke-opacity:1"
       d="m 247.67582,5.0847866 c -30.64347,0.285005 -0.65148,35.4947104 -6.28929,77.7828234 11.64188,43.43087 30.66484,60.09757 63.40349,83.99215 34.52463,12.89433 43.01657,52.71601 57.21193,85.42735 -3.97699,10.39634 -0.49692,24.19267 -4.24609,34.77539 -7.33108,14.70104 -21.50047,2.65859 -18.28711,-10.42969 -2.25641,-9.94751 -8.27685,-25.28932 -20.54687,-22.44336 0.48587,15.19038 8.39013,28.64065 14.0625,42.34571 -5.3601,16.72674 -29.31933,-20.35956 -36.06982,-24.88408 -12.89768,0.93855 4.24879,35.9783 12.87646,38.65556 14.89598,13.46669 20.7397,33.60494 33.85742,48.51367 6.718,11.03259 21.11569,28.96938 32.31054,12.7461 8.69211,-11.73902 8.33449,-27.68584 14.06055,-40.78321 6.90877,23.81391 10.0931,48.8138 12.50391,73.53711 16.78132,85.23903 -14.83814,130.58135 18.88672,274.75977 -10.11965,0.86827 -20.24818,1.90467 -30.41602,2.22656 -8.53949,1.98374 -12.25875,-3.9204 -5.03711,-10.0957 7.82828,-7.31836 30.1846,-34.75399 38.6389,-41.2451 6.67232,-11.20286 -26.20515,13.74287 -30.81077,17.54978 -9.94594,3.91512 -17.68913,10.85472 -23.88282,19.61329 -9.38367,7.70588 -4.45034,-10.03098 -1.93359,-14.40625 5.00374,-10.73549 13.17925,-19.76974 17.42969,-31.01368 1.96914,-6.46665 -7.85955,-67.14034 -19.40196,-66.68069 -7.56945,5.00791 4.86418,56.79378 0.56211,64.76663 -3.31766,7.58921 -8.11152,14.16689 -12.60742,20.9961 -4.39505,7.56058 1.12817,23.25131 -10.93555,24.12304 -3.04765,-13.32677 -1.07705,-26.9298 -0.88085,-40.34961 -0.95139,-13.15265 -9.0014,-68.03077 -12.65966,-80.89224 -3.12024,-12.32204 -9.67077,32.95486 -7.58839,45.19888 0.61159,15.83857 -2.90869,31.39961 -2.06445,47.2461 -0.0135,10.62734 -0.89531,22.23178 -6.80469,31.1875 -12.55458,1.59094 -13.39566,-43.81444 -23.13825,-50.38029 -6.90688,1.68674 -7.16241,46.41232 -4.96917,49.7924 7.77297,13.13214 19.4625,23.88241 24.19336,38.8125 4.43858,9.50616 6.45812,20.83074 14.53515,28.00195 10.78164,8.72045 21.67855,-3.42259 30.58008,-8.73047 9.6759,-7.45962 22.46786,-13.41495 34.59961,-7.54101 10.45035,5.75727 19.6184,13.81142 29.89844,19.9414 8.47179,4.07475 14.80641,10.93788 20.32031,18.50391 8.54959,41.2646 11.1278,75.98832 -11.51563,113.78906 -29.44915,37.74472 -40.90256,70.14946 -105.00957,77.87109 -230.462656,-12.87381 -136.43367,-336.14118 -7.55879,-404.58984 -45.45201,13.6457 -81.05499,36.40856 -112.76846,79.94995 -84.005,115.33572 -89.23853,304.90594 30.57901,371.37818 36.02404,20.85998 77.96167,22.14938 116.08985,9.39258 113.10887,-26.09498 178.77981,-148.58958 202.33398,-296.05079 10.12885,-7.92234 22.2316,-13.64175 33.12109,-20.08593 14.09078,-2.58844 26.91959,-10.01057 41.36914,-11.0586 10.4148,-2.12202 21.471,-5.46382 28.46485,-14.13867 2.95968,-10.5404 4.9556,-24.11158 16.17578,-28.54688 4.90566,-5.27644 23.87172,1.55842 19.28906,-9.66406 -10.63319,-7.37484 -22.76226,-0.40717 -33.4414,2.23633 -11.06012,-0.13383 -4.61456,-14.19077 -4.04493,-20.80273 1.3777,-9.88113 2.9817,-19.72927 5.0293,-29.47266 5.3953,-10.1054 13.91495,-19.55438 25.39258,-21.68359 11.44941,-4.1831 -5.89758,-8.19845 -9.93164,-4.29883 -8.16024,3.77575 -15.14854,9.80656 -23.69727,12.79492 -10.04047,5.30831 -12.48155,17.27851 -13.17383,27.96094 1.26875,8.03046 -10.67204,16.02838 -10.92187,3.89843 -0.45001,-12.27 5.22185,-23.6763 4.85156,-36.04882 -1.14746,-11.36318 12.26699,-25.25729 -0.14258,-33.83789 -37.33922,-3.84977 -14.29126,83.11809 -30.42773,71.16015 -9.93346,-10.97767 -6.97536,-29.94431 -20.43945,-38.20312 -13.61879,-8.09582 -14.71139,15.09905 -4.92188,20.38281 25.572,22.1647 12.58374,35.21275 -12.9082,20.94922 2.71156,-110.70408 -15.36298,-225.31897 -52.32617,-318.31836 8.15988,2.63425 15.97044,6.1092 22.39453,12.29297 13.1048,7.39391 28.43589,15.81188 43.37109,9.98828 15.33999,-3.4737 20.09921,-20.78952 26.4707,-33.4082 10.18026,-7.20272 3.4642,-31.87743 -9.02148,-19.03125 -3.4326,18.87897 -28.01557,-35.36592 -37.94727,-45.8086 -12.0351,-9.38807 -8.70687,11.30644 -5.72265,17.82031 2.42369,11.0293 5.14679,24.2863 -1.53906,34.00586 -10.2034,8.80683 -19.24689,-7.029 -27.34571,-12.33007 -12.15384,-7.19871 -24.53175,-14.25169 -37.22656,-20.51954 -1.09281,-1.99876 -2.10421,-4.11585 -3.21875,-6.08203 C 454.70512,176.69739 415.18183,165.97907 401.11646,118.83062 387.87022,73.019672 349.05082,38.234334 310.63837,25.350339 303.41274,22.576364 254.74738,5.0190156 247.67582,5.0847866 Z M 560.2832,616.98633 c 5.04279,2.43696 42.74975,4.82131 46.82407,8.73242 4.35261,4.22305 -14.08147,18.06245 -27.1561,18.68359 -6.91066,-1.6653 -14.00577,-3.26697 -21.12109,-4.07031 0.56434,-7.75818 1.10004,-15.52306 1.45312,-23.3457 z"
       transform="matrix(0.8665458,0,0,0.92230315,-126.77627,104.47829)"
       sodipodi:nodetypes="scccccccccccccccccccccccccccccccccccccccccscccccccccccccccccccccccccccccccccccsccccc" />
  </g>
</svg>
