<svg xmlns="http://www.w3.org/2000/svg" xmlns:xlink="http://www.w3.org/1999/xlink" viewBox="0 0 566.93 566.93"><defs><style>.cls-1{mask:url(#mask);}.cls-2{fill:#4c4a48;}.cls-3{mask:url(#mask-2);}.cls-4{fill:#fff;}.cls-5,.cls-6,.cls-7{fill:#e8e7e7;}.cls-5,.cls-6{stroke:#4c4a48;stroke-miterlimit:10;}.cls-5{stroke-width:4.8px;}.cls-6{stroke-width:5.16px;}</style><mask id="mask" x="-456.23" y="408.35" width="1097.34" height="808.04" maskUnits="userSpaceOnUse"/><mask id="mask-2" x="213.6" y="388.35" width="1097.34" height="808.04" maskUnits="userSpaceOnUse"/></defs><g id="Armfotinger"><g class="cls-1"><path class="cls-2" d="M-235.27,658.1a138.73,138.73,0,0,0-9.39,27.3,144.14,144.14,0,0,0-3.56,28.66c-.51,19.3,2.68,38.57,8.23,57A260,260,0,0,0-216.83,824a346.84,346.84,0,0,0,32.88,47.52c24.44,29.86,53,56.16,84,79.17a592.45,592.45,0,0,0,208.05,97.8c37.44,9.13,75.93,14.36,114.49,14.13a347.4,347.4,0,0,0,57.52-5,260.24,260.24,0,0,0,55.43-15.89c17.71-7.49,34.54-17.3,49-30a143.43,143.43,0,0,0,19.74-21A134,134,0,0,0,428.65,939a143.81,143.81,0,0,0,3.57-28.56c.54-19.25-2.63-38.48-8.14-56.9A260.38,260.38,0,0,0,401,800.69a348.38,348.38,0,0,0-32.81-47.51C343.81,723.32,315.25,697,284.35,674a583.79,583.79,0,0,0-99.16-59.19A584.19,584.19,0,0,0,76.4,575.93C39,566.76.47,561.48-38.12,561.67a348.14,348.14,0,0,0-57.57,4.94,260.09,260.09,0,0,0-55.52,15.85c-17.75,7.48-34.63,17.3-49.18,30a144.81,144.81,0,0,0-19.82,21A139,139,0,0,0-235.27,658.1Zm0,0a138.11,138.11,0,0,1,15-24.67,144.82,144.82,0,0,1,19.8-21c14.54-12.72,31.42-22.56,49.18-30.07a260.77,260.77,0,0,1,55.53-15.92,348.46,348.46,0,0,1,57.6-5c38.61-.23,77.14,5,114.61,14.15A584.27,584.27,0,0,1,185.4,614.3a584.79,584.79,0,0,1,99.33,59.15c30.95,23,59.58,49.36,84,79.26a347.16,347.16,0,0,1,32.93,47.58,260.6,260.6,0,0,1,23.21,53c5.56,18.49,8.76,37.81,8.24,57.17a145.13,145.13,0,0,1-3.56,28.76,134,134,0,0,1-24.55,52.14,145.29,145.29,0,0,1-19.89,21.07c-14.59,12.74-31.52,22.58-49.32,30.08a260.45,260.45,0,0,1-55.62,15.88,348.12,348.12,0,0,1-57.65,4.95c-38.64.19-77.17-5.09-114.65-14.28A593,593,0,0,1-100.21,951c-30.92-23.06-59.51-49.41-83.93-79.32A347.57,347.57,0,0,1-217,824.05a260.79,260.79,0,0,1-23.11-52.93c-5.53-18.47-8.7-37.75-8.17-57.06a144.18,144.18,0,0,1,3.59-28.67A138.51,138.51,0,0,1-235.27,658.1Z"/><path class="cls-2" d="M-268,642.68a151.32,151.32,0,0,0-10.34,30,158.57,158.57,0,0,0-3.91,31.52c-.57,21.24,2.94,42.43,9,62.72a286.82,286.82,0,0,0,25.47,58.18,384.49,384.49,0,0,0,36.17,52.27c26.88,32.84,58.34,61.78,92.37,87.09a651.58,651.58,0,0,0,228.86,107.6c41.18,10.05,83.53,15.81,126,15.55a382.32,382.32,0,0,0,63.28-5.49,286.39,286.39,0,0,0,61-17.47c19.49-8.24,38-19,54-33a158.54,158.54,0,0,0,21.72-23.06,147.42,147.42,0,0,0,26.81-57,158.53,158.53,0,0,0,3.93-31.43c.59-21.18-2.89-42.34-9-62.61a286.52,286.52,0,0,0-25.39-58.12,383,383,0,0,0-36.09-52.27C369,714.4,337.57,685.43,303.58,660.1A641.66,641.66,0,0,0,194.49,595,642.34,642.34,0,0,0,74.83,552.28c-41.19-10.09-83.54-15.89-126-15.68A383.07,383.07,0,0,0-114.49,542a287.43,287.43,0,0,0-61.06,17.44c-19.53,8.23-38.1,19-54.1,33a158.33,158.33,0,0,0-21.8,23.1A151.53,151.53,0,0,0-268,642.68Zm0,0a151.9,151.9,0,0,1,16.53-27.13,159,159,0,0,1,21.79-23.13c16-14,34.56-24.81,54.09-33.07a287.58,287.58,0,0,1,61.08-17.5,383.29,383.29,0,0,1,63.36-5.5c42.47-.26,84.85,5.51,126.07,15.57a643.12,643.12,0,0,1,119.8,42.61A642.7,642.7,0,0,1,304,659.6c34.05,25.32,65.54,54.29,92.45,87.18a382.78,382.78,0,0,1,36.22,52.34,287.26,287.26,0,0,1,25.52,58.27c6.11,20.34,9.63,41.58,9.06,62.88a159.76,159.76,0,0,1-3.92,31.63,147.52,147.52,0,0,1-27,57.33,159.45,159.45,0,0,1-21.88,23.18c-16.05,14-34.66,24.83-54.23,33.08A287.29,287.29,0,0,1,299,1083a384.13,384.13,0,0,1-63.42,5.44c-42.49.21-84.88-5.6-126.1-15.7A651.69,651.69,0,0,1-119.44,964.8c-34-25.35-65.47-54.34-92.33-87.24a381.86,381.86,0,0,1-36.14-52.33A286.54,286.54,0,0,1-273.34,767c-6.08-20.31-9.57-41.52-9-62.76a158.71,158.71,0,0,1,3.94-31.53A151.11,151.11,0,0,1-268,642.68Z"/><path class="cls-2" d="M-304,625.72a167.16,167.16,0,0,0-11.37,33,174.63,174.63,0,0,0-4.3,34.68c-.63,23.36,3.23,46.67,9.94,69a315.46,315.46,0,0,0,28,64A420.36,420.36,0,0,0-242,883.93c29.57,36.13,64.18,68,101.6,95.81a716.63,716.63,0,0,0,251.75,118.37c45.31,11.06,91.89,17.4,138.56,17.12a420.69,420.69,0,0,0,69.61-6A315.22,315.22,0,0,0,386.63,1090c21.44-9.06,41.82-20.94,59.37-36.29a174.44,174.44,0,0,0,23.9-25.37,162.46,162.46,0,0,0,29.5-62.68,174.32,174.32,0,0,0,4.32-34.58c.65-23.3-3.19-46.58-9.86-68.88a314.69,314.69,0,0,0-27.94-63.94,419.82,419.82,0,0,0-39.7-57.5c-29.52-36.14-64.09-68-101.48-95.87a706.45,706.45,0,0,0-120-71.62,705.82,705.82,0,0,0-131.64-47C27.79,515.17-18.8,508.79-65.49,509a421.35,421.35,0,0,0-69.67,6,314.93,314.93,0,0,0-67.17,19.19c-21.48,9-41.91,20.93-59.51,36.3a174.74,174.74,0,0,0-24,25.41A167.49,167.49,0,0,0-304,625.72Zm0,0a167.42,167.42,0,0,1,18.19-29.83,175,175,0,0,1,24-25.45c17.59-15.38,38-27.29,59.5-36.37a315.67,315.67,0,0,1,67.19-19.25,420.61,420.61,0,0,1,69.7-6.05c46.71-.28,93.33,6.07,138.67,17.13a707.16,707.16,0,0,1,131.76,46.88,706.32,706.32,0,0,1,120.17,71.58c37.46,27.86,72.09,59.72,101.69,95.89a421.67,421.67,0,0,1,39.83,57.57,315.5,315.5,0,0,1,28.07,64.1c6.72,22.36,10.59,45.73,10,69.15a175.64,175.64,0,0,1-4.31,34.78,162.22,162.22,0,0,1-29.69,63.05,175.8,175.8,0,0,1-24.05,25.49c-17.65,15.4-38.12,27.31-59.64,36.38A316.12,316.12,0,0,1,319.69,1110a420.25,420.25,0,0,1-69.75,6c-46.74.24-93.36-6.14-138.7-17.25A717.25,717.25,0,0,1-140.59,980c-37.42-27.89-72-59.77-101.57-95.95a420.85,420.85,0,0,1-39.75-57.57,315.25,315.25,0,0,1-28-64c-6.69-22.34-10.53-45.67-9.89-69a175.33,175.33,0,0,1,4.34-34.68A167.25,167.25,0,0,1-304,625.72Z"/><path class="cls-2" d="M-343.66,607.07a184.14,184.14,0,0,0-12.52,36.34,192.25,192.25,0,0,0-4.73,38.15c-.69,25.69,3.55,51.34,10.93,75.9a347.4,347.4,0,0,0,30.82,70.39A462.69,462.69,0,0,0-275.4,891.1c32.53,39.76,70.59,74.78,111.76,105.41a788.26,788.26,0,0,0,276.93,130.22c49.84,12.17,101.08,19.14,152.42,18.83a461.31,461.31,0,0,0,76.58-6.64,346.68,346.68,0,0,0,73.8-21.14c23.59-10,46-23,65.31-39.92A191.35,191.35,0,0,0,507.7,1050a178.25,178.25,0,0,0,32.46-69,192,192,0,0,0,4.76-38.05c.71-25.64-3.51-51.25-10.86-75.78a346.67,346.67,0,0,0-30.73-70.35,462.48,462.48,0,0,0-43.68-63.25c-32.48-39.76-70.51-74.8-111.64-105.46a777.78,777.78,0,0,0-132-78.78A777.5,777.5,0,0,0,71.18,497.65c-49.84-12.21-101.08-19.23-152.44-19a462,462,0,0,0-76.64,6.58,346.94,346.94,0,0,0-73.89,21.1c-23.62,10-46.1,23-65.46,39.94a192.29,192.29,0,0,0-26.38,28A183.58,183.58,0,0,0-343.66,607.07Zm0,0a183.42,183.42,0,0,1,20-32.82,192.37,192.37,0,0,1,26.36-28c19.35-16.92,41.82-30,65.45-40a347.31,347.31,0,0,1,73.91-21.18,462.35,462.35,0,0,1,76.66-6.64c51.39-.31,102.67,6.67,152.54,18.85A776.9,776.9,0,0,1,216.2,548.86a777.33,777.33,0,0,1,132.18,78.73c41.2,30.65,79.29,65.7,111.85,105.49A463.11,463.11,0,0,1,504,796.4a347.41,347.41,0,0,1,30.86,70.5c7.39,24.6,11.65,50.3,11,76.05a193.26,193.26,0,0,1-4.75,38.25,178.23,178.23,0,0,1-32.64,69.33,192.25,192.25,0,0,1-26.45,28c-19.41,17-41.93,30-65.59,40a348.13,348.13,0,0,1-74,21.13,462,462,0,0,1-76.72,6.59c-51.41.26-102.69-6.76-152.56-19a788.63,788.63,0,0,1-277-130.52c-41.17-30.68-79.22-65.75-111.73-105.55a463.18,463.18,0,0,1-43.73-63.32,347.19,347.19,0,0,1-30.78-70.45c-7.36-24.57-11.58-50.23-10.87-75.93a192.19,192.19,0,0,1,4.76-38.15A183.79,183.79,0,0,1-343.66,607.07Z"/><path class="cls-2" d="M-387.25,586.55a202.55,202.55,0,0,0-13.77,40,211.72,211.72,0,0,0-5.21,42c-.76,28.26,3.91,56.48,12,83.49a381.09,381.09,0,0,0,33.9,77.44A509.85,509.85,0,0,0-312.17,899c35.78,43.73,77.65,82.26,122.93,116a867.65,867.65,0,0,0,304.63,143.26c54.83,13.38,111.19,21.06,167.67,20.72a508.17,508.17,0,0,0,84.24-7.3,381,381,0,0,0,81.19-23.26c25.95-11,50.62-25.34,71.86-43.91a211.3,211.3,0,0,0,28.94-30.71A196.21,196.21,0,0,0,585,997.86,210.66,210.66,0,0,0,590.23,956c.78-28.21-3.86-56.38-11.94-83.37a381.71,381.71,0,0,0-33.81-77.39,509.38,509.38,0,0,0-48.06-69.58c-35.73-43.74-77.56-82.29-122.81-116A855.07,855.07,0,0,0,228.38,523a855.16,855.16,0,0,0-159.3-56.83C14.26,452.74-42.11,445-98.61,445.32a508.83,508.83,0,0,0-84.3,7.24,381.86,381.86,0,0,0-81.28,23.22c-26,11-50.71,25.34-72,43.94a211.19,211.19,0,0,0-29,30.75A202.26,202.26,0,0,0-387.25,586.55Zm0,0a201.74,201.74,0,0,1,22-36.1,211.74,211.74,0,0,1,29-30.78c21.29-18.62,46-33,72-44a381,381,0,0,1,81.3-23.29,508.09,508.09,0,0,1,84.33-7.31c56.52-.34,112.92,7.34,167.78,20.74a855.5,855.5,0,0,1,159.42,56.73A855.33,855.33,0,0,1,374,609.15c45.31,33.71,87.21,72.27,123,116a509.28,509.28,0,0,1,48.18,69.64,381.85,381.85,0,0,1,34,77.54c8.13,27.06,12.81,55.33,12,83.65A211.24,211.24,0,0,1,586,998.08a196,196,0,0,1-35.89,76.25A211.7,211.7,0,0,1,521,1105.16c-21.34,18.64-46.11,33-72.14,44a381.89,381.89,0,0,1-81.39,23.25,509.89,509.89,0,0,1-84.38,7.25c-56.55.29-113-7.43-167.82-20.87a867.39,867.39,0,0,1-304.7-143.56c-45.28-33.74-87.14-72.32-122.9-116.09a509.52,509.52,0,0,1-48.11-69.65A382.12,382.12,0,0,1-394.32,752c-8.1-27-12.75-55.26-12-83.53a211.21,211.21,0,0,1,5.24-42A202.55,202.55,0,0,1-387.25,586.55Z"/><path class="cls-2" d="M-435.2,564a222.23,222.23,0,0,0-15.14,44c-.81,3.8-1.69,7.58-2.29,11.42-.32,1.91-.7,3.82-1,5.74l-.77,5.77c-.29,1.93-.46,3.86-.64,5.79l-.53,5.8-.32,5.82-.17,2.91-.06,2.91c-.83,31.08,4.3,62.12,13.23,91.84s21.91,58.2,37.29,85.18a560.24,560.24,0,0,0,52.94,76.54c39.36,48.11,85.42,90.49,135.23,127.55a953.85,953.85,0,0,0,335.09,157.6C178,1207.56,240,1216,302.14,1215.64a560,560,0,0,0,92.68-8c30.56-5.36,60.67-13.62,89.32-25.58s55.69-27.88,79.06-48.32l2.2-1.9,2.13-2,4.27-3.95,4.11-4.11c1.38-1.36,2.76-2.73,4.05-4.17l3.95-4.26c1.31-1.43,2.53-2.94,3.8-4.4,2.57-2.9,4.92-6,7.32-9a216,216,0,0,0,39.3-83.48c.81-3.79,1.69-7.57,2.29-11.4.32-1.91.7-3.81,1-5.73l.78-5.76c.28-1.92.45-3.85.63-5.78l.54-5.79.33-5.8.16-2.9.06-2.91c.86-31-4.25-62-13.14-91.72s-21.86-58.17-37.2-85.13A560.65,560.65,0,0,0,536.87,717c-39.31-48.11-85.33-90.52-135.11-127.61A940.36,940.36,0,0,0,242,494.05a940,940,0,0,0-175.23-62.5C6.47,416.78-55.55,408.29-117.7,408.62a559.6,559.6,0,0,0-92.73,8c-30.58,5.35-60.73,13.59-89.41,25.55S-355.61,470-379,490.46l-2.2,1.9-2.14,2-4.28,4-4.13,4.11c-1.37,1.37-2.76,2.73-4,4.18l-4,4.27c-1.32,1.43-2.54,2.94-3.82,4.4-2.58,2.91-4.93,6-7.34,9A222.21,222.21,0,0,0-435.2,564Zm0,0A222.81,222.81,0,0,1-411,524.27c2.42-3,4.77-6.14,7.34-9,1.28-1.46,2.5-3,3.81-4.4l4-4.27c1.3-1.45,2.68-2.82,4.06-4.18l4.12-4.12,4.28-3.95,2.14-2,2.2-1.91c23.42-20.47,50.61-36.32,79.2-48.4s58.83-20.25,89.42-25.61a559.94,559.94,0,0,1,92.76-8c62.18-.36,124.22,8.09,184.56,22.82A940.5,940.5,0,0,1,242.22,493.6a940.7,940.7,0,0,1,159.92,95.27C452,626,498.06,668.36,537.45,716.5a560.72,560.72,0,0,1,53,76.61c15.38,27,28.26,55.52,37.33,85.29s14.08,60.85,13.24,92l-.06,2.91-.16,2.92-.32,5.82-.54,5.82c-.18,1.93-.35,3.87-.64,5.8l-.77,5.78c-.26,1.93-.64,3.84-1,5.76-.6,3.85-1.48,7.64-2.29,11.44a215.53,215.53,0,0,1-39.48,83.86c-2.42,3-4.77,6.15-7.36,9.06-1.28,1.47-2.5,3-3.82,4.41l-4,4.28c-1.3,1.45-2.68,2.82-4.06,4.19l-4.14,4.12-4.29,4-2.14,2-2.21,1.91c-23.47,20.49-50.71,36.34-79.34,48.41s-58.9,20.23-89.51,25.58a560.68,560.68,0,0,1-92.82,8c-62.19.33-124.24-8.16-184.59-22.94a954.69,954.69,0,0,1-335.17-157.91c-49.8-37.11-95.85-79.54-135.19-127.69a560.79,560.79,0,0,1-52.92-76.61c-15.36-27-28.2-55.5-37.24-85.24s-14-60.78-13.17-91.87l.06-2.92.17-2.9.32-5.82.54-5.8c.18-1.94.35-3.87.64-5.79l.77-5.77c.27-1.93.65-3.83,1-5.75.6-3.84,1.49-7.62,2.3-11.42A222,222,0,0,1-435.2,564Z"/></g><g class="cls-3"><path class="cls-4" d="M464.34,652.11a125.34,125.34,0,0,0-8.54,24.82A130.74,130.74,0,0,0,452.57,703c-.47,17.54,2.43,35.06,7.48,51.83a236.34,236.34,0,0,0,21.05,48.07A315.75,315.75,0,0,0,511,846.08c22.22,27.15,48.22,51.06,76.33,72A538.29,538.29,0,0,0,776.47,1007c34,8.3,69,13,104.08,12.84a315.81,315.81,0,0,0,52.28-4.54,236.36,236.36,0,0,0,50.38-14.45c16.1-6.8,31.4-15.73,44.57-27.25a131.33,131.33,0,0,0,17.93-19,122,122,0,0,0,22.15-47,131.15,131.15,0,0,0,3.24-26c.49-17.49-2.38-35-7.39-51.71a237,237,0,0,0-21-48,316.61,316.61,0,0,0-29.82-43.18c-22.17-27.16-48.13-51.09-76.22-72a538.18,538.18,0,0,0-189-89.12c-34-8.34-69-13.14-104.11-13A316.45,316.45,0,0,0,591.23,569a237.18,237.18,0,0,0-50.47,14.4c-16.14,6.8-31.49,15.73-44.71,27.27a130.75,130.75,0,0,0-18,19.09A125.76,125.76,0,0,0,464.34,652.11Zm0,0A125.77,125.77,0,0,1,478,629.69a132,132,0,0,1,18-19.12c13.22-11.56,28.56-20.51,44.7-27.33a236.88,236.88,0,0,1,50.48-14.48,316.9,316.9,0,0,1,52.37-4.55c35.1-.21,70.13,4.55,104.2,12.86a538.83,538.83,0,0,1,189.32,89c28.14,20.93,54.17,44.87,76.42,72.05a315.21,315.21,0,0,1,29.94,43.26,237.38,237.38,0,0,1,21.11,48.17c5,16.82,8,34.39,7.49,52a131.74,131.74,0,0,1-3.24,26.16,121.78,121.78,0,0,1-22.32,47.41,131.3,131.3,0,0,1-18.09,19.17c-13.27,11.58-28.67,20.53-44.85,27.35A237,237,0,0,1,933,1016a316.46,316.46,0,0,1-52.42,4.5c-35.12.17-70.16-4.63-104.23-13a538.72,538.72,0,0,1-189.21-89.2c-28.11-21-54.1-44.92-76.3-72.11A315.35,315.35,0,0,1,480.94,803a236.85,236.85,0,0,1-21-48.12c-5-16.79-7.91-34.32-7.42-51.87a130.69,130.69,0,0,1,3.26-26.06A125.21,125.21,0,0,1,464.34,652.11Z"/><path class="cls-4" d="M434.57,638.1a138.11,138.11,0,0,0-9.4,27.3,144.13,144.13,0,0,0-3.55,28.66c-.52,19.3,2.67,38.57,8.22,57A260.55,260.55,0,0,0,453,804a348.62,348.62,0,0,0,32.88,47.52c24.44,29.86,53,56.16,84,79.17a592.39,592.39,0,0,0,208.06,97.8c37.43,9.13,75.93,14.36,114.49,14.13a347.59,347.59,0,0,0,57.52-5,260.32,260.32,0,0,0,55.42-15.89c17.71-7.49,34.55-17.3,49-30a144,144,0,0,0,19.74-21A134.21,134.21,0,0,0,1098.48,919a143.07,143.07,0,0,0,3.57-28.56c.54-19.25-2.62-38.48-8.14-56.9a260.38,260.38,0,0,0-23.07-52.84A347.49,347.49,0,0,0,1038,733.18C1013.64,703.32,985.08,677,954.19,654a592.5,592.5,0,0,0-208-98c-37.44-9.17-75.94-14.45-114.53-14.26a348.14,348.14,0,0,0-57.57,4.94,260,260,0,0,0-55.51,15.85c-17.75,7.48-34.64,17.3-49.18,30a144.88,144.88,0,0,0-19.83,21A138.35,138.35,0,0,0,434.57,638.1Zm0,0a137.48,137.48,0,0,1,15-24.67,144.34,144.34,0,0,1,19.81-21c14.53-12.72,31.42-22.56,49.17-30.07a260.77,260.77,0,0,1,55.53-15.92,348.56,348.56,0,0,1,57.6-5c38.61-.23,77.14,5,114.62,14.15a592.52,592.52,0,0,1,208.23,97.88c31,23,59.59,49.36,84.06,79.26a348.94,348.94,0,0,1,32.93,47.58,261.12,261.12,0,0,1,23.2,53c5.56,18.49,8.76,37.81,8.24,57.17a145.13,145.13,0,0,1-3.56,28.76,134,134,0,0,1-24.55,52.14A144.74,144.74,0,0,1,1055,992.42c-14.59,12.74-31.52,22.58-49.31,30.08a260.62,260.62,0,0,1-55.62,15.88,348.24,348.24,0,0,1-57.66,4.95c-38.63.19-77.17-5.09-114.64-14.28A592.82,592.82,0,0,1,569.63,931c-30.93-23.06-59.52-49.41-83.94-79.32a346.62,346.62,0,0,1-32.85-47.58,260.27,260.27,0,0,1-23.12-52.93c-5.53-18.47-8.7-37.75-8.16-57.06a144.17,144.17,0,0,1,3.58-28.67A137.89,137.89,0,0,1,434.57,638.1Z"/><path class="cls-4" d="M401.82,622.68a151.32,151.32,0,0,0-10.34,30,158.57,158.57,0,0,0-3.91,31.52c-.57,21.24,2.94,42.43,9,62.72a286.3,286.3,0,0,0,25.48,58.18,382.7,382.7,0,0,0,36.17,52.27c26.88,32.84,58.34,61.78,92.36,87.09a651.8,651.8,0,0,0,228.86,107.6c41.19,10.05,83.53,15.81,125.95,15.55a382.23,382.23,0,0,0,63.28-5.49,286.22,286.22,0,0,0,61-17.47c19.49-8.24,38-19,54-33a158.54,158.54,0,0,0,21.72-23.06,147.42,147.42,0,0,0,26.81-57,158.53,158.53,0,0,0,3.93-31.43c.59-21.18-2.89-42.34-9-62.61a286,286,0,0,0-25.39-58.12,382.15,382.15,0,0,0-36.09-52.27c-26.83-32.85-58.25-61.82-92.24-87.15A651.62,651.62,0,0,0,744.66,532.28c-41.19-10.09-83.54-15.89-126-15.68A382.86,382.86,0,0,0,555.35,522a287.35,287.35,0,0,0-61.07,17.44c-19.52,8.23-38.1,19-54.1,33a158.87,158.87,0,0,0-21.8,23.1A152.11,152.11,0,0,0,401.82,622.68Zm0,0a152.48,152.48,0,0,1,16.53-27.13,160.08,160.08,0,0,1,21.79-23.13c16-14,34.57-24.81,54.09-33.07a287.67,287.67,0,0,1,61.09-17.5,383.29,383.29,0,0,1,63.36-5.5c42.47-.26,84.85,5.51,126.07,15.57a651.65,651.65,0,0,1,229,107.68c34.05,25.32,65.54,54.29,92.45,87.18a381.89,381.89,0,0,1,36.22,52.34A286.71,286.71,0,0,1,1128,837.39c6.11,20.34,9.63,41.58,9.06,62.88a159,159,0,0,1-3.92,31.63,147.52,147.52,0,0,1-27,57.33,159.45,159.45,0,0,1-21.88,23.18c-16,14-34.66,24.83-54.23,33.08A287.29,287.29,0,0,1,968.85,1063a383.92,383.92,0,0,1-63.41,5.44c-42.5.21-84.89-5.6-126.11-15.7A651.54,651.54,0,0,1,550.4,944.8c-34-25.35-65.47-54.34-92.34-87.24a382.75,382.75,0,0,1-36.14-52.33A287.09,287.09,0,0,1,396.49,747c-6.08-20.31-9.57-41.52-9-62.76a158.71,158.71,0,0,1,3.94-31.53A151.75,151.75,0,0,1,401.82,622.68Z"/><path class="cls-4" d="M365.8,605.72a166.55,166.55,0,0,0-11.38,33,174.63,174.63,0,0,0-4.3,34.68c-.63,23.36,3.23,46.67,9.94,69a315.46,315.46,0,0,0,28,64,421.32,421.32,0,0,0,39.79,57.5c29.57,36.13,64.17,68,101.59,95.81a716.79,716.79,0,0,0,251.76,118.37c45.3,11.06,91.88,17.4,138.55,17.12a420.6,420.6,0,0,0,69.61-6,314.89,314.89,0,0,0,67.08-19.22c21.44-9.06,41.83-20.94,59.37-36.29a173.9,173.9,0,0,0,23.9-25.37,162.08,162.08,0,0,0,29.5-62.68,174.32,174.32,0,0,0,4.32-34.58c.65-23.3-3.18-46.58-9.86-68.88a315.2,315.2,0,0,0-27.93-63.94,419.89,419.89,0,0,0-39.71-57.5c-29.52-36.14-64.09-68-101.48-95.87A716.67,716.67,0,0,0,742.92,506.27C697.62,495.17,651,488.79,604.34,489a421.23,421.23,0,0,0-69.66,6,315,315,0,0,0-67.18,19.19c-21.48,9-41.9,20.93-59.5,36.3a174.8,174.8,0,0,0-24,25.41A166.86,166.86,0,0,0,365.8,605.72Zm0,0A166.26,166.26,0,0,1,384,575.89a174.89,174.89,0,0,1,24-25.45c17.6-15.38,38-27.29,59.5-36.37a315.25,315.25,0,0,1,67.19-19.25,420.7,420.7,0,0,1,69.7-6.05c46.71-.28,93.33,6.07,138.67,17.13A716.89,716.89,0,0,1,995,624.36c37.45,27.86,72.08,59.72,101.68,95.89a420.85,420.85,0,0,1,39.84,57.57,316,316,0,0,1,28.06,64.1c6.72,22.36,10.59,45.73,10,69.15a174.9,174.9,0,0,1-4.31,34.78,162,162,0,0,1-29.68,63,175.87,175.87,0,0,1-24.06,25.49c-17.64,15.4-38.12,27.31-59.64,36.38A316.12,316.12,0,0,1,989.52,1090a420.16,420.16,0,0,1-69.75,6c-46.74.24-93.36-6.14-138.7-17.25A717.47,717.47,0,0,1,529.24,960c-37.42-27.89-72-59.77-101.57-95.95a420.85,420.85,0,0,1-39.75-57.57,315.25,315.25,0,0,1-28-64c-6.69-22.34-10.53-45.67-9.88-69a174.58,174.58,0,0,1,4.33-34.68A167.28,167.28,0,0,1,365.8,605.72Z"/><path class="cls-4" d="M326.17,587.07a184.11,184.11,0,0,0-12.51,36.34,192.26,192.26,0,0,0-4.74,38.15c-.69,25.69,3.56,51.34,10.94,75.9a346.29,346.29,0,0,0,30.82,70.39,461.8,461.8,0,0,0,43.76,63.25C427,910.86,465,945.88,506.19,976.51a788.42,788.42,0,0,0,276.94,130.22c49.83,12.17,101.07,19.14,152.41,18.83a461.31,461.31,0,0,0,76.58-6.64,346.34,346.34,0,0,0,73.8-21.14c23.59-10,46-23,65.32-39.92a192.43,192.43,0,0,0,26.3-27.91A178.64,178.64,0,0,0,1210,961a192,192,0,0,0,4.75-38.05c.71-25.64-3.51-51.25-10.85-75.78a346.71,346.71,0,0,0-30.74-70.35,462.48,462.48,0,0,0-43.68-63.25c-32.48-39.76-70.5-74.8-111.64-105.46A788.31,788.31,0,0,0,741,477.65c-49.83-12.21-101.08-19.23-152.44-19a461.93,461.93,0,0,0-76.63,6.58,346.77,346.77,0,0,0-73.89,21.1c-23.63,10-46.1,23-65.46,39.94a192.9,192.9,0,0,0-26.39,28A183.58,183.58,0,0,0,326.17,587.07Zm0,0a183.42,183.42,0,0,1,20-32.82,191.9,191.9,0,0,1,26.37-28c19.35-16.92,41.82-30,65.45-40a347.06,347.06,0,0,1,73.9-21.18,462.38,462.38,0,0,1,76.67-6.64c51.38-.31,102.66,6.67,152.53,18.85a788.74,788.74,0,0,1,277.12,130.3c41.19,30.65,79.29,65.7,111.84,105.49a462.22,462.22,0,0,1,43.81,63.32,348,348,0,0,1,30.87,70.5c7.39,24.6,11.64,50.3,11,76.05a192.52,192.52,0,0,1-4.75,38.25,178.23,178.23,0,0,1-32.64,69.33,192.25,192.25,0,0,1-26.45,28c-19.4,17-41.92,30-65.59,40a348,348,0,0,1-74,21.13,461.92,461.92,0,0,1-76.71,6.59c-51.41.26-102.7-6.76-152.57-19A788.63,788.63,0,0,1,506,976.81c-41.16-30.68-79.22-65.75-111.73-105.55a463.18,463.18,0,0,1-43.73-63.32,347.15,347.15,0,0,1-30.77-70.45c-7.36-24.57-11.59-50.23-10.88-75.93a192.2,192.2,0,0,1,4.77-38.15A183.76,183.76,0,0,1,326.17,587.07Z"/><path class="cls-4" d="M282.58,566.55a202.55,202.55,0,0,0-13.77,40,211.71,211.71,0,0,0-5.2,42c-.76,28.26,3.91,56.48,12,83.49a381.65,381.65,0,0,0,33.9,77.44A509,509,0,0,0,357.67,879c35.77,43.73,77.64,82.26,122.93,116a867.43,867.43,0,0,0,304.63,143.26c54.82,13.38,111.19,21.06,167.66,20.72a508.2,508.2,0,0,0,84.25-7.3,381.18,381.18,0,0,0,81.19-23.26c26-11,50.62-25.34,71.86-43.91a211.78,211.78,0,0,0,28.93-30.71,196.42,196.42,0,0,0,35.72-75.89,210.66,210.66,0,0,0,5.23-41.86c.78-28.21-3.86-56.38-12-83.37a380.6,380.6,0,0,0-33.81-77.39,508.49,508.49,0,0,0-48.06-69.58c-35.73-43.74-77.56-82.29-122.81-116A867.48,867.48,0,0,0,738.91,446.17C684.09,432.74,627.72,425,571.22,425.32a508.83,508.83,0,0,0-84.3,7.24,382,382,0,0,0-81.28,23.22c-26,11-50.71,25.34-72,43.94a211.66,211.66,0,0,0-29,30.75A201.73,201.73,0,0,0,282.58,566.55Zm0,0a202.91,202.91,0,0,1,22-36.1,211.27,211.27,0,0,1,29-30.78c21.28-18.62,46-33,72-44a381.21,381.21,0,0,1,81.3-23.29,508.19,508.19,0,0,1,84.33-7.31c56.52-.34,112.93,7.34,167.78,20.74a867.29,867.29,0,0,1,304.81,143.34c45.32,33.71,87.22,72.27,123,116A509.35,509.35,0,0,1,1215,774.83,382.37,382.37,0,0,1,1249,852.37c8.13,27.06,12.81,55.33,12,83.65a212,212,0,0,1-5.22,42.06,196.21,196.21,0,0,1-35.9,76.25,211.16,211.16,0,0,1-29.09,30.83c-21.34,18.64-46.11,33-72.14,44a382,382,0,0,1-81.38,23.25,510,510,0,0,1-84.39,7.25c-56.54.29-113-7.43-167.81-20.87A867.55,867.55,0,0,1,480.37,995.25c-45.28-33.74-87.14-72.32-122.9-116.09a509.45,509.45,0,0,1-48.1-69.65A381.6,381.6,0,0,1,275.51,732c-8.1-27-12.75-55.26-12-83.53a212.69,212.69,0,0,1,5.24-42A202.55,202.55,0,0,1,282.58,566.55Z"/><path class="cls-4" d="M234.63,544a222.87,222.87,0,0,0-15.14,44c-.81,3.8-1.69,7.58-2.29,11.42-.32,1.91-.7,3.82-1,5.74l-.77,5.77c-.28,1.93-.46,3.86-.63,5.79l-.54,5.8L214,628.3l-.16,2.91-.06,2.91c-.84,31.08,4.3,62.12,13.22,91.84s21.92,58.2,37.29,85.18a560.31,560.31,0,0,0,53,76.54c39.35,48.11,85.41,90.49,135.22,127.55a953.79,953.79,0,0,0,335.1,157.6c60.3,14.73,122.31,23.17,184.43,22.81a560,560,0,0,0,92.68-8c30.56-5.36,60.68-13.62,89.32-25.58s55.69-27.88,79.06-48.32l2.2-1.9,2.13-2,4.27-3.95,4.12-4.11c1.37-1.36,2.75-2.73,4-4.17l4-4.26c1.31-1.43,2.54-2.94,3.81-4.4,2.57-2.9,4.91-6,7.32-9a215.82,215.82,0,0,0,39.29-83.48c.81-3.79,1.7-7.57,2.3-11.4.31-1.91.7-3.81,1-5.73l.77-5.76c.29-1.92.46-3.85.64-5.78l.53-5.79.33-5.8.16-2.9.06-2.91c.86-31-4.24-62-13.14-91.72s-21.85-58.17-37.2-85.13A558.87,558.87,0,0,0,1206.7,697c-39.31-48.11-85.32-90.52-135.1-127.61a953.9,953.9,0,0,0-335-157.82c-60.31-14.77-122.32-23.26-184.47-22.93a559.41,559.41,0,0,0-92.73,8c-30.59,5.35-60.73,13.59-89.41,25.55S314.22,450,290.79,470.46l-2.2,1.9-2.14,2-4.27,4-4.13,4.11c-1.38,1.37-2.76,2.73-4.06,4.18l-4,4.27c-1.32,1.43-2.54,2.94-3.81,4.4-2.58,2.91-4.93,6-7.35,9A223.38,223.38,0,0,0,234.63,544Zm0,0a222.86,222.86,0,0,1,24.22-39.71c2.41-3,4.76-6.14,7.34-9,1.27-1.46,2.49-3,3.81-4.4l4-4.27c1.29-1.45,2.67-2.82,4.05-4.18l4.13-4.12,4.27-3.95,2.14-2,2.2-1.91c23.42-20.47,50.61-36.32,79.2-48.4s58.83-20.25,89.42-25.61a560.06,560.06,0,0,1,92.77-8c62.17-.36,124.21,8.09,184.55,22.82A954.58,954.58,0,0,1,1072,568.87c49.84,37.08,95.93,79.49,135.31,127.63a560.72,560.72,0,0,1,53,76.61c15.39,27,28.26,55.52,37.33,85.29s14.08,60.85,13.24,92l-.06,2.91-.16,2.92-.32,5.82-.54,5.82c-.17,1.93-.35,3.87-.63,5.8l-.77,5.78c-.27,1.93-.65,3.84-1,5.76-.59,3.85-1.48,7.64-2.29,11.44a215.53,215.53,0,0,1-39.48,83.86c-2.41,3-4.77,6.15-7.35,9.06-1.28,1.47-2.51,3-3.83,4.41l-4,4.28c-1.3,1.45-2.68,2.82-4.06,4.19l-4.14,4.12-4.28,4-2.15,2-2.21,1.91c-23.47,20.49-50.7,36.34-79.33,48.41s-58.9,20.23-89.52,25.58a560.47,560.47,0,0,1-92.81,8c-62.2.33-124.25-8.16-184.59-22.94a954.47,954.47,0,0,1-335.17-157.91C402.41,978.42,356.36,936,317,887.84a559,559,0,0,1-52.92-76.61c-15.36-27-28.21-55.5-37.25-85.24s-14-60.78-13.16-91.87l.06-2.92.16-2.9.33-5.82.54-5.8c.18-1.94.35-3.87.64-5.79l.77-5.77c.26-1.93.65-3.83,1-5.75.6-3.84,1.49-7.62,2.3-11.42A222.65,222.65,0,0,1,234.63,544Z"/></g></g><g id="Sekkdyr"><path class="cls-5" d="M368.21,74.45c-8.14-5.22-12.13-13.14-13.41-15-2.79-4.12,4.12-13.68,15.44-21.35s21.91-8.71,25.54-6.42,7.71,7.79,9.28,19.05"/><path class="cls-6" d="M447.75,229.67c9.37-10.49,21.66-14.4,24.66-15.8,6.56-3.06,18.69,9.07,27.09,27.09s8.61,30.2,4.47,34.89-14.06,10-31.49,18"/><g id="rbeidsfiler"><path class="cls-5" d="M484.61,27.92C496.6,38.56,518,57.71,509,84.07s-29.14,71.38-41.09,105.19-31.7,113.22-35.4,137.7-38.79,45.3-72.36,39.64-66.26-38.2-66.83-64.42c-1.17-53.3-8.08-109,12.9-159.7C327.23,91.53,376,63.5,409.42,22.06,430.15-3.65,465.87,11.28,484.61,27.92Z"/><path class="cls-2" d="M454.45,11.25a48.31,48.31,0,0,0-13.27-2.63,20.48,20.48,0,0,0-6.56.71,8.92,8.92,0,0,0-5,3.41,8.76,8.76,0,0,0-1.21,5.88,20.73,20.73,0,0,0,1.8,6.15,49.3,49.3,0,0,0,7.22,11.08,89.3,89.3,0,0,0,9.35,9.61,110.52,110.52,0,0,0,10.52,8.39A109.2,109.2,0,0,0,468.64,61a90,90,0,0,0,12.14,5.69,50,50,0,0,0,12.83,3.2,20.7,20.7,0,0,0,6.4-.31,8.7,8.7,0,0,0,5.13-3,8.83,8.83,0,0,0,1.6-5.87,20.54,20.54,0,0,0-1.46-6.43,48.64,48.64,0,0,0-6.82-11.68,85.45,85.45,0,0,0-9.22-10.08,114.07,114.07,0,0,0-10.61-8.65A94.81,94.81,0,0,0,454.45,11.25Zm34.89,21.16a91.53,91.53,0,0,1,9.55,9.84,51.51,51.51,0,0,1,7.52,11.56,22.62,22.62,0,0,1,1.95,6.78,10.78,10.78,0,0,1-1.56,7.17A11.07,11.07,0,0,1,500.64,72a23,23,0,0,1-7.2.78A50.69,50.69,0,0,1,479.62,70a96.41,96.41,0,0,1-24.68-12.88,115.28,115.28,0,0,1-10.8-8.81A86.88,86.88,0,0,1,434.71,38a50.85,50.85,0,0,1-7.12-12.17A22.86,22.86,0,0,1,426,18.79a13.14,13.14,0,0,1,.34-3.73,10.42,10.42,0,0,1,.64-1.8,7.94,7.94,0,0,1,.46-.86c.18-.31.35-.54.51-.77a10.78,10.78,0,0,1,6.28-3.85,22.91,22.91,0,0,1,7-.37,51.93,51.93,0,0,1,13.39,3.32,91.65,91.65,0,0,1,12.41,5.81,126,126,0,0,1,22.29,15.87Z"/><path class="cls-2" d="M411.28,34.51a9.15,9.15,0,0,0-1.65,5.71,14.9,14.9,0,0,0,.19,2.1A20.74,20.74,0,0,0,411,46.41,32.05,32.05,0,0,0,412.64,50a49.78,49.78,0,0,0,5.29,7.6A77.34,77.34,0,0,0,428,67.58l.39.32A111.32,111.32,0,0,0,440,76.34l.31.19a118.44,118.44,0,0,0,12.82,7.2,107.09,107.09,0,0,0,12.34,5c.62.21,1.24.4,1.86.59a68.3,68.3,0,0,0,10.91,2.5c1.3.17,2.6.29,3.9.35a26.56,26.56,0,0,0,7.32-.57c.42-.1.83-.21,1.24-.35a10.76,10.76,0,0,0,4.75-3,9.24,9.24,0,0,0,2-5.67,15.49,15.49,0,0,0-.06-2.15,20.52,20.52,0,0,0-.92-4.26A30.84,30.84,0,0,0,495,72.5a46.09,46.09,0,0,0-5-8,61.64,61.64,0,0,0-7.33-7.86c-1.48-1.34-3-2.64-4.58-3.88a112.14,112.14,0,0,0-13.86-9.25,103.59,103.59,0,0,0-26.38-11.54c-1.55-.41-3.12-.77-4.69-1.07a48.35,48.35,0,0,0-9.49-.91,24.64,24.64,0,0,0-6.33.82l-.61.19A10.71,10.71,0,0,0,411.28,34.51Zm-1.65-1.14a12.63,12.63,0,0,1,5-3.4,19,19,0,0,1,2.37-.73,29.67,29.67,0,0,1,8.07-.58c.82,0,1.64.1,2.46.19a67.62,67.62,0,0,1,13,2.86,104.49,104.49,0,0,1,14,5.67,119.1,119.1,0,0,1,13.15,7.36,114.86,114.86,0,0,1,12.18,8.84,80.85,80.85,0,0,1,10.68,10.49,51.13,51.13,0,0,1,5.61,8.13,32.65,32.65,0,0,1,1.68,3.6,22.29,22.29,0,0,1,1.33,5,15.24,15.24,0,0,1,.14,1.79,11.19,11.19,0,0,1-2.07,7,12.92,12.92,0,0,1-6.61,4.33A27,27,0,0,1,483.05,95a51.27,51.27,0,0,1-9.19-.87c-1.86-.34-3.7-.76-5.51-1.24a105.63,105.63,0,0,1-26.79-11.78,113.06,113.06,0,0,1-14.15-9.44c-1.58-1.25-3.11-2.54-4.6-3.9a64.31,64.31,0,0,1-7.62-8.13,49.13,49.13,0,0,1-5.35-8.57,33.29,33.29,0,0,1-1.51-3.72,21.4,21.4,0,0,1-1.09-5.2,16.45,16.45,0,0,1,0-1.86,12.91,12.91,0,0,1,.62-3.62,10.31,10.31,0,0,1,.76-1.74,6.53,6.53,0,0,1,.5-.83C409.27,33.82,409.45,33.6,409.63,33.37Z"/><path class="cls-2" d="M393,56.26a9.65,9.65,0,0,0-2.08,5.53,12.27,12.27,0,0,0,0,2.1,17.62,17.62,0,0,0,.84,4.13,25.45,25.45,0,0,0,1.53,3.69,43.12,43.12,0,0,0,5.19,7.67A71.67,71.67,0,0,0,409.67,90l.43.34a113.7,113.7,0,0,0,13,8.68l.34.2a129.72,129.72,0,0,0,14.28,7.19,119.32,119.32,0,0,0,14.14,5c.71.2,1.42.38,2.13.57a80.17,80.17,0,0,0,12.37,2.25q2.22.21,4.41.24a32.87,32.87,0,0,0,8.23-.83c.47-.12.94-.25,1.39-.4a13.62,13.62,0,0,0,5.48-3.19,9.73,9.73,0,0,0,2.42-5.45,13.69,13.69,0,0,0,.13-2.13,18.06,18.06,0,0,0-.62-4.28,25.93,25.93,0,0,0-1.36-3.78,40.88,40.88,0,0,0-4.93-8.08,57.15,57.15,0,0,0-8.94-9.07q-2.73-2.26-5.66-4.32a117.6,117.6,0,0,0-17.12-9.85A112.88,112.88,0,0,0,421.2,52.6c-1.66-.34-3.34-.63-5-.86a55,55,0,0,0-10.07-.47,29.51,29.51,0,0,0-6.68,1.1l-.65.21A12.92,12.92,0,0,0,393,56.26Zm-1.63-1.16a15.49,15.49,0,0,1,5.81-3.62,23.48,23.48,0,0,1,2.68-.8,37.11,37.11,0,0,1,9.1-.8c.92,0,1.85.07,2.77.13a81.19,81.19,0,0,1,14.83,2.65,117.18,117.18,0,0,1,15.54,5.53,129.68,129.68,0,0,1,14.71,7.4,115.48,115.48,0,0,1,13.65,9.13,74.89,74.89,0,0,1,11.81,11.16,44.83,44.83,0,0,1,5.53,8.22,28.7,28.7,0,0,1,1.53,3.67,19.79,19.79,0,0,1,1,5.1,14.93,14.93,0,0,1,0,1.77,11.75,11.75,0,0,1-2.57,6.8,15.23,15.23,0,0,1-7.07,4.44,31.09,31.09,0,0,1-8,1.35,57.31,57.31,0,0,1-9.72-.46c-2-.26-3.93-.6-5.87-1a115.1,115.1,0,0,1-28.9-10.69A118.21,118.21,0,0,1,410.68,95c-2-1.38-3.86-2.82-5.7-4.34a60.87,60.87,0,0,1-9.3-9.42,43.83,43.83,0,0,1-5.25-8.64,28.7,28.7,0,0,1-1.37-3.76,19.92,19.92,0,0,1-.75-5.24,16,16,0,0,1,.1-1.83,13.33,13.33,0,0,1,.91-3.52,10.59,10.59,0,0,1,.87-1.67c.17-.28.35-.53.55-.8A9,9,0,0,1,391.33,55.1Z"/><path class="cls-2" d="M374.64,78a10.44,10.44,0,0,0-2.52,5.36,12,12,0,0,0-.19,2.08,15.39,15.39,0,0,0,.55,4.18,21.57,21.57,0,0,0,1.38,3.76,37.5,37.5,0,0,0,5.1,7.74,69.55,69.55,0,0,0,12.33,11.25l.48.35a114.91,114.91,0,0,0,14.35,8.93l.37.2A136.26,136.26,0,0,0,422.23,129a128.82,128.82,0,0,0,15.94,5l2.39.55a92.89,92.89,0,0,0,13.85,2q2.46.15,4.92.12a40.4,40.4,0,0,0,9.14-1.1c.52-.13,1-.28,1.54-.44a16.74,16.74,0,0,0,6.19-3.42,10.47,10.47,0,0,0,2.83-5.24,12.39,12.39,0,0,0,.32-2.1,16,16,0,0,0-.32-4.29,22.61,22.61,0,0,0-1.2-3.83,36.65,36.65,0,0,0-4.82-8.13,58.23,58.23,0,0,0-10.55-10.29q-3.25-2.52-6.74-4.75a124.68,124.68,0,0,0-20.38-10.44,121.35,121.35,0,0,0-30.77-9.41c-1.77-.27-3.55-.48-5.33-.64a59.44,59.44,0,0,0-10.67,0,34,34,0,0,0-7,1.37l-.69.23A15.47,15.47,0,0,0,374.64,78ZM373,76.79a18.64,18.64,0,0,1,6.6-3.83,26.94,26.94,0,0,1,3-.87,45.09,45.09,0,0,1,10.12-1c1,0,2.06,0,3.09.08a94,94,0,0,1,16.63,2.44A130.23,130.23,0,0,1,429.56,79a139.8,139.8,0,0,1,16.28,7.44A119.55,119.55,0,0,1,461,95.83a72.58,72.58,0,0,1,12.94,11.82,39.83,39.83,0,0,1,5.44,8.32,25.39,25.39,0,0,1,1.39,3.73,17.8,17.8,0,0,1,.67,5.16,17.6,17.6,0,0,1-.15,1.77,12.6,12.6,0,0,1-3.08,6.6,17.91,17.91,0,0,1-7.52,4.56,36.16,36.16,0,0,1-8.37,1.63,62.52,62.52,0,0,1-10.24-.06c-2.09-.17-4.16-.43-6.22-.76a124.46,124.46,0,0,1-31-9.58A127,127,0,0,1,394,118.32q-3.51-2.25-6.8-4.78a60.61,60.61,0,0,1-11-10.71,38.9,38.9,0,0,1-5.16-8.7,23.74,23.74,0,0,1-1.21-3.81,17.69,17.69,0,0,1-.42-5.26,15.75,15.75,0,0,1,.25-1.81,13.37,13.37,0,0,1,1.19-3.42,12,12,0,0,1,1-1.6c.19-.26.39-.51.6-.76A8.43,8.43,0,0,1,373,76.79Z"/><path class="cls-2" d="M356.32,99.66a12,12,0,0,0-3.34,7.26,14,14,0,0,0,.26,4.22,19.25,19.25,0,0,0,1.23,3.84,34.18,34.18,0,0,0,5,7.81,68.32,68.32,0,0,0,13.44,11.9l.52.36a121.86,121.86,0,0,0,15.72,9.18l.41.2a148.07,148.07,0,0,0,17.19,7.19,141.88,141.88,0,0,0,17.74,4.92c.88.18,1.77.36,2.66.52a102.81,102.81,0,0,0,15.32,1.79c1.82.06,3.63.06,5.42,0A47.19,47.19,0,0,0,458,157.49c.57-.15,1.14-.31,1.69-.49a20.15,20.15,0,0,0,6.9-3.65,11.4,11.4,0,0,0,3.25-5,12.38,12.38,0,0,0,.51-2.08,14.49,14.49,0,0,0,0-4.31,19,19,0,0,0-1-3.87,33.07,33.07,0,0,0-4.7-8.17,60.24,60.24,0,0,0-12.17-11.51c-2.51-1.85-5.12-3.57-7.82-5.19a135.67,135.67,0,0,0-23.63-11,131.92,131.92,0,0,0-33-8.33c-1.88-.2-3.77-.35-5.65-.43a65.76,65.76,0,0,0-11.26.41,39.35,39.35,0,0,0-7.36,1.64l-.73.25A18.47,18.47,0,0,0,356.32,99.66Zm-1.6-1.22a22.45,22.45,0,0,1,7.4-4c1.09-.37,2.19-.68,3.31-.94a53.13,53.13,0,0,1,11.15-1.23c1.13,0,2.27,0,3.4,0a108.4,108.4,0,0,1,18.42,2.24,142.23,142.23,0,0,1,18.65,5.24,150.25,150.25,0,0,1,17.86,7.47,124,124,0,0,1,16.59,9.72,71.62,71.62,0,0,1,14.06,12.47,36.06,36.06,0,0,1,5.35,8.42,21.38,21.38,0,0,1,1.25,3.8,16.2,16.2,0,0,1,.34,5.23,14.69,14.69,0,0,1-.29,1.74,13.63,13.63,0,0,1-3.59,6.42,21.21,21.21,0,0,1-8,4.68,42.64,42.64,0,0,1-8.76,1.91,69.06,69.06,0,0,1-10.77.34q-3.3-.15-6.57-.52a134.42,134.42,0,0,1-33.13-8.49,136.88,136.88,0,0,1-24.21-11.32c-2.71-1.63-5.35-3.37-7.89-5.23a62.6,62.6,0,0,1-12.67-12,35.36,35.36,0,0,1-5-8.78,21.2,21.2,0,0,1-1.07-3.85,16.29,16.29,0,0,1-.09-5.3,15.28,15.28,0,0,1,.4-1.78,14,14,0,0,1,1.47-3.32,14.78,14.78,0,0,1,1.1-1.53c.21-.25.42-.49.65-.73S354.5,98.65,354.72,98.44Z"/><path class="cls-2" d="M338,121.31a12.86,12.86,0,0,0-3.4,5,11.63,11.63,0,0,0-.56,2.08,13,13,0,0,0,0,4.26,17.6,17.6,0,0,0,1.08,3.9,30.61,30.61,0,0,0,4.9,7.89A68.67,68.67,0,0,0,354.53,157l.56.38a126.58,126.58,0,0,0,17.09,9.41l.44.21a158.55,158.55,0,0,0,18.65,7.19,156.32,156.32,0,0,0,19.54,4.88c1,.18,1.95.34,2.93.5a115.33,115.33,0,0,0,16.79,1.55c2,0,4,0,5.93-.12a55.06,55.06,0,0,0,11-1.62c.62-.16,1.23-.34,1.84-.53a23.69,23.69,0,0,0,7.61-3.89,13,13,0,0,0,3.67-4.8,12.46,12.46,0,0,0,.69-2.06,13.24,13.24,0,0,0,.27-4.32,17.29,17.29,0,0,0-.88-3.92,30,30,0,0,0-4.59-8.21,63.12,63.12,0,0,0-13.78-12.74c-2.85-2-5.83-3.87-8.9-5.62a145.12,145.12,0,0,0-26.89-11.63,141.16,141.16,0,0,0-35.16-7.26c-2-.13-4-.21-6-.22a72.36,72.36,0,0,0-11.85.85,45.87,45.87,0,0,0-7.7,1.91l-.77.28A22.2,22.2,0,0,0,338,121.31Zm-1.58-1.25a25.8,25.8,0,0,1,8.2-4.26c1.19-.39,2.4-.72,3.62-1a62.88,62.88,0,0,1,12.17-1.45c1.24,0,2.48,0,3.73,0a121.34,121.34,0,0,1,20.21,2,156.71,156.71,0,0,1,20.2,5.09A160.18,160.18,0,0,1,424,127.93,129.3,129.3,0,0,1,442,138a71.13,71.13,0,0,1,15.19,13.13,32.63,32.63,0,0,1,5.26,8.52,19.25,19.25,0,0,1,1.11,3.86,14.93,14.93,0,0,1,0,5.29,12.9,12.9,0,0,1-.44,1.73,14.7,14.7,0,0,1-4.09,6.23,24.94,24.94,0,0,1-8.43,4.79,49,49,0,0,1-9.15,2.2,75.58,75.58,0,0,1-11.29.74q-3.46,0-6.93-.27a144.67,144.67,0,0,1-35.23-7.4,148.42,148.42,0,0,1-27.57-12c-3.09-1.76-6.1-3.65-9-5.68a65.72,65.72,0,0,1-14.35-13.26,31.92,31.92,0,0,1-4.95-8.84,19.33,19.33,0,0,1-.93-3.91,14.07,14.07,0,0,1,.8-7.08,14.52,14.52,0,0,1,1.75-3.21,15.33,15.33,0,0,1,1.22-1.47l.69-.69C335.94,120.46,336.18,120.26,336.41,120.06Z"/><path class="cls-2" d="M348.38,134.89a66.32,66.32,0,0,0-20.49,3.48,27.26,27.26,0,0,0-8.23,4.54,12.79,12.79,0,0,0-4,15.17,27.85,27.85,0,0,0,4.81,8c4.18,5,9.74,9.36,15.66,13.2a130.82,130.82,0,0,0,19.06,10,167,167,0,0,0,20.59,7.4,167.85,167.85,0,0,0,21.34,4.85,132.4,132.4,0,0,0,21.46,1.78c7.06,0,14.08-.71,20.3-2.7a27.59,27.59,0,0,0,8.33-4.11,13.73,13.73,0,0,0,5-6.62,13.59,13.59,0,0,0-.15-8.31,27.33,27.33,0,0,0-4.48-8.24,66.67,66.67,0,0,0-15.39-14c-12-8.11-25.86-14.05-40.12-18.28S362.82,134.49,348.38,134.89ZM413,148.63a135.5,135.5,0,0,1,19.53,10.31c6.1,4,11.87,8.45,16.31,13.79a30.09,30.09,0,0,1,5.17,8.62,14.41,14.41,0,0,1-4.53,17,29.6,29.6,0,0,1-8.89,4.9,68.88,68.88,0,0,1-21.35,3.62c-14.87.41-30.06-2.13-44.63-6.32s-28.7-10.36-41-18.71a69.35,69.35,0,0,1-16-14.54,29.91,29.91,0,0,1-4.85-8.91,14.43,14.43,0,0,1,5.35-16.8,30.2,30.2,0,0,1,9-4.47c6.61-2.12,13.89-2.79,21.16-2.85a135.25,135.25,0,0,1,22,1.83A184.36,184.36,0,0,1,413,148.63Z"/><path class="cls-2" d="M319.12,168.58a15.49,15.49,0,0,0-5.15,7.14,13.68,13.68,0,0,0-.66,5,16.55,16.55,0,0,0,.61,3.78,26.74,26.74,0,0,0,4.47,8.71,63,63,0,0,0,13.82,12.25,117.44,117.44,0,0,0,16.94,9.51,105.86,105.86,0,0,0,10.94,5.1,122,122,0,0,0,11.56,4,152.12,152.12,0,0,0,20.46,4.57l2.58.37a118.77,118.77,0,0,0,18,1.13c1.81,0,3.61-.12,5.4-.26a59.3,59.3,0,0,0,14-2.59,28.29,28.29,0,0,0,8-4,15.73,15.73,0,0,0,5.52-6.83,13.55,13.55,0,0,0,.92-4.74,16.06,16.06,0,0,0-.41-4,26.57,26.57,0,0,0-4.09-9,56.57,56.57,0,0,0-11.4-11.89q-1.87-1.5-3.86-2.9a102.91,102.91,0,0,0-10.11-6.27,124.34,124.34,0,0,0-15.24-7,144,144,0,0,0-16-5,137.64,137.64,0,0,0-33.85-4.93c-2.08,0-4.16,0-6.23.12a62.07,62.07,0,0,0-18.71,3.54A26.61,26.61,0,0,0,319.12,168.58ZM409,173.67a121.15,121.15,0,0,1,18.87,10.4c5.86,4,11.37,8.59,15.52,14a29.73,29.73,0,0,1,4.77,8.73,15.68,15.68,0,0,1-4.61,17.35,29.9,29.9,0,0,1-8.6,5.24,65.06,65.06,0,0,1-20.82,4.28c-14.54.79-29.43-1.53-43.65-5.62-13.15-3.9-26-9.36-37.17-16.83a70.15,70.15,0,0,1-16-14.06,33.16,33.16,0,0,1-5.91-10.12,16.92,16.92,0,0,1-.54-9.37,16.17,16.17,0,0,1,4.8-7.9,25.89,25.89,0,0,1,9.52-6.23c6.43-2.35,13.53-3.24,20.63-3.47a120.73,120.73,0,0,1,21.51,1.39A164.53,164.53,0,0,1,409,173.67Z"/><path class="cls-2" d="M318.49,194.25a17.83,17.83,0,0,0-5.71,7.39,15.42,15.42,0,0,0-1,5.18,17.63,17.63,0,0,0,.35,4,26,26,0,0,0,4.12,9.46,57.46,57.46,0,0,0,12,11.3,104.34,104.34,0,0,0,14.82,9,88.16,88.16,0,0,0,11.76,6.17,102,102,0,0,0,12.66,4.54,137.7,137.7,0,0,0,19.58,4.3c.82.12,1.65.23,2.47.33a110.67,110.67,0,0,0,17.21.88q2.6-.09,5.16-.33a57.15,57.15,0,0,0,13.36-2.68,29.12,29.12,0,0,0,7.61-3.79A17.92,17.92,0,0,0,438.9,243a14.86,14.86,0,0,0,1.29-4.92,17.17,17.17,0,0,0-.12-4.23,26.34,26.34,0,0,0-3.69-9.73,53.46,53.46,0,0,0-11.24-12.57q-1.9-1.58-3.91-3.05a91.93,91.93,0,0,0-10.3-6.53,114,114,0,0,0-15.69-7,126.88,126.88,0,0,0-16.5-4.67,124,124,0,0,0-30.84-3.68c-1.9,0-3.78.11-5.66.26a58.19,58.19,0,0,0-16.92,3.6A26.38,26.38,0,0,0,318.49,194.25Zm86.32,4.45A110.16,110.16,0,0,1,423,209.2a62.24,62.24,0,0,1,14.73,14.26,30,30,0,0,1,4.37,8.86A17.09,17.09,0,0,1,437.44,250a29.73,29.73,0,0,1-8.32,5.57,60.8,60.8,0,0,1-20.29,5c-14.2,1.17-28.78-.92-42.66-4.91a127.18,127.18,0,0,1-33.34-15A70.65,70.65,0,0,1,316.9,227a36,36,0,0,1-7-11.32,18.84,18.84,0,0,1-.9-9.44,17.21,17.21,0,0,1,4.07-8.3,24.71,24.71,0,0,1,10-8c6.23-2.58,13.15-3.68,20.09-4.09a108.83,108.83,0,0,1,21,1,147.15,147.15,0,0,1,40.57,11.85Z"/><path class="cls-2" d="M317.93,219.92a20.21,20.21,0,0,0-6.27,7.64,17,17,0,0,0-1.42,5.4,18.41,18.41,0,0,0,.08,4.26,25.94,25.94,0,0,0,3.78,10.21,52,52,0,0,0,10.14,10.35,91.2,91.2,0,0,0,12.7,8.44,78.13,78.13,0,0,0,12.58,7.24,95,95,0,0,0,13.75,5.13,123.85,123.85,0,0,0,18.7,4c.79.11,1.57.2,2.36.29a100.58,100.58,0,0,0,16.43.63c1.65-.08,3.29-.21,4.91-.39a56.47,56.47,0,0,0,12.72-2.77,29.85,29.85,0,0,0,7.25-3.64,20,20,0,0,0,6.64-7.26,16.74,16.74,0,0,0,1.66-5.11,18.41,18.41,0,0,0,.17-4.46,26.28,26.28,0,0,0-3.29-10.46,50.81,50.81,0,0,0-11.08-13.25c-1.28-1.11-2.59-2.18-3.95-3.21a86,86,0,0,0-10.5-6.79,106.52,106.52,0,0,0-16.14-7.1,113.14,113.14,0,0,0-17-4.32,110.47,110.47,0,0,0-27.83-2.44c-1.71.08-3.4.21-5.09.4a54.5,54.5,0,0,0-15.14,3.68A26.18,26.18,0,0,0,317.93,219.92Zm82.8,3.82a99,99,0,0,1,17.55,10.58,58.13,58.13,0,0,1,13.94,14.5,30.25,30.25,0,0,1,4,9,18.72,18.72,0,0,1-4.76,17.95,30.16,30.16,0,0,1-8,5.92,57.12,57.12,0,0,1-19.76,5.6c-13.87,1.56-28.15-.31-41.67-4.19A117.4,117.4,0,0,1,332.45,270a71.73,71.73,0,0,1-15.88-13.08,39.56,39.56,0,0,1-8-12.54,21.42,21.42,0,0,1-1.26-9.51,18.86,18.86,0,0,1,3.34-8.7,24.87,24.87,0,0,1,10.58-9.76,58.32,58.32,0,0,1,19.55-4.72,99.69,99.69,0,0,1,20.49.53,131.78,131.78,0,0,1,39.49,11.54Z"/><path class="cls-2" d="M317.38,245.59a22.71,22.71,0,0,0-6.82,7.88,18.55,18.55,0,0,0-1.8,5.62,19.47,19.47,0,0,0-.19,4.51A26.22,26.22,0,0,0,312,274.55a46.65,46.65,0,0,0,8.3,9.41,77.23,77.23,0,0,0,10.58,7.9,73.49,73.49,0,0,0,13.39,8.31,88.94,88.94,0,0,0,14.85,5.71A110.31,110.31,0,0,0,377,309.63c.75.1,1.5.18,2.25.26a93.14,93.14,0,0,0,15.65.37c1.57-.1,3.12-.25,4.67-.46A55,55,0,0,0,411.59,307a31.37,31.37,0,0,0,6.89-3.48,22.55,22.55,0,0,0,7.2-7.48,18.35,18.35,0,0,0,2-5.29,19.35,19.35,0,0,0,.46-4.69,26.53,26.53,0,0,0-2.89-11.2,48.84,48.84,0,0,0-10.93-13.94c-1.28-1.17-2.61-2.28-4-3.36a80.73,80.73,0,0,0-10.71-7,98.65,98.65,0,0,0-16.58-7.16,102.19,102.19,0,0,0-17.57-4,97.28,97.28,0,0,0-24.83-1.2c-1.51.14-3,.32-4.51.54a51.06,51.06,0,0,0-13.36,3.75A26.93,26.93,0,0,0,317.38,245.59Zm79.28,3.18a90,90,0,0,1,16.89,10.68,54.61,54.61,0,0,1,13.15,14.73,30.44,30.44,0,0,1,3.57,9.1,20.65,20.65,0,0,1-4.84,18.26,30.6,30.6,0,0,1-7.76,6.25,54.28,54.28,0,0,1-19.22,6.27c-13.54,1.93-27.51.29-40.69-3.49a107.31,107.31,0,0,1-25.67-11.22,72.45,72.45,0,0,1-15.83-12.6A43,43,0,0,1,307.17,273a24.08,24.08,0,0,1-1.61-9.58,20.58,20.58,0,0,1,2.61-9.09,25.53,25.53,0,0,1,11.1-11.53,54.82,54.82,0,0,1,19-5.35,90.2,90.2,0,0,1,20,.1,117.93,117.93,0,0,1,38.4,11.22Z"/><path class="cls-2" d="M316.87,271.26a25.32,25.32,0,0,0-7.38,8.13,20.31,20.31,0,0,0-2.18,5.84,20.58,20.58,0,0,0-.46,4.75,26.59,26.59,0,0,0,3.1,11.7,41.87,41.87,0,0,0,6.45,8.45,66.29,66.29,0,0,0,8.46,7.38,72.55,72.55,0,0,0,14.21,9.38,87.83,87.83,0,0,0,16,6.29A98.2,98.2,0,0,0,372,336.65c.71.09,1.42.16,2.14.22A84.92,84.92,0,0,0,389,337c1.48-.13,3-.31,4.43-.53a54,54,0,0,0,11.41-2.94,33.77,33.77,0,0,0,6.54-3.32,25.09,25.09,0,0,0,7.76-7.69,20.09,20.09,0,0,0,2.4-5.49,20.84,20.84,0,0,0,.75-4.92,27.1,27.1,0,0,0-2.5-11.94A47.54,47.54,0,0,0,409,285.55c-1.29-1.22-2.64-2.39-4-3.5a76.62,76.62,0,0,0-10.91-7.31,93.93,93.93,0,0,0-17-7.22,95.1,95.1,0,0,0-18.11-3.62,83.09,83.09,0,0,0-21.83,0c-1.31.18-2.63.41-3.93.68a48.56,48.56,0,0,0-11.58,3.81A29.35,29.35,0,0,0,316.87,271.26Zm75.75,2.54a81.93,81.93,0,0,1,16.24,10.77,51.82,51.82,0,0,1,12.35,15,31.3,31.3,0,0,1,3.17,9.22,22.9,22.9,0,0,1-4.92,18.56,30.94,30.94,0,0,1-7.47,6.59,51.46,51.46,0,0,1-18.69,6.93c-13.21,2.32-26.88.9-39.7-2.77a98.46,98.46,0,0,1-21.84-9.36A73.1,73.1,0,0,1,316,316.6a46.12,46.12,0,0,1-10.15-15,27.74,27.74,0,0,1-2-9.64,23.23,23.23,0,0,1,1.88-9.5,26.7,26.7,0,0,1,11.63-13.29,51.4,51.4,0,0,1,18.46-6,81.9,81.9,0,0,1,19.48-.33,106,106,0,0,1,37.31,10.89Z"/><path class="cls-2" d="M352.39,288.46a71,71,0,0,0-18.82,1.28,46.35,46.35,0,0,0-17.18,7.19c-5.05,3.54-9,8.65-10.5,14.44a25.58,25.58,0,0,0,2,17.44,46.4,46.4,0,0,0,10.95,14.34,72,72,0,0,0,15,10.45A92.69,92.69,0,0,0,369,363.86a72.58,72.58,0,0,0,18.28-.73A46.6,46.6,0,0,0,404.26,357a25.64,25.64,0,0,0,11.09-13.58,26,26,0,0,0-1.06-17.83,46.44,46.44,0,0,0-10.61-15.3A70.54,70.54,0,0,0,388.51,299a85.94,85.94,0,0,0-36.12-10.56Zm36.22,10.37a74.58,74.58,0,0,1,15.58,10.87,48.66,48.66,0,0,1,11.56,15.2,31.68,31.68,0,0,1,2.77,9.34,26.17,26.17,0,0,1-.61,9.88,26.48,26.48,0,0,1-4.38,9,32.16,32.16,0,0,1-7.19,6.93,49.12,49.12,0,0,1-18.16,7.58c-12.88,2.71-26.23,1.52-38.71-2.06a92,92,0,0,1-18-7.48,73.48,73.48,0,0,1-15.72-11.63,49.28,49.28,0,0,1-11.21-16.17,32,32,0,0,1-2.33-9.71,26.21,26.21,0,0,1,1.15-9.9,28.18,28.18,0,0,1,12.15-15.05,48.84,48.84,0,0,1,17.93-6.6,74.45,74.45,0,0,1,19-.76,95.42,95.42,0,0,1,36.21,10.57Z"/><path class="cls-5" d="M333.26,285.24c-5.44,24.85-9.71,39.9-18.49,63.87C300.18,388.92,279.77,423,231,417c-46.7-5.71-59.4-35.95-65.09-74.56-10.55-71.58.23-183.87,36-248.41,16-28.94,23.2-43.78,73.2-37.67s53.1,23.52,62.09,54.21C351.61,159.94,343.88,236.73,333.26,285.24Z"/><path class="cls-2" d="M275.08,56.29a113.54,113.54,0,0,0-13.67-.76,84.77,84.77,0,0,0-13.6,1.21,48.66,48.66,0,0,0-12.92,4,20.75,20.75,0,0,0-5.42,3.76,8.92,8.92,0,0,0-2.78,5.42,8.78,8.78,0,0,0,1.74,5.7A20.74,20.74,0,0,0,233,80.19a50,50,0,0,0,11.63,6.29,89.84,89.84,0,0,0,12.79,4,111.89,111.89,0,0,0,13.24,2.36,109.59,109.59,0,0,0,13.42.9A89.18,89.18,0,0,0,297.41,93a50.1,50.1,0,0,0,12.81-3.31,20.94,20.94,0,0,0,5.48-3.32,8.81,8.81,0,0,0,3.07-5.16,9,9,0,0,0-1.4-5.91,20.86,20.86,0,0,0-4.36-5,48.25,48.25,0,0,0-11.58-7A94.81,94.81,0,0,0,275.08,56.29Zm0,0a112.24,112.24,0,0,1,13.48,2.4,92.72,92.72,0,0,1,13.09,4.09,51.32,51.32,0,0,1,12.12,6.59,22.42,22.42,0,0,1,4.94,5,10.68,10.68,0,0,1,2,7.07,7.69,7.69,0,0,1-.14.92,9.23,9.23,0,0,1-.24.94,9.41,9.41,0,0,1-.75,1.76,13.07,13.07,0,0,1-2.26,3,23.07,23.07,0,0,1-5.95,4.12A51,51,0,0,1,298,96.37,88,88,0,0,1,284,97.61a115.47,115.47,0,0,1-13.91-.78,96.69,96.69,0,0,1-26.9-7.14,50.88,50.88,0,0,1-12.06-7.3A22.89,22.89,0,0,1,226.38,77a11,11,0,0,1-1.7-7.27,10.75,10.75,0,0,1,3.68-6.35,22.4,22.4,0,0,1,6-3.68,50.84,50.84,0,0,1,13.35-3.47,90.92,90.92,0,0,1,13.69-.82A113.57,113.57,0,0,1,275.08,56.29Z"/><path class="cls-2" d="M223.27,86.77A13.84,13.84,0,0,0,220.05,91a9.78,9.78,0,0,0-.81,2.43,9.4,9.4,0,0,0-.11,2.54,11.53,11.53,0,0,0,1.64,4.82,22.87,22.87,0,0,0,4.75,5.29,51.69,51.69,0,0,0,12.62,7.41,91.07,91.07,0,0,0,14.1,4.69,114,114,0,0,0,14.67,2.7,113.46,113.46,0,0,0,14.38.93c.77,0,1.53,0,2.3,0a90.87,90.87,0,0,0,12-.94c1.52-.23,3-.49,4.55-.81a47.59,47.59,0,0,0,9.15-2.83,24.4,24.4,0,0,0,5.91-3.5,13.37,13.37,0,0,0,3.4-3.93,10,10,0,0,0,.92-2.33,9.45,9.45,0,0,0,.26-2.61,11.78,11.78,0,0,0-1.39-4.94,22.58,22.58,0,0,0-4.56-5.7A50.2,50.2,0,0,0,301.3,86a97.45,97.45,0,0,0-26.66-7.64,117.11,117.11,0,0,0-13.87-1.09,90.92,90.92,0,0,0-15.9,1,62,62,0,0,0-10.18,2.4,45.67,45.67,0,0,0-5,2A26.48,26.48,0,0,0,223.27,86.77Zm-1.09-1.2a25.84,25.84,0,0,1,6.38-3.82,50.78,50.78,0,0,1,10.37-3.14c1.21-.24,2.43-.45,3.65-.64A96.71,96.71,0,0,1,257,77a116.33,116.33,0,0,1,14.22.83c1.59.18,3.17.38,4.75.62,3.12.47,6.22,1,9.29,1.78s6.2,1.55,9.24,2.55c1.48.49,3,1,4.42,1.59a58,58,0,0,1,12.72,6.6,29.41,29.41,0,0,1,5.93,4.89,16.72,16.72,0,0,1,2.31,3.2,13.58,13.58,0,0,1,1.93,5.78,11.41,11.41,0,0,1-.15,3c-.07.34-.15.69-.26,1.1s-.24.75-.39,1.12-.21.51-.33.76a12.24,12.24,0,0,1-.74,1.33,16.69,16.69,0,0,1-3,3.5,27.42,27.42,0,0,1-6.44,4.32,51.11,51.11,0,0,1-9.33,3.39c-1.67.44-3.36.81-5.05,1.12a91.83,91.83,0,0,1-14.87,1.4A119.11,119.11,0,0,1,266.4,125a98.74,98.74,0,0,1-29.75-8.26,52.46,52.46,0,0,1-13.08-8.52,24.92,24.92,0,0,1-5-6.23,13.94,13.94,0,0,1-1.67-5.92,11.42,11.42,0,0,1,.29-3.08,11.77,11.77,0,0,1,1.1-2.86A15.23,15.23,0,0,1,222.18,85.57Z"/><path class="cls-2" d="M217.07,109a17.55,17.55,0,0,0-4.13,4.91,12.33,12.33,0,0,0-1.14,2.89,11.42,11.42,0,0,0-.34,3.08,13.38,13.38,0,0,0,1.65,5.93,24.41,24.41,0,0,0,5,6,53.52,53.52,0,0,0,13.62,8.55,95.2,95.2,0,0,0,15.4,5.38,115.69,115.69,0,0,0,16.1,3.05,117.55,117.55,0,0,0,15.34.95c.82,0,1.64,0,2.45,0a94.61,94.61,0,0,0,12.82-1.08c1.62-.26,3.23-.56,4.83-.91a53.48,53.48,0,0,0,9.76-3.07,29.06,29.06,0,0,0,6.34-3.67,17.41,17.41,0,0,0,4.3-4.61,12.67,12.67,0,0,0,1.26-2.75,11.41,11.41,0,0,0,.51-3.15,13.59,13.59,0,0,0-1.36-6.06,24.62,24.62,0,0,0-4.78-6.45,52.09,52.09,0,0,0-13.52-9.36,99.67,99.67,0,0,0-27-8.28A121,121,0,0,0,260.14,99a97.11,97.11,0,0,0-18.2.67,70.32,70.32,0,0,0-11.68,2.56,52.83,52.83,0,0,0-5.73,2.19A32,32,0,0,0,217.07,109ZM216,107.79a30.42,30.42,0,0,1,6.75-4,55.46,55.46,0,0,1,10.86-3.37q1.92-.41,3.84-.72a99.56,99.56,0,0,1,15.12-1.22,117.72,117.72,0,0,1,14.78.74c1.65.17,3.29.38,4.94.62,3.24.46,6.46,1,9.66,1.77s6.44,1.58,9.61,2.59c1.54.49,3.08,1,4.6,1.6a65.08,65.08,0,0,1,13.34,6.63,36.71,36.71,0,0,1,8.41,6.63,20.26,20.26,0,0,1,3.12,4.51,15.63,15.63,0,0,1,1.91,7,13.47,13.47,0,0,1-.39,3.55c-.11.42-.23.83-.38,1.29s-.33.88-.53,1.31-.29.59-.45.88a13.43,13.43,0,0,1-.95,1.53,20.47,20.47,0,0,1-3.69,4,31.6,31.6,0,0,1-6.92,4.5,54.93,54.93,0,0,1-9.92,3.64q-2.67.7-5.38,1.21a95.72,95.72,0,0,1-15.83,1.56,123.09,123.09,0,0,1-15.83-.83,102.59,102.59,0,0,1-32.6-9.38A54.57,54.57,0,0,1,216,134.13a27.17,27.17,0,0,1-5.21-7,15.83,15.83,0,0,1-1.62-7.11,13.46,13.46,0,0,1,.56-3.62,14.27,14.27,0,0,1,1.47-3.31A19.29,19.29,0,0,1,216,107.79Z"/><path class="cls-2" d="M210.86,131.29a21.63,21.63,0,0,0-5,5.63,15,15,0,0,0-1.48,3.36,13.46,13.46,0,0,0-.57,3.61,15.21,15.21,0,0,0,1.67,7.05,26.25,26.25,0,0,0,5.21,6.76,55.92,55.92,0,0,0,14.61,9.67,97.7,97.7,0,0,0,16.7,6.08,118.48,118.48,0,0,0,17.53,3.39,120.18,120.18,0,0,0,16.3,1c.87,0,1.74,0,2.61,0A101.54,101.54,0,0,0,292,176.54q2.57-.42,5.12-1a57.91,57.91,0,0,0,10.36-3.32,33.27,33.27,0,0,0,6.76-3.84,21,21,0,0,0,5.2-5.28,14.81,14.81,0,0,0,1.6-3.18,13,13,0,0,0,.77-3.67,15.51,15.51,0,0,0-1.33-7.19,26.45,26.45,0,0,0-5-7.19A54.67,54.67,0,0,0,301,131.33a101.69,101.69,0,0,0-27.24-8.92,127.36,127.36,0,0,0-14.28-1.74,106.38,106.38,0,0,0-20.5.4,77.58,77.58,0,0,0-13.17,2.73,57.14,57.14,0,0,0-6.48,2.39A38.06,38.06,0,0,0,210.86,131.29Zm-1-1.27a34.64,34.64,0,0,1,7.12-4.09,60.72,60.72,0,0,1,11.36-3.61c1.33-.3,2.67-.56,4-.79a104.09,104.09,0,0,1,15.84-1.43,120.73,120.73,0,0,1,15.33.66c1.72.17,3.43.37,5.13.61q5.06.67,10,1.77c3.36.74,6.7,1.6,10,2.63q2.4.75,4.79,1.62A74,74,0,0,1,307.37,134a43.65,43.65,0,0,1,10.88,8.38,23.37,23.37,0,0,1,3.93,5.82,17.63,17.63,0,0,1,1.91,8.16,16.07,16.07,0,0,1-.64,4.1c-.15.48-.31,1-.51,1.47a14.36,14.36,0,0,1-.67,1.49c-.17.34-.36.67-.55,1a20.5,20.5,0,0,1-1.17,1.75,25.12,25.12,0,0,1-4.4,4.52,36.34,36.34,0,0,1-7.41,4.7,59,59,0,0,1-10.51,3.87c-1.89.51-3.79.94-5.7,1.31a99.9,99.9,0,0,1-16.79,1.72,125.41,125.41,0,0,1-16.79-.86c-12.25-1.57-24.39-4.78-35.45-10.49a57.46,57.46,0,0,1-15.11-11,29.35,29.35,0,0,1-5.43-7.82,18.05,18.05,0,0,1-1.57-8.31,15.86,15.86,0,0,1,.84-4.15,16.93,16.93,0,0,1,1.85-3.77A23.14,23.14,0,0,1,209.82,130Z"/><path class="cls-2" d="M204.66,153.55a25.33,25.33,0,0,0-5.92,6.36,18.11,18.11,0,0,0-1.83,3.82,15.54,15.54,0,0,0-.79,4.15A17.19,17.19,0,0,0,197.8,176a28,28,0,0,0,5.44,7.5,58.36,58.36,0,0,0,15.6,10.79,101.44,101.44,0,0,0,18,6.78,123.19,123.19,0,0,0,19,3.73,126.22,126.22,0,0,0,17.26,1c.92,0,1.84,0,2.76-.07a105.08,105.08,0,0,0,14.4-1.38c1.82-.31,3.62-.67,5.41-1.1a65.06,65.06,0,0,0,11-3.56,38.85,38.85,0,0,0,7.19-4,24.83,24.83,0,0,0,6.1-5.95,17.68,17.68,0,0,0,1.94-3.61,15.21,15.21,0,0,0,1-4.19,17.5,17.5,0,0,0-1.3-8.31,29,29,0,0,0-5.2-7.95A57.18,57.18,0,0,0,300.89,154a103.81,103.81,0,0,0-27.54-9.56,131.58,131.58,0,0,0-14.49-2.06,113.44,113.44,0,0,0-22.79.12,85.83,85.83,0,0,0-14.66,2.89,65.66,65.66,0,0,0-7.24,2.6A44.17,44.17,0,0,0,204.66,153.55Zm-1-1.3a39.79,39.79,0,0,1,7.48-4.23A67,67,0,0,1,223,144.18c1.39-.33,2.79-.62,4.19-.87a108.26,108.26,0,0,1,16.55-1.63,127.68,127.68,0,0,1,15.89.56c1.77.17,3.55.37,5.31.61,3.49.45,7,1,10.41,1.78s7,1.61,10.36,2.66c1.67.51,3.33,1.05,5,1.64a82.51,82.51,0,0,1,14.56,6.67,51,51,0,0,1,13.37,10.13,27.73,27.73,0,0,1,4.74,7.12,19.74,19.74,0,0,1,1.89,9.35,18.12,18.12,0,0,1-.88,4.64c-.19.56-.39,1.1-.63,1.66s-.52,1.13-.82,1.68q-.31.57-.66,1.11a22.18,22.18,0,0,1-1.37,2,30.13,30.13,0,0,1-5.12,5,43.4,43.4,0,0,1-7.9,4.89,65.53,65.53,0,0,1-11.1,4.11c-2,.54-4,1-6,1.41A104.92,104.92,0,0,1,273,210.57a129.9,129.9,0,0,1-17.75-.89c-13.25-1.69-26.4-5.25-38.29-11.61a59.66,59.66,0,0,1-16.13-12.2,31.44,31.44,0,0,1-5.65-8.62,20.11,20.11,0,0,1-1.51-9.49,17.88,17.88,0,0,1,1.1-4.7,19.55,19.55,0,0,1,2.23-4.22A27,27,0,0,1,203.65,152.25Z"/><path class="cls-2" d="M198.46,175.81a29.4,29.4,0,0,0-6.83,7.08,20.3,20.3,0,0,0-2.16,4.29,17.58,17.58,0,0,0-1,4.68,19.19,19.19,0,0,0,1.69,9.28,30.37,30.37,0,0,0,5.67,8.24,61.3,61.3,0,0,0,16.6,11.91,104.87,104.87,0,0,0,19.31,7.48,128.47,128.47,0,0,0,20.39,4.08,130.63,130.63,0,0,0,18.22,1c1,0,1.94,0,2.91-.08a108.88,108.88,0,0,0,15.2-1.54q2.87-.5,5.7-1.19a70.56,70.56,0,0,0,11.57-3.8,44.62,44.62,0,0,0,7.61-4.19,28.52,28.52,0,0,0,7-6.63,20.11,20.11,0,0,0,2.29-4,17.69,17.69,0,0,0,1.27-4.73,19.45,19.45,0,0,0-1.27-9.43,30.92,30.92,0,0,0-5.41-8.69,59.86,59.86,0,0,0-16.45-12.89,106.21,106.21,0,0,0-27.84-10.2,132.94,132.94,0,0,0-14.69-2.38,121.62,121.62,0,0,0-25.09-.16A94.26,94.26,0,0,0,217,167a70.73,70.73,0,0,0-8,2.81A49.72,49.72,0,0,0,198.46,175.81Zm-1-1.34a46.82,46.82,0,0,1,7.85-4.37A73.78,73.78,0,0,1,217.67,166c1.45-.35,2.91-.66,4.37-.94a111.45,111.45,0,0,1,17.27-1.83,129,129,0,0,1,16.45.47c1.83.17,3.67.37,5.5.61,3.61.44,7.21,1,10.77,1.77s7.2,1.64,10.74,2.7q2.6.76,5.16,1.66a92.26,92.26,0,0,1,15.17,6.69A58.55,58.55,0,0,1,318.94,189a31.32,31.32,0,0,1,5.56,8.43A21.69,21.69,0,0,1,326.37,208a19.92,19.92,0,0,1-1.12,5.18c-.22.62-.47,1.23-.75,1.84s-.62,1.26-1,1.86c-.24.42-.49.84-.76,1.24q-.75,1.13-1.59,2.16a33.69,33.69,0,0,1-5.84,5.55,48.92,48.92,0,0,1-8.38,5.09,69.65,69.65,0,0,1-11.69,4.34c-2.1.58-4.23,1.08-6.36,1.51a109,109,0,0,1-18.7,2,134.24,134.24,0,0,1-18.71-.91c-14.27-1.82-28.42-5.73-41.15-12.73a62.88,62.88,0,0,1-17.14-13.43,34,34,0,0,1-5.86-9.41,22,22,0,0,1-1.46-10.69,20.44,20.44,0,0,1,1.37-5.24,22.2,22.2,0,0,1,2.61-4.67A31.17,31.17,0,0,1,197.47,174.47Z"/><path class="cls-2" d="M257.58,185.82c-15-1.75-30.46-1.26-45,2.79a62.72,62.72,0,0,0-20.29,9.46,33.12,33.12,0,0,0-7.73,7.81,21.46,21.46,0,0,0-3.75,10,21.24,21.24,0,0,0,1.7,10.39,32.36,32.36,0,0,0,5.91,9c4.89,5.4,11.09,9.58,17.59,13a107.93,107.93,0,0,0,20.61,8.18,133.74,133.74,0,0,0,21.82,4.42,131.32,131.32,0,0,0,22.24,1,107.57,107.57,0,0,0,22-3c7.14-1.77,14.17-4.34,20.22-8.41a32.54,32.54,0,0,0,7.9-7.3,21.19,21.19,0,0,0,4.15-9.71,21.51,21.51,0,0,0-1.24-10.55,33.17,33.17,0,0,0-5.62-9.45,63,63,0,0,0-17.43-14.07C287.44,191.93,272.58,187.74,257.58,185.82Zm0,0a135.34,135.34,0,0,1,22.26,4.51A110.74,110.74,0,0,1,301,198.72c6.69,3.57,13.13,7.89,18.32,13.63a34.79,34.79,0,0,1,6.36,9.74,23.78,23.78,0,0,1,1.87,11.72A24.24,24.24,0,0,1,323.29,245a35.6,35.6,0,0,1-8.35,8.44,66,66,0,0,1-21.15,9.86c-15,4.15-30.72,4.64-46,2.85-15.28-1.95-30.43-6.2-44-13.84a65.59,65.59,0,0,1-18.16-14.66,36.08,36.08,0,0,1-6.08-10.21,24.16,24.16,0,0,1-1.41-11.88,23.84,23.84,0,0,1,4.64-10.9,35,35,0,0,1,8.52-7.92c6.42-4.32,13.71-7,21.07-8.81a110.65,110.65,0,0,1,22.53-3.06A135.47,135.47,0,0,1,257.58,185.82Z"/><path class="cls-2" d="M191.42,224.15a31.92,31.92,0,0,0-7.1,7.3,21.17,21.17,0,0,0-3.58,9.21,20.38,20.38,0,0,0,1.2,9.63,29.82,29.82,0,0,0,5.24,9.41,43.45,43.45,0,0,0,3.73,4.07,64.72,64.72,0,0,0,13.6,9.73,101.81,101.81,0,0,0,19.93,8.13A125,125,0,0,0,245.62,286a123.74,123.74,0,0,0,21.59.88,101.1,101.1,0,0,0,21.31-3.09A60.74,60.74,0,0,0,308,275.3a31.68,31.68,0,0,0,7.27-6.82,20,20,0,0,0,3.2-18.69,30.61,30.61,0,0,0-4.9-9.87,46,46,0,0,0-3.54-4.24,62,62,0,0,0-13.58-10.62,91.51,91.51,0,0,0-14.17-6.75,108.81,108.81,0,0,0-15.13-4.43,121.19,121.19,0,0,0-15.58-2.3,116,116,0,0,0-31.42,1.06A90.73,90.73,0,0,0,210,215.05,59.39,59.39,0,0,0,191.42,224.15Zm63.28-12.53a126.57,126.57,0,0,1,21.63,4.44,104.29,104.29,0,0,1,20.47,8.36A63.48,63.48,0,0,1,314.38,238a30.34,30.34,0,0,1,6.17,11.22,23.78,23.78,0,0,1,1.08,11.36,24.74,24.74,0,0,1-4.52,10.63,37.79,37.79,0,0,1-9.74,8.77,66.6,66.6,0,0,1-20.79,9c-13.59,3.56-27.78,3.95-41.61,2.34-14.88-1.9-29.62-6.14-42.72-13.77a62.59,62.59,0,0,1-17.41-14.58,35.2,35.2,0,0,1-5.71-10,23.37,23.37,0,0,1,3.16-22.21,34.4,34.4,0,0,1,8.14-7.84c6.16-4.33,13.2-7,20.33-8.92a104.57,104.57,0,0,1,21.88-3.18A126.1,126.1,0,0,1,254.7,211.62Z"/><path class="cls-2" d="M190.54,250.23a30.89,30.89,0,0,0-6.47,6.8,20.86,20.86,0,0,0-3.42,8.45,19.62,19.62,0,0,0,.7,8.85,27.92,27.92,0,0,0,4.57,9.85,40.61,40.61,0,0,0,3.57,4.31A59.28,59.28,0,0,0,203,298.75a95.44,95.44,0,0,0,19.24,8.08,124.75,124.75,0,0,0,41.49,5.08,95.45,95.45,0,0,0,20.62-3.2,57.55,57.55,0,0,0,18.72-8.56,30.26,30.26,0,0,0,6.63-6.34,20.22,20.22,0,0,0,3.77-8.17,19.87,19.87,0,0,0-.27-8.94A28.52,28.52,0,0,0,309,266.41a39.05,39.05,0,0,0-3.36-4.48,57.39,57.39,0,0,0-13.45-11.17,83.71,83.71,0,0,0-14.69-7.13,101.6,101.6,0,0,0-15.79-4.41,110.07,110.07,0,0,0-16.25-1.88,106.62,106.62,0,0,0-28.81,1.71,84.36,84.36,0,0,0-9.24,2.45A55.76,55.76,0,0,0,190.54,250.23Zm61.24-12.82a118.6,118.6,0,0,1,21,4.39,98.28,98.28,0,0,1,19.8,8.32,60.27,60.27,0,0,1,16.83,13.47,28.21,28.21,0,0,1,6,12.7,23.73,23.73,0,0,1,.29,11,25.43,25.43,0,0,1-4.81,10.1,39.56,39.56,0,0,1-11.13,9.1,66.87,66.87,0,0,1-20.44,8.07,105.47,105.47,0,0,1-37.18,1.82c-14.48-1.85-28.83-6.07-41.46-13.69A59.79,59.79,0,0,1,184,288.2a34.71,34.71,0,0,1-5.35-9.87,24.54,24.54,0,0,1-1.09-11.25,24.08,24.08,0,0,1,4.2-10.37,33.91,33.91,0,0,1,7.76-7.78,60.15,60.15,0,0,1,19.59-9,97.8,97.8,0,0,1,21.22-3.31A118.19,118.19,0,0,1,251.78,237.41Z"/><path class="cls-2" d="M189.6,276.31a29.56,29.56,0,0,0-5.84,6.3,20.82,20.82,0,0,0-3.26,7.68,19.5,19.5,0,0,0,.2,8.09,26.2,26.2,0,0,0,3.91,10.28,35.66,35.66,0,0,0,3.4,4.55A55,55,0,0,0,201.43,324,88.93,88.93,0,0,0,220,332,115.83,115.83,0,0,0,260.18,337a88.24,88.24,0,0,0,19.95-3.32,54.75,54.75,0,0,0,18-8.63,29.72,29.72,0,0,0,6-5.85,20.43,20.43,0,0,0,3.58-7.4,19.8,19.8,0,0,0,.21-8.15,27,27,0,0,0-3.47-10.7,34.52,34.52,0,0,0-3.18-4.72,53.89,53.89,0,0,0-13.32-11.73A79.37,79.37,0,0,0,272.7,269a97.12,97.12,0,0,0-16.45-4.4,103.47,103.47,0,0,0-16.92-1.47,97.62,97.62,0,0,0-26.19,2.37,75.72,75.72,0,0,0-8.36,2.49A52.29,52.29,0,0,0,189.6,276.31Zm59.2-13.11a111.58,111.58,0,0,1,20.37,4.33,91.68,91.68,0,0,1,19.13,8.3,57.3,57.3,0,0,1,16.1,13.38,27.42,27.42,0,0,1,5.79,14.18,24,24,0,0,1-.5,10.64,26.51,26.51,0,0,1-5.1,9.58A41.94,41.94,0,0,1,292.08,333,68.17,68.17,0,0,1,272,340.21a98.53,98.53,0,0,1-32.76,1.31c-14.08-1.8-28-6-40.19-13.62a56.93,56.93,0,0,1-15.92-14.4,34,34,0,0,1-5-9.71,25,25,0,0,1-.94-10.93,24.61,24.61,0,0,1,4-10.11,33.15,33.15,0,0,1,7.38-7.7,57.37,57.37,0,0,1,18.85-9.11A91.59,91.59,0,0,1,228,262.5,110.62,110.62,0,0,1,248.8,263.2Z"/><path class="cls-2" d="M188.58,302.39a29.2,29.2,0,0,0-5.21,5.79,21.31,21.31,0,0,0-3.09,6.93,19.64,19.64,0,0,0-.3,7.32,25,25,0,0,0,3.24,10.7,33.66,33.66,0,0,0,3.24,4.8,51.53,51.53,0,0,0,13.32,11.32,83.63,83.63,0,0,0,17.88,8,107.94,107.94,0,0,0,38.9,4.76,83.15,83.15,0,0,0,19.28-3.43,51.84,51.84,0,0,0,17.22-8.71,28.69,28.69,0,0,0,5.36-5.37,20.73,20.73,0,0,0,3.39-6.63,19.53,19.53,0,0,0,.69-7.34,25.5,25.5,0,0,0-2.75-11.12,32.24,32.24,0,0,0-3-5,50.67,50.67,0,0,0-13.19-12.28,75.94,75.94,0,0,0-15.74-7.87,94.22,94.22,0,0,0-17.11-4.38,96.94,96.94,0,0,0-17.59-1,88.38,88.38,0,0,0-23.58,3,70,70,0,0,0-7.48,2.54A48.73,48.73,0,0,0,188.58,302.39ZM245.74,289a102.59,102.59,0,0,1,19.75,4.27A85.82,85.82,0,0,1,284,301.53a54.39,54.39,0,0,1,15.35,13.3,27.37,27.37,0,0,1,5.61,15.67,24.65,24.65,0,0,1-1.29,10.27,27.72,27.72,0,0,1-5.39,9.05,44.16,44.16,0,0,1-13.9,9.76,69.19,69.19,0,0,1-19.74,6.27,92.58,92.58,0,0,1-28.34.8c-13.68-1.74-27.22-5.95-38.92-13.54a54.14,54.14,0,0,1-15.17-14.32,33.11,33.11,0,0,1-4.61-9.53,24.39,24.39,0,0,1,3-20.47,32.85,32.85,0,0,1,7-7.63,54.51,54.51,0,0,1,18.1-9.21,86.09,86.09,0,0,1,19.91-3.56A102.54,102.54,0,0,1,245.74,289Z"/><path class="cls-2" d="M187.46,328.47a29.1,29.1,0,0,0-4.58,5.28,22.49,22.49,0,0,0-2.92,6.17,20.28,20.28,0,0,0-.81,6.55,24.32,24.32,0,0,0,2.58,11.14,31.32,31.32,0,0,0,3.08,5A48.68,48.68,0,0,0,198,374.49a78.46,78.46,0,0,0,17.19,7.94,100.46,100.46,0,0,0,37.62,4.6,77.55,77.55,0,0,0,18.6-3.55,49,49,0,0,0,16.47-8.78,28.79,28.79,0,0,0,4.73-4.89,22.1,22.1,0,0,0,3.19-5.86,20.15,20.15,0,0,0,1.18-6.53,24.74,24.74,0,0,0-2-11.55,30.08,30.08,0,0,0-2.82-5.2,48.38,48.38,0,0,0-13.07-12.83,72.7,72.7,0,0,0-16.26-8.24,90.53,90.53,0,0,0-17.76-4.36,92.3,92.3,0,0,0-18.27-.64,79.7,79.7,0,0,0-21,3.67,62,62,0,0,0-6.59,2.57A45.65,45.65,0,0,0,187.46,328.47Zm55.12-13.68A96.33,96.33,0,0,1,261.7,319a80.48,80.48,0,0,1,17.8,8.22,51.85,51.85,0,0,1,14.6,13.22,27.61,27.61,0,0,1,5.42,17.15,25.19,25.19,0,0,1-2.07,9.91,29.78,29.78,0,0,1-5.68,8.53,46.65,46.65,0,0,1-15.29,10.09,71,71,0,0,1-19.39,5.38,89.53,89.53,0,0,1-23.92.28c-13.27-1.69-26.42-5.88-37.65-13.47a51.54,51.54,0,0,1-14.43-14.22,32.59,32.59,0,0,1-4.24-9.38,24.86,24.86,0,0,1,2.92-19.88,32.59,32.59,0,0,1,6.61-7.56A51.91,51.91,0,0,1,203.75,318,80.2,80.2,0,0,1,223,314.27,95.55,95.55,0,0,1,242.58,314.79Z"/><path class="cls-2" d="M239.34,340.56a89.41,89.41,0,0,0-18.93-.22A71.26,71.26,0,0,0,202,344.66a46.57,46.57,0,0,0-15.78,9.87c-4.41,4.33-7.51,10-8,16a25.56,25.56,0,0,0,4.82,16.85,46.55,46.55,0,0,0,13.13,12.37,72.66,72.66,0,0,0,16.51,7.89A92.72,92.72,0,0,0,249,412.05,71.82,71.82,0,0,0,267,408.38a46.27,46.27,0,0,0,15.73-8.85,25.63,25.63,0,0,0,8.75-15.22c.94-5.89-.71-12.17-3.95-17.41a46.44,46.44,0,0,0-12.94-13.38,70.63,70.63,0,0,0-16.78-8.61A89.69,89.69,0,0,0,239.34,340.56Zm0,0a90.12,90.12,0,0,1,18.49,4.15,75,75,0,0,1,17.13,8.2A49,49,0,0,1,288.82,366a28.19,28.19,0,0,1,5.23,18.64,26.13,26.13,0,0,1-2.86,9.54,32,32,0,0,1-6,8,49.14,49.14,0,0,1-16.68,10.43,73.66,73.66,0,0,1-19,4.48,92.09,92.09,0,0,1-19.5-.23c-12.88-1.65-25.62-5.82-36.39-13.4a49.14,49.14,0,0,1-13.68-14.13,32.54,32.54,0,0,1-3.88-9.21,26.27,26.27,0,0,1-.46-10,25.72,25.72,0,0,1,3.33-9.31,31.71,31.71,0,0,1,6.23-7.49A49,49,0,0,1,201.79,344a75,75,0,0,1,18.6-3.82A88.94,88.94,0,0,1,239.34,340.56Z"/><path class="cls-7" d="M82.38,260.52C75.86,245.87,67.85,227.26,66.52,224c-1.67-4.06-3.69-10-8.16-23C47.68,170.06,72.9,147.53,87,135c22-19.58,64.07-37.13,88.46-6.88,39.32,48.75,96.69,81.72,121.47,141.66C321.61,329.5,313.48,395,312.1,457.67c-.68,30.85-39.12,69.12-78.61,75.79s-80.79-17.84-85.14-46.64c-3.34-22.13-23.52-120.18-30.76-126.9S79,350.39,55.66,342.07c-27.3-9.74-17.62-55.54-10.79-76,1.62-4.87,3.63-9.77,7.22-13.43,5.85-6,15-7.6,23.29-6.23"/><path class="cls-2" d="M81.23,261q-7.38-16.59-14.53-33.28c-2.47-5.57-4.39-11.38-6.39-17.07l-3-8.58a52.82,52.82,0,0,1-2.31-9,44.36,44.36,0,0,1,1-18.52,57.27,57.27,0,0,1,7.85-16.74,94.87,94.87,0,0,1,11.76-14.11c2.15-2.17,4.37-4.26,6.62-6.3s4.49-4.08,6.88-6a104.09,104.09,0,0,1,15.22-10.27,93.43,93.43,0,0,1,16.85-7.34,67.81,67.81,0,0,1,18.17-3.3,46.9,46.9,0,0,1,18.34,2.86,43,43,0,0,1,15.52,10.24c1.1,1.1,2.12,2.28,3.11,3.48l2.88,3.48c.95,1.17,1.94,2.3,2.93,3.44s2,2.28,3,3.39c8,9,16.57,17.51,25.3,25.85,17.44,16.7,35.65,32.77,51.87,50.91,4,4.54,8,9.19,11.69,14s7.24,9.8,10.55,14.92a181.82,181.82,0,0,1,9,15.91,174.29,174.29,0,0,1,7.25,16.8c8.55,22.87,12.65,47.14,14.23,71.35s.83,48.54-.11,72.71c-.46,12.09-1,24.17-1.26,36.25,0,1.48-.07,3.08-.21,4.64s-.39,3.11-.69,4.65a56.43,56.43,0,0,1-2.64,8.95,77.33,77.33,0,0,1-8.77,16.27,111.12,111.12,0,0,1-25.8,26A106,106,0,0,1,242.79,533a83.16,83.16,0,0,1-36.65,2.06,88.3,88.3,0,0,1-34.26-13.25,69.54,69.54,0,0,1-14-12.12,48.32,48.32,0,0,1-9.55-16.06,35.92,35.92,0,0,1-1.26-4.57c-.18-.76-.29-1.58-.42-2.32l-.36-2.22c-.49-3-1-5.94-1.57-8.91-1.09-5.93-2.25-11.86-3.44-17.79q-3.57-17.76-7.52-35.46c-2.64-11.79-5.4-23.56-8.47-35.22-1.55-5.82-3.16-11.64-5.06-17.3-.48-1.41-1-2.81-1.51-4.18a26.18,26.18,0,0,0-1.8-3.79,4.39,4.39,0,0,0-.45-.61c-.15-.15-.45-.37-.66-.56l-.81-.54-.89-.5a32.36,32.36,0,0,0-3.94-1.67,158.93,158.93,0,0,0-17.33-4.55c-5.89-1.3-11.82-2.55-17.74-4s-11.81-3-17.63-4.9l-2.17-.75c-.74-.27-1.51-.55-2.24-.89a26.13,26.13,0,0,1-4.25-2.39,25.65,25.65,0,0,1-6.74-7c-3.59-5.42-5.2-11.71-5.93-17.86a86.1,86.1,0,0,1,.06-18.51,143.6,143.6,0,0,1,3.09-18.11q1.05-4.47,2.35-8.87c.88-2.94,1.78-5.84,2.94-8.76a32.1,32.1,0,0,1,4.66-8.36,19.55,19.55,0,0,1,3.53-3.45,20.12,20.12,0,0,1,4.18-2.54,27.52,27.52,0,0,1,9.26-2.41,30,30,0,0,1,9.37.61,1.06,1.06,0,0,1,.8,1.27,1.07,1.07,0,0,1-1.13.83h0a37.82,37.82,0,0,0-8.71.13,24.45,24.45,0,0,0-8.1,2.57,19.32,19.32,0,0,0-6.32,5.27A30.58,30.58,0,0,0,48,262.87c-1.08,2.7-2,5.57-2.84,8.43s-1.61,5.76-2.3,8.67a139.43,139.43,0,0,0-3,17.63,83.33,83.33,0,0,0-.09,17.72c.67,5.8,2.2,11.56,5.32,16.28a22.09,22.09,0,0,0,5.8,6,22.53,22.53,0,0,0,3.65,2.06c.64.3,1.29.53,2,.79l2.11.73c5.66,1.89,11.47,3.42,17.32,4.82s11.76,2.66,17.68,4a161.93,161.93,0,0,1,17.75,4.68,37,37,0,0,1,4.4,1.88l1.08.62c.36.22.72.47,1.08.72a11.76,11.76,0,0,1,1.06.91,7.24,7.24,0,0,1,.92,1.19,29.07,29.07,0,0,1,2.1,4.39c.57,1.45,1.08,2.9,1.57,4.35,1.94,5.82,3.55,11.67,5.11,17.54,3.08,11.74,5.83,23.53,8.46,35.35s5.13,23.68,7.5,35.55q1.78,8.91,3.44,17.85c.54,3,1.08,6,1.57,9l.36,2.26c.13.75.22,1.44.38,2.15a32.22,32.22,0,0,0,1.15,4.17,45.08,45.08,0,0,0,8.88,14.93A66.1,66.1,0,0,0,173.74,519a84.77,84.77,0,0,0,32.93,12.77,79.84,79.84,0,0,0,35.22-1.93A102.88,102.88,0,0,0,273.7,514a107.93,107.93,0,0,0,25.08-25.25,73.89,73.89,0,0,0,8.43-15.58,52.31,52.31,0,0,0,2.49-8.44c.28-1.43.5-2.88.65-4.32s.17-2.88.21-4.42c.29-12.11.82-24.21,1.3-36.29,1-24.16,1.75-48.33.19-72.39s-5.58-48-14-70.52A173.17,173.17,0,0,0,291,260.29q-4-8-8.86-15.65t-10.38-14.71c-3.68-4.75-7.55-9.36-11.55-13.86-16-18-34.18-34-51.66-50.79-8.74-8.38-17.34-17-25.42-26.05-1-1.12-2-2.28-3-3.43s-2-2.29-3-3.47l-2.9-3.51c-.94-1.14-1.9-2.25-2.94-3.29a40.13,40.13,0,0,0-14.51-9.61,44.43,44.43,0,0,0-17.28-2.7,65.11,65.11,0,0,0-17.44,3.15,97.48,97.48,0,0,0-31.2,17.11c-9.1,7.76-18.13,16-24.76,25.83a54.83,54.83,0,0,0-7.52,15.95,41.75,41.75,0,0,0-1,17.44,50.49,50.49,0,0,0,2.19,8.56l3,8.58c2,5.72,3.87,11.42,6.3,16.91Q76.18,243.43,83.52,260a1.25,1.25,0,1,1-2.29,1Z"/><path class="cls-2" d="M94,130.59a131,131,0,0,0-12.48,10.18,99.72,99.72,0,0,0-10.85,11.85,57.08,57.08,0,0,0-8,13.74A24.44,24.44,0,0,0,61,173.93a10.49,10.49,0,0,0,1.88,6.91,10.39,10.39,0,0,0,6,3.58,24.48,24.48,0,0,0,7.52.36A58.56,58.56,0,0,0,91.51,181a106.52,106.52,0,0,0,14.28-6.69,132,132,0,0,0,13.37-8.46A130.49,130.49,0,0,0,131.53,156a104.66,104.66,0,0,0,11-11.3,58.49,58.49,0,0,0,8.51-13,24.31,24.31,0,0,0,2.11-7.23,10.24,10.24,0,0,0-1.42-6.92,10.57,10.57,0,0,0-5.91-4,24.73,24.73,0,0,0-7.71-.84,56.86,56.86,0,0,0-15.61,3.11A111.34,111.34,0,0,0,94,130.59Zm0,0A132.83,132.83,0,0,1,107.65,122a108.7,108.7,0,0,1,14.62-6.85A60.39,60.39,0,0,1,138,111.23a26.37,26.37,0,0,1,8.29.44,12.59,12.59,0,0,1,7.38,4.52c.19.27.39.54.6.9a9.92,9.92,0,0,1,.54,1,11.72,11.72,0,0,1,.75,2.13,15.22,15.22,0,0,1,.41,4.39,26.86,26.86,0,0,1-1.9,8.3,59.62,59.62,0,0,1-8.37,14.31,103,103,0,0,1-11.1,12.13,135.36,135.36,0,0,1-12.7,10.36,113.59,113.59,0,0,1-29,15.15,59.12,59.12,0,0,1-16.27,3.23,26.61,26.61,0,0,1-8.47-.91,12.93,12.93,0,0,1-7.24-5,12.61,12.61,0,0,1-1.84-8.43,26.62,26.62,0,0,1,2.3-8,60,60,0,0,1,8.84-13.61,106.84,106.84,0,0,1,11.24-11.57A132.13,132.13,0,0,1,94,130.59Z"/><path class="cls-2" d="M111,153.57a130,130,0,0,0-16.31,10.89c-1.85,1.46-3.65,3-5.38,4.56a72.21,72.21,0,0,0-8.63,9.24,54.44,54.44,0,0,0-5.93,9.44A38.05,38.05,0,0,0,73,192.11a24,24,0,0,0-1.08,5,17.72,17.72,0,0,0-.07,2.52,10.84,10.84,0,0,0,2.37,6.67,12.28,12.28,0,0,0,6.42,3.7c.4.1.81.19,1.21.27a30.76,30.76,0,0,0,6.67.44,58.64,58.64,0,0,0,12.39-1.95c1.21-.31,2.4-.64,3.6-1a117.31,117.31,0,0,0,15.32-5.92,135.48,135.48,0,0,0,12.77-6.22c1.29-.7,2.56-1.43,3.83-2.18q4.25-2.46,8.32-5.23c2.44-1.66,4.83-3.39,7.14-5.21,1.38-1.08,2.73-2.18,4.06-3.32a78.3,78.3,0,0,0,9.52-9.49,58.5,58.5,0,0,0,6.21-8.92,34.66,34.66,0,0,0,2-4.29A24,24,0,0,0,175,152.2a18.58,18.58,0,0,0,.22-2.46,10.73,10.73,0,0,0-1.95-6.72,12.61,12.61,0,0,0-6.37-4.17l-.75-.23a29.46,29.46,0,0,0-7.41-1,57,57,0,0,0-11.17,1.07c-1.86.35-3.7.78-5.52,1.26A121.61,121.61,0,0,0,111,153.57Zm11.34-7.18a126.44,126.44,0,0,1,15.22-6.21l1.7-.54a81.73,81.73,0,0,1,14.12-3.17c1.28-.15,2.58-.26,3.88-.33a34.06,34.06,0,0,1,9.37.71,21.16,21.16,0,0,1,2.43.73,14.79,14.79,0,0,1,6.13,4.1,8.2,8.2,0,0,1,.65.87,11,11,0,0,1,.6,1,12.34,12.34,0,0,1,.89,2,15.43,15.43,0,0,1,.73,4.28,18.4,18.4,0,0,1,0,2.1,26.21,26.21,0,0,1-1.29,6.2,39.87,39.87,0,0,1-1.77,4.34,58.07,58.07,0,0,1-6.31,10.1A95,95,0,0,1,157.07,185c-1.26,1.11-2.53,2.2-3.83,3.27q-4.59,3.76-9.52,7.13a123.56,123.56,0,0,1-30.26,15.09,79.44,79.44,0,0,1-20.81,3.93c-1.42,0-2.85,0-4.28,0a34.6,34.6,0,0,1-6.56-.95,21.49,21.49,0,0,1-5.22-2,14.84,14.84,0,0,1-4.46-3.59,13.21,13.21,0,0,1-2.44-8.22c0-.69.08-1.38.16-2.05a26.11,26.11,0,0,1,1.58-6,38.67,38.67,0,0,1,2-4.23A60.46,60.46,0,0,1,80,177.8a94.67,94.67,0,0,1,12.57-12.35,133.11,133.11,0,0,1,14.33-10.4A142.68,142.68,0,0,1,122.36,146.39Z"/><path class="cls-2" d="M128,176.48a138.17,138.17,0,0,0-20.14,11.59q-3.44,2.42-6.65,5.08a68.46,68.46,0,0,0-10.53,10.67,48.82,48.82,0,0,0-5.79,9.5,31.3,31.3,0,0,0-1.6,4.46,20.87,20.87,0,0,0-.73,5,17.3,17.3,0,0,0,.14,2.5,11.53,11.53,0,0,0,2.86,6.42,14.71,14.71,0,0,0,6.8,3.82c.42.12.85.23,1.27.32a34.9,34.9,0,0,0,7,.74,66,66,0,0,0,13.07-1.31q1.9-.37,3.81-.81a125.63,125.63,0,0,0,16.37-5.14,147.73,147.73,0,0,0,15.24-6.12q2.31-1.06,4.59-2.21c3.39-1.69,6.73-3.51,10-5.46,2.94-1.75,5.81-3.6,8.58-5.56q2.49-1.75,4.86-3.62a73.39,73.39,0,0,0,11.31-10.71,50.85,50.85,0,0,0,6.1-9,31,31,0,0,0,1.82-4.36,21.2,21.2,0,0,0,1-4.86,16.7,16.7,0,0,0,0-2.45,11.37,11.37,0,0,0-2.46-6.52,15.25,15.25,0,0,0-6.84-4.33l-.8-.25a34.83,34.83,0,0,0-7.81-1.29,63.13,63.13,0,0,0-11.87.56c-2,.26-3.95.6-5.9,1A132.53,132.53,0,0,0,128,176.48Zm9.08-5.74a141.61,141.61,0,0,1,17.3-6.13l1.92-.52a95.5,95.5,0,0,1,15.91-2.88c1.44-.12,2.89-.2,4.34-.22A41.92,41.92,0,0,1,187,162a26.22,26.22,0,0,1,2.71.8,18,18,0,0,1,7,4.33,9.14,9.14,0,0,1,.69.84,11.15,11.15,0,0,1,.65.93,12.74,12.74,0,0,1,1,2,15.74,15.74,0,0,1,1.07,4.16,18.13,18.13,0,0,1,.12,2.08,23.23,23.23,0,0,1-.9,6.23,33.39,33.39,0,0,1-1.59,4.39,51.48,51.48,0,0,1-6.19,10.18,88.2,88.2,0,0,1-12.11,12.65q-2,1.69-4,3.3-4.81,3.78-10,7.14A135.38,135.38,0,0,1,134,236a100.27,100.27,0,0,1-25.35,4.62c-1.74.06-3.48.07-5.23,0a46.58,46.58,0,0,1-8-1A29.55,29.55,0,0,1,89,237.41a18.41,18.41,0,0,1-5.66-4,13.85,13.85,0,0,1-3-8,17.36,17.36,0,0,1,0-2,22.86,22.86,0,0,1,1.19-6.05,31.54,31.54,0,0,1,1.8-4.3,52.38,52.38,0,0,1,6.5-9.68,88.69,88.69,0,0,1,13.89-13.12,136.18,136.18,0,0,1,16.06-10.75A153.86,153.86,0,0,1,137.06,170.74Z"/><path class="cls-2" d="M145,199.46a148.11,148.11,0,0,0-24,12.29c-2.72,1.76-5.37,3.62-7.92,5.59a68.32,68.32,0,0,0-12.42,12.11A43.27,43.27,0,0,0,95,239a26.37,26.37,0,0,0-1.41,4.51,18.47,18.47,0,0,0-.38,5.05,14.3,14.3,0,0,0,.36,2.46,12.35,12.35,0,0,0,3.35,6.17,17.58,17.58,0,0,0,7.17,4c.44.13.88.25,1.33.36a39.47,39.47,0,0,0,7.25,1,73,73,0,0,0,13.74-.67c1.34-.18,2.69-.39,4-.62a134.49,134.49,0,0,0,17.42-4.37,156.25,156.25,0,0,0,17.7-6c1.8-.72,3.58-1.47,5.36-2.26,3.95-1.73,7.84-3.62,11.62-5.67,3.43-1.85,6.78-3.82,10-5.93,1.93-1.25,3.83-2.56,5.67-3.92a72.88,72.88,0,0,0,13.08-11.91,44.26,44.26,0,0,0,6-9.1,26.17,26.17,0,0,0,1.64-4.44,18.4,18.4,0,0,0,.64-4.91,14.27,14.27,0,0,0-.21-2.44,12.32,12.32,0,0,0-3-6.31,18.24,18.24,0,0,0-7.3-4.5l-.84-.28a40.54,40.54,0,0,0-8.22-1.6,71.33,71.33,0,0,0-12.57,0q-3.15.29-6.29.76A143.62,143.62,0,0,0,145,199.46Zm6.81-4.31a156.8,156.8,0,0,1,19.37-6.05l2.15-.49A109.52,109.52,0,0,1,191,186c1.6-.08,3.2-.13,4.8-.12a51.44,51.44,0,0,1,11.56,1.25c1,.25,2,.54,3,.88a21.78,21.78,0,0,1,7.91,4.56c.24.25.49.5.74.8s.48.59.7.9a13.4,13.4,0,0,1,1.17,1.89,16.24,16.24,0,0,1,1.41,4.05,20.19,20.19,0,0,1,.28,2.05,20.75,20.75,0,0,1-.5,6.26,28.68,28.68,0,0,1-1.43,4.44,45.69,45.69,0,0,1-6.06,10.26A84,84,0,0,1,202,236.14q-2.06,1.71-4.2,3.33c-3.35,2.54-6.84,4.91-10.43,7.14a146.38,146.38,0,0,1-32.73,15,120.61,120.61,0,0,1-29.89,5.32c-2.06.07-4.12.08-6.17,0a58.07,58.07,0,0,1-9.43-1.09,38.76,38.76,0,0,1-7.69-2.38A22.64,22.64,0,0,1,94.58,259,14.85,14.85,0,0,1,91,251.2a17.2,17.2,0,0,1-.18-2,21.2,21.2,0,0,1,.8-6.11,29.66,29.66,0,0,1,1.63-4.38,46.7,46.7,0,0,1,6.4-9.79A85.18,85.18,0,0,1,114.82,215a140.51,140.51,0,0,1,17.79-11.09A164.71,164.71,0,0,1,151.77,195.15Z"/><path class="cls-2" d="M161.94,222.45a159.09,159.09,0,0,0-27.81,13q-4.75,2.85-9.19,6.09a70.93,70.93,0,0,0-14.31,13.55,39.07,39.07,0,0,0-5.54,9.6,23.45,23.45,0,0,0-1.22,4.57,16.91,16.91,0,0,0,0,5.07,14,14,0,0,0,.58,2.42,13.49,13.49,0,0,0,3.84,5.93,21.08,21.08,0,0,0,7.55,4.08c.46.15.92.28,1.38.41a44.65,44.65,0,0,0,7.55,1.34,81.63,81.63,0,0,0,14.41,0c1.41-.12,2.83-.26,4.25-.43a144.4,144.4,0,0,0,18.47-3.6,171.27,171.27,0,0,0,20.16-5.9q3.08-1.1,6.12-2.29c4.51-1.78,8.95-3.75,13.28-5.9,3.91-1.94,7.75-4,11.45-6.28,2.21-1.35,4.38-2.75,6.48-4.23a74.49,74.49,0,0,0,14.86-13.12,39.76,39.76,0,0,0,5.88-9.18,23.32,23.32,0,0,0,1.46-4.52,17,17,0,0,0,.3-5,14.12,14.12,0,0,0-.44-2.42,13.47,13.47,0,0,0-3.49-6.12,21.65,21.65,0,0,0-7.77-4.65l-.89-.32a47.55,47.55,0,0,0-8.62-1.92,76.94,76.94,0,0,0-13.27-.48q-3.33.15-6.66.5A155.09,155.09,0,0,0,161.94,222.45Zm4.54-2.87a168.88,168.88,0,0,1,21.45-6c.79-.17,1.58-.32,2.37-.48a125,125,0,0,1,19.49-2.3c1.76-.05,3.51-.06,5.27,0a61.3,61.3,0,0,1,12.65,1.53c1.11.27,2.21.58,3.29.94a25.77,25.77,0,0,1,8.8,4.8c.27.24.53.49.79.77s.52.56.76.86a15.57,15.57,0,0,1,3.05,5.75,15.12,15.12,0,0,1,.44,2,19,19,0,0,1-.1,6.29,25.87,25.87,0,0,1-1.25,4.49,41.56,41.56,0,0,1-6,10.33,80,80,0,0,1-13.11,13.17q-2.15,1.74-4.38,3.36-5.25,3.83-10.89,7.16a160.1,160.1,0,0,1-34,14.94,141.69,141.69,0,0,1-34.43,6c-2.37.09-4.75.1-7.11,0a70,70,0,0,1-10.87-1.16,48.61,48.61,0,0,1-8.92-2.57,26.57,26.57,0,0,1-8-4.9,16.08,16.08,0,0,1-4.23-7.57,19.35,19.35,0,0,1-.34-2,19,19,0,0,1,.41-6.18,24.94,24.94,0,0,1,1.47-4.45,42.07,42.07,0,0,1,6.29-9.91A83.79,83.79,0,0,1,126,239.81a146.43,146.43,0,0,1,19.52-11.44A175.77,175.77,0,0,1,166.48,219.58Z"/><path class="cls-2" d="M178.93,245.51a171.82,171.82,0,0,0-31.64,13.69c-3.61,2.05-7.11,4.25-10.46,6.61a74.27,74.27,0,0,0-16.21,15,35.29,35.29,0,0,0-5.4,9.65,20.28,20.28,0,0,0-1,4.63,15.4,15.4,0,0,0,.31,5.08,14.83,14.83,0,0,0,5.13,8.07,25.35,25.35,0,0,0,7.93,4.2c.47.16.95.32,1.43.46a51.29,51.29,0,0,0,7.85,1.64,90.78,90.78,0,0,0,15.08.6c1.48-.06,3-.14,4.46-.25a153.76,153.76,0,0,0,19.52-2.82,184.69,184.69,0,0,0,22.64-5.8q3.45-1.1,6.87-2.33c5.08-1.82,10.07-3.86,14.93-6.12,4.41-2,8.73-4.23,12.9-6.64q3.73-2.15,7.28-4.52c6.26-4.2,12.15-8.91,16.64-14.33a35.58,35.58,0,0,0,5.77-9.27,20.49,20.49,0,0,0,1.27-4.6,15,15,0,0,0,0-5,13.41,13.41,0,0,0-.65-2.41,15.18,15.18,0,0,0-4-5.92,26.16,26.16,0,0,0-8.24-4.81l-.93-.34a53.71,53.71,0,0,0-9-2.24,85.7,85.7,0,0,0-14-1c-2.35,0-4.7.1-7.05.26A166.4,166.4,0,0,0,178.93,245.51Zm2.27-1.44a186.56,186.56,0,0,1,23.53-5.9l2.6-.45a139.15,139.15,0,0,1,21.28-2c1.91,0,3.82,0,5.73.09a71.67,71.67,0,0,1,13.73,1.79c1.22.3,2.41.64,3.59,1a30.49,30.49,0,0,1,9.69,5c.28.24.56.48.83.74s.56.54.82.82a18.08,18.08,0,0,1,1.44,1.73,16.7,16.7,0,0,1,2.08,3.82,17.11,17.11,0,0,1,.61,2,17.58,17.58,0,0,1,.29,6.32,22,22,0,0,1-1.08,4.54A38.09,38.09,0,0,1,260.52,274a77.43,77.43,0,0,1-13.62,13.44q-2.24,1.74-4.56,3.38c-3.65,2.57-7.45,5-11.35,7.17a173.34,173.34,0,0,1-35.21,14.88,162.55,162.55,0,0,1-39,6.7c-2.69.1-5.37.12-8.05,0a84.86,84.86,0,0,1-12.3-1.24,56.87,56.87,0,0,1-10.15-2.76,31,31,0,0,1-9.26-5.33,17.42,17.42,0,0,1-4.82-7.36,15.53,15.53,0,0,1-.5-2,17.5,17.5,0,0,1,0-6.25,23.2,23.2,0,0,1,1.3-4.52,38.28,38.28,0,0,1,6.19-10c4.92-5.94,11.22-11,17.87-15.45a151.67,151.67,0,0,1,21.24-11.78A189.41,189.41,0,0,1,181.2,244.07Z"/><path class="cls-2" d="M195.91,268.49c-16.78,5-33.14,12-47.2,21.52a78.38,78.38,0,0,0-18.11,16.42,32.46,32.46,0,0,0-5.27,9.71A15,15,0,0,0,131,333.7a32.87,32.87,0,0,0,9.8,4.84c7.33,2.34,15.59,3.11,23.89,3.17a155.88,155.88,0,0,0,25.26-2.1,198.16,198.16,0,0,0,25.09-5.7,196.15,196.15,0,0,0,24.23-8.7,154.2,154.2,0,0,0,22.42-11.83c7-4.51,13.51-9.62,18.42-15.53a32.63,32.63,0,0,0,5.66-9.36,15.09,15.09,0,0,0-4.7-17.86,32.48,32.48,0,0,0-9.67-5.34,78.09,78.09,0,0,0-24.1-4.08C230.29,260.73,212.73,263.65,195.91,268.49Zm0,0a200.26,200.26,0,0,1,25.6-5.82,159.64,159.64,0,0,1,25.9-2.15c8.55.07,17.12.86,24.9,3.35a35.41,35.41,0,0,1,10.58,5.26,17,17,0,0,1,6.29,19.76,35.07,35.07,0,0,1-5.7,10.49c-5,6.54-11.68,12.2-18.87,17.11-14.48,9.82-31.15,16.93-48.24,22s-35,7.93-52.51,7.45a81.49,81.49,0,0,1-25.12-4.26,34.75,34.75,0,0,1-10.45-5.77A17,17,0,0,1,123,315.86,35.24,35.24,0,0,1,129,305.73c5.21-6.29,12-11.57,19.19-16.23a159.1,159.1,0,0,1,23-12.13A200.08,200.08,0,0,1,195.91,268.49Z"/><path class="cls-2" d="M200.09,298a176.85,176.85,0,0,0-23.51,8.76,135.56,135.56,0,0,0-21.68,12.42l-.63.45a73.07,73.07,0,0,0-17.09,16.61,31,31,0,0,0-4.8,10.58,18.8,18.8,0,0,0-.49,4.69,15.9,15.9,0,0,0,1.08,5.57,18.5,18.5,0,0,0,6.49,8,32.9,32.9,0,0,0,9.32,4.63,71.58,71.58,0,0,0,17.9,3.15c1.58.1,3.17.17,4.77.2a142.65,142.65,0,0,0,24-1.7,156.1,156.1,0,0,0,17.57-3.53c2.88-.74,5.75-1.57,8.6-2.47s5.7-1.85,8.51-2.9a145.93,145.93,0,0,0,16.26-7.16,138.64,138.64,0,0,0,19.92-11.2c6.17-4.22,11.92-9,16.26-14.41a31.27,31.27,0,0,0,5.25-10.24,19.31,19.31,0,0,0,.73-4.46,16.25,16.25,0,0,0-.78-5.83,18.4,18.4,0,0,0-6.06-8.4,32.88,32.88,0,0,0-9.27-5.15,68.42,68.42,0,0,0-16.78-3.79q-3.12-.33-6.28-.47a133.67,133.67,0,0,0-21.76.91A176.42,176.42,0,0,0,200.09,298Zm0,0a178.73,178.73,0,0,1,25-5.54,143.49,143.49,0,0,1,25.29-1.64c8.36.28,16.71,1.33,24.27,4.08a30.58,30.58,0,0,1,11.2,7.34,19,19,0,0,1,5.65,9.29,19.94,19.94,0,0,1-.64,11,38.74,38.74,0,0,1-7,11.91A82.38,82.38,0,0,1,265.09,351c-13.18,8.8-28.26,15.21-43.73,19.81-16.73,4.81-34.24,7.53-51.35,6.6a76,76,0,0,1-24.49-5,34.9,34.9,0,0,1-10.12-6.17A18.4,18.4,0,0,1,130,345.84a34.92,34.92,0,0,1,5.62-10.27c4.88-6.4,11.36-11.78,18.26-16.51a142.56,142.56,0,0,1,22.2-12.23A176.64,176.64,0,0,1,200.09,298Z"/><path class="cls-2" d="M204.24,327.58a158.68,158.68,0,0,0-22.91,8.72,121.91,121.91,0,0,0-20.92,12.57l-.6.47a68.73,68.73,0,0,0-16.07,16.78,31,31,0,0,0-4.34,11.45,20.24,20.24,0,0,0-.14,5,17.71,17.71,0,0,0,1.52,5.79,21,21,0,0,0,7.15,8.29,34.22,34.22,0,0,0,8.82,4.42,69.28,69.28,0,0,0,16.94,3.26c1.5.12,3,.21,4.52.27a132,132,0,0,0,22.83-1.3,136.44,136.44,0,0,0,18.3-3.62q4.51-1.2,8.93-2.67t8.78-3.25a120.51,120.51,0,0,0,16.54-8.18A122.31,122.31,0,0,0,271,375a67,67,0,0,0,14.09-13.3A30.58,30.58,0,0,0,290,350.56a20,20,0,0,0,.41-4.74,17.61,17.61,0,0,0-1.22-6.08,20.93,20.93,0,0,0-6.72-8.7,34.17,34.17,0,0,0-8.86-5,66.79,66.79,0,0,0-16-3.88c-2-.25-4-.43-6-.55a122.53,122.53,0,0,0-20.86.6A160.16,160.16,0,0,0,204.24,327.58Zm0,0a160.7,160.7,0,0,1,24.38-5.25,128.75,128.75,0,0,1,24.7-1.13c8.16.48,16.3,1.78,23.63,4.81a29,29,0,0,1,11.82,9.42,20.22,20.22,0,0,1,4.79,9.76,22.22,22.22,0,0,1-1.06,11.1,42.45,42.45,0,0,1-8.2,13.33,83.43,83.43,0,0,1-18.74,16c-11.89,7.78-25.38,13.49-39.22,17.6-16.32,4.69-33.48,7.15-50.19,5.78a71.66,71.66,0,0,1-23.87-5.82,35.23,35.23,0,0,1-9.79-6.56A20.11,20.11,0,0,1,137,375.82a35.15,35.15,0,0,1,5.14-10.42c4.55-6.5,10.71-12,17.33-16.78a129.06,129.06,0,0,1,21.43-12.34A159.4,159.4,0,0,1,204.24,327.58Z"/><path class="cls-2" d="M208.38,357.12a142.86,142.86,0,0,0-22.32,8.68,110.47,110.47,0,0,0-20.15,12.73l-.58.47a64.35,64.35,0,0,0-15,17,30.66,30.66,0,0,0-3.87,12.31,21.3,21.3,0,0,0,.19,5.24,19.55,19.55,0,0,0,2,6,23.63,23.63,0,0,0,7.81,8.55,34.81,34.81,0,0,0,8.33,4.2,67.49,67.49,0,0,0,16,3.38c1.42.14,2.84.25,4.27.33a120.74,120.74,0,0,0,21.62-.89,124.24,124.24,0,0,0,19.05-3.71q4.66-1.27,9.25-2.89t9-3.57a106.46,106.46,0,0,0,16.82-9.22,106.75,106.75,0,0,0,14.94-9.93A61.06,61.06,0,0,0,287.6,393.6a30.85,30.85,0,0,0,4.45-12,21.63,21.63,0,0,0,.09-5,19.77,19.77,0,0,0-1.67-6.34,23.78,23.78,0,0,0-7.37-9,36.18,36.18,0,0,0-8.47-4.77,64.27,64.27,0,0,0-15.25-4q-2.83-.4-5.73-.63a112.8,112.8,0,0,0-20,.28A145.54,145.54,0,0,0,208.38,357.12Zm0,0a143.23,143.23,0,0,1,23.77-5,117.13,117.13,0,0,1,24.1-.63c8,.7,15.89,2.25,23,5.55a29.25,29.25,0,0,1,12.44,11.49,22.19,22.19,0,0,1,3.93,10.23A25.12,25.12,0,0,1,294.14,390a46.3,46.3,0,0,1-9.45,14.76A84.09,84.09,0,0,1,266,420.14a137.79,137.79,0,0,1-34.71,15.4c-15.91,4.57-32.71,6.76-49,4.94a67.52,67.52,0,0,1-23.24-6.6,35.42,35.42,0,0,1-9.46-7A22,22,0,0,1,144,405.8a35.44,35.44,0,0,1,4.67-10.56c4.21-6.61,10.06-12.2,16.4-17.06a116.92,116.92,0,0,1,20.65-12.45A144.48,144.48,0,0,1,208.38,357.12Z"/><path class="cls-2" d="M212.5,386.66a128.69,128.69,0,0,0-21.74,8.64,100.16,100.16,0,0,0-19.38,12.88l-.55.48a60.43,60.43,0,0,0-14,17.15A31.31,31.31,0,0,0,153.4,439a23,23,0,0,0,.54,5.51,21.57,21.57,0,0,0,2.39,6.24,26.52,26.52,0,0,0,8.47,8.79,36.21,36.21,0,0,0,7.85,4,64.8,64.8,0,0,0,15,3.49c1.33.17,2.67.3,4,.4a109.06,109.06,0,0,0,20.42-.49,113.42,113.42,0,0,0,19.78-3.8q4.86-1.33,9.58-3.09t9.31-3.91a96.54,96.54,0,0,0,17.1-10.24,93.13,93.13,0,0,0,12.45-9.3,54.82,54.82,0,0,0,9.76-11.07,30.89,30.89,0,0,0,4-12.88,23,23,0,0,0-.22-5.31,21.85,21.85,0,0,0-2.11-6.6,26.75,26.75,0,0,0-8-9.28,38.33,38.33,0,0,0-8.06-4.58,63.23,63.23,0,0,0-14.49-4.07q-2.7-.44-5.45-.7a102.72,102.72,0,0,0-19.05,0A130.7,130.7,0,0,0,212.5,386.66Zm0,0A129.8,129.8,0,0,1,235.65,382a106.23,106.23,0,0,1,23.51-.11c7.75.9,15.48,2.71,22.36,6.28,5.56,3.11,10.45,7.71,13.06,13.57a24.45,24.45,0,0,1,3.07,10.7,28.51,28.51,0,0,1-1.9,11.26,50.17,50.17,0,0,1-10.7,16.18,85.2,85.2,0,0,1-18.61,14.82,126.29,126.29,0,0,1-30.21,13.21c-15.5,4.44-31.93,6.37-47.86,4.1a63.66,63.66,0,0,1-22.62-7.38,36,36,0,0,1-9.13-7.35,24.35,24.35,0,0,1-5.69-21.48,36.11,36.11,0,0,1,4.2-10.71c3.87-6.71,9.41-12.4,15.47-17.33a105.7,105.7,0,0,1,19.88-12.56A129.74,129.74,0,0,1,212.5,386.66Z"/><path class="cls-2" d="M216.58,416.2a115.65,115.65,0,0,0-21.15,8.6,90.45,90.45,0,0,0-18.61,13l-.53.48a57.2,57.2,0,0,0-13,17.33,31.73,31.73,0,0,0-2.94,14.05,24,24,0,0,0,.88,5.79,23.38,23.38,0,0,0,2.82,6.45,29.43,29.43,0,0,0,9.13,9.05,39.6,39.6,0,0,0,7.36,3.78,64.24,64.24,0,0,0,14,3.6c1.25.19,2.51.34,3.77.47a99.35,99.35,0,0,0,19.2-.09,108.24,108.24,0,0,0,20.53-3.89q5-1.41,9.9-3.3a100.9,100.9,0,0,0,9.57-4.25,89.6,89.6,0,0,0,17.39-11.26,78.64,78.64,0,0,0,9.95-8.68,49.24,49.24,0,0,0,7.59-9.94,31.45,31.45,0,0,0,3.65-13.77,24.53,24.53,0,0,0-.54-5.59,24.11,24.11,0,0,0-2.56-6.86,29.81,29.81,0,0,0-8.69-9.57,41.14,41.14,0,0,0-7.65-4.38A61.2,61.2,0,0,0,263,413.09c-1.72-.32-3.45-.58-5.18-.78a93.12,93.12,0,0,0-18.14-.34A117,117,0,0,0,216.58,416.2Zm0,0a116.23,116.23,0,0,1,22.54-4.39,96.47,96.47,0,0,1,22.91.39c7.55,1.11,15.07,3.17,21.72,7,6,3.58,11.18,8.91,13.68,15.64A27.38,27.38,0,0,1,299.65,446a32.67,32.67,0,0,1-2.33,11.34A54,54,0,0,1,285.38,475a86.24,86.24,0,0,1-18.55,14.25,116.39,116.39,0,0,1-25.69,11c-15.09,4.32-31.17,6-46.71,3.26a60.66,60.66,0,0,1-22-8.15,36.85,36.85,0,0,1-8.8-7.76,27.91,27.91,0,0,1-5.3-10.33,27.56,27.56,0,0,1-.48-11.5,36.83,36.83,0,0,1,3.73-10.85,60.51,60.51,0,0,1,14.54-17.61,96.44,96.44,0,0,1,19.1-12.67A116.33,116.33,0,0,1,216.58,416.2Z"/><path class="cls-2" d="M220.62,445.74a105.45,105.45,0,0,0-20.57,8.55,83.55,83.55,0,0,0-17.84,13.2,54.7,54.7,0,0,0-12.47,18c-2.76,6.72-3.48,14.27-1.25,21s7.09,12.24,13,16a54.53,54.53,0,0,0,19.94,7.28,85.51,85.51,0,0,0,21.51.86,109.39,109.39,0,0,0,41.33-12.07A84.81,84.81,0,0,0,282,506.21a54.44,54.44,0,0,0,12.88-16.87c3-6.37,4.23-13.62,2.39-20.52s-6.41-12.82-12.35-17a54.5,54.5,0,0,0-20.2-8.45,83.44,83.44,0,0,0-22.14-1.52A104.8,104.8,0,0,0,220.62,445.74Zm0,0a105.29,105.29,0,0,1,21.92-4.1,87.88,87.88,0,0,1,22.32.9A57.5,57.5,0,0,1,286,450.29c6.4,4,11.91,10.1,14.3,17.72a31,31,0,0,1,1.35,11.64,37.86,37.86,0,0,1-2.75,11.42,57.85,57.85,0,0,1-13.18,19,87,87,0,0,1-18.5,13.68A107.16,107.16,0,0,1,246,532.58c-14.68,4.2-30.39,5.61-45.55,2.43a58,58,0,0,1-21.36-8.93,37.81,37.81,0,0,1-8.46-8.15,31,31,0,0,1-5.14-10.58,30.56,30.56,0,0,1-.73-11.61,37.41,37.41,0,0,1,3.26-11,57.26,57.26,0,0,1,13.6-17.89,88,88,0,0,1,18.33-12.78A104.93,104.93,0,0,1,220.62,445.74Z"/><path class="cls-5" d="M476,391.15c-2.8,29.79-5.64,48-12.48,77.22-11.35,48.57-30.33,91.26-88.13,91.26-55.36,0-74.5-33.51-86.66-77.78-22.52-82.08-26-214.75,6.54-295.22,14.58-36.09,20.84-54.44,80.12-54.44s65.37,19.88,80.25,54.44C479.57,242.2,481.5,333,476,391.15Z"/><path class="cls-2" d="M375.4,132.08a132.88,132.88,0,0,0-16.07,1.06,99.82,99.82,0,0,0-15.71,3.36A56.91,56.91,0,0,0,329.11,143a23.94,23.94,0,0,0-5.8,5.16,10.5,10.5,0,0,0-2.47,6.72,10.35,10.35,0,0,0,2.85,6.42,24.26,24.26,0,0,0,5.92,4.66,58.3,58.3,0,0,0,14.48,5.69,106.87,106.87,0,0,0,15.51,2.83,144.73,144.73,0,0,0,31.6,0,106.38,106.38,0,0,0,15.51-2.83A58,58,0,0,0,421.2,166a24.75,24.75,0,0,0,5.93-4.66,10.34,10.34,0,0,0,2.85-6.47,10.57,10.57,0,0,0-2.49-6.69A24.51,24.51,0,0,0,421.7,143a57.1,57.1,0,0,0-14.52-6.53A111.44,111.44,0,0,0,375.4,132.08Zm0,0a135.22,135.22,0,0,1,16.09.88,108.55,108.55,0,0,1,15.87,2.91,60.91,60.91,0,0,1,15.09,6A26.5,26.5,0,0,1,429,147a12.59,12.59,0,0,1,3.38,8,10.35,10.35,0,0,1,0,1.08,8.45,8.45,0,0,1-.15,1.14,11.37,11.37,0,0,1-.62,2.16,15,15,0,0,1-2.22,3.82,26.89,26.89,0,0,1-6.36,5.66,60,60,0,0,1-15.12,6.8,104.53,104.53,0,0,1-16.07,3.44,137.84,137.84,0,0,1-16.36,1.07,114.05,114.05,0,0,1-32.44-4.5,59.31,59.31,0,0,1-15.12-6.81,26.64,26.64,0,0,1-6.36-5.66,12.9,12.9,0,0,1-3-8.24,12.67,12.67,0,0,1,3.4-7.94,26.45,26.45,0,0,1,6.49-5.16,61,61,0,0,1,15.1-6,109.87,109.87,0,0,1,15.87-2.9A135.22,135.22,0,0,1,375.4,132.08Z"/><path class="cls-2" d="M324.07,170.77a27,27,0,0,0-6.14,6,12.61,12.61,0,0,0-2.56,7.63,12.46,12.46,0,0,0,2.95,7.33,26.63,26.63,0,0,0,6.3,5.49,60.68,60.68,0,0,0,15.81,6.87,108.76,108.76,0,0,0,17.13,3.46,133.13,133.13,0,0,0,17.52,1.06,131.28,131.28,0,0,0,17.51-1.06,107.74,107.74,0,0,0,17.14-3.45,60.44,60.44,0,0,0,15.8-6.86,26.53,26.53,0,0,0,6.31-5.5,12.45,12.45,0,0,0,3-7.37,12.66,12.66,0,0,0-2.56-7.61,26.77,26.77,0,0,0-6.15-6,58.7,58.7,0,0,0-14.81-7.3c-1.76-.61-3.53-1.15-5.31-1.64a117.84,117.84,0,0,0-27.55-3.9,139.29,139.29,0,0,0-16.72.66,101.26,101.26,0,0,0-19.7,3.69q-3.21,1-6.32,2.19A52,52,0,0,0,324.07,170.77Zm-.85-1.25a62.47,62.47,0,0,1,16.47-7.18,109.27,109.27,0,0,1,17.54-3.55,148,148,0,0,1,35.69,0,109.27,109.27,0,0,1,17.54,3.55,62.64,62.64,0,0,1,16.47,7.19,29.2,29.2,0,0,1,6.79,5.89l.45.57a14.67,14.67,0,0,1,3.09,8.18,11.76,11.76,0,0,1,0,1.18c0,.44-.06.85-.13,1.28a14.49,14.49,0,0,1-.6,2.44,17.85,17.85,0,0,1-2.27,4.38l-.27.37a29.61,29.61,0,0,1-6.51,6.29A62,62,0,0,1,411,208.2a105.52,105.52,0,0,1-17.77,4.12,136.12,136.12,0,0,1-18.14,1.29,116.39,116.39,0,0,1-35.93-5.4,61.74,61.74,0,0,1-16.48-8.09,29.47,29.47,0,0,1-6.73-6.56,15.23,15.23,0,0,1-3.08-9.15,14.9,14.9,0,0,1,3.47-8.84A29.08,29.08,0,0,1,323.22,169.52Z"/><path class="cls-2" d="M319,198.51a29.3,29.3,0,0,0-6.5,6.85,15,15,0,0,0-2.63,8.54,14.76,14.76,0,0,0,3,8.25,29.14,29.14,0,0,0,6.68,6.32,63,63,0,0,0,17.12,8,111.51,111.51,0,0,0,18.75,4.09,148.11,148.11,0,0,0,38.48,0,110.65,110.65,0,0,0,18.76-4.09,62.43,62.43,0,0,0,17.12-8,28.74,28.74,0,0,0,6.68-6.32,14.83,14.83,0,0,0,3.06-8.29,15,15,0,0,0-2.64-8.51,29,29,0,0,0-6.51-6.85,60.47,60.47,0,0,0-15.11-8.08c-1.79-.68-3.62-1.3-5.46-1.86a119.21,119.21,0,0,0-28.47-4.8A144,144,0,0,0,364,184a108.71,108.71,0,0,0-23.69,4c-2.56.76-5.08,1.63-7.56,2.63A54.91,54.91,0,0,0,319,198.51Zm-1-1.29a65.09,65.09,0,0,1,17.85-8.41,112.72,112.72,0,0,1,19.21-4.19,150.78,150.78,0,0,1,39.21,0,111.89,111.89,0,0,1,19.2,4.2,65.29,65.29,0,0,1,17.84,8.4,31.81,31.81,0,0,1,7.09,6.63c.16.21.32.42.47.64a17.06,17.06,0,0,1,3.23,8.89c0,.4,0,.81,0,1.28a12.78,12.78,0,0,1-.11,1.41,15.78,15.78,0,0,1-.58,2.73,19.91,19.91,0,0,1-2.31,4.94l-.28.42A32,32,0,0,1,432,231.4a64.31,64.31,0,0,1-17.84,9.38,108.2,108.2,0,0,1-19.47,4.81,140.07,140.07,0,0,1-19.93,1.5c-13.32-.08-26.74-1.83-39.41-6.3a63.92,63.92,0,0,1-17.84-9.38,32.06,32.06,0,0,1-7.1-7.45,17.72,17.72,0,0,1-3.13-10.06,17.34,17.34,0,0,1,3.55-9.75A31.42,31.42,0,0,1,318.09,197.22Z"/><path class="cls-2" d="M314,226.25a31.49,31.49,0,0,0-6.85,7.7,17.36,17.36,0,0,0-2.72,9.45,17.15,17.15,0,0,0,3.16,9.15,31,31,0,0,0,7,7.15,65.46,65.46,0,0,0,18.45,9.2,114.57,114.57,0,0,0,20.37,4.73,141.17,141.17,0,0,0,21,1.45,139.71,139.71,0,0,0,20.95-1.45,113.76,113.76,0,0,0,20.38-4.71,65.73,65.73,0,0,0,18.45-9.2,31.29,31.29,0,0,0,7.05-7.16,17.06,17.06,0,0,0,3.16-9.2,17.35,17.35,0,0,0-2.72-9.42,31.67,31.67,0,0,0-6.85-7.7,62.9,62.9,0,0,0-15.41-8.84c-1.84-.76-3.72-1.46-5.61-2.09a120.38,120.38,0,0,0-29.41-5.69,148.59,148.59,0,0,0-18-.13,117.2,117.2,0,0,0-27.67,4.34,90.81,90.81,0,0,0-8.81,3.06A58.84,58.84,0,0,0,314,226.25Zm-1-1.34a67.81,67.81,0,0,1,19.22-9.62,116,116,0,0,1,20.87-4.85,156,156,0,0,1,42.73,0,116.84,116.84,0,0,1,20.87,4.85,68.23,68.23,0,0,1,19.22,9.63,34.38,34.38,0,0,1,7.39,7.36l.48.71a19.5,19.5,0,0,1,3.36,9.6c0,.44,0,.89,0,1.38s0,1-.09,1.55a20.33,20.33,0,0,1-.56,3,22.46,22.46,0,0,1-2.36,5.51c-.09.16-.19.32-.29.48a34.76,34.76,0,0,1-7.32,8.19,67.48,67.48,0,0,1-19.21,10.66,111.89,111.89,0,0,1-21.17,5.49,143.66,143.66,0,0,1-21.71,1.72c-14.52-.08-29.16-2.1-42.9-7.2a67.06,67.06,0,0,1-19.2-10.66,34.3,34.3,0,0,1-7.46-8.36,20.12,20.12,0,0,1-3.19-10.95,19.91,19.91,0,0,1,3.63-10.67A33.67,33.67,0,0,1,313,224.91Z"/><path class="cls-2" d="M309,254a34.12,34.12,0,0,0-7.21,8.54,18.74,18.74,0,0,0,.47,20.42,33.52,33.52,0,0,0,7.43,8c5.8,4.61,12.69,7.84,19.76,10.37a118.7,118.7,0,0,0,22,5.35,157.1,157.1,0,0,0,45.35,0,117.32,117.32,0,0,0,22-5.35c7.08-2.52,14-5.76,19.77-10.37a33.52,33.52,0,0,0,7.43-8,18.75,18.75,0,0,0,.46-20.44,34.3,34.3,0,0,0-7.21-8.54,64.89,64.89,0,0,0-15.7-9.62c-1.89-.84-3.82-1.61-5.76-2.32a123.15,123.15,0,0,0-30.34-6.58,153.31,153.31,0,0,0-18.68-.52,126.36,126.36,0,0,0-31.66,4.67A97.26,97.26,0,0,0,327,243.1,63.89,63.89,0,0,0,309,254Zm-1.14-1.38c6.17-4.9,13.31-8.24,20.6-10.85A121.72,121.72,0,0,1,351,236.27a159.93,159.93,0,0,1,46.24,0,121.33,121.33,0,0,1,22.54,5.49c7.29,2.62,14.43,6,20.59,10.86a36.56,36.56,0,0,1,7.69,8.1c.17.25.34.51.5.77A22.32,22.32,0,0,1,452,271.8c0,.48,0,1,0,1.48s0,1.13-.07,1.69a21.57,21.57,0,0,1-.54,3.28,24.55,24.55,0,0,1-2.4,6.07c-.09.18-.19.35-.3.53A37.38,37.38,0,0,1,441,294a70.43,70.43,0,0,1-20.56,11.95,116.25,116.25,0,0,1-22.88,6.18,149.4,149.4,0,0,1-23.5,1.93c-15.72-.09-31.58-2.36-46.38-8.1A70.26,70.26,0,0,1,307.15,294a37.1,37.1,0,0,1-7.82-9.25,22.89,22.89,0,0,1-3.24-11.86,22.59,22.59,0,0,1,3.7-11.58A36.5,36.5,0,0,1,307.84,252.61Z"/><path class="cls-2" d="M304,281.73a36.49,36.49,0,0,0-7.56,9.38,22.58,22.58,0,0,0-2.88,11.27,22.29,22.29,0,0,0,3.37,11,35.7,35.7,0,0,0,7.8,8.81c6.15,5.11,13.51,8.72,21.09,11.54a123.07,123.07,0,0,0,23.61,6,162.2,162.2,0,0,0,48.79,0,122.51,122.51,0,0,0,23.63-6c7.58-2.81,14.94-6.44,21.08-11.54a35.77,35.77,0,0,0,7.81-8.82,21.35,21.35,0,0,0,.48-22.26,36.37,36.37,0,0,0-7.56-9.39,66.66,66.66,0,0,0-16-10.39c-1.93-.92-3.91-1.77-5.9-2.55a124.27,124.27,0,0,0-31.27-7.47,158.22,158.22,0,0,0-19.34-.92,137.07,137.07,0,0,0-35.65,5,110.21,110.21,0,0,0-11.3,3.93A68.86,68.86,0,0,0,304,281.73Zm-1.23-1.42c6.52-5.43,14.16-9.17,22-12.08a125.82,125.82,0,0,1,24.21-6.13,165.57,165.57,0,0,1,49.76,0,125,125,0,0,1,24.2,6.14c7.81,2.91,15.45,6.64,22,12.08a39.62,39.62,0,0,1,8,8.83c.18.27.35.55.52.83A25.27,25.27,0,0,1,457,301c0,.52.07,1,.07,1.59s0,1.21,0,1.81a24,24,0,0,1-.53,3.57,26.79,26.79,0,0,1-2.44,6.63c-.1.2-.2.39-.31.58a39.46,39.46,0,0,1-8.14,10.09,73.82,73.82,0,0,1-21.92,13.24,120.77,120.77,0,0,1-24.57,6.86,154.46,154.46,0,0,1-25.29,2.15c-16.93-.09-34-2.63-49.87-9A73.87,73.87,0,0,1,302,325.3a39.81,39.81,0,0,1-8.19-10.16,25.65,25.65,0,0,1-3.29-12.76,25.31,25.31,0,0,1,3.78-12.49A38.56,38.56,0,0,1,302.72,280.31Z"/><path class="cls-2" d="M373.45,285.85c-17.79.09-35.74,2.86-52.19,9.67a73.92,73.92,0,0,0-22.34,14A38.76,38.76,0,0,0,291,319.69a25.32,25.32,0,0,0-3,12.18,24.93,24.93,0,0,0,3.47,11.89,38.43,38.43,0,0,0,8.18,9.65C306.18,359,314,363,322.1,366.12a128.45,128.45,0,0,0,25.24,6.61,168.18,168.18,0,0,0,52.23,0,126.36,126.36,0,0,0,25.24-6.6c8.09-3.1,15.92-7.1,22.41-12.71a38.43,38.43,0,0,0,8.18-9.65,24.93,24.93,0,0,0,3.47-11.94,25.3,25.3,0,0,0-3-12.14A39.23,39.23,0,0,0,448,309.46a74,74,0,0,0-22.36-13.94C409.2,288.71,391.24,285.94,373.45,285.85Zm0,0a158.45,158.45,0,0,1,26.64,2.08A130.2,130.2,0,0,1,426,294.71c8.33,3.22,16.46,7.34,23.35,13.31a41,41,0,0,1,8.82,10.46A28,28,0,0,1,462,331.91a28.25,28.25,0,0,1-3.34,13.62,42.19,42.19,0,0,1-8.55,11.05A77.49,77.49,0,0,1,426.8,371.1c-16.93,7-35.22,9.81-53.35,9.91-18.12-.1-36.42-2.9-53.35-9.89a77.25,77.25,0,0,1-23.29-14.53,42.65,42.65,0,0,1-8.56-11,27.27,27.27,0,0,1,.51-27.07A41.61,41.61,0,0,1,297.59,308c6.89-6,15-10.09,23.35-13.3a129.88,129.88,0,0,1,25.87-6.78A158.61,158.61,0,0,1,373.45,285.85Z"/><path class="cls-2" d="M301.63,340.06a38,38,0,0,0-7.48,10.09A25.46,25.46,0,0,0,291.39,362a25.11,25.11,0,0,0,3.28,11.6,37.27,37.27,0,0,0,7.77,9.51c6.18,5.57,13.72,9.57,21.52,12.69a120.12,120.12,0,0,0,24.43,6.65,157.38,157.38,0,0,0,50.7,0,118.76,118.76,0,0,0,24.44-6.65c7.81-3.11,15.34-7.12,21.52-12.68a37.53,37.53,0,0,0,7.78-9.52,24.35,24.35,0,0,0,.52-23.49,38.43,38.43,0,0,0-7.49-10.1,65.5,65.5,0,0,0-16.39-11.58c-2-1-4.1-2-6.19-2.86a109.89,109.89,0,0,0-12.81-4.38,127.38,127.38,0,0,0-20.05-3.74,147.52,147.52,0,0,0-20.37-.69,136.79,136.79,0,0,0-36.53,5.72A106.9,106.9,0,0,0,322,326.79,69.85,69.85,0,0,0,301.63,340.06Zm72.11-23.66a148.87,148.87,0,0,1,25.9,2.1,123,123,0,0,1,25.09,6.84c8.06,3.24,15.89,7.39,22.46,13.31A35.65,35.65,0,0,1,456,350.88,27.88,27.88,0,0,1,458.88,364a29,29,0,0,1-3.76,13.06A44.48,44.48,0,0,1,445,388.68a78,78,0,0,1-23,13.43c-15.36,6.1-31.88,8.58-48.26,8.67-17.65-.1-35.47-2.94-51.86-10a73.69,73.69,0,0,1-22.41-14.54,41.49,41.49,0,0,1-8.1-10.9,27.51,27.51,0,0,1,.52-26.39,41,41,0,0,1,8.39-10.32c6.58-5.93,14.41-10.08,22.47-13.31a122.51,122.51,0,0,1,25.09-6.84A149,149,0,0,1,373.74,316.4Z"/><path class="cls-2" d="M304.3,370.66a37.42,37.42,0,0,0-7.06,9.95,25.62,25.62,0,0,0-2.54,11.58,25.28,25.28,0,0,0,3.08,11.3,36.61,36.61,0,0,0,7.36,9.39c5.88,5.52,13.11,9.53,20.64,12.67a113.62,113.62,0,0,0,23.62,6.69A137.75,137.75,0,0,0,374,434.31a135.74,135.74,0,0,0,24.58-2.07,111.8,111.8,0,0,0,23.64-6.68c7.53-3.12,14.76-7.15,20.64-12.67a36.87,36.87,0,0,0,7.37-9.39,24.64,24.64,0,0,0,.52-22.89,37.09,37.09,0,0,0-7.06-10,62.19,62.19,0,0,0-16.51-12c-2.06-1.06-4.17-2-6.31-2.93a103.31,103.31,0,0,0-13.06-4.4,122.13,122.13,0,0,0-20.47-3.48,134,134,0,0,0-20.72-.06,125.8,125.8,0,0,0-33.39,6.11,98.16,98.16,0,0,0-10.45,4.19A65.47,65.47,0,0,0,304.3,370.66ZM374,347a139.55,139.55,0,0,1,25.15,2.12,115.65,115.65,0,0,1,24.31,6.9c7.78,3.25,15.33,7.43,21.58,13.32a33.32,33.32,0,0,1,8.81,14,28,28,0,0,1,1.9,12.81,29.85,29.85,0,0,1-4.17,12.48,46.43,46.43,0,0,1-11.7,12.21,78.63,78.63,0,0,1-22.72,12.34c-13.78,5.21-28.53,7.36-43.16,7.44-17.17-.09-34.53-3-50.37-10.08a70.37,70.37,0,0,1-21.53-14.54,40.71,40.71,0,0,1-7.65-10.76,28.83,28.83,0,0,1-2.88-13A28.54,28.54,0,0,1,295,379.47a40,40,0,0,1,7.95-10.18c6.27-5.9,13.81-10.08,21.59-13.32a115.22,115.22,0,0,1,24.31-6.9A139.66,139.66,0,0,1,374,347Z"/><path class="cls-2" d="M306.92,401.25a36.46,36.46,0,0,0-6.63,9.82,25.89,25.89,0,0,0-2.35,11.28,25.57,25.57,0,0,0,2.89,11,35.79,35.79,0,0,0,7,9.26c5.57,5.48,12.51,9.5,19.75,12.65A105.8,105.8,0,0,0,350.36,462,136.78,136.78,0,0,0,398,462a104,104,0,0,0,22.83-6.72c7.25-3.13,14.19-7.17,19.76-12.65a36.08,36.08,0,0,0,7-9.26,25,25,0,0,0,.54-22.29,36.42,36.42,0,0,0-6.64-9.82,60.11,60.11,0,0,0-16.64-12.47q-3.13-1.62-6.41-3a97.68,97.68,0,0,0-13.33-4.41,116,116,0,0,0-20.88-3.23,123.6,123.6,0,0,0-21.08.57,114.52,114.52,0,0,0-30.25,6.5,90.13,90.13,0,0,0-9.41,4.1A61.64,61.64,0,0,0,306.92,401.25Zm67.26-23.75a129.91,129.91,0,0,1,24.42,2.15,107.53,107.53,0,0,1,23.52,7c7.51,3.27,14.76,7.47,20.7,13.33a32.37,32.37,0,0,1,8.8,15.74,28.35,28.35,0,0,1,.93,12.49A31.11,31.11,0,0,1,448,440.07a49.28,49.28,0,0,1-13.28,12.8,79.61,79.61,0,0,1-22.43,11.24,116.14,116.14,0,0,1-38.08,6.21c-16.7-.09-33.58-3-48.87-10.17a67,67,0,0,1-20.65-14.55,39.89,39.89,0,0,1-7.2-10.62,29.1,29.1,0,0,1-2.65-12.63A28.72,28.72,0,0,1,298,410a39.45,39.45,0,0,1,7.52-10.05c6-5.86,13.2-10.06,20.71-13.32a107.45,107.45,0,0,1,23.53-7A129.8,129.8,0,0,1,374.18,377.5Z"/><path class="cls-2" d="M309.46,431.85a35.56,35.56,0,0,0-6.2,9.68,26.11,26.11,0,0,0-2.14,11,25.61,25.61,0,0,0,2.69,10.7,35.26,35.26,0,0,0,6.55,9.14c5.26,5.42,11.9,9.46,18.87,12.62a98.63,98.63,0,0,0,22,6.77,127.36,127.36,0,0,0,46.12,0,97.83,97.83,0,0,0,22-6.77c7-3.14,13.6-7.19,18.87-12.62a35.38,35.38,0,0,0,6.55-9.13,25.48,25.48,0,0,0,.55-21.7,35.46,35.46,0,0,0-6.2-9.69,58.1,58.1,0,0,0-16.78-12.9c-2.12-1.11-4.3-2.13-6.51-3.05a91.06,91.06,0,0,0-13.59-4.44,111.5,111.5,0,0,0-21.3-3,117.15,117.15,0,0,0-21.43,1.2,104,104,0,0,0-27.11,6.88,83.59,83.59,0,0,0-8.37,4A57.22,57.22,0,0,0,309.46,431.85Zm64.84-23.8A121.3,121.3,0,0,1,398,410.22a101,101,0,0,1,22.75,7c7.23,3.29,14.19,7.51,19.82,13.34a32.19,32.19,0,0,1,8.78,17.5,28.87,28.87,0,0,1,0,12.17,32.74,32.74,0,0,1-5,11.34A52.08,52.08,0,0,1,429.44,485a81.46,81.46,0,0,1-22.16,10.14,109.44,109.44,0,0,1-33,5c-16.22-.09-32.64-3.06-47.39-10.26a64,64,0,0,1-19.76-14.56,38.82,38.82,0,0,1-6.74-10.48,28.63,28.63,0,0,1,.56-24.32,38.91,38.91,0,0,1,7.08-9.91c5.64-5.82,12.6-10.05,19.83-13.34a101,101,0,0,1,22.75-7A121.3,121.3,0,0,1,374.3,408.05Z"/><path class="cls-2" d="M311.91,462.45a34.73,34.73,0,0,0-5.78,9.54,26.56,26.56,0,0,0-1.93,10.68,26.3,26.3,0,0,0,2.49,10.4,34.52,34.52,0,0,0,6.15,9c5,5.38,11.3,9.43,18,12.6A91.5,91.5,0,0,0,352,521.49a118,118,0,0,0,44.59,0,90.55,90.55,0,0,0,21.21-6.81,57.4,57.4,0,0,0,18-12.6,34.19,34.19,0,0,0,6.14-9,26.35,26.35,0,0,0,2.51-10.45A26.7,26.7,0,0,0,442.53,472a34.43,34.43,0,0,0-5.79-9.55,55.94,55.94,0,0,0-16.9-13.34q-3.22-1.71-6.62-3.12a87.91,87.91,0,0,0-13.84-4.46,108,108,0,0,0-21.72-2.7,109.69,109.69,0,0,0-21.79,1.82,93.57,93.57,0,0,0-24,7.27,72.81,72.81,0,0,0-7.33,3.95A53.36,53.36,0,0,0,311.91,462.45Zm62.41-23.85a113.15,113.15,0,0,1,22.93,2.19,94,94,0,0,1,22,7.07c7,3.3,13.63,7.55,19,13.35,4.75,5.22,8.25,11.93,8.77,19.25a29.92,29.92,0,0,1-1,11.87,34.94,34.94,0,0,1-5.42,10.76,54.87,54.87,0,0,1-16.42,14,83.92,83.92,0,0,1-21.87,9,105.64,105.64,0,0,1-27.9,3.75c-15.74-.09-31.69-3.11-45.89-10.36A60.73,60.73,0,0,1,309.55,505a38.19,38.19,0,0,1-6.29-10.34,29.35,29.35,0,0,1,.57-23.64,38,38,0,0,1,6.65-9.77c5.32-5.79,12-10,18.95-13.35a94,94,0,0,1,22-7.06A113.28,113.28,0,0,1,374.32,438.6Z"/><path class="cls-2" d="M374.23,469.15a105,105,0,0,0-22.14,2.44,83.51,83.51,0,0,0-20.83,7.67,54.72,54.72,0,0,0-17,13.78c-4.53,5.68-7.34,12.72-7.08,19.79s3.37,13.73,8,19a54.82,54.82,0,0,0,17.09,12.57,85.77,85.77,0,0,0,20.41,6.86,103,103,0,0,0,21.53,2.14,101.66,101.66,0,0,0,21.53-2.14,84.55,84.55,0,0,0,20.41-6.84,54.5,54.5,0,0,0,17.1-12.58c4.68-5.28,7.88-11.89,8.05-19s-2.56-14.1-7.09-19.76a54.54,54.54,0,0,0-17-13.79,83.49,83.49,0,0,0-20.83-7.66A105,105,0,0,0,374.23,469.15Zm0,0a104.74,104.74,0,0,1,22.19,2.21,88.37,88.37,0,0,1,21.18,7.12,57.64,57.64,0,0,1,18.06,13.36c5,5.68,8.61,13,8.76,21a30.81,30.81,0,0,1-2,11.55,37.61,37.61,0,0,1-5.83,10.19,57.9,57.9,0,0,1-18,14.57,87,87,0,0,1-21.6,7.94,108.72,108.72,0,0,1-22.8,2.52c-15.27-.09-30.74-3.15-44.4-10.45a57.91,57.91,0,0,1-18-14.56,37.69,37.69,0,0,1-5.84-10.2,30.19,30.19,0,0,1,.59-22.95,37.55,37.55,0,0,1,6.21-9.63,57.41,57.41,0,0,1,18.07-13.36A87.93,87.93,0,0,1,352,471.36,104.74,104.74,0,0,1,374.23,469.15Z"/></g><path class="cls-2" d="M43.67,290.09c.41-3.68,1-7.31,1.69-10.85A94,94,0,0,1,48,268.88a43,43,0,0,1,4-9.31,14,14,0,0,1,3-3.57,4.37,4.37,0,0,1,4.08-1,4.72,4.72,0,0,1,.52.21,3.39,3.39,0,0,1,.53.29,5.63,5.63,0,0,1,1,.79,10.56,10.56,0,0,1,1.65,2.15,24.07,24.07,0,0,1,2.2,5.3,60.62,60.62,0,0,1,2,11.48,104.32,104.32,0,0,1,.37,11.57c-.1,3.82-.37,7.62-.78,11.36a100.21,100.21,0,0,1-4.73,21.41,40.8,40.8,0,0,1-4.46,9.19,13.07,13.07,0,0,1-3.21,3.4,4.42,4.42,0,0,1-4.19.68,7.6,7.6,0,0,1-3.53-3.65,24.79,24.79,0,0,1-1.95-5.31,62,62,0,0,1-1.65-11.32,110.17,110.17,0,0,1-.13-11.34C42.93,297.48,43.23,293.76,43.67,290.09Zm21.56-3.66a107.81,107.81,0,0,0-.12-11.08,60.61,60.61,0,0,0-1.57-10.86,23,23,0,0,0-1.76-4.83,6.23,6.23,0,0,0-2.87-3,3.61,3.61,0,0,0-3.4.57,12.09,12.09,0,0,0-2.93,3.09,39.56,39.56,0,0,0-4.28,8.83,97.81,97.81,0,0,0-4.63,21c-.41,3.68-.68,7.4-.77,11.16a101.65,101.65,0,0,0,.36,11.3,57.75,57.75,0,0,0,2,11,22.15,22.15,0,0,0,2,4.83,6,6,0,0,0,3,2.82,3.6,3.6,0,0,0,3.3-.87,12.83,12.83,0,0,0,2.7-3.26,42.23,42.23,0,0,0,3.87-8.94A91.5,91.5,0,0,0,62.72,308c.71-3.47,1.26-7,1.67-10.65"/></g></svg>