<?xml version="1.0" encoding="UTF-8" standalone="no"?>
<!-- Created with Inkscape (http://www.inkscape.org/) -->

<svg
   version="1.1"
   id="svg824"
   width="8.5in"
   height="8in"
   viewBox="0 0 816 768"
   sodipodi:docname="Lopper.svg"
   inkscape:version="1.1 (c68e22c387, 2021-05-23)"
   xmlns:inkscape="http://www.inkscape.org/namespaces/inkscape"
   xmlns:sodipodi="http://sodipodi.sourceforge.net/DTD/sodipodi-0.dtd"
   xmlns="http://www.w3.org/2000/svg"
   xmlns:svg="http://www.w3.org/2000/svg">
  <sodipodi:namedview
     id="namedview6"
     pagecolor="#ffffff"
     bordercolor="#666666"
     borderopacity="1.0"
     inkscape:pageshadow="2"
     inkscape:pageopacity="0.0"
     inkscape:pagecheckerboard="0"
     showgrid="false"
     inkscape:zoom="0.79770252"
     inkscape:cx="487.02366"
     inkscape:cy="687.59968"
     inkscape:window-width="2560"
     inkscape:window-height="1377"
     inkscape:window-x="-8"
     inkscape:window-y="-8"
     inkscape:window-maximized="1"
     inkscape:current-layer="g915"
     inkscape:snap-others="false"
     inkscape:snap-nodes="false"
     units="in"
     inkscape:document-units="in" />
  <defs
     id="defs828" />
  <g
     id="g1811"
     transform="matrix(1.1540071,0,0,1.0842422,146.30071,-113.27977)"
     style="fill:#28170b">
    <g
       id="g932"
       transform="translate(2.1725994,1.1561951)">
      <g
         id="g915"
         transform="translate(-7.6041164,-6.9371965)"
         style="fill:#c83737">
        <path
           style="fill:#4c4a48;stroke-width:0.27833"
           d="m 218.74239,798.3646 c 0.48225,-0.0637 1.27137,-0.0637 1.75361,0 0.48224,0.0637 0.0877,0.11581 -0.8768,0.11581 -0.96449,0 -1.35905,-0.0521 -0.87681,-0.11581 z m -3.59227,-1.16264 c -4.19463,-1.51108 -9.00793,-5.17059 -14.37491,-10.92914 -27.31359,-29.30636 -61.24033,-106.69576 -69.63335,-158.83878 -1.76931,-10.99216 -2.30507,-19.13331 -1.89553,-28.80398 0.83681,-19.76021 4.13017,-38.68118 10.13577,-58.23172 0.95122,-3.0966 1.72949,-5.84242 1.72949,-6.10183 0,-0.2594 -0.17761,-0.47166 -0.39469,-0.47166 -0.21707,0 -2.8576,2.10497 -5.86783,4.6777 -3.01023,2.57273 -6.62649,5.52972 -8.03612,6.57111 -8.05802,5.95303 -16.26875,10.07286 -21.66781,10.8721 -1.13277,0.1677 -2.21443,0.28319 -2.40369,0.25662 -0.87017,-0.12212 -1.24438,0.0777 -1.51598,0.80941 -0.16119,0.4343 -6.660037,22.82083 -14.441865,49.74783 L 72.634827,655.7178 66.27048,669.77621 c -3.500393,7.73215 -6.36435,14.33653 -6.36435,14.67646 0,0.33992 -0.349478,1.4435 -0.776619,2.45241 -1.671189,3.94735 -2.115337,8.67683 -1.089027,11.5964 0.309336,0.87996 0.98121,2.18388 1.493058,2.89758 0.789463,1.1008 0.837153,1.24497 0.314379,0.95036 -3.113002,-1.75422 -5.077781,-5.56193 -5.641128,-10.9324 -0.331305,-3.15836 0.07348,-7.53247 0.846247,-9.1447 0.295086,-0.61564 0.53652,-1.32457 0.53652,-1.57542 0,-0.25085 2.727438,-6.49062 6.060974,-13.86616 l 6.06097,-13.4101 14.454246,-49.96319 14.454246,-49.96319 1.024139,-1.005 c 0.771438,-0.75703 1.070422,-1.31599 1.21172,-2.26537 0.424553,-2.85259 3.278345,-8.10024 7.044315,-12.9533 4.47441,-5.76604 10.00253,-11.13772 19.90804,-19.34463 13.06499,-10.82464 19.47046,-13.74117 24.37063,-11.09637 0.8741,0.47181 1.73194,0.85946 1.90629,0.86144 0.17436,0.003 1.20201,-1.64385 2.28368,-3.65745 5.3447,-9.94954 11.77366,-19.11207 18.90676,-26.94593 1.4511,-1.59362 2.63836,-3.0025 2.63836,-3.13082 0,-0.12833 -0.57667,-0.89592 -1.28148,-1.70578 -0.70482,-0.80987 -1.65211,-1.97611 -2.1051,-2.59169 l -0.82363,-1.11923 -1.9262,0.33857 c -4.93114,0.86675 -9.80778,0.14007 -22.98333,-3.42489 -11.32995,-3.06558 -17.20692,-5.23157 -23.93554,-8.82157 -4.46812,-2.38391 -7.78917,-4.82636 -10.02087,-7.3698 -1.04012,-1.18542 -2.02447,-2.15531 -2.18745,-2.15531 -0.27378,0 -41.813537,41.60587 -47.911452,47.98772 l -2.697856,2.82346 -12.410137,4.76761 c -7.045418,2.70663 -12.925783,5.13004 -13.602978,5.60604 -0.656064,0.46113 -1.35278,0.83844 -1.548259,0.83844 -0.195478,0 -1.289669,-0.27279 -2.431537,-0.60622 -2.891689,-0.84438 -6.338643,-0.6824 -8.452778,0.39718 -1.754097,0.89574 -3.185138,2.38881 -4.190973,4.37264 l -0.727939,1.43572 0.167985,-1.41244 c 0.411839,-3.46279 2.755574,-6.63732 6.177143,-8.36676 2.04021,-1.03125 4.984528,-1.83658 6.745953,-1.84517 0.961872,-0.005 25.719343,-9.26151 27.069102,-10.1211 0.31492,-0.20057 11.484044,-11.35402 24.820274,-24.78542 13.336233,-13.4314 24.963552,-25.10897 25.838482,-25.95016 l 1.59079,-1.52942 1.64664,0.17912 c 1.3103,0.14254 1.94971,0.0563 3.13046,-0.42225 4.86763,-1.97274 13.80136,-2.00398 23.74113,-0.083 6.58792,1.2732 21.46314,5.63691 26.83367,7.87179 1.50595,0.62666 3.00213,1.13942 3.32485,1.13942 0.62061,0 0.60319,0.0454 1.15781,-3.01502 0.83321,-4.59762 3.39765,-11.85733 5.67103,-16.05418 0.59597,-1.1002 1.66981,-3.55896 2.3863,-5.46391 2.44858,-6.51 6.08294,-14.40039 9.08535,-19.72475 0.50146,-0.88927 0.91175,-1.88666 0.91175,-2.21642 0,-0.32976 -0.52989,-1.47579 -1.17754,-2.54674 -0.64764,-1.07095 -1.37918,-2.36713 -1.62564,-2.8804 -0.24645,-0.51327 -0.58202,-0.93322 -0.74571,-0.93322 -0.16368,0 -0.7813,0.46511 -1.37248,1.03357 -1.64889,1.58552 -2.98167,2.11141 -5.36951,2.11872 -5.45862,0.0167 -12.09306,-4.12801 -27.43164,-17.13722 -4.45875,-3.78162 -10.74057,-10.17242 -13.7042,-13.94194 -3.63541,-4.62397 -6.24752,-9.27382 -6.90014,-12.283 -0.30495,-1.40615 -0.61198,-1.80088 -5.21174,-6.70054 -10.24458,-10.91252 -19.23439,-20.82505 -23.27751,-25.66673 l -4.197483,-5.02654 -2.177807,0.1509 c -4.807965,0.33314 -7.705899,2.58099 -9.095737,7.05532 l -0.505163,1.62629 0.06944,-2.3034 c 0.05826,-1.93269 0.211601,-2.6107 0.95275,-4.2129 1.583013,-3.4221 5.171809,-6.14372 9.781066,-7.41762 3.022146,-0.83525 3.908837,-0.7628 5.010169,0.4094 0.504495,0.53696 0.917275,1.2162 0.917275,1.50943 0,0.8613 6.86784,8.81741 18.93204,21.932 l 11.26854,12.24965 2.38236,0.17998 c 5.8271,0.44023 13.64343,4.05713 22.65624,10.48386 4.58826,3.27173 13.41769,10.6563 19.04306,15.92682 1.31481,1.23188 2.5205,2.19368 2.67932,2.13733 0.18952,-0.0672 0.30366,-1.97181 0.33212,-5.54194 0.0467,-5.85307 0.50215,-9.08122 1.92215,-13.62312 0.87788,-2.80793 2.95684,-7.38217 4.4928,-9.88534 0.67121,-1.09387 1.16308,-2.14779 1.09305,-2.34204 -0.07,-0.19425 -1.06669,-0.9341 -2.21478,-1.64411 l -2.08744,-1.29093 -2.86972,0.15589 c -4.39122,0.23853 -7.04055,-0.47633 -10.65134,-2.87402 -3.18063,-2.11206 -6.09518,-6.26424 -7.20155,-10.25963 -0.67602,-2.44128 -0.80753,-6.08338 -0.31623,-8.75792 1.0182,-5.54296 4.51245,-10.38656 9.20894,-12.76512 1.33042,-0.67379 2.59604,-1.31838 2.81249,-1.43242 0.21645,-0.11404 0.88417,-1.08441 1.48382,-2.15639 1.53567,-2.74527 3.7185,-5.42842 6.25936,-7.69407 l 2.18097,-1.94474 0.18739,-1.76282 c 0.1403,-1.31992 0.0981,-1.82305 -0.16782,-2.00255 -0.19536,-0.13185 -2.44941,-0.2417 -5.009,-0.24412 l -4.65381,-0.004 v -1.005 -1.00501 h 5.34415 c 5.87149,0 5.66462,0.0574 6.89883,-1.91427 1.06225,-1.69697 3.75046,-4.36207 6.01147,-5.95979 l 1.93242,-1.36553 0.31239,-1.91275 c 1.37563,-8.42287 10.62295,-14.92073 22.95228,-16.12799 6.09399,-0.59671 12.24286,0.3166 17.76938,2.63932 6.23358,2.61989 11.15522,7.78069 12.14989,12.7403 0.15662,0.78096 0.34216,1.69072 0.4123,2.0217 0.0735,0.34696 0.80904,1.04949 1.73698,1.6591 2.52714,1.66021 4.71163,3.74784 6.35795,6.07603 l 1.51598,2.14388 h 5.24569 5.24568 v 0.99823 0.99822 l -4.6538,0.0786 -4.6538,0.0786 0.0398,2.13566 c 0.0373,2.00387 0.0873,2.17044 0.80936,2.69928 1.78683,1.30862 5.73633,5.92788 7.10173,8.30603 1.38305,2.40893 1.46784,2.49469 3.1928,3.22967 5.09586,2.17128 9.19078,7.18967 10.42381,12.77456 0.52735,2.38859 0.52724,6.22783 -2.7e-4,8.60999 -0.75818,3.42395 -2.10557,5.91439 -4.67633,8.64347 -3.90989,4.15072 -7.66932,5.65323 -13.39413,5.35314 -2.69952,-0.14151 -3.09932,-0.0988 -3.79657,0.40519 -0.42862,0.30985 -1.35598,0.88198 -2.0608,1.27142 -0.82148,0.45389 -1.28148,0.89719 -1.28148,1.23494 0,0.28978 0.55477,1.41823 1.23282,2.50767 2.44688,3.93148 4.46906,9.12875 5.54974,14.26356 0.42719,2.02981 0.5849,3.99002 0.67487,8.38841 0.0646,3.15679 0.22909,5.85849 0.36559,6.00377 0.15104,0.16076 0.95156,-0.39988 2.04534,-1.43246 4.74041,-4.47517 12.86512,-11.40343 17.62951,-15.0334 9.67071,-7.36806 20.14737,-12.25823 25.77645,-12.03161 l 1.12708,0.0454 6.45829,-7.0079 c 18.82278,-20.42454 23.66492,-25.97365 23.97479,-27.4753 0.4411,-2.13757 2.35129,-2.75243 5.72777,-1.84365 3.38923,0.91221 5.61086,2.19423 7.8002,4.50117 2.13465,2.24932 2.87047,3.8488 3.20648,6.97017 0.24289,2.25619 -0.14088,2.33462 -0.7848,0.16038 -0.37001,-1.24929 -0.84284,-2.01617 -2.00721,-3.25546 -1.90072,-2.02302 -3.84517,-2.8877 -6.91493,-3.07502 l -2.15828,-0.13171 -4.6452,5.55574 c -2.55487,3.05566 -9.80481,11.112 -16.11097,17.90297 -11.3185,12.18861 -11.47101,12.36834 -11.87183,13.99103 -1.57981,6.39536 -9.37241,16.47032 -19.44062,25.13452 -15.35004,13.20948 -23.09042,18.16283 -28.37505,18.15823 -2.53482,-0.002 -3.52586,-0.35844 -5.18138,-1.8625 -1.55937,-1.41669 -1.70987,-1.47972 -2.15875,-0.90406 -0.67516,0.86586 -3.26884,5.65144 -3.26884,6.0313 0,0.22396 0.67673,1.61651 1.50383,3.09456 2.1069,3.76505 6.2108,12.60744 7.91069,17.0446 0.78655,2.05308 2.50429,6.05875 3.8172,8.90149 2.63135,5.69738 3.96082,9.59652 4.87944,14.31052 l 0.60641,3.11184 0.82562,-0.14001 c 0.4541,-0.077 2.57456,-0.80243 4.71216,-1.612 5.89427,-2.23241 17.49376,-5.69325 23.09202,-6.88981 11.40476,-2.43763 21.52069,-2.46255 26.55117,-0.0654 0.90675,0.43209 1.31067,0.47801 2.13791,0.24298 0.56097,-0.15936 1.34165,-0.20381 1.73486,-0.0988 0.44059,0.1177 10.51333,10.05693 26.24952,25.90155 14.04404,14.14082 25.79466,25.88938 26.11246,26.10789 0.31781,0.21849 6.2838,2.58425 13.25775,5.25722 10.29826,3.9471 13.04616,4.8949 14.62972,5.04611 2.48411,0.23721 5.6233,1.29592 7.36037,2.48231 2.58989,1.76887 4.454,4.68173 4.73849,7.40432 l 0.14123,1.35185 -0.63243,-1.2347 c -2.31112,-4.51187 -6.95057,-6.23127 -12.60481,-4.6713 -2.40161,0.66259 -3.31389,0.56269 -4.39802,-0.48154 -0.28201,-0.27167 -6.096,-2.63797 -12.91995,-5.25845 l -12.4072,-4.76454 -25.08941,-25.24712 c -13.79918,-13.88589 -25.25231,-25.3442 -25.45138,-25.4629 -0.54138,-0.32281 -1.01227,-0.0287 -1.71951,1.07389 -1.47573,2.30057 -6.18335,5.81793 -11.50363,8.59505 -6.28147,3.27885 -10.67334,4.9166 -21.2826,7.93645 -12.79224,3.64122 -19.18586,4.70771 -24.21647,4.03949 l -2.74859,-0.3651 -0.69645,0.95045 c -0.38304,0.52275 -1.2124,1.57002 -1.84303,2.32731 -0.63062,0.75731 -1.14659,1.46047 -1.14659,1.56258 0,0.10214 1.67373,2.00375 3.7194,4.22582 7.19022,7.81023 13.28392,16.41449 18.52011,26.15025 0.84939,1.5793 1.6496,2.98725 1.77826,3.12882 0.13692,0.1506 0.79223,0.003 1.57992,-0.35894 2.83016,-1.29585 6.86931,-0.57512 11.36294,2.02753 5.95222,3.44746 19.20088,14.25591 26.07836,21.27508 7.33537,7.48643 12.21104,14.7441 13.46724,20.04655 0.32099,1.35495 0.63964,2.00872 1.21962,2.50241 0.43182,0.36757 0.90095,0.89868 1.04256,1.18028 0.14159,0.2816 6.64069,22.59352 14.44243,49.58206 7.80177,26.98854 14.32481,49.4577 14.49569,49.93149 0.17086,0.47379 2.94749,6.70242 6.17029,13.84144 3.22278,7.13899 5.94713,13.40403 6.05407,13.9223 0.10695,0.51827 0.35377,1.20265 0.54851,1.52081 0.48674,0.79533 0.92153,3.87527 0.91268,6.46497 -0.0213,6.20971 -2.06882,11.19153 -5.42431,13.19775 l -1.174,0.70193 1.00954,-1.25595 c 2.72918,-3.39531 2.8975,-9.09519 0.44026,-14.90881 -0.42645,-1.00891 -0.77533,-2.11399 -0.77533,-2.45575 0,-0.34176 -0.68291,-2.10058 -1.5176,-3.90853 -0.83466,-1.80792 -3.09501,-6.77595 -5.02298,-11.04005 -1.92794,-4.2641 -4.08992,-9.04506 -4.80434,-10.62436 -1.03649,-2.29124 -4.19452,-12.88002 -15.62906,-52.40386 -7.88157,-27.24283 -14.43247,-49.64139 -14.5576,-49.77457 -0.12515,-0.1332 -1.13251,-0.29498 -2.2386,-0.35953 -7.26212,-0.42388 -18.09268,-6.43733 -30.15108,-16.7408 -4.3395,-3.70796 -5.66549,-4.58102 -5.66549,-3.7303 0,0.17582 0.53846,2.14635 1.1966,4.37896 7.59579,25.76748 10.66344,51.41766 8.64151,72.25622 -5.08347,52.39166 -42.54154,143.16065 -72.16968,174.88271 -8.85271,9.47833 -15.5558,12.52037 -22.26383,10.10388 z M 159.5919,291.28326 c -1.33544,-0.72101 -2.47476,-1.3564 -2.53183,-1.41199 -0.17837,-0.17374 0.56099,-1.84234 0.81635,-1.84234 0.13334,0 1.33022,0.58146 2.65973,1.29215 2.38387,1.27429 2.45466,1.29215 5.12054,1.29215 h 2.70324 v 1.00501 1.005 l -3.16998,-0.0145 -3.16998,-0.0145 -2.42807,-1.31091 z m 111.28656,0.33498 v -1.00501 h 2.80685 c 2.8058,0 2.80771,-5.8e-4 5.10842,-1.29215 1.26586,-0.71069 2.41611,-1.29215 2.55613,-1.29215 0.26383,0 1.01183,1.66361 0.82846,1.84249 -0.0571,0.0557 -1.22431,0.69759 -2.59388,1.42651 l -2.49012,1.32531 h -3.10793 -3.10793 z M 147.72134,284.8228 c -2.67088,-1.43073 -4.90825,-2.65304 -4.97194,-2.71623 -0.20376,-0.20217 0.77002,-2.1177 1.07655,-2.1177 0.25423,0 9.90578,5.29641 10.17636,5.5844 0.20133,0.21429 -0.77613,1.88082 -1.09453,1.86612 -0.18167,-0.008 -2.51557,-1.18585 -5.18644,-2.61659 z m 137.99174,1.7612 c -0.18634,-0.47886 -0.287,-0.92582 -0.22363,-0.99325 0.24988,-0.26596 9.91333,-5.60188 10.1451,-5.60188 0.27003,0 0.87354,1.25172 0.87354,1.81177 0,0.31382 -9.65371,5.654 -10.22102,5.654 -0.12933,0 -0.38762,-0.39179 -0.57399,-0.87064 z m -151.8857,-9.50549 c -2.59669,-1.43728 -4.82983,-2.72 -4.96254,-2.85048 -0.25518,-0.25091 0.29735,-1.99207 0.63216,-1.99207 0.19395,0 10.01966,5.38535 10.22557,5.60451 0.20748,0.22083 -0.56089,1.86132 -0.86944,1.85627 -0.16748,-0.003 -2.42906,-1.18094 -5.02575,-2.61823 z m 165.91455,1.75258 c -0.18634,-0.47886 -0.28811,-0.92463 -0.22611,-0.99062 0.2059,-0.21916 10.03163,-5.60451 10.22558,-5.60451 0.33494,0 0.88729,1.74116 0.63216,1.99265 -0.38582,0.38029 -9.70222,5.47312 -10.01207,5.47312 -0.1544,0 -0.43319,-0.39179 -0.61956,-0.87064 z m -180.07658,-9.77088 c -2.66993,-1.56382 -4.89319,-2.96712 -4.94058,-3.11844 -0.10789,-0.34448 0.73715,-1.74586 1.05277,-1.74586 0.2419,0 9.36579,5.38067 9.79288,5.7752 0.3104,0.28674 -0.33789,1.98542 -0.74614,1.95506 -0.16748,-0.0125 -2.48899,-1.30214 -5.15893,-2.86596 z m 194.22789,1.99418 c -0.23901,-0.49194 -0.33319,-0.98837 -0.20928,-1.10318 0.37921,-0.35137 9.82214,-5.7553 10.05691,-5.7553 0.35266,0 0.93095,1.72883 0.66154,1.97771 -0.45311,0.41855 -9.55861,5.7752 -9.81699,5.7752 -0.14169,0 -0.45318,-0.4025 -0.69218,-0.89443 z M 105.63479,261.02581 c -2.67088,-1.57546 -4.89414,-2.98479 -4.94059,-3.13184 -0.10911,-0.34548 0.74545,-1.73811 1.06656,-1.73811 0.53816,0 9.94211,5.62238 9.94312,5.94474 0.002,0.60348 -0.61374,1.80852 -0.91903,1.79892 -0.16166,-0.005 -2.47919,-1.29826 -5.15006,-2.87371 z m 222.29018,1.88928 c -0.27653,-0.54652 -0.44738,-1.04788 -0.37969,-1.11415 0.29096,-0.28487 9.95473,-5.64508 10.17736,-5.64508 0.24,0 0.872,1.2304 0.872,1.69767 0,0.2009 -9.71438,6.05523 -10.04773,6.05523 -0.0655,0 -0.34541,-0.44715 -0.62194,-0.99367 z M 91.607655,252.9801 c -2.669933,-1.56382 -4.893196,-2.96712 -4.940586,-3.11843 -0.107974,-0.34477 0.737275,-1.74587 1.053237,-1.74587 0.56396,0 9.955806,5.58229 9.955806,5.91749 0,0.634 -0.610422,1.83664 -0.920109,1.81277 -0.161658,-0.0125 -2.478415,-1.30213 -5.148348,-2.86596 z m 250.346165,1.89494 c -0.27653,-0.54652 -0.44226,-1.05809 -0.36828,-1.13682 0.27014,-0.2875 9.92482,-5.62242 10.17499,-5.62242 0.37991,0 0.98593,1.71319 0.69958,1.97771 -0.41463,0.38302 -9.54736,5.7752 -9.78143,5.7752 -0.12216,0 -0.44833,-0.44715 -0.72486,-0.99367 z M 77.587648,244.78987 c -2.665069,-1.50122 -4.901101,-2.78857 -4.968957,-2.8608 -0.180419,-0.19203 0.580004,-1.61405 0.942221,-1.76198 0.25069,-0.10239 9.561714,4.99745 10.02568,5.49127 0.223264,0.23762 -0.523225,1.88392 -0.848864,1.87208 -0.167475,-0.006 -2.485011,-1.23935 -5.15008,-2.74057 z m 278.395192,1.86352 c -0.23731,-0.48846 -0.38704,-0.93542 -0.33273,-0.99324 0.24585,-0.26167 9.91003,-5.5844 10.13927,-5.5844 0.14185,0 0.41345,0.39958 0.60351,0.88795 0.28848,0.74131 0.28276,0.93086 -0.0347,1.14776 -1.07785,0.73634 -9.43786,5.43005 -9.67154,5.43005 -0.14976,0 -0.46646,-0.39965 -0.70379,-0.88812 z M 65.632321,237.97301 c -2.56363,-1.38631 -2.893254,-1.66445 -4.384016,-3.69932 -0.886578,-1.21016 -1.611961,-2.28498 -1.611961,-2.38848 0,-0.27229 1.16546,-1.26625 1.483821,-1.26547 0.148382,2.8e-4 0.937505,0.90461 1.753606,2.00943 1.300993,1.76128 1.807925,2.19038 4.11423,3.48259 1.446726,0.81059 2.63041,1.57577 2.63041,1.70038 0,0.51118 -0.646763,1.68829 -0.920109,1.6746 -0.161658,-0.008 -1.54135,-0.68928 -3.065981,-1.51373 z m 304.379369,0.64033 c -0.23731,-0.48846 -0.39219,-0.92588 -0.34414,-0.97203 0.048,-0.0462 1.30136,-0.73131 2.78518,-1.52258 2.45886,-1.31121 2.81298,-1.60623 3.99734,-3.33003 0.71471,-1.04025 1.41168,-1.96518 1.54883,-2.0554 0.27084,-0.17815 1.58087,0.72683 1.59468,1.10162 0.005,0.12646 -0.71787,1.22727 -1.60563,2.44623 -1.46237,2.008 -1.86454,2.35748 -4.27899,3.71831 -1.46572,0.8261 -2.80013,1.502 -2.96535,1.502 -0.16524,0 -0.49459,-0.39965 -0.73192,-0.88812 z M 53.431275,223.37195 c -1.854775,-2.53506 -3.413497,-4.72621 -3.463823,-4.86922 -0.104881,-0.29805 1.034744,-1.38334 1.440432,-1.37175 0.245828,0.007 6.892797,8.88046 7.105928,9.48613 0.104882,0.29805 -1.034744,1.38333 -1.440431,1.37175 -0.148382,-0.004 -1.78733,-2.08185 -3.642106,-4.61691 z m 327.947665,3.97142 -0.78605,-0.66945 3.6188,-4.76743 c 1.99037,-2.62209 3.74023,-4.77098 3.88861,-4.77533 0.40554,-0.0118 1.54533,1.07344 1.44044,1.37157 -0.20982,0.59625 -6.85863,9.47974 -7.10594,9.49425 -0.14838,0.009 -0.6235,-0.28541 -1.05586,-0.65361 z M 43.449209,210.1633 c -1.854776,-2.53506 -3.413498,-4.72622 -3.463823,-4.86923 -0.104882,-0.29805 1.034743,-1.38334 1.440431,-1.37175 0.245828,0.007 6.892798,8.88046 7.105928,9.48613 0.104882,0.29805 -1.034743,1.38333 -1.440431,1.37175 -0.148382,-0.004 -1.787329,-2.08185 -3.642105,-4.6169 z m 347.797001,4.06489 c -0.34708,-0.30784 -0.58988,-0.67672 -0.53957,-0.81974 0.21313,-0.60567 6.86011,-9.47911 7.10594,-9.48613 0.40568,-0.0116 1.5453,1.0737 1.44044,1.37175 -0.21313,0.60567 -6.86011,9.47911 -7.10594,9.48613 -0.14838,0.004 -0.55376,-0.24417 -0.90087,-0.55201 z M 33.736927,196.71359 c -1.854776,-2.51738 -3.407405,-4.75098 -3.450285,-4.96356 -0.07064,-0.3502 0.97193,-1.06318 1.554667,-1.06318 0.240346,0 7.021545,9.03347 7.021545,9.35364 0,0.26136 -1.174782,1.25171 -1.483821,1.25088 -0.148382,-2.9e-4 -1.78733,-2.06041 -3.642106,-4.57778 z m 367.245633,4.03953 c -0.33386,-0.29643 -0.60702,-0.61712 -0.60702,-0.71263 0,-0.32017 6.7812,-9.35364 7.02155,-9.35364 0.58274,0 1.6253,0.71298 1.55467,1.06318 -0.11639,0.57692 -6.77928,9.54049 -7.0924,9.54134 -0.14838,2.8e-4 -0.54294,-0.24181 -0.8768,-0.53825 z M 25.550308,182.06743 c -1.432642,-2.84552 -2.604804,-5.28575 -2.604804,-5.42272 0,-0.27505 1.195538,-1.17653 1.560306,-1.17653 0.235951,0 5.454119,10.37749 5.454119,10.84673 0,0.25234 -1.156509,0.9262 -1.589566,0.9262 -0.118388,0 -1.387413,-2.32815 -2.820055,-5.17368 z m 384.604962,4.82322 c -0.33386,-0.17137 -0.60702,-0.42242 -0.60702,-0.55787 0,-0.23799 4.79868,-10.58686 5.03199,-10.85201 0.16451,-0.18698 1.98244,0.89154 1.98244,1.17613 0,0.53885 -5.23352,10.58264 -5.505,10.56478 -0.16247,-0.0107 -0.56855,-0.15965 -0.90241,-0.33103 z M 18.003386,167.01608 c -1.436533,-2.91143 -2.611879,-5.41039 -2.611879,-5.55324 0,-0.28461 1.179148,-0.92619 1.70224,-0.92619 0.291392,0 5.312186,10.27129 5.312186,10.86741 0,0.23445 -1.172767,0.90552 -1.582492,0.90552 -0.114497,0 -1.383521,-2.38207 -2.820055,-5.2935 z m 399.436094,4.94305 c -0.33386,-0.17138 -0.60702,-0.43106 -0.60702,-0.57708 0,-0.24818 5.01194,-10.53265 5.26322,-10.8001 0.18848,-0.20061 1.75121,0.57543 1.75121,0.86964 0,0.56087 -5.2363,10.85715 -5.51207,10.83856 -0.15858,-0.0107 -0.56148,-0.15965 -0.89534,-0.33102 z M 13.140399,157.1627 c -0.33047,-0.57088 -4.2237459,-10.8228 -4.2237459,-11.12213 0,-0.35272 1.1201949,-1.01451 1.6988539,-1.00365 0.302459,0.006 4.506215,10.38684 4.506215,11.12808 0,0.18528 -0.358182,0.53402 -0.795959,0.77496 -0.908745,0.50017 -1.01338,0.51983 -1.185364,0.22274 z m 411.724741,-0.23306 -0.73538,-0.42406 0.50973,-1.35842 c 0.28034,-0.74713 1.21827,-3.32717 2.08428,-5.73344 0.86602,-2.40626 1.72062,-4.37679 1.89911,-4.37895 0.58395,-0.007 1.69886,0.65465 1.69886,1.00831 0,0.60314 -4.1871,11.14601 -4.46004,11.23012 -0.14366,0.0443 -0.59212,-0.11033 -0.99656,-0.34356 z M 5.0689761,136.05373 c -1.1517388,-3.03804 -2.092616,-5.67496 -2.0908383,-5.85983 0.00292,-0.30312 1.557357,-0.86292 1.7338901,-0.62443 0.2146282,0.28997 4.2116711,10.77189 4.2084437,11.03631 -0.0035,0.28721 -1.1240946,0.98444 -1.5677799,0.97548 -0.1043048,-0.002 -1.1319766,-2.4895 -2.2837156,-5.52753 z m 425.8597839,5.1809 c -0.33386,-0.17137 -0.60815,-0.45336 -0.60953,-0.62664 -0.003,-0.17328 0.9395,-2.73657 2.09084,-5.69621 2.21877,-5.70354 2.43066,-5.98883 3.70928,-4.99373 0.48198,0.37511 0.40738,0.65006 -1.6346,6.02621 -2.20957,5.81736 -2.29161,5.9394 -3.55599,5.29037 z"
           id="path917" />
      </g>
    </g>
  </g>
</svg>
