<?xml version="1.0" encoding="UTF-8"?><svg id="a" xmlns="http://www.w3.org/2000/svg" viewBox="0 0 698.37 171"><defs><style>.b{fill:#262f31;}</style></defs><g><path class="b" d="M96.79,112.49c-19.01,0-34.48-15.47-34.48-34.48s15.47-34.48,34.48-34.48,34.48,15.47,34.48,34.48h-8.7c0-14.21-11.56-25.77-25.77-25.77s-25.77,11.56-25.77,25.77,11.56,25.78,25.77,25.78v8.7Z"/><polygon class="b" points="131.27 112.49 107.61 112.49 107.61 103.87 122.65 103.87 122.65 88.83 131.27 88.83 131.27 112.49"/><circle class="b" cx="106.51" cy="78.01" r="5.41"/></g><g><path class="b" d="M164.77,113.72c-2.76,0-5.05-.46-6.84-1.38-1.8-.92-3.14-2.14-4.01-3.65-.88-1.51-1.32-3.17-1.32-4.97,0-3.16,1.23-5.66,3.69-7.5,2.46-1.84,5.97-2.76,10.53-2.76h8.56v-.59c0-2.54-.69-4.45-2.07-5.73-1.38-1.27-3.17-1.91-5.36-1.91-1.93,0-3.61,.47-5.04,1.42s-2.29,2.34-2.6,4.18h-6.98c.22-2.37,1.02-4.4,2.4-6.09,1.38-1.69,3.14-2.98,5.27-3.88,2.13-.9,4.46-1.35,7.01-1.35,4.56,0,8.09,1.2,10.6,3.59,2.5,2.39,3.75,5.65,3.75,9.77v20.07h-6.05l-.59-5.59c-.92,1.8-2.26,3.31-4.01,4.54-1.76,1.23-4.06,1.84-6.91,1.84Zm1.38-5.66c1.89,0,3.48-.45,4.77-1.35,1.29-.9,2.3-2.09,3.03-3.59,.72-1.49,1.17-3.14,1.35-4.94h-7.77c-2.76,0-4.73,.48-5.89,1.45-1.16,.97-1.74,2.17-1.74,3.62s.56,2.67,1.68,3.52c1.12,.86,2.64,1.28,4.57,1.28Z"/><path class="b" d="M190.04,112.93v-32.64h6.25l.59,6.19c1.14-2.15,2.73-3.85,4.77-5.1,2.04-1.25,4.51-1.88,7.4-1.88v7.31h-1.91c-1.93,0-3.65,.32-5.17,.95-1.51,.64-2.72,1.71-3.62,3.23-.9,1.51-1.35,3.61-1.35,6.29v15.66h-6.98Z"/><path class="b" d="M229.07,112.93c-3.2,0-5.75-.78-7.63-2.34-1.89-1.56-2.83-4.33-2.83-8.33v-16.12h-5.59v-5.86h5.59l.86-8.29h6.12v8.29h9.21v5.86h-9.21v16.12c0,1.8,.38,3.04,1.15,3.72,.77,.68,2.09,1.02,3.98,1.02h3.75v5.92h-5.4Z"/><path class="b" d="M253.82,113.72c-4.12,0-7.53-1.01-10.2-3.03-2.68-2.02-4.21-4.7-4.61-8.03h7.04c.35,1.49,1.18,2.78,2.5,3.85,1.32,1.08,3.05,1.61,5.2,1.61s3.64-.44,4.61-1.32c.96-.88,1.45-1.89,1.45-3.03,0-1.67-.67-2.8-2.01-3.39-1.34-.59-3.19-1.13-5.56-1.61-1.84-.39-3.68-.92-5.5-1.58-1.82-.66-3.33-1.59-4.54-2.8s-1.81-2.84-1.81-4.9c0-2.85,1.1-5.23,3.29-7.14,2.19-1.91,5.26-2.86,9.21-2.86,3.64,0,6.59,.88,8.85,2.63,2.26,1.76,3.59,4.24,3.98,7.44h-6.71c-.22-1.4-.87-2.5-1.94-3.29s-2.51-1.18-4.31-1.18-3.12,.36-4.08,1.09c-.97,.72-1.45,1.66-1.45,2.8s.67,2.04,2.01,2.7c1.34,.66,3.1,1.25,5.3,1.78,2.19,.48,4.22,1.04,6.09,1.68,1.86,.64,3.37,1.57,4.51,2.8,1.14,1.23,1.71,3.03,1.71,5.4,.04,2.98-1.11,5.46-3.46,7.44-2.35,1.97-5.54,2.96-9.58,2.96Z"/><path class="b" d="M287.94,113.72c-3.16,0-5.95-.75-8.36-2.24s-4.3-3.53-5.66-6.12c-1.36-2.59-2.04-5.53-2.04-8.82s.68-6.22,2.04-8.79c1.36-2.57,3.26-4.58,5.69-6.05,2.44-1.47,5.23-2.21,8.39-2.21,2.59,0,4.86,.51,6.81,1.51,1.95,1.01,3.48,2.43,4.57,4.28v-19.74h6.98v47.39h-6.25l-.72-5.07c-1.05,1.54-2.5,2.9-4.34,4.08s-4.21,1.78-7.11,1.78Zm1.25-6.06c2.98,0,5.43-1.03,7.34-3.09,1.91-2.06,2.86-4.72,2.86-7.96s-.95-5.96-2.86-8c-1.91-2.04-4.35-3.06-7.34-3.06s-5.44,1.02-7.37,3.06c-1.93,2.04-2.9,4.71-2.9,8,0,2.15,.44,4.06,1.32,5.73,.88,1.67,2.09,2.97,3.65,3.92,1.56,.94,3.32,1.42,5.3,1.42Z"/><path class="b" d="M325.29,113.72c-2.76,0-5.05-.46-6.84-1.38-1.8-.92-3.14-2.14-4.01-3.65-.88-1.51-1.32-3.17-1.32-4.97,0-3.16,1.23-5.66,3.69-7.5,2.46-1.84,5.97-2.76,10.53-2.76h8.56v-.59c0-2.54-.69-4.45-2.07-5.73-1.38-1.27-3.17-1.91-5.36-1.91-1.93,0-3.61,.47-5.04,1.42-1.43,.94-2.29,2.34-2.6,4.18h-6.98c.22-2.37,1.02-4.4,2.4-6.09,1.38-1.69,3.14-2.98,5.26-3.88,2.13-.9,4.46-1.35,7.01-1.35,4.56,0,8.09,1.2,10.6,3.59,2.5,2.39,3.75,5.65,3.75,9.77v20.07h-6.05l-.59-5.59c-.92,1.8-2.26,3.31-4.01,4.54-1.75,1.23-4.06,1.84-6.91,1.84Zm1.38-5.66c1.89,0,3.48-.45,4.77-1.35,1.29-.9,2.3-2.09,3.03-3.59,.72-1.49,1.17-3.14,1.35-4.94h-7.77c-2.76,0-4.73,.48-5.89,1.45-1.16,.97-1.74,2.17-1.74,3.62s.56,2.67,1.68,3.52,2.64,1.28,4.57,1.28Z"/><path class="b" d="M363.35,112.93c-3.2,0-5.75-.78-7.63-2.34-1.89-1.56-2.83-4.33-2.83-8.33v-16.12h-5.59v-5.86h5.59l.86-8.29h6.12v8.29h9.21v5.86h-9.21v16.12c0,1.8,.38,3.04,1.15,3.72,.77,.68,2.09,1.02,3.98,1.02h3.75v5.92h-5.4Z"/><path class="b" d="M386.1,113.72c-2.76,0-5.05-.46-6.84-1.38-1.8-.92-3.14-2.14-4.01-3.65-.88-1.51-1.32-3.17-1.32-4.97,0-3.16,1.23-5.66,3.69-7.5,2.46-1.84,5.97-2.76,10.53-2.76h8.56v-.59c0-2.54-.69-4.45-2.07-5.73-1.38-1.27-3.17-1.91-5.36-1.91-1.93,0-3.61,.47-5.04,1.42-1.43,.94-2.29,2.34-2.6,4.18h-6.98c.22-2.37,1.02-4.4,2.4-6.09,1.38-1.69,3.14-2.98,5.26-3.88,2.13-.9,4.46-1.35,7.01-1.35,4.56,0,8.09,1.2,10.6,3.59,2.5,2.39,3.75,5.65,3.75,9.77v20.07h-6.05l-.59-5.59c-.92,1.8-2.26,3.31-4.01,4.54-1.75,1.23-4.06,1.84-6.91,1.84Zm1.38-5.66c1.89,0,3.48-.45,4.77-1.35,1.29-.9,2.3-2.09,3.03-3.59,.72-1.49,1.17-3.14,1.35-4.94h-7.77c-2.76,0-4.73,.48-5.89,1.45-1.16,.97-1.74,2.17-1.74,3.62s.56,2.67,1.68,3.52,2.64,1.28,4.57,1.28Z"/><path class="b" d="M429.73,113.72c-2.54,0-4.79-.5-6.75-1.51s-3.5-2.44-4.64-4.28l-.72,5h-6.25v-47.39h6.98v19.81c1.05-1.54,2.5-2.9,4.34-4.08s4.21-1.78,7.11-1.78c3.16,0,5.94,.75,8.36,2.24,2.41,1.49,4.31,3.53,5.69,6.12,1.38,2.59,2.07,5.53,2.07,8.82s-.69,6.22-2.07,8.79c-1.38,2.57-3.28,4.58-5.69,6.05-2.41,1.47-5.22,2.21-8.42,2.21Zm-1.18-6.06c2.98,0,5.44-1.02,7.37-3.06,1.93-2.04,2.9-4.71,2.9-8,0-2.15-.44-4.06-1.32-5.73-.88-1.67-2.08-2.97-3.62-3.92-1.54-.94-3.31-1.42-5.33-1.42-2.98,0-5.43,1.03-7.34,3.09-1.91,2.06-2.86,4.72-2.86,7.96s.95,5.96,2.86,8c1.91,2.04,4.35,3.06,7.34,3.06Z"/><path class="b" d="M463.17,113.72c-2.76,0-5.05-.46-6.84-1.38-1.8-.92-3.14-2.14-4.01-3.65-.88-1.51-1.32-3.17-1.32-4.97,0-3.16,1.23-5.66,3.69-7.5,2.46-1.84,5.97-2.76,10.53-2.76h8.56v-.59c0-2.54-.69-4.45-2.07-5.73-1.38-1.27-3.17-1.91-5.36-1.91-1.93,0-3.61,.47-5.04,1.42-1.43,.94-2.29,2.34-2.6,4.18h-6.98c.22-2.37,1.02-4.4,2.4-6.09,1.38-1.69,3.14-2.98,5.26-3.88,2.13-.9,4.46-1.35,7.01-1.35,4.56,0,8.09,1.2,10.6,3.59,2.5,2.39,3.75,5.65,3.75,9.77v20.07h-6.05l-.59-5.59c-.92,1.8-2.26,3.31-4.01,4.54-1.75,1.23-4.06,1.84-6.91,1.84Zm1.38-5.66c1.89,0,3.48-.45,4.77-1.35,1.29-.9,2.3-2.09,3.03-3.59,.72-1.49,1.17-3.14,1.35-4.94h-7.77c-2.76,0-4.73,.48-5.89,1.45-1.16,.97-1.74,2.17-1.74,3.62s.56,2.67,1.68,3.52,2.64,1.28,4.57,1.28Z"/><path class="b" d="M488.44,112.93v-32.64h6.19l.53,5.73c1.01-2.02,2.49-3.61,4.44-4.77,1.95-1.16,4.2-1.74,6.75-1.74,3.95,0,7.05,1.23,9.31,3.69,2.26,2.46,3.39,6.12,3.39,10.99v18.76h-6.91v-18.03c0-6.32-2.59-9.48-7.77-9.48-2.59,0-4.73,.92-6.42,2.76-1.69,1.84-2.53,4.48-2.53,7.9v16.85h-6.98Z"/><path class="b" d="M526.74,112.93v-47.39h6.98v28.23l12.5-13.49h8.36l-13.89,14.81,15.93,17.84h-8.82l-14.08-16.72v16.72h-6.98Z"/><path class="b" d="M573.57,113.72c-3.2,0-6.04-.71-8.52-2.14-2.48-1.42-4.42-3.41-5.82-5.96-1.41-2.54-2.11-5.51-2.11-8.88s.69-6.43,2.07-9.02c1.38-2.59,3.31-4.61,5.79-6.06,2.48-1.45,5.36-2.17,8.65-2.17s5.99,.71,8.36,2.14c2.37,1.43,4.21,3.32,5.53,5.69,1.32,2.37,1.97,4.98,1.97,7.83,0,.44-.01,.91-.03,1.42-.02,.5-.06,1.06-.1,1.68h-25.4c.22,3.16,1.26,5.56,3.13,7.21,1.86,1.65,4.02,2.47,6.48,2.47,1.97,0,3.63-.45,4.97-1.35,1.34-.9,2.34-2.12,3-3.65h6.98c-.88,3.07-2.62,5.64-5.23,7.7-2.61,2.06-5.85,3.09-9.71,3.09Zm0-28.5c-2.33,0-4.39,.69-6.19,2.07-1.8,1.38-2.9,3.46-3.29,6.22h18.43c-.13-2.54-1.03-4.56-2.7-6.06-1.67-1.49-3.75-2.24-6.25-2.24Z"/><path class="b" d="M595.91,112.93v-32.64h6.19l.53,5.73c1.01-2.02,2.49-3.61,4.44-4.77,1.95-1.16,4.2-1.74,6.75-1.74,3.95,0,7.05,1.23,9.31,3.69,2.26,2.46,3.39,6.12,3.39,10.99v18.76h-6.91v-18.03c0-6.32-2.59-9.48-7.77-9.48-2.59,0-4.73,.92-6.42,2.76-1.69,1.84-2.53,4.48-2.53,7.9v16.85h-6.98Z"/></g></svg>